<svg xmlns="http://www.w3.org/2000/svg" xmlns:xlink="http://www.w3.org/1999/xlink" version="1.1" width="2930" height="1700" style="width: 2930px; height: 1700px; background: #ffffff" viewBox="0 0 2930 1700"><style id="v-3" type="text/css">        .joint-element .scalable * {            vector-effect: non-scaling-stroke;        }    </style><defs joint-selector="defs"><marker id="v-245968449" orient="auto" overflow="visible" markerUnits="userSpaceOnUse"><path id="v-101" stroke="#737266" fill="#737266" transform="rotate(180)" d="M 20 -10 0 0 20 10 Z"></path></marker></defs><g joint-selector="layers"  transform="matrix(1,0,0,1,0,0)"><g  style="pointer-events: none;"></g><g ></g><g  style="user-select: none;"><!--z-index:0--><!--z-index:1--><!--z-index:2--><!--z-index:3--><!--z-index:4--><!--z-index:5--><!--z-index:6--><!--z-index:7--><!--z-index:8--><!--z-index:9--><!--z-index:10--><!--z-index:11--><!--z-index:12--><!--z-index:13--><!--z-index:14--><!--z-index:15--><g   id="j_19"  transform="translate(20,1656)"><g id="v-178"><text  id="v-179" font-size="24px" xml:space="preserve" y="0.8em" font-weight="normal" text-anchor="start" fill="#444444" pointer-events="none" display="block" font-family="Tahoma, Verdana, Helvetica, Arial"><tspan dy="0" >Wednesday, July 1, 2026 at 8:24 PM Coordinated Universal Time</tspan></text></g></g><!--z-index:16--><g   id="j_18"  transform="translate(20,1622)"><g id="v-176"><text  id="v-177" font-size="24px" xml:space="preserve" y="0.8em" font-weight="normal" text-anchor="start" fill="#444444" pointer-events="none" display="block" font-family="Tahoma, Verdana, Helvetica, Arial"><tspan dy="0" >Shows the Resource Portal and its relationships with users, the Identity Provider, and the Platform Infrastructure (Rancher + downstream Kubernetes clusters).</tspan></text></g></g><!--z-index:17--><g   id="j_17"  transform="translate(20,1576)"><g id="v-174"><text  id="v-175" font-size="36px" xml:space="preserve" y="0.8em" font-weight="normal" text-anchor="start" fill="#444444" pointer-events="none" display="block" font-family="Tahoma, Verdana, Helvetica, Arial"><tspan dy="0" >Resource Portal — System Context</tspan></text></g></g><!--z-index:18--><g   id="j_20"  transform="translate(199,142)" style=""><g  id="v-183" style="opacity: 1;"><rect  x="0" y="160" width="400" height="240" rx="70" id="v-185" stroke-width="2" pointer-events="visiblePainted" fill="#e1f5ee" stroke="#0f6e56" stroke-dasharray="" style="fill: rgb(225, 245, 238); stroke: rgb(15, 110, 86);"></rect><circle  cx="200" cy="88.88888888888889" r="88.88888888888889" id="v-184" stroke-width="2" pointer-events="visiblePainted" fill="#e1f5ee" stroke="#0f6e56" stroke-dasharray="" style="fill: rgb(225, 245, 238); stroke: rgb(15, 110, 86);"></circle><line  x1="80" y1="266.6666666666667" x2="80" y2="400" id="v-191" stroke="#0f6e56" stroke-width="1" stroke-dasharray="" style="stroke: rgb(15, 110, 86);"></line><line  x1="320" y1="266.6666666666667" x2="320" y2="400" id="v-192" stroke="#0f6e56" stroke-width="1" stroke-dasharray="" style="stroke: rgb(15, 110, 86);"></line><text  id="v-186" font-size="33.599999999999994px" xml:space="preserve" y="202.5" font-weight="bold" text-anchor="middle" pointer-events="visible" font-family="Tahoma, Verdana, Helvetica, Arial" fill="#085041" dominant-baseline="hanging" transform="matrix(1,0,0,1,200,0)" style="fill: rgb(8, 80, 65);"><tspan dy="0" >End User</tspan></text><text  id="v-187" font-size="16.799999999999997px" xml:space="preserve" y="244.1" text-anchor="middle" font-family="Tahoma, Verdana, Helvetica, Arial" fill="#085041" dominant-baseline="hanging" transform="matrix(1,0,0,1,200,0)" style="display: block; fill: rgb(8, 80, 65);"><tspan dy="0" >[Person]</tspan></text><text  id="v-188" font-size="24px" xml:space="preserve" y="275.9" text-anchor="middle" font-family="Tahoma, Verdana, Helvetica, Arial" fill="#085041" dominant-baseline="hanging" transform="matrix(1,0,0,1,200,0)" style="display: block; fill: rgb(8, 80, 65);"><tspan dy="0" >Requests and monitors</tspan><tspan dy="1.2em" x="0" >infrastructure resources via the</tspan><tspan dy="1.2em" x="0" >portal.</tspan></text><g  id="v-189" font-weight="normal" text-anchor="middle" color="#085041" transform="matrix(1,0,0,1,197.5,368)" display="none" style="fill: rgb(8, 80, 65);"><g ></g><g ></g><g ></g><g ></g></g><image  id="v-190"></image></g></g><!--z-index:19--><g   id="j_21"  transform="translate(199,592)" style=""><g  id="v-196" style="opacity: 1;"><rect  x="0" y="160" width="400" height="240" rx="70" id="v-198" stroke-width="2" pointer-events="visiblePainted" fill="#e1f5ee" stroke="#0f6e56" stroke-dasharray="" style="fill: rgb(225, 245, 238); stroke: rgb(15, 110, 86);"></rect><circle  cx="200" cy="88.88888888888889" r="88.88888888888889" id="v-197" stroke-width="2" pointer-events="visiblePainted" fill="#e1f5ee" stroke="#0f6e56" stroke-dasharray="" style="fill: rgb(225, 245, 238); stroke: rgb(15, 110, 86);"></circle><line  x1="80" y1="266.6666666666667" x2="80" y2="400" id="v-204" stroke="#0f6e56" stroke-width="1" stroke-dasharray="" style="stroke: rgb(15, 110, 86);"></line><line  x1="320" y1="266.6666666666667" x2="320" y2="400" id="v-205" stroke="#0f6e56" stroke-width="1" stroke-dasharray="" style="stroke: rgb(15, 110, 86);"></line><text  id="v-199" font-size="33.599999999999994px" xml:space="preserve" y="202.5" font-weight="bold" text-anchor="middle" pointer-events="visible" font-family="Tahoma, Verdana, Helvetica, Arial" fill="#085041" dominant-baseline="hanging" transform="matrix(1,0,0,1,200,0)" style="fill: rgb(8, 80, 65);"><tspan dy="0" >Approver</tspan></text><text  id="v-200" font-size="16.799999999999997px" xml:space="preserve" y="244.1" text-anchor="middle" font-family="Tahoma, Verdana, Helvetica, Arial" fill="#085041" dominant-baseline="hanging" transform="matrix(1,0,0,1,200,0)" style="display: block; fill: rgb(8, 80, 65);"><tspan dy="0" >[Person]</tspan></text><text  id="v-201" font-size="24px" xml:space="preserve" y="275.9" text-anchor="middle" font-family="Tahoma, Verdana, Helvetica, Arial" fill="#085041" dominant-baseline="hanging" transform="matrix(1,0,0,1,200,0)" style="display: block; fill: rgb(8, 80, 65);"><tspan dy="0" >Reviews and approves</tspan><tspan dy="1.2em" x="0" >resource requests before</tspan><tspan dy="1.2em" x="0" >provisioning.</tspan></text><g  id="v-202" font-weight="normal" text-anchor="middle" color="#085041" transform="matrix(1,0,0,1,197.5,368)" display="none" style="fill: rgb(8, 80, 65);"><g ></g><g ></g><g ></g><g ></g></g><image  id="v-203"></image></g></g><!--z-index:20--><g   id="j_22"  transform="translate(199,1042)" style=""><g  id="v-212" style="opacity: 1;"><rect  x="0" y="160" width="400" height="240" rx="70" id="v-214" stroke-width="2" pointer-events="visiblePainted" fill="#e1f5ee" stroke="#0f6e56" stroke-dasharray="" style="fill: rgb(225, 245, 238); stroke: rgb(15, 110, 86);"></rect><circle  cx="200" cy="88.88888888888889" r="88.88888888888889" id="v-213" stroke-width="2" pointer-events="visiblePainted" fill="#e1f5ee" stroke="#0f6e56" stroke-dasharray="" style="fill: rgb(225, 245, 238); stroke: rgb(15, 110, 86);"></circle><line  x1="80" y1="266.6666666666667" x2="80" y2="400" id="v-220" stroke="#0f6e56" stroke-width="1" stroke-dasharray="" style="stroke: rgb(15, 110, 86);"></line><line  x1="320" y1="266.6666666666667" x2="320" y2="400" id="v-221" stroke="#0f6e56" stroke-width="1" stroke-dasharray="" style="stroke: rgb(15, 110, 86);"></line><text  id="v-215" font-size="33.599999999999994px" xml:space="preserve" y="202.5" font-weight="bold" text-anchor="middle" pointer-events="visible" font-family="Tahoma, Verdana, Helvetica, Arial" fill="#085041" dominant-baseline="hanging" transform="matrix(1,0,0,1,200,0)" style="fill: rgb(8, 80, 65);"><tspan dy="0" >Platform Admin</tspan></text><text  id="v-216" font-size="16.799999999999997px" xml:space="preserve" y="244.1" text-anchor="middle" font-family="Tahoma, Verdana, Helvetica, Arial" fill="#085041" dominant-baseline="hanging" transform="matrix(1,0,0,1,200,0)" style="display: block; fill: rgb(8, 80, 65);"><tspan dy="0" >[Person]</tspan></text><text  id="v-217" font-size="24px" xml:space="preserve" y="275.9" text-anchor="middle" font-family="Tahoma, Verdana, Helvetica, Arial" fill="#085041" dominant-baseline="hanging" transform="matrix(1,0,0,1,200,0)" style="display: block; fill: rgb(8, 80, 65);"><tspan dy="0" >Configures available resource</tspan><tspan dy="1.2em" x="0" >types, quotas, and approval</tspan><tspan dy="1.2em" x="0" >policies.</tspan></text><g  id="v-218" font-weight="normal" text-anchor="middle" color="#085041" transform="matrix(1,0,0,1,197.5,368)" display="none" style="fill: rgb(8, 80, 65);"><g ></g><g ></g><g ></g><g ></g></g><image  id="v-219"></image></g></g><!--z-index:21--><g   id="j_23"  transform="translate(2449,592)" style=""><g  id="v-228" style="opacity: 1;"><rect  id="v-229" rx="1" ry="1" stroke-width="2" pointer-events="visiblePainted" fill="#f1efe8" stroke="#5f5e5a" stroke-dasharray="" width="280" height="400" style="fill: rgb(241, 239, 232); stroke: rgb(95, 94, 90);"></rect><text  id="v-230" font-size="33.599999999999994px" xml:space="preserve" y="44.74000000000001" font-weight="bold" text-anchor="middle" pointer-events="visible" font-family="Tahoma, Verdana, Helvetica, Arial" fill="#44443f" dominant-baseline="hanging" transform="matrix(1,0,0,1,140,0)" style="fill: rgb(68, 68, 63);"><tspan dy="0" >Identity</tspan><tspan dy="1.2em" x="0" >Provider</tspan></text><text  id="v-231" font-size="16.799999999999997px" xml:space="preserve" y="126.66" text-anchor="middle" font-family="Tahoma, Verdana, Helvetica, Arial" fill="#44443f" dominant-baseline="hanging" transform="matrix(1,0,0,1,140,0)" style="display: block; fill: rgb(68, 68, 63);"><tspan dy="0" >[Software System]</tspan></text><text  id="v-232" font-size="24px" xml:space="preserve" y="158.45999999999998" text-anchor="middle" font-family="Tahoma, Verdana, Helvetica, Arial" fill="#44443f" dominant-baseline="hanging" transform="matrix(1,0,0,1,140,0)" style="display: block; fill: rgb(68, 68, 63);"><tspan dy="0" >Central</tspan><tspan dy="1.2em" x="0" >authentication</tspan><tspan dy="1.2em" x="0" >service (Keycloak /</tspan><tspan dy="1.2em" x="0" >LDAP / SSO).</tspan><tspan dy="1.2em" x="0" >Shared by the portal</tspan><tspan dy="1.2em" x="0" >and all downstream</tspan><tspan dy="1.2em" x="0" >clusters.</tspan></text><g  id="v-233" color="#44443f" transform="matrix(1,0,0,1,137.5,368)" display="none" style="fill: rgb(68, 68, 63);"><g ></g><g ></g><g ></g><g ></g></g><image  id="v-234"></image></g></g><!--z-index:22--><g   id="j_24"  transform="translate(1730,765)" style=""><g  id="v-241" style="opacity: 1;"><rect  id="v-242" rx="1" ry="1" stroke-width="2" pointer-events="visiblePainted" fill="#fff3cd" stroke="#b07d00" stroke-dasharray="" width="380" height="470" style="fill: rgb(255, 243, 205); stroke: rgb(176, 125, 0);"></rect><text  id="v-243" font-size="33.599999999999994px" xml:space="preserve" y="65.34000000000003" font-weight="bold" text-anchor="middle" pointer-events="visible" font-family="Tahoma, Verdana, Helvetica, Arial" fill="#7a4f00" dominant-baseline="hanging" transform="matrix(1,0,0,1,190,0)" style="fill: rgb(122, 79, 0);"><tspan dy="0" >Platform</tspan><tspan dy="1.2em" x="0" >Infrastructure</tspan></text><text  id="v-244" font-size="16.799999999999997px" xml:space="preserve" y="147.26000000000002" text-anchor="middle" font-family="Tahoma, Verdana, Helvetica, Arial" fill="#7a4f00" dominant-baseline="hanging" transform="matrix(1,0,0,1,190,0)" style="display: block; fill: rgb(122, 79, 0);"><tspan dy="0" >[Software System]</tspan></text><text  id="v-245" font-size="24px" xml:space="preserve" y="179.06" text-anchor="middle" font-family="Tahoma, Verdana, Helvetica, Arial" fill="#7a4f00" dominant-baseline="hanging" transform="matrix(1,0,0,1,190,0)" style="display: block; fill: rgb(122, 79, 0);"><tspan dy="0" >Rancher (authn/RBAC proxy)</tspan><tspan dy="1.2em" x="0" >+ Rancher-managed K8s</tspan><tspan dy="1.2em" x="0" >clusters. The Approval</tspan><tspan dy="1.2em" x="0" >Controller applies CRD target</tspan><tspan dy="1.2em" x="0" >instances under its own</tspan><tspan dy="1.2em" x="0" >service account; end users</tspan><tspan dy="1.2em" x="0" >hold no permissions on those</tspan><tspan dy="1.2em" x="0" >types.</tspan></text><g  id="v-246" color="#7a4f00" transform="matrix(1,0,0,1,187.5,438)" display="none" style="fill: rgb(122, 79, 0);"><g ></g><g ></g><g ></g><g ></g></g><image  id="v-247"></image></g></g><!--z-index:23--><g   id="j_25"  transform="translate(939,642)" style=""><g  id="v-251" style="opacity: 1;"><rect  id="v-252" rx="1" ry="1" stroke-width="2" pointer-events="visiblePainted" fill="#eeedfe" stroke="#534ab7" stroke-dasharray="" width="450" height="300" style="fill: rgb(238, 237, 254); stroke: rgb(83, 74, 183);"></rect><text  id="v-253" font-size="33.599999999999994px" xml:space="preserve" y="72.5" font-weight="bold" text-anchor="middle" pointer-events="visible" font-family="Tahoma, Verdana, Helvetica, Arial" fill="#3c3489" dominant-baseline="hanging" transform="matrix(1,0,0,1,225,0)" style="fill: rgb(60, 52, 137);"><tspan dy="0" >Resource Portal</tspan></text><text  id="v-254" font-size="16.799999999999997px" xml:space="preserve" y="114.1" text-anchor="middle" font-family="Tahoma, Verdana, Helvetica, Arial" fill="#3c3489" dominant-baseline="hanging" transform="matrix(1,0,0,1,225,0)" style="display: block; fill: rgb(60, 52, 137);"><tspan dy="0" >[Software System]</tspan></text><text  id="v-255" font-size="24px" xml:space="preserve" y="145.89999999999998" text-anchor="middle" font-family="Tahoma, Verdana, Helvetica, Arial" fill="#3c3489" dominant-baseline="hanging" transform="matrix(1,0,0,1,225,0)" style="display: block; fill: rgb(60, 52, 137);"><tspan dy="0" >Self-service portal for requesting</tspan><tspan dy="1.2em" x="0" >and managing infrastructure</tspan><tspan dy="1.2em" x="0" >resources on Kubernetes clusters.</tspan></text><g  id="v-256" color="#3c3489" transform="matrix(1,0,0,1,210,268)" display="none" style="fill: rgb(60, 52, 137);"><g  transform="translate(5 0)"><svg xmlns="http://www.w3.org/2000/svg" width="20" height="20" fill="currentColor" viewBox="0 0 16 16"><path fill-rule="evenodd" d="M6.5 12a5.5 5.5 0 1 0 0-11 5.5 5.5 0 0 0 0 11zM13 6.5a6.5 6.5 0 1 1-13 0 6.5 6.5 0 0 1 13 0z"></path><path d="M10.344 11.742c.03.04.062.078.098.115l3.85 3.85a1 1 0 0 0 1.415-1.414l-3.85-3.85a1.007 1.007 0 0 0-.115-.1 6.538 6.538 0 0 1-1.398 1.4z"></path><path fill-rule="evenodd" d="M6.5 3a.5.5 0 0 1 .5.5V6h2.5a.5.5 0 0 1 0 1H7v2.5a.5.5 0 0 1-1 0V7H3.5a.5.5 0 0 1 0-1H6V3.5a.5.5 0 0 1 .5-.5z"></path></svg></g><g ></g><g ></g><g ></g></g><image  id="v-257"></image></g></g><!--z-index:24--><g   id="j_26"  style="opacity: 1;"><path fill="none" cursor="pointer" stroke="transparent" stroke-linecap="round" joint-selector="wrapper" id="v-269" stroke-width="10" stroke-linejoin="round" d="M 599 342 L 759 342 C 765.6666666666666 342 771.3333333333333 344.66666666666663 776 350 L 1032.33 642"></path><path fill="none" pointer-events="none" joint-selector="line" id="v-268" stroke="#737266" stroke-width="2" stroke-linejoin="round" stroke-dasharray="8 8" d="M 599 342 L 759 342 C 765.6666666666666 342 771.3333333333333 344.66666666666663 776 350 L 1032.33 642" marker-end="url(#v-245968449)"></path><g id="v-261" ><g id="v-262"  label-idx="0" cursor="move" transform="matrix(1,0,0,1,844.9849853515625,428.5846862792969)" style="cursor: default;"><rect joint-selector="rect" id="v-265" fill="#ffffff" rx="3" ry="3" x="-81.3107681274414" y="-42.85000228881836" width="162.6215362548828" height="83.57222747802734" pointer-events="none"  style="display: block;"></rect><text joint-selector="text" id="v-264" font-size="24px" xml:space="preserve" fill="#737266" text-anchor="middle" pointer-events="none" font-family="Tahoma, Verdana, Helvetica, Arial" font-weight="normal"  style="display: block;"><tspan dy="-0.8999999999999999em" >Requests</tspan><tspan dy="1.2em" x="0" >resources and</tspan><tspan dy="1.2em" x="0" >monitors status</tspan></text></g><g id="v-263"  label-idx="1" cursor="move" transform="matrix(1,0,0,1,834.9849853515625,469.38470458984375)" style="cursor: default;"><rect joint-selector="rect" id="v-267" fill="#ffffff" rx="3" ry="3" x="0" y="0" width="0" height="0"  display="none"></rect><text joint-selector="text" id="v-266" fill="#000000" font-size="14" text-anchor="middle" text-vertical-anchor="middle" pointer-events="none"></text></g></g></g><!--z-index:25--><g   id="j_27"  style="opacity: 1;"><path fill="none" cursor="pointer" stroke="transparent" stroke-linecap="round" joint-selector="wrapper" id="v-281" stroke-width="10" stroke-linejoin="round" d="M 599 792 L 939 792"></path><path fill="none" pointer-events="none" joint-selector="line" id="v-280" stroke="#737266" stroke-width="2" stroke-linejoin="round" stroke-dasharray="8 8" d="M 599 792 L 939 792" marker-end="url(#v-245968449)"></path><g id="v-273" ><g id="v-274"  label-idx="0" cursor="move" transform="matrix(1,0,0,1,769,792)" style="cursor: default;"><rect joint-selector="rect" id="v-277" fill="#ffffff" rx="3" ry="3" x="-98.65017700195312" y="-28.450000762939453" width="197.30035400390625" height="54.77222442626953" pointer-events="none"  style="display: block;"></rect><text joint-selector="text" id="v-276" font-size="24px" xml:space="preserve" fill="#737266" text-anchor="middle" pointer-events="none" font-family="Tahoma, Verdana, Helvetica, Arial" font-weight="normal"  style="display: block;"><tspan dy="-0.3em" >Reviews and</tspan><tspan dy="1.2em" x="0" >approves requests</tspan></text></g><g id="v-275"  label-idx="1" cursor="move" transform="matrix(1,0,0,1,759,818.4000244140625)" style="cursor: default;"><rect joint-selector="rect" id="v-279" fill="#ffffff" rx="3" ry="3" x="0" y="0" width="0" height="0"  display="none"></rect><text joint-selector="text" id="v-278" fill="#000000" font-size="14" text-anchor="middle" text-vertical-anchor="middle" pointer-events="none"></text></g></g></g><!--z-index:26--><g   id="j_28"  style="opacity: 1;"><path fill="none" cursor="pointer" stroke="transparent" stroke-linecap="round" joint-selector="wrapper" id="v-293" stroke-width="10" stroke-linejoin="round" d="M 599 1242 L 759 1242 C 765.6666666666666 1242 771.3333333333333 1239.3333333333333 776 1234 L 1032.33 942"></path><path fill="none" pointer-events="none" joint-selector="line" id="v-292" stroke="#737266" stroke-width="2" stroke-linejoin="round" stroke-dasharray="8 8" d="M 599 1242 L 759 1242 C 765.6666666666666 1242 771.3333333333333 1239.3333333333333 776 1234 L 1032.33 942" marker-end="url(#v-245968449)"></path><g id="v-285" ><g id="v-286"  label-idx="0" cursor="move" transform="matrix(1,0,0,1,844.9849853515625,1155.415283203125)" style="cursor: default;"><rect joint-selector="rect" id="v-289" fill="#ffffff" rx="3" ry="3" x="-63.325740814208984" y="-57.25" width="126.65148162841797" height="112.37222290039062" pointer-events="none"  style="display: block;"></rect><text joint-selector="text" id="v-288" font-size="24px" xml:space="preserve" fill="#737266" text-anchor="middle" pointer-events="none" font-family="Tahoma, Verdana, Helvetica, Arial" font-weight="normal"  style="display: block;"><tspan dy="-1.4999999999999998em" >Configures</tspan><tspan dy="1.2em" x="0" >policies and</tspan><tspan dy="1.2em" x="0" >resource</tspan><tspan dy="1.2em" x="0" >catalogue</tspan></text></g><g id="v-287"  label-idx="1" cursor="move" transform="matrix(1,0,0,1,834.9849853515625,1210.6153564453125)" style="cursor: default;"><rect joint-selector="rect" id="v-291" fill="#ffffff" rx="3" ry="3" x="0" y="0" width="0" height="0"  display="none"></rect><text joint-selector="text" id="v-290" fill="#000000" font-size="14" text-anchor="middle" text-vertical-anchor="middle" pointer-events="none"></text></g></g></g><!--z-index:27--><g   id="j_29"  style="opacity: 1;"><path fill="none" cursor="pointer" stroke="transparent" stroke-linecap="round" joint-selector="wrapper" id="v-305" stroke-width="10" stroke-linejoin="round" d="M 1389 712.82 L 1550 656 C 1556 654 1562.3333333333333 653 1569 653 L 2269 653 C 2275.6666666666665 653 2282 654.3333333333333 2288 657 L 2449 729.23"></path><path fill="none" pointer-events="none" joint-selector="line" id="v-304" stroke="#737266" stroke-width="2" stroke-linejoin="round" stroke-dasharray="8 8" d="M 1389 712.82 L 1550 656 C 1556 654 1562.3333333333333 653 1569 653 L 2269 653 C 2275.6666666666665 653 2282 654.3333333333333 2288 657 L 2449 729.23" marker-end="url(#v-245968449)"></path><g id="v-297" ><g id="v-298"  label-idx="0" cursor="move" transform="matrix(1,0,0,1,1921.986328125,653)" style="cursor: default;"><rect joint-selector="rect" id="v-301" fill="#ffffff" rx="3" ry="3" x="-81.29232025146484" y="-28.450000762939453" width="162.5846405029297" height="54.77222442626953" pointer-events="none"  style="display: block;"></rect><text joint-selector="text" id="v-300" font-size="24px" xml:space="preserve" fill="#737266" text-anchor="middle" pointer-events="none" font-family="Tahoma, Verdana, Helvetica, Arial" font-weight="normal"  style="display: block;"><tspan dy="-0.3em" >Authenticates</tspan><tspan dy="1.2em" x="0" >users via OIDC</tspan></text></g><g id="v-299"  label-idx="1" cursor="move" transform="matrix(1,0,0,1,1911.986328125,679.4000244140625)" style="cursor: default;"><rect joint-selector="rect" id="v-303" fill="#ffffff" rx="3" ry="3" x="0" y="0" width="0" height="0"  display="none"></rect><text joint-selector="text" id="v-302" fill="#000000" font-size="14" text-anchor="middle" text-vertical-anchor="middle" pointer-events="none"></text></g></g></g><!--z-index:28--><g   id="j_30"  style="opacity: 1;"><path fill="none" cursor="pointer" stroke="transparent" stroke-linecap="round" joint-selector="wrapper" id="v-317" stroke-width="10" stroke-linejoin="round" d="M 2110 962.95 L 2269 932 C 2275.6666666666665 930.6666666666666 2282 928.6666666666666 2288 926 L 2449 854.32"></path><path fill="none" pointer-events="none" joint-selector="line" id="v-316" stroke="#737266" stroke-width="2" stroke-linejoin="round" stroke-dasharray="8 8" d="M 2110 962.95 L 2269 932 C 2275.6666666666665 930.6666666666666 2282 928.6666666666666 2288 926 L 2449 854.32" marker-end="url(#v-245968449)"></path><g id="v-309" ><g id="v-310"  label-idx="0" cursor="move" transform="matrix(1,0,0,1,2285.37744140625,927.114501953125)" style="cursor: default;"><rect joint-selector="rect" id="v-313" fill="#ffffff" rx="3" ry="3" x="-87.30577087402344" y="-28.450000762939453" width="174.61154174804688" height="54.77222442626953" pointer-events="none"  style="display: block;"></rect><text joint-selector="text" id="v-312" font-size="24px" xml:space="preserve" fill="#737266" text-anchor="middle" pointer-events="none" font-family="Tahoma, Verdana, Helvetica, Arial" font-weight="normal"  style="display: block;"><tspan dy="-0.3em" >Verifies user</tspan><tspan dy="1.2em" x="0" >tokens via OIDC</tspan></text></g><g id="v-311"  label-idx="1" cursor="move" transform="matrix(1,0,0,1,2275.37744140625,953.5144653320312)" style="cursor: default;"><rect joint-selector="rect" id="v-315" fill="#ffffff" rx="3" ry="3" x="0" y="0" width="0" height="0"  display="none"></rect><text joint-selector="text" id="v-314" fill="#000000" font-size="14" text-anchor="middle" text-vertical-anchor="middle" pointer-events="none"></text></g></g></g><!--z-index:29--><g   id="j_31"  style="opacity: 1;"><path fill="none" cursor="pointer" stroke="transparent" stroke-linecap="round" joint-selector="wrapper" id="v-329" stroke-width="10" stroke-linejoin="round" d="M 1389 853.9 L 1730 947.72"></path><path fill="none" pointer-events="none" joint-selector="line" id="v-328" stroke="#737266" stroke-width="2" stroke-linejoin="round" stroke-dasharray="8 8" d="M 1389 853.9 L 1730 947.72" marker-end="url(#v-245968449)"></path><g id="v-321" ><g id="v-322"  label-idx="0" cursor="move" transform="matrix(1,0,0,1,1559.5,900.8099975585938)" style="cursor: default;"><rect joint-selector="rect" id="v-325" fill="#ffffff" rx="3" ry="3" x="-99.31423950195312" y="-86.05000305175781" width="199.0172882080078" height="169.97222900390625" pointer-events="none"  style="display: block;"></rect><text joint-selector="text" id="v-324" font-size="24px" xml:space="preserve" fill="#737266" text-anchor="middle" pointer-events="none" font-family="Tahoma, Verdana, Helvetica, Arial" font-weight="normal"  style="display: block;"><tspan dy="-2.7em" >Web App reads</tspan><tspan dy="1.2em" x="0" >cluster state as</tspan><tspan dy="1.2em" x="0" >user; Controller</tspan><tspan dy="1.2em" x="0" >applies CRD</tspan><tspan dy="1.2em" x="0" >target instances</tspan><tspan dy="1.2em" x="0" >as service account</tspan></text></g><g id="v-323"  label-idx="1" cursor="move" transform="matrix(1,0,0,1,1549.5,984.8099975585938)" style="cursor: default;"><rect joint-selector="rect" id="v-327" fill="#ffffff" rx="3" ry="3" x="0" y="0" width="0" height="0"  display="none"></rect><text joint-selector="text" id="v-326" fill="#000000" font-size="14" text-anchor="middle" text-vertical-anchor="middle" pointer-events="none"></text></g></g></g><!--z-index:30--><g   id="j_32"  style="opacity: 1;"><path fill="none" cursor="pointer" stroke="transparent" stroke-linecap="round" joint-selector="wrapper" id="v-341" stroke-width="10" stroke-linejoin="round" d="M 1730 947.72 L 1389 853.9"></path><path fill="none" pointer-events="none" joint-selector="line" id="v-340" stroke="#737266" stroke-width="2" stroke-linejoin="round" stroke-dasharray="8 8" d="M 1730 947.72 L 1389 853.9" marker-end="url(#v-245968449)"></path><g id="v-333" ><g id="v-334"  label-idx="0" cursor="move" transform="matrix(1,0,0,1,1559.5,900.8099975585938)" style="cursor: default;"><rect joint-selector="rect" id="v-337" fill="#ffffff" rx="3" ry="3" x="-98.447265625" y="-86.05000305175781" width="196.89453125" height="169.97222900390625" pointer-events="none"  style="display: block;"></rect><text joint-selector="text" id="v-336" font-size="24px" xml:space="preserve" fill="#737266" text-anchor="middle" pointer-events="none" font-family="Tahoma, Verdana, Helvetica, Arial" font-weight="normal"  style="display: block;"><tspan dy="-2.7em" >Calls</tspan><tspan dy="1.2em" x="0" >synchronously on</tspan><tspan dy="1.2em" x="0" >ResourceRequest</tspan><tspan dy="1.2em" x="0" >CREATE (Validati</tspan><tspan dy="1.2em" x="0" >ngWebhookConfig</tspan><tspan dy="1.2em" x="0" >uration)</tspan></text></g><g id="v-335"  label-idx="1" cursor="move" transform="matrix(1,0,0,1,1549.5,984.8099975585938)" style="cursor: default;"><rect joint-selector="rect" id="v-339" fill="#ffffff" rx="3" ry="3" x="0" y="0" width="0" height="0"  display="none"></rect><text joint-selector="text" id="v-338" fill="#000000" font-size="14" text-anchor="middle" text-vertical-anchor="middle" pointer-events="none"></text></g></g></g><!--z-index:31--></g><g  style="user-select: none;"></g><g ></g><g  display="none"></g></g></svg>