<svg xmlns="http://www.w3.org/2000/svg" xmlns:xlink="http://www.w3.org/1999/xlink" contentStyleType="text/css" data-diagram-type="SEQUENCE" height="1730px" preserveAspectRatio="none" style="width:1968px;height:1730px;background:#FAFAFA;" version="1.1" viewBox="0 0 1968 1730" width="1968px" zoomAndPan="magnify"><?plantuml 1.2026.4?><defs/><g><rect fill="#FAFAFA" height="1730" style="stroke:none;stroke-width:1;" width="1968" x="0" y="0"/><g class="title" data-source-line="18"><text fill="#000000" font-family="Verdana" font-size="22" font-weight="700" lengthAdjust="spacing" textLength="458.6162" x="753.9592" y="35.4209">ResourceRequest Reconcile &#8212; delete</text></g><rect fill="#FFF9E6" height="1671.1641" rx="3" ry="3" style="stroke:#B07D00;stroke-width:1;" width="1294.3687" x="199.4453" y="52.6094"/><text fill="#000000" font-family="Verdana" font-size="13" font-weight="700" lengthAdjust="spacing" textLength="152.6484" x="770.3054" y="64.6763">Management Cluster</text><rect fill="#FFF3CD" height="1671.1641" rx="3" ry="3" style="stroke:#B07D00;stroke-width:1;" width="323.7383" x="1505.814" y="52.6094"/><text fill="#000000" font-family="Verdana" font-size="13" font-weight="700" lengthAdjust="spacing" textLength="317.7383" x="1508.814" y="64.6763">Target Cluster  (via Rancher, controller SA)</text><rect fill="#FFFFFF" height="142.0078" rx="3" ry="3" style="stroke:#000000;stroke-width:1;" width="1120.1685" x="193.4453" y="255.375"/><rect fill="#FFFFFF" height="80.2344" rx="3" ry="3" style="stroke:#000000;stroke-width:1;" width="956.8184" x="570.644" y="510.4531"/><rect fill="#FFFFFF" height="547.9375" rx="3" ry="3" style="stroke:#000000;stroke-width:1;" width="1759.0894" x="193.4453" y="703.7578"/><rect fill="#FFFFFF" height="209.2109" rx="3" ry="3" style="stroke:#000000;stroke-width:1;" width="1039.9878" x="693" y="797.7969"/><path d="M693,898.8359 L1732.9878,898.8359 L1732.9878,1004.0078 A3,3 0 0 1 1729.9878,1007.0078 L696,1007.0078 A3,3 0 0 1 693,1004.0078 L693,898.8359" fill="#FFFFFF" style="stroke:none;stroke-width:1;"/><rect fill="#FFFFFF" height="356.5156" rx="3" ry="3" style="stroke:#000000;stroke-width:1;" width="1759.0894" x="193.4453" y="1265.6953"/><g class="participant-lifeline" data-entity-uid="part1" data-qualified-name="REC" data-source-line="21" id="part1-lifeline"><g><title>ResourceRequest</title><rect fill="#000000" fill-opacity="0.00000" height="1541.8438" width="8" x="275.7637" y="125.3359"/><line style="stroke:#AAAAAA;stroke-width:1;stroke-dasharray:5,5;" x1="279.4453" x2="279.4453" y1="125.3359" y2="1667.1797"/></g></g><g class="participant-lifeline" data-entity-uid="part2" data-qualified-name="CG" data-source-line="22" id="part2-lifeline"><g><title>Concurrency</title><rect fill="#000000" fill-opacity="0.00000" height="1541.8438" width="8" x="507.2617" y="125.3359"/><line style="stroke:#AAAAAA;stroke-width:1;stroke-dasharray:5,5;" x1="510.8794" x2="510.8794" y1="125.3359" y2="1667.1797"/></g></g><g class="participant-lifeline" data-entity-uid="part3" data-qualified-name="SM" data-source-line="23" id="part3-lifeline"><g><title>Provisioning</title><rect fill="#000000" fill-opacity="0.00000" height="1541.8438" width="8" x="641.7002" y="125.3359"/><line style="stroke:#AAAAAA;stroke-width:1;stroke-dasharray:5,5;" x1="645.644" x2="645.644" y1="125.3359" y2="1667.1797"/></g></g><g class="participant-lifeline" data-entity-uid="part4" data-qualified-name="PH" data-source-line="24" id="part4-lifeline"><g><title>Provisioning</title><rect fill="#000000" fill-opacity="0.00000" height="1541.8438" width="8" x="801.5674" y="125.3359"/><line style="stroke:#AAAAAA;stroke-width:1;stroke-dasharray:5,5;" x1="804.9624" x2="804.9624" y1="125.3359" y2="1667.1797"/></g></g><g class="participant-lifeline" data-entity-uid="part5" data-qualified-name="PRW" data-source-line="25" id="part5-lifeline"><g><title>ProvisionedResource</title><rect fill="#000000" fill-opacity="0.00000" height="1541.8438" width="8" x="957.2725" y="125.3359"/><line style="stroke:#AAAAAA;stroke-width:1;stroke-dasharray:5,5;" x1="961.1724" x2="961.1724" y1="125.3359" y2="1667.1797"/></g></g><g class="participant-lifeline" data-entity-uid="part6" data-qualified-name="NOT" data-source-line="26" id="part6-lifeline"><g><title>Notifier</title><rect fill="#000000" fill-opacity="0.00000" height="1541.8438" width="8" x="1096.1748" y="125.3359"/><line style="stroke:#AAAAAA;stroke-width:1;stroke-dasharray:5,5;" x1="1099.3726" x2="1099.3726" y1="125.3359" y2="1667.1797"/></g></g><g class="participant-lifeline" data-entity-uid="part7" data-qualified-name="RRCRD" data-source-line="27" id="part7-lifeline"><g><title>ResourceRequest</title><rect fill="#000000" fill-opacity="0.00000" height="1541.8438" width="8" x="1223.2954" y="125.3359"/><line style="stroke:#AAAAAA;stroke-width:1;stroke-dasharray:5,5;" x1="1226.9771" x2="1226.9771" y1="125.3359" y2="1667.1797"/></g></g><g class="participant-lifeline" data-entity-uid="part8" data-qualified-name="PRCRD" data-source-line="28" id="part8-lifeline"><g><title>ProvisionedResource</title><rect fill="#000000" fill-opacity="0.00000" height="1541.8438" width="8" x="1397.7139" y="125.3359"/><line style="stroke:#AAAAAA;stroke-width:1;stroke-dasharray:5,5;" x1="1401.6138" x2="1401.6138" y1="125.3359" y2="1667.1797"/></g></g><g class="participant-lifeline" data-entity-uid="part9" data-qualified-name="CTI" data-source-line="32" id="part9-lifeline"><g><title>CRD Target</title><rect fill="#000000" fill-opacity="0.00000" height="1541.8438" width="8" x="1663.6831" y="125.3359"/><line style="stroke:#AAAAAA;stroke-width:1;stroke-dasharray:5,5;" x1="1667.3784" x2="1667.3784" y1="125.3359" y2="1667.1797"/></g></g><g class="participant-lifeline" data-entity-uid="part10" data-qualified-name="MAIL" data-source-line="35" id="part10-lifeline"><g><title>Mail Relay</title><rect fill="#000000" fill-opacity="0.00000" height="1541.8438" width="8" x="1887.5435" y="125.3359"/><line style="stroke:#AAAAAA;stroke-width:1;stroke-dasharray:5,5;" x1="1890.5522" x2="1890.5522" y1="125.3359" y2="1667.1797"/></g></g><g class="participant participant-head" data-entity-uid="part1" data-qualified-name="REC" data-source-line="21" id="part1-head"><rect fill="#EEEDFE" height="42.5938" rx="3" ry="3" style="stroke:#534AB7;stroke-width:1;" width="132.6367" x="213.4453" y="76.7422"/><text fill="#3C3489" font-family="Verdana" font-size="14" lengthAdjust="spacing" textLength="122.6367" x="218.4453" y="94.7373">ResourceRequest</text><text fill="#3C3489" font-family="Verdana" font-size="14" lengthAdjust="spacing" textLength="73.3223" x="243.1025" y="111.0342">Reconciler</text></g><g class="participant participant-tail" data-entity-uid="part1" data-qualified-name="REC" data-source-line="21" id="part1-tail"><rect fill="#EEEDFE" height="42.5938" rx="3" ry="3" style="stroke:#534AB7;stroke-width:1;" width="132.6367" x="213.4453" y="1671.1797"/><text fill="#3C3489" font-family="Verdana" font-size="14" lengthAdjust="spacing" textLength="122.6367" x="218.4453" y="1689.1748">ResourceRequest</text><text fill="#3C3489" font-family="Verdana" font-size="14" lengthAdjust="spacing" textLength="73.3223" x="243.1025" y="1705.4717">Reconciler</text></g><g class="participant participant-head" data-entity-uid="part2" data-qualified-name="CG" data-source-line="22" id="part2-head"><rect fill="#EEEDFE" height="42.5938" rx="3" ry="3" style="stroke:#534AB7;stroke-width:1;" width="98.7646" x="461.8794" y="76.7422"/><text fill="#3C3489" font-family="Verdana" font-size="14" lengthAdjust="spacing" textLength="88.7646" x="466.8794" y="94.7373">Concurrency</text><text fill="#3C3489" font-family="Verdana" font-size="14" lengthAdjust="spacing" textLength="42.9434" x="489.79" y="111.0342">Guard</text></g><g class="participant participant-tail" data-entity-uid="part2" data-qualified-name="CG" data-source-line="22" id="part2-tail"><rect fill="#EEEDFE" height="42.5938" rx="3" ry="3" style="stroke:#534AB7;stroke-width:1;" width="98.7646" x="461.8794" y="1671.1797"/><text fill="#3C3489" font-family="Verdana" font-size="14" lengthAdjust="spacing" textLength="88.7646" x="466.8794" y="1689.1748">Concurrency</text><text fill="#3C3489" font-family="Verdana" font-size="14" lengthAdjust="spacing" textLength="42.9434" x="489.79" y="1705.4717">Guard</text></g><g class="participant participant-head" data-entity-uid="part3" data-qualified-name="SM" data-source-line="23" id="part3-head"><rect fill="#EEEDFE" height="42.5938" rx="3" ry="3" style="stroke:#534AB7;stroke-width:1;" width="110.1123" x="590.644" y="76.7422"/><text fill="#3C3489" font-family="Verdana" font-size="14" lengthAdjust="spacing" textLength="85.21" x="603.0952" y="94.7373">Provisioning</text><text fill="#3C3489" font-family="Verdana" font-size="14" lengthAdjust="spacing" textLength="100.1123" x="595.644" y="111.0342">State Machine</text></g><g class="participant participant-tail" data-entity-uid="part3" data-qualified-name="SM" data-source-line="23" id="part3-tail"><rect fill="#EEEDFE" height="42.5938" rx="3" ry="3" style="stroke:#534AB7;stroke-width:1;" width="110.1123" x="590.644" y="1671.1797"/><text fill="#3C3489" font-family="Verdana" font-size="14" lengthAdjust="spacing" textLength="85.21" x="603.0952" y="1689.1748">Provisioning</text><text fill="#3C3489" font-family="Verdana" font-size="14" lengthAdjust="spacing" textLength="100.1123" x="595.644" y="1705.4717">State Machine</text></g><g class="participant participant-head" data-entity-uid="part4" data-qualified-name="PH" data-source-line="24" id="part4-head"><rect fill="#EEEDFE" height="42.5938" rx="3" ry="3" style="stroke:#534AB7;stroke-width:1;" width="95.21" x="757.9624" y="76.7422"/><text fill="#3C3489" font-family="Verdana" font-size="14" lengthAdjust="spacing" textLength="85.21" x="762.9624" y="94.7373">Provisioning</text><text fill="#3C3489" font-family="Verdana" font-size="14" lengthAdjust="spacing" textLength="55.125" x="778.0049" y="111.0342">Handler</text></g><g class="participant participant-tail" data-entity-uid="part4" data-qualified-name="PH" data-source-line="24" id="part4-tail"><rect fill="#EEEDFE" height="42.5938" rx="3" ry="3" style="stroke:#534AB7;stroke-width:1;" width="95.21" x="757.9624" y="1671.1797"/><text fill="#3C3489" font-family="Verdana" font-size="14" lengthAdjust="spacing" textLength="85.21" x="762.9624" y="1689.1748">Provisioning</text><text fill="#3C3489" font-family="Verdana" font-size="14" lengthAdjust="spacing" textLength="55.125" x="778.0049" y="1705.4717">Handler</text></g><g class="participant participant-head" data-entity-uid="part5" data-qualified-name="PRW" data-source-line="25" id="part5-head"><rect fill="#EEEDFE" height="42.5938" rx="3" ry="3" style="stroke:#534AB7;stroke-width:1;" width="156.2002" x="883.1724" y="76.7422"/><text fill="#3C3489" font-family="Verdana" font-size="14" lengthAdjust="spacing" textLength="146.2002" x="888.1724" y="94.7373">ProvisionedResource</text><text fill="#3C3489" font-family="Verdana" font-size="14" lengthAdjust="spacing" textLength="43.3467" x="939.5991" y="111.0342">Writer</text></g><g class="participant participant-tail" data-entity-uid="part5" data-qualified-name="PRW" data-source-line="25" id="part5-tail"><rect fill="#EEEDFE" height="42.5938" rx="3" ry="3" style="stroke:#534AB7;stroke-width:1;" width="156.2002" x="883.1724" y="1671.1797"/><text fill="#3C3489" font-family="Verdana" font-size="14" lengthAdjust="spacing" textLength="146.2002" x="888.1724" y="1689.1748">ProvisionedResource</text><text fill="#3C3489" font-family="Verdana" font-size="14" lengthAdjust="spacing" textLength="43.3467" x="939.5991" y="1705.4717">Writer</text></g><g class="participant participant-head" data-entity-uid="part6" data-qualified-name="NOT" data-source-line="26" id="part6-head"><rect fill="#EEEDFE" height="26.2969" rx="3" ry="3" style="stroke:#534AB7;stroke-width:1;" width="61.6045" x="1069.3726" y="93.0391"/><text fill="#3C3489" font-family="Verdana" font-size="14" lengthAdjust="spacing" textLength="51.6045" x="1074.3726" y="111.0342">Notifier</text></g><g class="participant participant-tail" data-entity-uid="part6" data-qualified-name="NOT" data-source-line="26" id="part6-tail"><rect fill="#EEEDFE" height="26.2969" rx="3" ry="3" style="stroke:#534AB7;stroke-width:1;" width="61.6045" x="1069.3726" y="1671.1797"/><text fill="#3C3489" font-family="Verdana" font-size="14" lengthAdjust="spacing" textLength="51.6045" x="1074.3726" y="1689.1748">Notifier</text></g><g class="participant participant-head" data-entity-uid="part7" data-qualified-name="RRCRD" data-source-line="27" id="part7-head"><rect fill="#E8F4FD" height="42.5938" rx="3" ry="3" style="stroke:#534AB7;stroke-width:1;" width="132.6367" x="1160.9771" y="76.7422"/><text fill="#3C3489" font-family="Verdana" font-size="14" lengthAdjust="spacing" textLength="122.6367" x="1165.9771" y="94.7373">ResourceRequest</text><text fill="#3C3489" font-family="Verdana" font-size="14" lengthAdjust="spacing" textLength="30.2832" x="1212.1538" y="111.0342">CRD</text></g><g class="participant participant-tail" data-entity-uid="part7" data-qualified-name="RRCRD" data-source-line="27" id="part7-tail"><rect fill="#E8F4FD" height="42.5938" rx="3" ry="3" style="stroke:#534AB7;stroke-width:1;" width="132.6367" x="1160.9771" y="1671.1797"/><text fill="#3C3489" font-family="Verdana" font-size="14" lengthAdjust="spacing" textLength="122.6367" x="1165.9771" y="1689.1748">ResourceRequest</text><text fill="#3C3489" font-family="Verdana" font-size="14" lengthAdjust="spacing" textLength="30.2832" x="1212.1538" y="1705.4717">CRD</text></g><g class="participant participant-head" data-entity-uid="part8" data-qualified-name="PRCRD" data-source-line="28" id="part8-head"><rect fill="#E8F4FD" height="42.5938" rx="3" ry="3" style="stroke:#534AB7;stroke-width:1;" width="156.2002" x="1323.6138" y="76.7422"/><text fill="#3C3489" font-family="Verdana" font-size="14" lengthAdjust="spacing" textLength="146.2002" x="1328.6138" y="94.7373">ProvisionedResource</text><text fill="#3C3489" font-family="Verdana" font-size="14" lengthAdjust="spacing" textLength="30.2832" x="1386.5723" y="111.0342">CRD</text></g><g class="participant participant-tail" data-entity-uid="part8" data-qualified-name="PRCRD" data-source-line="28" id="part8-tail"><rect fill="#E8F4FD" height="42.5938" rx="3" ry="3" style="stroke:#534AB7;stroke-width:1;" width="156.2002" x="1323.6138" y="1671.1797"/><text fill="#3C3489" font-family="Verdana" font-size="14" lengthAdjust="spacing" textLength="146.2002" x="1328.6138" y="1689.1748">ProvisionedResource</text><text fill="#3C3489" font-family="Verdana" font-size="14" lengthAdjust="spacing" textLength="30.2832" x="1386.5723" y="1705.4717">CRD</text></g><g class="participant participant-head" data-entity-uid="part9" data-qualified-name="CTI" data-source-line="32" id="part9-head"><rect fill="#EEEDFE" height="42.5938" rx="3" ry="3" style="stroke:#534AB7;stroke-width:1;" width="90.6094" x="1622.3784" y="76.7422"/><text fill="#3C3489" font-family="Verdana" font-size="14" lengthAdjust="spacing" textLength="80.6094" x="1627.3784" y="94.7373">CRD Target</text><text fill="#3C3489" font-family="Verdana" font-size="14" lengthAdjust="spacing" textLength="59.5479" x="1637.9092" y="111.0342">Instance</text></g><g class="participant participant-tail" data-entity-uid="part9" data-qualified-name="CTI" data-source-line="32" id="part9-tail"><rect fill="#EEEDFE" height="42.5938" rx="3" ry="3" style="stroke:#534AB7;stroke-width:1;" width="90.6094" x="1622.3784" y="1671.1797"/><text fill="#3C3489" font-family="Verdana" font-size="14" lengthAdjust="spacing" textLength="80.6094" x="1627.3784" y="1689.1748">CRD Target</text><text fill="#3C3489" font-family="Verdana" font-size="14" lengthAdjust="spacing" textLength="59.5479" x="1637.9092" y="1705.4717">Instance</text></g><g class="participant participant-head" data-entity-uid="part10" data-qualified-name="MAIL" data-source-line="35" id="part10-head"><rect fill="#F1EFE8" height="26.2969" rx="3" ry="3" style="stroke:#534AB7;stroke-width:1;" width="81.9824" x="1850.5522" y="93.0391"/><text fill="#3C3489" font-family="Verdana" font-size="14" lengthAdjust="spacing" textLength="71.9824" x="1855.5522" y="111.0342">Mail Relay</text></g><g class="participant participant-tail" data-entity-uid="part10" data-qualified-name="MAIL" data-source-line="35" id="part10-tail"><rect fill="#F1EFE8" height="26.2969" rx="3" ry="3" style="stroke:#534AB7;stroke-width:1;" width="81.9824" x="1850.5522" y="1671.1797"/><text fill="#3C3489" font-family="Verdana" font-size="14" lengthAdjust="spacing" textLength="71.9824" x="1855.5522" y="1689.1748">Mail Relay</text></g><rect fill="#FFFFFF" height="3" rx="3" ry="3" style="stroke:#FFFFFF;stroke-width:1;" width="1957.5347" x="5" y="155.9023"/><line style="stroke:#000000;stroke-width:0.5;" x1="5" x2="1962.5347" y1="155.9023" y2="155.9023"/><line style="stroke:#000000;stroke-width:0.5;" x1="5" x2="1962.5347" y1="158.9023" y2="158.9023"/><rect fill="#FFFFFF" height="23.1328" rx="3" ry="3" style="stroke:#000000;stroke-width:1;" width="62.9404" x="952.2971" y="145.3359"/><text fill="#000000" font-family="Verdana" font-size="13" font-weight="700" lengthAdjust="spacing" textLength="44.4146" x="958.2971" y="161.4028">Guard</text><g class="message" data-entity-1="part1" data-entity-2="part1" data-source-line="39" id="msg1"><polygon fill="#737266" points="267.7637,194.4375,277.7637,198.4375,267.7637,202.4375,271.7637,198.4375" style="stroke:#737266;stroke-width:1;stroke-linejoin:miter;stroke-miterlimit:10;"/><line style="stroke:#737266;stroke-width:1;" x1="5" x2="273.7637" y1="198.4375" y2="198.4375"/><text fill="#444444" font-family="Verdana" font-size="12" lengthAdjust="spacing" textLength="250.7637" x="12" y="193.6074">reconcile [action: delete, phase: pending]</text></g><g class="message" data-entity-1="part1" data-entity-2="part2" data-source-line="40" id="msg2"><polygon fill="#737266" points="499.2617,236.375,509.2617,240.375,499.2617,244.375,503.2617,240.375" style="stroke:#737266;stroke-width:1;stroke-linejoin:miter;stroke-miterlimit:10;"/><line style="stroke:#737266;stroke-width:1;" x1="279.7637" x2="505.2617" y1="240.375" y2="240.375"/><text fill="#444444" font-family="Verdana" font-size="12" lengthAdjust="spacing" textLength="160.2012" x="286.7637" y="221.5762">check concurrent requests</text><text fill="#444444" font-family="Verdana" font-size="12" lengthAdjust="spacing" textLength="207.498" x="286.7637" y="235.5449">for same ProvisionedResource UID</text></g><path d="M196.4453,255.375 L539.6289,255.375 L539.6289,262.5078 L529.6289,272.5078 L193.4453,272.5078 L193.4453,258.375 A3,3 0 0 1 196.4453,255.375" fill="#FFFFFF" style="stroke:#000000;stroke-width:1;"/><rect fill="none" height="142.0078" rx="3" ry="3" style="stroke:#000000;stroke-width:1;" width="1120.1685" x="193.4453" y="255.375"/><text fill="#000000" font-family="Verdana" font-size="13" font-weight="700" lengthAdjust="spacing" textLength="301.1836" x="208.4453" y="268.4419">Failure path &#8212; concurrent request active</text><g class="message" data-entity-1="part2" data-entity-2="part7" data-source-line="43" id="msg3"><polygon fill="#737266" points="1215.2954,288.4766,1225.2954,292.4766,1215.2954,296.4766,1219.2954,292.4766" style="stroke:#737266;stroke-width:1;stroke-linejoin:miter;stroke-miterlimit:10;"/><line style="stroke:#737266;stroke-width:1;" x1="511.2617" x2="1221.2954" y1="292.4766" y2="292.4766"/><text fill="#444444" font-family="Verdana" font-size="12" lengthAdjust="spacing" textLength="299.8125" x="518.2617" y="287.6465">list by label target-provisioned-resource = &lt;UID&gt;</text></g><g class="message" data-entity-1="part7" data-entity-2="part2" data-source-line="44" id="msg4"><polygon fill="#737266" points="522.2617,316.4453,512.2617,320.4453,522.2617,324.4453,518.2617,320.4453" style="stroke:#737266;stroke-width:1;stroke-linejoin:miter;stroke-miterlimit:10;"/><line style="stroke:#737266;stroke-width:1;stroke-dasharray:2,2;" x1="516.2617" x2="1226.2954" y1="320.4453" y2="320.4453"/><text fill="#444444" font-family="Verdana" font-size="12" lengthAdjust="spacing" textLength="224.3613" x="528.2617" y="315.6152">non-terminal ResourceRequest found</text></g><g class="message" data-entity-1="part2" data-entity-2="part1" data-source-line="45" id="msg5"><polygon fill="#737266" points="290.7637,344.4141,280.7637,348.4141,290.7637,352.4141,286.7637,348.4141" style="stroke:#737266;stroke-width:1;stroke-linejoin:miter;stroke-miterlimit:10;"/><line style="stroke:#737266;stroke-width:1;stroke-dasharray:2,2;" x1="284.7637" x2="510.2617" y1="348.4141" y2="348.4141"/><text fill="#444444" font-family="Verdana" font-size="12" lengthAdjust="spacing" textLength="43.7402" x="296.7637" y="343.584">conflict</text></g><g class="message" data-entity-1="part1" data-entity-2="part1" data-source-line="46" id="msg6"><line style="stroke:#737266;stroke-width:1;stroke-dasharray:2,2;" x1="279.7637" x2="321.7637" y1="376.3828" y2="376.3828"/><line style="stroke:#737266;stroke-width:1;stroke-dasharray:2,2;" x1="321.7637" x2="321.7637" y1="376.3828" y2="389.3828"/><line style="stroke:#737266;stroke-width:1;stroke-dasharray:2,2;" x1="280.7637" x2="321.7637" y1="389.3828" y2="389.3828"/><polygon fill="#737266" points="290.7637,385.3828,280.7637,389.3828,290.7637,393.3828,286.7637,389.3828" style="stroke:#737266;stroke-width:1;stroke-linejoin:miter;stroke-miterlimit:10;"/><text fill="#444444" font-family="Verdana" font-size="12" lengthAdjust="spacing" textLength="127.3066" x="286.7637" y="371.5527">requeue with backoff</text></g><g class="message" data-entity-1="part2" data-entity-2="part1" data-source-line="49" id="msg7"><polygon fill="#737266" points="290.7637,420.3516,280.7637,424.3516,290.7637,428.3516,286.7637,424.3516" style="stroke:#737266;stroke-width:1;stroke-linejoin:miter;stroke-miterlimit:10;"/><line style="stroke:#737266;stroke-width:1;stroke-dasharray:2,2;" x1="284.7637" x2="510.2617" y1="424.3516" y2="424.3516"/><text fill="#444444" font-family="Verdana" font-size="12" lengthAdjust="spacing" textLength="62.502" x="296.7637" y="419.5215">no conflict</text></g><rect fill="#FFFFFF" height="3" rx="3" ry="3" style="stroke:#FFFFFF;stroke-width:1;" width="1957.5347" x="5" y="452.918"/><line style="stroke:#000000;stroke-width:0.5;" x1="5" x2="1962.5347" y1="452.918" y2="452.918"/><line style="stroke:#000000;stroke-width:0.5;" x1="5" x2="1962.5347" y1="455.918" y2="455.918"/><rect fill="#FFFFFF" height="23.1328" rx="3" ry="3" style="stroke:#000000;stroke-width:1;" width="84.2432" x="941.6458" y="442.3516"/><text fill="#000000" font-family="Verdana" font-size="13" font-weight="700" lengthAdjust="spacing" textLength="65.7173" x="947.6458" y="458.4185">Approval</text><g class="message" data-entity-1="part1" data-entity-2="part3" data-source-line="53" id="msg8"><polygon fill="#737266" points="633.7002,491.4531,643.7002,495.4531,633.7002,499.4531,637.7002,495.4531" style="stroke:#737266;stroke-width:1;stroke-linejoin:miter;stroke-miterlimit:10;"/><line style="stroke:#737266;stroke-width:1;" x1="279.7637" x2="639.7002" y1="495.4531" y2="495.4531"/><text fill="#444444" font-family="Verdana" font-size="12" lengthAdjust="spacing" textLength="185.4609" x="286.7637" y="490.623">evaluate(decisions, approvers)</text></g><path d="M573.644,510.4531 L787.3608,510.4531 L787.3608,517.5859 L777.3608,527.5859 L570.644,527.5859 L570.644,513.4531 A3,3 0 0 1 573.644,510.4531" fill="#FFFFFF" style="stroke:#000000;stroke-width:1;"/><rect fill="none" height="80.2344" rx="3" ry="3" style="stroke:#000000;stroke-width:1;" width="956.8184" x="570.644" y="510.4531"/><text fill="#000000" font-family="Verdana" font-size="13" font-weight="700" lengthAdjust="spacing" textLength="171.7168" x="585.644" y="523.52">Failure path &#8212; rejected</text><g class="message" data-entity-1="part3" data-entity-2="part7" data-source-line="56" id="msg9"><polygon fill="#737266" points="1215.2954,543.5547,1225.2954,547.5547,1215.2954,551.5547,1219.2954,547.5547" style="stroke:#737266;stroke-width:1;stroke-linejoin:miter;stroke-miterlimit:10;"/><line style="stroke:#737266;stroke-width:1;" x1="645.7002" x2="1221.2954" y1="547.5547" y2="547.5547"/><text fill="#444444" font-family="Verdana" font-size="12" lengthAdjust="spacing" textLength="140.9238" x="652.7002" y="542.7246">patch phase = rejected</text></g><path d="M1284,563.5547 L1284,582.5547 A3,3 0 0 0 1287,585.5547 L1514,585.5547 A3,3 0 0 0 1517,582.5547 L1517,570.5547 L1507,560.5547 L1287,560.5547 A3,3 0 0 0 1284,563.5547" fill="#FFFFFF" style="stroke:#000000;stroke-width:1;"/><path d="M1507,560.5547 L1507,569.0547 A1.5,1.5 0 0 0 1508.5,570.5547 L1517,570.5547 L1507,560.5547" fill="#FFFFFF" style="stroke:#000000;stroke-width:1;"/><text fill="#000000" font-family="Verdana" font-size="13" lengthAdjust="spacing" textLength="212.4624" x="1290" y="577.6216">ProvisionedResource unchanged</text><g class="message" data-entity-1="part3" data-entity-2="part7" data-source-line="60" id="msg10"><polygon fill="#737266" points="1215.2954,613.6563,1225.2954,617.6563,1215.2954,621.6563,1219.2954,617.6563" style="stroke:#737266;stroke-width:1;stroke-linejoin:miter;stroke-miterlimit:10;"/><line style="stroke:#737266;stroke-width:1;" x1="645.7002" x2="1221.2954" y1="617.6563" y2="617.6563"/><text fill="#444444" font-family="Verdana" font-size="12" lengthAdjust="spacing" textLength="239.6543" x="652.7002" y="612.8262">patch phase = approved &#8594; provisioning</text></g><g class="message" data-entity-1="part3" data-entity-2="part8" data-source-line="61" id="msg11"><polygon fill="#737266" points="1389.7139,641.625,1399.7139,645.625,1389.7139,649.625,1393.7139,645.625" style="stroke:#737266;stroke-width:1;stroke-linejoin:miter;stroke-miterlimit:10;"/><line style="stroke:#737266;stroke-width:1;" x1="645.7002" x2="1395.7139" y1="645.625" y2="645.625"/><text fill="#444444" font-family="Verdana" font-size="12" lengthAdjust="spacing" textLength="181.2539" x="652.7002" y="640.7949">patch status.phase = deleting</text></g><rect fill="#FFFFFF" height="3" rx="3" ry="3" style="stroke:#FFFFFF;stroke-width:1;" width="1957.5347" x="5" y="674.1914"/><line style="stroke:#000000;stroke-width:0.5;" x1="5" x2="1962.5347" y1="674.1914" y2="674.1914"/><line style="stroke:#000000;stroke-width:0.5;" x1="5" x2="1962.5347" y1="677.1914" y2="677.1914"/><rect fill="#FFFFFF" height="23.1328" rx="3" ry="3" style="stroke:#000000;stroke-width:1;" width="171.8154" x="897.8596" y="663.625"/><text fill="#000000" font-family="Verdana" font-size="13" font-weight="700" lengthAdjust="spacing" textLength="153.2896" x="903.8596" y="679.6919">Happy path &#8212; delete</text><path d="M196.4453,703.7578 L323.2563,703.7578 L323.2563,710.8906 L313.2563,720.8906 L193.4453,720.8906 L193.4453,706.7578 A3,3 0 0 1 196.4453,703.7578" fill="#FFFFFF" style="stroke:#000000;stroke-width:1;"/><rect fill="none" height="547.9375" rx="3" ry="3" style="stroke:#000000;stroke-width:1;" width="1759.0894" x="193.4453" y="703.7578"/><text fill="#000000" font-family="Verdana" font-size="13" font-weight="700" lengthAdjust="spacing" textLength="84.811" x="208.4453" y="716.8247">Happy path</text><g class="message" data-entity-1="part3" data-entity-2="part4" data-source-line="66" id="msg12"><polygon fill="#737266" points="793.5674,736.8594,803.5674,740.8594,793.5674,744.8594,797.5674,740.8594" style="stroke:#737266;stroke-width:1;stroke-linejoin:miter;stroke-miterlimit:10;"/><line style="stroke:#737266;stroke-width:1;" x1="645.7002" x2="799.5674" y1="740.8594" y2="740.8594"/><text fill="#444444" font-family="Verdana" font-size="12" lengthAdjust="spacing" textLength="135.8672" x="652.7002" y="736.0293">deprovision(targetRef)</text></g><g class="message" data-entity-1="part4" data-entity-2="part9" data-source-line="68" id="msg13"><polygon fill="#737266" points="1655.6831,778.7969,1665.6831,782.7969,1655.6831,786.7969,1659.6831,782.7969" style="stroke:#737266;stroke-width:1;stroke-linejoin:miter;stroke-miterlimit:10;"/><line style="stroke:#737266;stroke-width:1;" x1="805.5674" x2="1661.6831" y1="782.7969" y2="782.7969"/><text fill="#444444" font-family="Verdana" font-size="12" lengthAdjust="spacing" textLength="96.6914" x="812.5674" y="763.998">check existence</text><text fill="#444444" font-family="Verdana" font-size="12" lengthAdjust="spacing" textLength="86.5137" x="812.5674" y="777.9668">[controller SA]</text></g><path d="M696,797.7969 L757.4429,797.7969 L757.4429,804.9297 L747.4429,814.9297 L693,814.9297 L693,800.7969 A3,3 0 0 1 696,797.7969" fill="#FFFFFF" style="stroke:#000000;stroke-width:1;"/><rect fill="none" height="209.2109" rx="3" ry="3" style="stroke:#000000;stroke-width:1;" width="1039.9878" x="693" y="797.7969"/><text fill="#000000" font-family="Verdana" font-size="13" font-weight="700" lengthAdjust="spacing" textLength="19.4429" x="708" y="810.8638">alt</text><text fill="#000000" font-family="Verdana" font-size="11" font-weight="700" lengthAdjust="spacing" textLength="175.2373" x="772.4429" y="810.0073">[CRD target instance exists]</text><g class="message" data-entity-1="part9" data-entity-2="part4" data-source-line="71" id="msg14"><polygon fill="#737266" points="816.5674,830.8984,806.5674,834.8984,816.5674,838.8984,812.5674,834.8984" style="stroke:#737266;stroke-width:1;stroke-linejoin:miter;stroke-miterlimit:10;"/><line style="stroke:#737266;stroke-width:1;stroke-dasharray:2,2;" x1="810.5674" x2="1666.6831" y1="834.8984" y2="834.8984"/><text fill="#444444" font-family="Verdana" font-size="12" lengthAdjust="spacing" textLength="34.3945" x="822.5674" y="830.0684">found</text></g><g class="message" data-entity-1="part4" data-entity-2="part9" data-source-line="72" id="msg15"><polygon fill="#737266" points="1655.6831,858.8672,1665.6831,862.8672,1655.6831,866.8672,1659.6831,862.8672" style="stroke:#737266;stroke-width:1;stroke-linejoin:miter;stroke-miterlimit:10;"/><line style="stroke:#737266;stroke-width:1;" x1="805.5674" x2="1661.6831" y1="862.8672" y2="862.8672"/><text fill="#444444" font-family="Verdana" font-size="12" lengthAdjust="spacing" textLength="162.7383" x="812.5674" y="858.0371">delete CRD target instance</text></g><g class="message" data-entity-1="part9" data-entity-2="part4" data-source-line="73" id="msg16"><polygon fill="#737266" points="816.5674,886.8359,806.5674,890.8359,816.5674,894.8359,812.5674,890.8359" style="stroke:#737266;stroke-width:1;stroke-linejoin:miter;stroke-miterlimit:10;"/><line style="stroke:#737266;stroke-width:1;stroke-dasharray:2,2;" x1="810.5674" x2="1666.6831" y1="890.8359" y2="890.8359"/><text fill="#444444" font-family="Verdana" font-size="12" lengthAdjust="spacing" textLength="55.2539" x="822.5674" y="886.0059">accepted</text></g><line style="stroke:#000000;stroke-width:1;stroke-dasharray:2,2;" x1="693" x2="1732.9878" y1="899.8359" y2="899.8359"/><text fill="#000000" font-family="Verdana" font-size="11" font-weight="700" lengthAdjust="spacing" textLength="231.3276" x="698" y="910.0464">[CRD target instance already absent]</text><g class="message" data-entity-1="part9" data-entity-2="part4" data-source-line="75" id="msg17"><polygon fill="#737266" points="816.5674,929.6094,806.5674,933.6094,816.5674,937.6094,812.5674,933.6094" style="stroke:#737266;stroke-width:1;stroke-linejoin:miter;stroke-miterlimit:10;"/><line style="stroke:#737266;stroke-width:1;stroke-dasharray:2,2;" x1="810.5674" x2="1666.6831" y1="933.6094" y2="933.6094"/><text fill="#444444" font-family="Verdana" font-size="12" lengthAdjust="spacing" textLength="58.0957" x="822.5674" y="928.7793">NotFound</text></g><path d="M703,949.6094 L703,998.6094 A3,3 0 0 0 706,1001.6094 L904,1001.6094 A3,3 0 0 0 907,998.6094 L907,956.6094 L897,946.6094 L706,946.6094 A3,3 0 0 0 703,949.6094" fill="#FFFFFF" style="stroke:#000000;stroke-width:1;"/><path d="M897,946.6094 L897,955.1094 A1.5,1.5 0 0 0 898.5,956.6094 L907,956.6094 L897,946.6094" fill="#FFFFFF" style="stroke:#000000;stroke-width:1;"/><text fill="#000000" font-family="Verdana" font-size="13" lengthAdjust="spacing" textLength="146.8022" x="709" y="963.6763">idempotent &#8212; treat as</text><text fill="#000000" font-family="Verdana" font-size="13" lengthAdjust="spacing" textLength="128.5527" x="709" y="978.8091">successful deletion;</text><text fill="#000000" font-family="Verdana" font-size="13" lengthAdjust="spacing" textLength="183.4092" x="709" y="993.9419">proceed to finalizer removal</text><g class="message" data-entity-1="part4" data-entity-2="part9" data-source-line="79" id="msg18"><polygon fill="#737266" points="1655.6831,1043.9453,1665.6831,1047.9453,1655.6831,1051.9453,1659.6831,1047.9453" style="stroke:#737266;stroke-width:1;stroke-linejoin:miter;stroke-miterlimit:10;"/><line style="stroke:#737266;stroke-width:1;" x1="805.5674" x2="1661.6831" y1="1047.9453" y2="1047.9453"/><text fill="#444444" font-family="Verdana" font-size="12" lengthAdjust="spacing" textLength="111.2051" x="812.5674" y="1029.1465">watch until absent</text><text fill="#444444" font-family="Verdana" font-size="12" lengthAdjust="spacing" textLength="168.5215" x="812.5674" y="1043.1152">(or NotFound on first check)</text></g><g class="message" data-entity-1="part9" data-entity-2="part4" data-source-line="80" id="msg19"><polygon fill="#737266" points="816.5674,1071.9141,806.5674,1075.9141,816.5674,1079.9141,812.5674,1075.9141" style="stroke:#737266;stroke-width:1;stroke-linejoin:miter;stroke-miterlimit:10;"/><line style="stroke:#737266;stroke-width:1;stroke-dasharray:2,2;" x1="810.5674" x2="1666.6831" y1="1075.9141" y2="1075.9141"/><text fill="#444444" font-family="Verdana" font-size="12" lengthAdjust="spacing" textLength="105.457" x="822.5674" y="1071.084">absent confirmed</text></g><g class="message" data-entity-1="part4" data-entity-2="part5" data-source-line="82" id="msg20"><polygon fill="#737266" points="949.2725,1099.8828,959.2725,1103.8828,949.2725,1107.8828,953.2725,1103.8828" style="stroke:#737266;stroke-width:1;stroke-linejoin:miter;stroke-miterlimit:10;"/><line style="stroke:#737266;stroke-width:1;" x1="805.5674" x2="955.2725" y1="1103.8828" y2="1103.8828"/><text fill="#444444" font-family="Verdana" font-size="12" lengthAdjust="spacing" textLength="113.2441" x="812.5674" y="1099.0527">deletion confirmed</text></g><g class="message" data-entity-1="part5" data-entity-2="part8" data-source-line="83" id="msg21"><polygon fill="#737266" points="1389.7139,1141.8203,1399.7139,1145.8203,1389.7139,1149.8203,1393.7139,1145.8203" style="stroke:#737266;stroke-width:1;stroke-linejoin:miter;stroke-miterlimit:10;"/><line style="stroke:#737266;stroke-width:1;" x1="961.2725" x2="1395.7139" y1="1145.8203" y2="1145.8203"/><text fill="#444444" font-family="Verdana" font-size="12" lengthAdjust="spacing" textLength="314.127" x="968.2725" y="1127.0215">remove finalizer portal.example.com/deprovisioning</text><text fill="#444444" font-family="Verdana" font-size="12" lengthAdjust="spacing" textLength="208.5469" x="968.2725" y="1140.9902">&#8594; GC deletes ProvisionedResource</text></g><g class="message" data-entity-1="part5" data-entity-2="part7" data-source-line="85" id="msg22"><polygon fill="#737266" points="1215.2954,1183.7578,1225.2954,1187.7578,1215.2954,1191.7578,1219.2954,1187.7578" style="stroke:#737266;stroke-width:1;stroke-linejoin:miter;stroke-miterlimit:10;"/><line style="stroke:#737266;stroke-width:1;" x1="961.2725" x2="1221.2954" y1="1187.7578" y2="1187.7578"/><text fill="#444444" font-family="Verdana" font-size="12" lengthAdjust="spacing" textLength="161.4492" x="968.2725" y="1168.959">patch phase = provisioned</text><text fill="#444444" font-family="Verdana" font-size="12" lengthAdjust="spacing" textLength="231.7559" x="968.2725" y="1182.9277">(delete action completed successfully)</text></g><g class="message" data-entity-1="part1" data-entity-2="part6" data-source-line="87" id="msg23"><polygon fill="#737266" points="1088.1748,1211.7266,1098.1748,1215.7266,1088.1748,1219.7266,1092.1748,1215.7266" style="stroke:#737266;stroke-width:1;stroke-linejoin:miter;stroke-miterlimit:10;"/><line style="stroke:#737266;stroke-width:1;" x1="279.7637" x2="1094.1748" y1="1215.7266" y2="1215.7266"/><text fill="#444444" font-family="Verdana" font-size="12" lengthAdjust="spacing" textLength="113.5371" x="286.7637" y="1210.8965">notify(provisioned)</text></g><g class="message" data-entity-1="part6" data-entity-2="part10" data-source-line="88" id="msg24"><polygon fill="#737266" points="1879.5435,1239.6953,1889.5435,1243.6953,1879.5435,1247.6953,1883.5435,1243.6953" style="stroke:#737266;stroke-width:1;stroke-linejoin:miter;stroke-miterlimit:10;"/><line style="stroke:#737266;stroke-width:1;" x1="1100.1748" x2="1885.5435" y1="1243.6953" y2="1243.6953"/><text fill="#444444" font-family="Verdana" font-size="12" lengthAdjust="spacing" textLength="108.416" x="1107.1748" y="1238.8652">SMTP &#8594; requester</text></g><path d="M196.4453,1265.6953 L451.3774,1265.6953 L451.3774,1272.8281 L441.3774,1282.8281 L193.4453,1282.8281 L193.4453,1268.6953 A3,3 0 0 1 196.4453,1265.6953" fill="#FFFFFF" style="stroke:#000000;stroke-width:1;"/><rect fill="none" height="356.5156" rx="3" ry="3" style="stroke:#000000;stroke-width:1;" width="1759.0894" x="193.4453" y="1265.6953"/><text fill="#000000" font-family="Verdana" font-size="13" font-weight="700" lengthAdjust="spacing" textLength="212.9321" x="208.4453" y="1278.7622">Failure path &#8212; deletion error</text><g class="message" data-entity-1="part4" data-entity-2="part9" data-source-line="92" id="msg25"><polygon fill="#737266" points="1655.6831,1312.7656,1665.6831,1316.7656,1655.6831,1320.7656,1659.6831,1316.7656" style="stroke:#737266;stroke-width:1;stroke-linejoin:miter;stroke-miterlimit:10;"/><line style="stroke:#737266;stroke-width:1;" x1="805.5674" x2="1661.6831" y1="1316.7656" y2="1316.7656"/><text fill="#444444" font-family="Verdana" font-size="12" lengthAdjust="spacing" textLength="211.8926" x="812.5674" y="1297.9668">delete CRD target instance &#8212; error</text><text fill="#444444" font-family="Verdana" font-size="12" lengthAdjust="spacing" textLength="173.5898" x="812.5674" y="1311.9355">(cluster unreachable / RBAC)</text></g><g class="message" data-entity-1="part9" data-entity-2="part4" data-source-line="93" id="msg26"><polygon fill="#737266" points="816.5674,1340.7344,806.5674,1344.7344,816.5674,1348.7344,812.5674,1344.7344" style="stroke:#737266;stroke-width:1;stroke-linejoin:miter;stroke-miterlimit:10;"/><line style="stroke:#737266;stroke-width:1;stroke-dasharray:2,2;" x1="810.5674" x2="1666.6831" y1="1344.7344" y2="1344.7344"/><text fill="#444444" font-family="Verdana" font-size="12" lengthAdjust="spacing" textLength="29.5254" x="822.5674" y="1339.9043">error</text></g><path d="M730,1360.7344 L730,1394.7344 A3,3 0 0 0 733,1397.7344 L876,1397.7344 A3,3 0 0 0 879,1394.7344 L879,1367.7344 L869,1357.7344 L733,1357.7344 A3,3 0 0 0 730,1360.7344" fill="#FFFFFF" style="stroke:#000000;stroke-width:1;"/><path d="M869,1357.7344 L869,1366.2344 A1.5,1.5 0 0 0 870.5,1367.7344 L879,1367.7344 L869,1357.7344" fill="#FFFFFF" style="stroke:#000000;stroke-width:1;"/><text fill="#000000" font-family="Verdana" font-size="13" lengthAdjust="spacing" textLength="85.7822" x="736" y="1374.8013">requeue with</text><text fill="#000000" font-family="Verdana" font-size="13" lengthAdjust="spacing" textLength="128.7939" x="736" y="1389.9341">exponential backoff</text><g class="message" data-entity-1="part4" data-entity-2="part9" data-source-line="97" id="msg27"><polygon fill="#737266" points="1655.6831,1418.9688,1665.6831,1422.9688,1655.6831,1426.9688,1659.6831,1422.9688" style="stroke:#737266;stroke-width:1;stroke-linejoin:miter;stroke-miterlimit:10;"/><line style="stroke:#737266;stroke-width:1;" x1="805.5674" x2="1661.6831" y1="1422.9688" y2="1422.9688"/><text fill="#444444" font-family="Verdana" font-size="12" lengthAdjust="spacing" textLength="163.1777" x="812.5674" y="1418.1387">delete &#8212; retries exhausted</text></g><g class="message" data-entity-1="part9" data-entity-2="part4" data-source-line="98" id="msg28"><polygon fill="#737266" points="816.5674,1446.9375,806.5674,1450.9375,816.5674,1454.9375,812.5674,1450.9375" style="stroke:#737266;stroke-width:1;stroke-linejoin:miter;stroke-miterlimit:10;"/><line style="stroke:#737266;stroke-width:1;stroke-dasharray:2,2;" x1="810.5674" x2="1666.6831" y1="1450.9375" y2="1450.9375"/><text fill="#444444" font-family="Verdana" font-size="12" lengthAdjust="spacing" textLength="29.5254" x="822.5674" y="1446.1074">error</text></g><g class="message" data-entity-1="part4" data-entity-2="part7" data-source-line="100" id="msg29"><polygon fill="#737266" points="1215.2954,1488.875,1225.2954,1492.875,1215.2954,1496.875,1219.2954,1492.875" style="stroke:#737266;stroke-width:1;stroke-linejoin:miter;stroke-miterlimit:10;"/><line style="stroke:#737266;stroke-width:1;" x1="805.5674" x2="1221.2954" y1="1492.875" y2="1492.875"/><text fill="#444444" font-family="Verdana" font-size="12" lengthAdjust="spacing" textLength="124.834" x="812.5674" y="1474.0762">patch phase = failed</text><text fill="#444444" font-family="Verdana" font-size="12" lengthAdjust="spacing" textLength="155.4258" x="812.5674" y="1488.0449">failureReason = &lt;cause&gt;</text></g><path d="M1278,1508.875 L1278,1557.875 A3,3 0 0 0 1281,1560.875 L1521,1560.875 A3,3 0 0 0 1524,1557.875 L1524,1515.875 L1514,1505.875 L1281,1505.875 A3,3 0 0 0 1278,1508.875" fill="#FFFFFF" style="stroke:#000000;stroke-width:1;"/><path d="M1514,1505.875 L1514,1514.375 A1.5,1.5 0 0 0 1515.5,1515.875 L1524,1515.875 L1514,1505.875" fill="#FFFFFF" style="stroke:#000000;stroke-width:1;"/><text fill="#000000" font-family="Verdana" font-size="13" lengthAdjust="spacing" textLength="211.5293" x="1284" y="1522.9419">ProvisionedResource retained &#8212;</text><text fill="#000000" font-family="Verdana" font-size="13" lengthAdjust="spacing" textLength="143.6221" x="1284" y="1538.0747">finalizer not removed;</text><text fill="#000000" font-family="Verdana" font-size="13" lengthAdjust="spacing" textLength="225.8115" x="1284" y="1553.2075">CRD target instance may still exist</text><g class="message" data-entity-1="part1" data-entity-2="part6" data-source-line="104" id="msg30"><polygon fill="#737266" points="1088.1748,1582.2422,1098.1748,1586.2422,1088.1748,1590.2422,1092.1748,1586.2422" style="stroke:#737266;stroke-width:1;stroke-linejoin:miter;stroke-miterlimit:10;"/><line style="stroke:#737266;stroke-width:1;" x1="279.7637" x2="1094.1748" y1="1586.2422" y2="1586.2422"/><text fill="#444444" font-family="Verdana" font-size="12" lengthAdjust="spacing" textLength="76.9219" x="286.7637" y="1581.4121">notify(failed)</text></g><g class="message" data-entity-1="part6" data-entity-2="part10" data-source-line="105" id="msg31"><polygon fill="#737266" points="1879.5435,1610.2109,1889.5435,1614.2109,1879.5435,1618.2109,1883.5435,1614.2109" style="stroke:#737266;stroke-width:1;stroke-linejoin:miter;stroke-miterlimit:10;"/><line style="stroke:#737266;stroke-width:1;" x1="1100.1748" x2="1885.5435" y1="1614.2109" y2="1614.2109"/><text fill="#444444" font-family="Verdana" font-size="12" lengthAdjust="spacing" textLength="108.416" x="1107.1748" y="1609.3809">SMTP &#8594; requester</text></g><g class="message" data-entity-1="part1" data-entity-2="part1" data-source-line="108" id="msg32"><polygon fill="#737266" points="16,1645.1797,6,1649.1797,16,1653.1797,12,1649.1797" style="stroke:#737266;stroke-width:1;stroke-linejoin:miter;stroke-miterlimit:10;"/><line style="stroke:#737266;stroke-width:1;stroke-dasharray:2,2;" x1="10" x2="278.7637" y1="1649.1797" y2="1649.1797"/><text fill="#444444" font-family="Verdana" font-size="12" lengthAdjust="spacing" textLength="76.2715" x="22" y="1644.3496">ctrl.Result{}</text></g><?plantuml-src bLPDKzj84BthLyoo5wZ2X0J2XnEeieKDLE6iox2L0yvXBBNnBF986Ot0tbIgSjeVi9LVc5-oRsOaIqA6JUGBQBfVTxz-tQFVz8pcn9A82-cbzq8cNF4vc_3W_ax5cGpzE8eL-xtVCR-AHKgVCv81iIyUmzDHAdxCRG_t3jyS79Il-x7K-T6-VUf7r-9lOg_Vs9TNOafNGb8tLY6ftAbZ7ti-v4gBG2HSwfh9sxtzJlUmOVAqYbwlTzRlFJMhvBVdx-qV7Lk3RhoeXUZk7fxjxgwE6WJr-ySzL_I7M5Fp_2r-_VAy2dtSFTxlxNfVA_HQro1MaXGxy3mjT4HiH6cSgO16XljKu_yWbe70oOzltrb84Mdol4cyO1i3BlaTEYirywCirQGsQZacPVbiumdkMAw0uSLJDkhvJISV5fbIqC1oBCypha9hwvytJOSgVX2fYAMGTsDvhRacDk3138ssFjU3__Evu38iiXbUl61DOL7CM7vKGXS-euzD9_H1J4LkyU6FcvyWnX-TEKP6-0jwEkhlzyz-Cft2TrZp9HaoT2nlsmrNTxHg6MER3uAp4PV1ZDGsGrEqYYCGmQuxMwwXU_wQ-2Q0WnhBIvbg03Yc_PlBCcBDPS151455V6aD1vtBA-2_xlLxHvvtSi9iXzd9YUVTjawD8XXhCxKIu2qFDEfjvohSPicCfzHc2QAXWvyyum57_nnkg2QuDzKu0MdWM7xJiPnY7bAEZRI6GlRdvPddcQbAM1_fPWgBY-kPLNyJZPcK7iYoWx0ckcjRcqK2nvCbY_Y48gOjKwsaZDXIHSWJzXvHJos8ysuLLSXOjj2akP0yQepcrCnl6Rga37bE8n5eXsX8gT89vupOeq1HPWN7qwbfb-Sz0P5nYMEQqqbCyaZ3z2Td-dfWB0blCypRPaY1BIxTPjnQaqgtdcLJqLyKQ78L6AGAUJ0APgw_eATcAR7Pc87EHTvUsyOCSkRo3ZwsjXfy0pzFDcG__lcN9PMbKFWDwtuGkyxIdSBToj5O6vek0BOiYtHIjPmv6ihpQjt32uCUqYhufXFCYAOWqDub5zOGmxKIDoqWCNC_ZkLjRMm_EHSUOSgHjuDY8XzIvvTQ4oiUGBPS3ksAfXf1yrBM8Aw7ua50IT4rYjArhaXI4G-NZ4zIpDLw92pHVYslYWRCkGXfdk0Lvj9mhe68oSIafnboIDDf5kLDYkMxiGJ90Q7REcPJCrZuDb3GsDoesoLh9DEe_z7sFfCQIynbEvQRM2L5TYoMm5COJDkUBQ_9YFMoOoNKdEf1S7qK92FDYf6rmU5AXssNB5MoJsAbURH32pvF8je9ulchYfZizMQqVUxdNKpN3OrN3RL-4Ylx2yNdYd1h6HcRs6WuAscFbhbyyuM16z2k5boAoyqAc2FBdCB8tWjjZCRDq4valcj9kLb-Pfsic2DyzAcdxNjHlzRVkg6e8ByNCmaPOObCSFEyOgDknszqrEm-6ynR8yhgeXrBMYIe4zh10YssxlCvklMebK2ZQ37Z9gFmvUWvplgsJK6MwTZKaJOYde8et3i1eEdK-uN5YhJm6MzsvRVl05mf4DwvBCDtzZkaGVASBx4vHHIv1TJGHIaCb-wlQEBsVQjbiR0RjOfsa6uMwIzVlVy0?></g></svg>