<svg xmlns="http://www.w3.org/2000/svg" xmlns:xlink="http://www.w3.org/1999/xlink" contentStyleType="text/css" data-diagram-type="SEQUENCE" height="1842px" preserveAspectRatio="none" style="width:1829px;height:1842px;background:#FAFAFA;" version="1.1" viewBox="0 0 1829 1842" width="1829px" zoomAndPan="magnify"><?plantuml 1.2026.4?><defs/><g><rect fill="#FAFAFA" height="1842" style="stroke:none;stroke-width:1;" width="1829" x="0" y="0"/><g class="title" data-source-line="18"><text fill="#000000" font-family="Verdana" font-size="22" font-weight="700" lengthAdjust="spacing" textLength="459.1426" x="684.0852" y="35.4209">ResourceRequest Reconcile &#8212; create</text><text fill="#000000" font-family="Verdana" font-size="22" font-weight="700" lengthAdjust="spacing" textLength="514.916" x="656.1985" y="61.0303">(two passes: apply then readiness check)</text></g><rect fill="#FFF9E6" height="1757.7578" rx="3" ry="3" style="stroke:#B07D00;stroke-width:1;" width="1176.2622" x="168.3301" y="78.2188"/><text fill="#000000" font-family="Verdana" font-size="13" font-weight="700" lengthAdjust="spacing" textLength="152.6484" x="680.137" y="90.2856">Management Cluster</text><rect fill="#FFF3CD" height="1757.7578" rx="3" ry="3" style="stroke:#B07D00;stroke-width:1;" width="323.7383" x="1356.5923" y="78.2188"/><text fill="#000000" font-family="Verdana" font-size="13" font-weight="700" lengthAdjust="spacing" textLength="317.7383" x="1359.5923" y="90.2856">Target Cluster  (via Rancher, controller SA)</text><rect fill="#FFFFFF" height="179.2734" rx="3" ry="3" style="stroke:#000000;stroke-width:1;" width="1795.313" x="8" y="307.9844"/><rect fill="#FFFFFF" height="471.5547" rx="3" ry="3" style="stroke:#000000;stroke-width:1;" width="1805.313" x="8" y="501.2578"/><rect fill="#FFFFFF" height="221.2109" rx="3" ry="3" style="stroke:#000000;stroke-width:1;" width="1795.313" x="8" y="623.2656"/><rect fill="#FFFFFF" height="108.2031" rx="3" ry="3" style="stroke:#000000;stroke-width:1;" width="1575.7661" x="8" y="1178.0859"/><rect fill="#FFFFFF" height="221.2109" rx="3" ry="3" style="stroke:#000000;stroke-width:1;" width="1795.313" x="8" y="1300.2891"/><rect fill="#FFFFFF" height="226.8828" rx="3" ry="3" style="stroke:#000000;stroke-width:1;" width="1795.313" x="8" y="1535.5"/><g class="participant-lifeline" data-entity-uid="part1" data-qualified-name="REC" data-source-line="21" id="part1-lifeline"><g><title>ResourceRequest</title><rect fill="#000000" fill-opacity="0.00000" height="1628.4375" width="8" x="244.6484" y="150.9453"/><line style="stroke:#AAAAAA;stroke-width:1;stroke-dasharray:5,5;" x1="248.3301" x2="248.3301" y1="150.9453" y2="1779.3828"/></g></g><g class="participant-lifeline" data-entity-uid="part2" data-qualified-name="SM" data-source-line="22" id="part2-lifeline"><g><title>Provisioning</title><rect fill="#000000" fill-opacity="0.00000" height="1628.4375" width="8" x="454.1094" y="150.9453"/><line style="stroke:#AAAAAA;stroke-width:1;stroke-dasharray:5,5;" x1="458.0532" x2="458.0532" y1="150.9453" y2="1779.3828"/></g></g><g class="participant-lifeline" data-entity-uid="part3" data-qualified-name="PH" data-source-line="23" id="part3-lifeline"><g><title>Provisioning</title><rect fill="#000000" fill-opacity="0.00000" height="1628.4375" width="8" x="652.3457" y="150.9453"/><line style="stroke:#AAAAAA;stroke-width:1;stroke-dasharray:5,5;" x1="655.7407" x2="655.7407" y1="150.9453" y2="1779.3828"/></g></g><g class="participant-lifeline" data-entity-uid="part4" data-qualified-name="PRW" data-source-line="24" id="part4-lifeline"><g><title>ProvisionedResource</title><rect fill="#000000" fill-opacity="0.00000" height="1628.4375" width="8" x="808.0508" y="150.9453"/><line style="stroke:#AAAAAA;stroke-width:1;stroke-dasharray:5,5;" x1="811.9507" x2="811.9507" y1="150.9453" y2="1779.3828"/></g></g><g class="participant-lifeline" data-entity-uid="part5" data-qualified-name="NOT" data-source-line="25" id="part5-lifeline"><g><title>Notifier</title><rect fill="#000000" fill-opacity="0.00000" height="1628.4375" width="8" x="946.9531" y="150.9453"/><line style="stroke:#AAAAAA;stroke-width:1;stroke-dasharray:5,5;" x1="950.1509" x2="950.1509" y1="150.9453" y2="1779.3828"/></g></g><g class="participant-lifeline" data-entity-uid="part6" data-qualified-name="RRCRD" data-source-line="26" id="part6-lifeline"><g><title>ResourceRequest</title><rect fill="#000000" fill-opacity="0.00000" height="1628.4375" width="8" x="1074.0737" y="150.9453"/><line style="stroke:#AAAAAA;stroke-width:1;stroke-dasharray:5,5;" x1="1077.7554" x2="1077.7554" y1="150.9453" y2="1779.3828"/></g></g><g class="participant-lifeline" data-entity-uid="part7" data-qualified-name="PRCRD" data-source-line="27" id="part7-lifeline"><g><title>ProvisionedResource</title><rect fill="#000000" fill-opacity="0.00000" height="1628.4375" width="8" x="1248.4922" y="150.9453"/><line style="stroke:#AAAAAA;stroke-width:1;stroke-dasharray:5,5;" x1="1252.3921" x2="1252.3921" y1="150.9453" y2="1779.3828"/></g></g><g class="participant-lifeline" data-entity-uid="part8" data-qualified-name="CTI" data-source-line="31" id="part8-lifeline"><g><title>CRD Target</title><rect fill="#000000" fill-opacity="0.00000" height="1628.4375" width="8" x="1514.4614" y="150.9453"/><line style="stroke:#AAAAAA;stroke-width:1;stroke-dasharray:5,5;" x1="1518.1567" x2="1518.1567" y1="150.9453" y2="1779.3828"/></g></g><g class="participant-lifeline" data-entity-uid="part9" data-qualified-name="MAIL" data-source-line="34" id="part9-lifeline"><g><title>Mail Relay</title><rect fill="#000000" fill-opacity="0.00000" height="1628.4375" width="8" x="1738.3218" y="150.9453"/><line style="stroke:#AAAAAA;stroke-width:1;stroke-dasharray:5,5;" x1="1741.3306" x2="1741.3306" y1="150.9453" y2="1779.3828"/></g></g><g class="participant participant-head" data-entity-uid="part1" data-qualified-name="REC" data-source-line="21" id="part1-head"><rect fill="#EEEDFE" height="42.5938" rx="3" ry="3" style="stroke:#534AB7;stroke-width:1;" width="132.6367" x="182.3301" y="102.3516"/><text fill="#3C3489" font-family="Verdana" font-size="14" lengthAdjust="spacing" textLength="122.6367" x="187.3301" y="120.3467">ResourceRequest</text><text fill="#3C3489" font-family="Verdana" font-size="14" lengthAdjust="spacing" textLength="73.3223" x="211.9873" y="136.6436">Reconciler</text></g><g class="participant participant-tail" data-entity-uid="part1" data-qualified-name="REC" data-source-line="21" id="part1-tail"><rect fill="#EEEDFE" height="42.5938" rx="3" ry="3" style="stroke:#534AB7;stroke-width:1;" width="132.6367" x="182.3301" y="1783.3828"/><text fill="#3C3489" font-family="Verdana" font-size="14" lengthAdjust="spacing" textLength="122.6367" x="187.3301" y="1801.3779">ResourceRequest</text><text fill="#3C3489" font-family="Verdana" font-size="14" lengthAdjust="spacing" textLength="73.3223" x="211.9873" y="1817.6748">Reconciler</text></g><g class="participant participant-head" data-entity-uid="part2" data-qualified-name="SM" data-source-line="22" id="part2-head"><rect fill="#EEEDFE" height="42.5938" rx="3" ry="3" style="stroke:#534AB7;stroke-width:1;" width="110.1123" x="403.0532" y="102.3516"/><text fill="#3C3489" font-family="Verdana" font-size="14" lengthAdjust="spacing" textLength="85.21" x="415.5044" y="120.3467">Provisioning</text><text fill="#3C3489" font-family="Verdana" font-size="14" lengthAdjust="spacing" textLength="100.1123" x="408.0532" y="136.6436">State Machine</text></g><g class="participant participant-tail" data-entity-uid="part2" data-qualified-name="SM" data-source-line="22" id="part2-tail"><rect fill="#EEEDFE" height="42.5938" rx="3" ry="3" style="stroke:#534AB7;stroke-width:1;" width="110.1123" x="403.0532" y="1783.3828"/><text fill="#3C3489" font-family="Verdana" font-size="14" lengthAdjust="spacing" textLength="85.21" x="415.5044" y="1801.3779">Provisioning</text><text fill="#3C3489" font-family="Verdana" font-size="14" lengthAdjust="spacing" textLength="100.1123" x="408.0532" y="1817.6748">State Machine</text></g><g class="participant participant-head" data-entity-uid="part3" data-qualified-name="PH" data-source-line="23" id="part3-head"><rect fill="#EEEDFE" height="42.5938" rx="3" ry="3" style="stroke:#534AB7;stroke-width:1;" width="95.21" x="608.7407" y="102.3516"/><text fill="#3C3489" font-family="Verdana" font-size="14" lengthAdjust="spacing" textLength="85.21" x="613.7407" y="120.3467">Provisioning</text><text fill="#3C3489" font-family="Verdana" font-size="14" lengthAdjust="spacing" textLength="55.125" x="628.7832" y="136.6436">Handler</text></g><g class="participant participant-tail" data-entity-uid="part3" data-qualified-name="PH" data-source-line="23" id="part3-tail"><rect fill="#EEEDFE" height="42.5938" rx="3" ry="3" style="stroke:#534AB7;stroke-width:1;" width="95.21" x="608.7407" y="1783.3828"/><text fill="#3C3489" font-family="Verdana" font-size="14" lengthAdjust="spacing" textLength="85.21" x="613.7407" y="1801.3779">Provisioning</text><text fill="#3C3489" font-family="Verdana" font-size="14" lengthAdjust="spacing" textLength="55.125" x="628.7832" y="1817.6748">Handler</text></g><g class="participant participant-head" data-entity-uid="part4" data-qualified-name="PRW" data-source-line="24" id="part4-head"><rect fill="#EEEDFE" height="42.5938" rx="3" ry="3" style="stroke:#534AB7;stroke-width:1;" width="156.2002" x="733.9507" y="102.3516"/><text fill="#3C3489" font-family="Verdana" font-size="14" lengthAdjust="spacing" textLength="146.2002" x="738.9507" y="120.3467">ProvisionedResource</text><text fill="#3C3489" font-family="Verdana" font-size="14" lengthAdjust="spacing" textLength="43.3467" x="790.3774" y="136.6436">Writer</text></g><g class="participant participant-tail" data-entity-uid="part4" data-qualified-name="PRW" data-source-line="24" id="part4-tail"><rect fill="#EEEDFE" height="42.5938" rx="3" ry="3" style="stroke:#534AB7;stroke-width:1;" width="156.2002" x="733.9507" y="1783.3828"/><text fill="#3C3489" font-family="Verdana" font-size="14" lengthAdjust="spacing" textLength="146.2002" x="738.9507" y="1801.3779">ProvisionedResource</text><text fill="#3C3489" font-family="Verdana" font-size="14" lengthAdjust="spacing" textLength="43.3467" x="790.3774" y="1817.6748">Writer</text></g><g class="participant participant-head" data-entity-uid="part5" data-qualified-name="NOT" data-source-line="25" id="part5-head"><rect fill="#EEEDFE" height="26.2969" rx="3" ry="3" style="stroke:#534AB7;stroke-width:1;" width="61.6045" x="920.1509" y="118.6484"/><text fill="#3C3489" font-family="Verdana" font-size="14" lengthAdjust="spacing" textLength="51.6045" x="925.1509" y="136.6436">Notifier</text></g><g class="participant participant-tail" data-entity-uid="part5" data-qualified-name="NOT" data-source-line="25" id="part5-tail"><rect fill="#EEEDFE" height="26.2969" rx="3" ry="3" style="stroke:#534AB7;stroke-width:1;" width="61.6045" x="920.1509" y="1783.3828"/><text fill="#3C3489" font-family="Verdana" font-size="14" lengthAdjust="spacing" textLength="51.6045" x="925.1509" y="1801.3779">Notifier</text></g><g class="participant participant-head" data-entity-uid="part6" data-qualified-name="RRCRD" data-source-line="26" id="part6-head"><rect fill="#E8F4FD" height="42.5938" rx="3" ry="3" style="stroke:#534AB7;stroke-width:1;" width="132.6367" x="1011.7554" y="102.3516"/><text fill="#3C3489" font-family="Verdana" font-size="14" lengthAdjust="spacing" textLength="122.6367" x="1016.7554" y="120.3467">ResourceRequest</text><text fill="#3C3489" font-family="Verdana" font-size="14" lengthAdjust="spacing" textLength="30.2832" x="1062.9321" y="136.6436">CRD</text></g><g class="participant participant-tail" data-entity-uid="part6" data-qualified-name="RRCRD" data-source-line="26" id="part6-tail"><rect fill="#E8F4FD" height="42.5938" rx="3" ry="3" style="stroke:#534AB7;stroke-width:1;" width="132.6367" x="1011.7554" y="1783.3828"/><text fill="#3C3489" font-family="Verdana" font-size="14" lengthAdjust="spacing" textLength="122.6367" x="1016.7554" y="1801.3779">ResourceRequest</text><text fill="#3C3489" font-family="Verdana" font-size="14" lengthAdjust="spacing" textLength="30.2832" x="1062.9321" y="1817.6748">CRD</text></g><g class="participant participant-head" data-entity-uid="part7" data-qualified-name="PRCRD" data-source-line="27" id="part7-head"><rect fill="#E8F4FD" height="42.5938" rx="3" ry="3" style="stroke:#534AB7;stroke-width:1;" width="156.2002" x="1174.3921" y="102.3516"/><text fill="#3C3489" font-family="Verdana" font-size="14" lengthAdjust="spacing" textLength="146.2002" x="1179.3921" y="120.3467">ProvisionedResource</text><text fill="#3C3489" font-family="Verdana" font-size="14" lengthAdjust="spacing" textLength="30.2832" x="1237.3506" y="136.6436">CRD</text></g><g class="participant participant-tail" data-entity-uid="part7" data-qualified-name="PRCRD" data-source-line="27" id="part7-tail"><rect fill="#E8F4FD" height="42.5938" rx="3" ry="3" style="stroke:#534AB7;stroke-width:1;" width="156.2002" x="1174.3921" y="1783.3828"/><text fill="#3C3489" font-family="Verdana" font-size="14" lengthAdjust="spacing" textLength="146.2002" x="1179.3921" y="1801.3779">ProvisionedResource</text><text fill="#3C3489" font-family="Verdana" font-size="14" lengthAdjust="spacing" textLength="30.2832" x="1237.3506" y="1817.6748">CRD</text></g><g class="participant participant-head" data-entity-uid="part8" data-qualified-name="CTI" data-source-line="31" id="part8-head"><rect fill="#EEEDFE" height="42.5938" rx="3" ry="3" style="stroke:#534AB7;stroke-width:1;" width="90.6094" x="1473.1567" y="102.3516"/><text fill="#3C3489" font-family="Verdana" font-size="14" lengthAdjust="spacing" textLength="80.6094" x="1478.1567" y="120.3467">CRD Target</text><text fill="#3C3489" font-family="Verdana" font-size="14" lengthAdjust="spacing" textLength="59.5479" x="1488.6875" y="136.6436">Instance</text></g><g class="participant participant-tail" data-entity-uid="part8" data-qualified-name="CTI" data-source-line="31" id="part8-tail"><rect fill="#EEEDFE" height="42.5938" rx="3" ry="3" style="stroke:#534AB7;stroke-width:1;" width="90.6094" x="1473.1567" y="1783.3828"/><text fill="#3C3489" font-family="Verdana" font-size="14" lengthAdjust="spacing" textLength="80.6094" x="1478.1567" y="1801.3779">CRD Target</text><text fill="#3C3489" font-family="Verdana" font-size="14" lengthAdjust="spacing" textLength="59.5479" x="1488.6875" y="1817.6748">Instance</text></g><g class="participant participant-head" data-entity-uid="part9" data-qualified-name="MAIL" data-source-line="34" id="part9-head"><rect fill="#F1EFE8" height="26.2969" rx="3" ry="3" style="stroke:#534AB7;stroke-width:1;" width="81.9824" x="1701.3306" y="118.6484"/><text fill="#3C3489" font-family="Verdana" font-size="14" lengthAdjust="spacing" textLength="71.9824" x="1706.3306" y="136.6436">Mail Relay</text></g><g class="participant participant-tail" data-entity-uid="part9" data-qualified-name="MAIL" data-source-line="34" id="part9-tail"><rect fill="#F1EFE8" height="26.2969" rx="3" ry="3" style="stroke:#534AB7;stroke-width:1;" width="81.9824" x="1701.3306" y="1783.3828"/><text fill="#3C3489" font-family="Verdana" font-size="14" lengthAdjust="spacing" textLength="71.9824" x="1706.3306" y="1801.3779">Mail Relay</text></g><rect fill="#FFFFFF" height="3" rx="3" ry="3" style="stroke:#FFFFFF;stroke-width:1;" width="1818.313" x="5" y="181.5117"/><line style="stroke:#000000;stroke-width:0.5;" x1="5" x2="1823.313" y1="181.5117" y2="181.5117"/><line style="stroke:#000000;stroke-width:0.5;" x1="5" x2="1823.313" y1="184.5117" y2="184.5117"/><rect fill="#FFFFFF" height="23.1328" rx="3" ry="3" style="stroke:#000000;stroke-width:1;" width="397.5127" x="715.4001" y="170.9453"/><text fill="#000000" font-family="Verdana" font-size="13" font-weight="700" lengthAdjust="spacing" textLength="378.9868" x="721.4001" y="187.0122">Apply pass (reconcile invocation &#8212; phase: pending)</text><g class="message" data-entity-1="part1" data-entity-2="part1" data-source-line="38" id="msg1"><polygon fill="#737266" points="236.6484,220.0469,246.6484,224.0469,236.6484,228.0469,240.6484,224.0469" style="stroke:#737266;stroke-width:1;stroke-linejoin:miter;stroke-miterlimit:10;"/><line style="stroke:#737266;stroke-width:1;" x1="5" x2="242.6484" y1="224.0469" y2="224.0469"/><text fill="#444444" font-family="Verdana" font-size="12" lengthAdjust="spacing" textLength="160.5352" x="12" y="219.2168">reconcile [phase: pending]</text></g><g class="message" data-entity-1="part1" data-entity-2="part2" data-source-line="39" id="msg2"><polygon fill="#737266" points="446.1094,248.0156,456.1094,252.0156,446.1094,256.0156,450.1094,252.0156" style="stroke:#737266;stroke-width:1;stroke-linejoin:miter;stroke-miterlimit:10;"/><line style="stroke:#737266;stroke-width:1;" x1="248.6484" x2="452.1094" y1="252.0156" y2="252.0156"/><text fill="#444444" font-family="Verdana" font-size="12" lengthAdjust="spacing" textLength="185.4609" x="255.6484" y="247.1855">evaluate(decisions, approvers)</text></g><g class="message" data-entity-1="part2" data-entity-2="part2" data-source-line="40" id="msg3"><line style="stroke:#737266;stroke-width:1;" x1="458.1094" x2="500.1094" y1="279.9844" y2="279.9844"/><line style="stroke:#737266;stroke-width:1;" x1="500.1094" x2="500.1094" y1="279.9844" y2="292.9844"/><line style="stroke:#737266;stroke-width:1;" x1="459.1094" x2="500.1094" y1="292.9844" y2="292.9844"/><polygon fill="#737266" points="469.1094,288.9844,459.1094,292.9844,469.1094,296.9844,465.1094,292.9844" style="stroke:#737266;stroke-width:1;stroke-linejoin:miter;stroke-miterlimit:10;"/><text fill="#444444" font-family="Verdana" font-size="12" lengthAdjust="spacing" textLength="184.2363" x="465.1094" y="275.1543">all required decisions present?</text></g><path d="M11,307.9844 L224.7168,307.9844 L224.7168,315.1172 L214.7168,325.1172 L8,325.1172 L8,310.9844 A3,3 0 0 1 11,307.9844" fill="#FFFFFF" style="stroke:#000000;stroke-width:1;"/><rect fill="none" height="179.2734" rx="3" ry="3" style="stroke:#000000;stroke-width:1;" width="1795.313" x="8" y="307.9844"/><text fill="#000000" font-family="Verdana" font-size="13" font-weight="700" lengthAdjust="spacing" textLength="171.7168" x="23" y="321.0513">Failure path &#8212; rejected</text><g class="message" data-entity-1="part2" data-entity-2="part6" data-source-line="43" id="msg4"><polygon fill="#737266" points="1066.0737,341.0859,1076.0737,345.0859,1066.0737,349.0859,1070.0737,345.0859" style="stroke:#737266;stroke-width:1;stroke-linejoin:miter;stroke-miterlimit:10;"/><line style="stroke:#737266;stroke-width:1;" x1="458.1094" x2="1072.0737" y1="345.0859" y2="345.0859"/><text fill="#444444" font-family="Verdana" font-size="12" lengthAdjust="spacing" textLength="140.9238" x="465.1094" y="340.2559">patch phase = rejected</text></g><path d="M1192,361.0859 L1192,395.0859 A3,3 0 0 0 1195,398.0859 L1309,398.0859 A3,3 0 0 0 1312,395.0859 L1312,368.0859 L1302,358.0859 L1195,358.0859 A3,3 0 0 0 1192,361.0859" fill="#FFFFFF" style="stroke:#000000;stroke-width:1;"/><path d="M1302,358.0859 L1302,366.5859 A1.5,1.5 0 0 0 1303.5,368.0859 L1312,368.0859 L1302,358.0859" fill="#FFFFFF" style="stroke:#000000;stroke-width:1;"/><text fill="#000000" font-family="Verdana" font-size="13" lengthAdjust="spacing" textLength="99.8613" x="1198" y="375.1528">no provisioning</text><text fill="#000000" font-family="Verdana" font-size="13" lengthAdjust="spacing" textLength="68.4214" x="1198" y="390.2856">attempted</text><g class="message" data-entity-1="part1" data-entity-2="part5" data-source-line="45" id="msg5"><polygon fill="#737266" points="938.9531,419.3203,948.9531,423.3203,938.9531,427.3203,942.9531,423.3203" style="stroke:#737266;stroke-width:1;stroke-linejoin:miter;stroke-miterlimit:10;"/><line style="stroke:#737266;stroke-width:1;" x1="248.6484" x2="944.9531" y1="423.3203" y2="423.3203"/><text fill="#444444" font-family="Verdana" font-size="12" lengthAdjust="spacing" textLength="93.0117" x="255.6484" y="418.4902">notify(rejected)</text></g><g class="message" data-entity-1="part5" data-entity-2="part9" data-source-line="46" id="msg6"><polygon fill="#737266" points="1730.3218,447.2891,1740.3218,451.2891,1730.3218,455.2891,1734.3218,451.2891" style="stroke:#737266;stroke-width:1;stroke-linejoin:miter;stroke-miterlimit:10;"/><line style="stroke:#737266;stroke-width:1;" x1="950.9531" x2="1736.3218" y1="451.2891" y2="451.2891"/><text fill="#444444" font-family="Verdana" font-size="12" lengthAdjust="spacing" textLength="108.416" x="957.9531" y="446.459">SMTP &#8594; requester</text></g><g class="message" data-entity-1="part1" data-entity-2="part1" data-source-line="47" id="msg7"><polygon fill="#737266" points="16,475.2578,6,479.2578,16,483.2578,12,479.2578" style="stroke:#737266;stroke-width:1;stroke-linejoin:miter;stroke-miterlimit:10;"/><line style="stroke:#737266;stroke-width:1;stroke-dasharray:2,2;" x1="10" x2="247.6484" y1="479.2578" y2="479.2578"/><text fill="#444444" font-family="Verdana" font-size="12" lengthAdjust="spacing" textLength="76.2715" x="22" y="474.4277">ctrl.Result{}</text></g><path d="M11,501.2578 L282.3027,501.2578 L282.3027,508.3906 L272.3027,518.3906 L8,518.3906 L8,504.2578 A3,3 0 0 1 11,501.2578" fill="#FFFFFF" style="stroke:#000000;stroke-width:1;"/><rect fill="none" height="471.5547" rx="3" ry="3" style="stroke:#000000;stroke-width:1;" width="1805.313" x="8" y="501.2578"/><text fill="#000000" font-family="Verdana" font-size="13" font-weight="700" lengthAdjust="spacing" textLength="229.3027" x="23" y="514.3247">Approved &#8212; begin provisioning</text><g class="message" data-entity-1="part2" data-entity-2="part6" data-source-line="51" id="msg8"><polygon fill="#737266" points="1066.0737,534.3594,1076.0737,538.3594,1066.0737,542.3594,1070.0737,538.3594" style="stroke:#737266;stroke-width:1;stroke-linejoin:miter;stroke-miterlimit:10;"/><line style="stroke:#737266;stroke-width:1;" x1="458.1094" x2="1072.0737" y1="538.3594" y2="538.3594"/><text fill="#444444" font-family="Verdana" font-size="12" lengthAdjust="spacing" textLength="296.291" x="465.1094" y="533.5293">patch phase: pending &#8594; approved &#8594; provisioning</text></g><g class="message" data-entity-1="part2" data-entity-2="part3" data-source-line="52" id="msg9"><polygon fill="#737266" points="644.3457,562.3281,654.3457,566.3281,644.3457,570.3281,648.3457,566.3281" style="stroke:#737266;stroke-width:1;stroke-linejoin:miter;stroke-miterlimit:10;"/><line style="stroke:#737266;stroke-width:1;" x1="458.1094" x2="650.3457" y1="566.3281" y2="566.3281"/><text fill="#444444" font-family="Verdana" font-size="12" lengthAdjust="spacing" textLength="133.8281" x="465.1094" y="561.498">provision(parameters)</text></g><g class="message" data-entity-1="part3" data-entity-2="part8" data-source-line="54" id="msg10"><polygon fill="#737266" points="1506.4614,604.2656,1516.4614,608.2656,1506.4614,612.2656,1510.4614,608.2656" style="stroke:#737266;stroke-width:1;stroke-linejoin:miter;stroke-miterlimit:10;"/><line style="stroke:#737266;stroke-width:1;" x1="656.3457" x2="1512.4614" y1="608.2656" y2="608.2656"/><text fill="#444444" font-family="Verdana" font-size="12" lengthAdjust="spacing" textLength="185.2148" x="663.3457" y="589.4668">SSA apply CRD target instance</text><text fill="#444444" font-family="Verdana" font-size="12" lengthAdjust="spacing" textLength="86.5137" x="663.3457" y="603.4355">[controller SA]</text></g><path d="M11,623.2656 L245.9941,623.2656 L245.9941,630.3984 L235.9941,640.3984 L8,640.3984 L8,626.2656 A3,3 0 0 1 11,623.2656" fill="#FFFFFF" style="stroke:#000000;stroke-width:1;"/><rect fill="none" height="221.2109" rx="3" ry="3" style="stroke:#000000;stroke-width:1;" width="1795.313" x="8" y="623.2656"/><text fill="#000000" font-family="Verdana" font-size="13" font-weight="700" lengthAdjust="spacing" textLength="192.9941" x="23" y="636.3325">Failure path &#8212; apply error</text><g class="message" data-entity-1="part8" data-entity-2="part3" data-source-line="57" id="msg11"><polygon fill="#737266" points="667.3457,656.3672,657.3457,660.3672,667.3457,664.3672,663.3457,660.3672" style="stroke:#737266;stroke-width:1;stroke-linejoin:miter;stroke-miterlimit:10;"/><line style="stroke:#737266;stroke-width:1;stroke-dasharray:2,2;" x1="661.3457" x2="1517.4614" y1="660.3672" y2="660.3672"/><text fill="#444444" font-family="Verdana" font-size="12" lengthAdjust="spacing" textLength="247.3711" x="673.3457" y="655.5371">error (RBAC denial / cluster unreachable)</text></g><path d="M511,676.3672 L511,710.3672 A3,3 0 0 0 514,713.3672 L797,713.3672 A3,3 0 0 0 800,710.3672 L800,683.3672 L790,673.3672 L514,673.3672 A3,3 0 0 0 511,676.3672" fill="#FFFFFF" style="stroke:#000000;stroke-width:1;"/><path d="M790,673.3672 L790,681.8672 A1.5,1.5 0 0 0 791.5,683.3672 L800,683.3672 L790,673.3672" fill="#FFFFFF" style="stroke:#000000;stroke-width:1;"/><text fill="#000000" font-family="Verdana" font-size="13" lengthAdjust="spacing" textLength="223.0884" x="517" y="690.4341">requeue with exponential backoff;</text><text fill="#000000" font-family="Verdana" font-size="13" lengthAdjust="spacing" textLength="268.9502" x="517" y="705.5669">retries exhausted &#8594; patch phase = failed</text><g class="message" data-entity-1="part3" data-entity-2="part6" data-source-line="59" id="msg12"><polygon fill="#737266" points="1066.0737,748.5703,1076.0737,752.5703,1066.0737,756.5703,1070.0737,752.5703" style="stroke:#737266;stroke-width:1;stroke-linejoin:miter;stroke-miterlimit:10;"/><line style="stroke:#737266;stroke-width:1;" x1="656.3457" x2="1072.0737" y1="752.5703" y2="752.5703"/><text fill="#444444" font-family="Verdana" font-size="12" lengthAdjust="spacing" textLength="124.834" x="663.3457" y="733.7715">patch phase = failed</text><text fill="#444444" font-family="Verdana" font-size="12" lengthAdjust="spacing" textLength="155.4258" x="663.3457" y="747.7402">failureReason = &lt;cause&gt;</text></g><g class="message" data-entity-1="part1" data-entity-2="part5" data-source-line="60" id="msg13"><polygon fill="#737266" points="938.9531,776.5391,948.9531,780.5391,938.9531,784.5391,942.9531,780.5391" style="stroke:#737266;stroke-width:1;stroke-linejoin:miter;stroke-miterlimit:10;"/><line style="stroke:#737266;stroke-width:1;" x1="248.6484" x2="944.9531" y1="780.5391" y2="780.5391"/><text fill="#444444" font-family="Verdana" font-size="12" lengthAdjust="spacing" textLength="76.9219" x="255.6484" y="775.709">notify(failed)</text></g><g class="message" data-entity-1="part5" data-entity-2="part9" data-source-line="61" id="msg14"><polygon fill="#737266" points="1730.3218,804.5078,1740.3218,808.5078,1730.3218,812.5078,1734.3218,808.5078" style="stroke:#737266;stroke-width:1;stroke-linejoin:miter;stroke-miterlimit:10;"/><line style="stroke:#737266;stroke-width:1;" x1="950.9531" x2="1736.3218" y1="808.5078" y2="808.5078"/><text fill="#444444" font-family="Verdana" font-size="12" lengthAdjust="spacing" textLength="108.416" x="957.9531" y="803.6777">SMTP &#8594; requester</text></g><g class="message" data-entity-1="part1" data-entity-2="part1" data-source-line="62" id="msg15"><polygon fill="#737266" points="16,832.4766,6,836.4766,16,840.4766,12,836.4766" style="stroke:#737266;stroke-width:1;stroke-linejoin:miter;stroke-miterlimit:10;"/><line style="stroke:#737266;stroke-width:1;stroke-dasharray:2,2;" x1="10" x2="247.6484" y1="836.4766" y2="836.4766"/><text fill="#444444" font-family="Verdana" font-size="12" lengthAdjust="spacing" textLength="76.2715" x="22" y="831.6465">ctrl.Result{}</text></g><g class="message" data-entity-1="part8" data-entity-2="part3" data-source-line="65" id="msg16"><polygon fill="#737266" points="667.3457,867.4453,657.3457,871.4453,667.3457,875.4453,663.3457,871.4453" style="stroke:#737266;stroke-width:1;stroke-linejoin:miter;stroke-miterlimit:10;"/><line style="stroke:#737266;stroke-width:1;stroke-dasharray:2,2;" x1="661.3457" x2="1517.4614" y1="871.4453" y2="871.4453"/><text fill="#444444" font-family="Verdana" font-size="12" lengthAdjust="spacing" textLength="55.2539" x="673.3457" y="866.6152">accepted</text></g><path d="M602,887.4453 L602,936.4453 A3,3 0 0 0 605,939.4453 L1569,939.4453 A3,3 0 0 0 1572,936.4453 L1572,894.4453 L1562,884.4453 L605,884.4453 A3,3 0 0 0 602,887.4453" fill="#FFFFFF" style="stroke:#000000;stroke-width:1;"/><path d="M1562,884.4453 L1562,892.9453 A1.5,1.5 0 0 0 1563.5,894.4453 L1572,894.4453 L1562,884.4453" fill="#FFFFFF" style="stroke:#000000;stroke-width:1;"/><text fill="#000000" font-family="Verdana" font-size="13" lengthAdjust="spacing" textLength="265.7637" x="924.0085" y="901.5122">CRD Target Controller begins reconciling</text><text fill="#000000" font-family="Verdana" font-size="13" lengthAdjust="spacing" textLength="201.8618" x="924.0085" y="916.645">derived objects independently.</text><text fill="#000000" font-family="Verdana" font-size="13" lengthAdjust="spacing" textLength="317.0083" x="924.0085" y="931.7778">Readiness is checked on re-invocation, not here.</text><g class="message" data-entity-1="part1" data-entity-2="part1" data-source-line="67" id="msg17"><polygon fill="#737266" points="16,960.8125,6,964.8125,16,968.8125,12,964.8125" style="stroke:#737266;stroke-width:1;stroke-linejoin:miter;stroke-miterlimit:10;"/><line style="stroke:#737266;stroke-width:1;stroke-dasharray:2,2;" x1="10" x2="247.6484" y1="964.8125" y2="964.8125"/><text fill="#444444" font-family="Verdana" font-size="12" lengthAdjust="spacing" textLength="212.6484" x="22" y="959.9824">ctrl.Result{RequeueAfter: interval}</text></g><rect fill="#FFFFFF" height="3" rx="3" ry="3" style="stroke:#FFFFFF;stroke-width:1;" width="1818.313" x="5" y="1000.3789"/><line style="stroke:#000000;stroke-width:0.5;" x1="5" x2="1823.313" y1="1000.3789" y2="1000.3789"/><line style="stroke:#000000;stroke-width:0.5;" x1="5" x2="1823.313" y1="1003.3789" y2="1003.3789"/><rect fill="#FFFFFF" height="23.1328" rx="3" ry="3" style="stroke:#000000;stroke-width:1;" width="529.3726" x="649.4702" y="989.8125"/><text fill="#000000" font-family="Verdana" font-size="13" font-weight="700" lengthAdjust="spacing" textLength="510.8467" x="655.4702" y="1005.8794">Readiness check pass (reconcile re-invocation &#8212; phase: provisioning)</text><path d="M49,1030.9453 L49,1064.9453 A3,3 0 0 0 52,1067.9453 L444,1067.9453 A3,3 0 0 0 447,1064.9453 L447,1037.9453 L437,1027.9453 L52,1027.9453 A3,3 0 0 0 49,1030.9453" fill="#FFFFFF" style="stroke:#000000;stroke-width:1;"/><path d="M437,1027.9453 L437,1036.4453 A1.5,1.5 0 0 0 438.5,1037.9453 L447,1037.9453 L437,1027.9453" fill="#FFFFFF" style="stroke:#000000;stroke-width:1;"/><text fill="#000000" font-family="Verdana" font-size="13" lengthAdjust="spacing" textLength="377.0952" x="55" y="1045.0122">Repeated on each re-invocation until a terminal outcome.</text><text fill="#000000" font-family="Verdana" font-size="13" lengthAdjust="spacing" textLength="285.6255" x="55" y="1060.145">No blocking watch in the reconcile function.</text><g class="message" data-entity-1="part1" data-entity-2="part1" data-source-line="73" id="msg18"><polygon fill="#737266" points="236.6484,1089.1797,246.6484,1093.1797,236.6484,1097.1797,240.6484,1093.1797" style="stroke:#737266;stroke-width:1;stroke-linejoin:miter;stroke-miterlimit:10;"/><line style="stroke:#737266;stroke-width:1;" x1="5" x2="242.6484" y1="1093.1797" y2="1093.1797"/><text fill="#444444" font-family="Verdana" font-size="12" lengthAdjust="spacing" textLength="185.1738" x="12" y="1088.3496">reconcile [phase: provisioning]</text></g><g class="message" data-entity-1="part1" data-entity-2="part3" data-source-line="74" id="msg19"><polygon fill="#737266" points="644.3457,1117.1484,654.3457,1121.1484,644.3457,1125.1484,648.3457,1121.1484" style="stroke:#737266;stroke-width:1;stroke-linejoin:miter;stroke-miterlimit:10;"/><line style="stroke:#737266;stroke-width:1;" x1="248.6484" x2="650.3457" y1="1121.1484" y2="1121.1484"/><text fill="#444444" font-family="Verdana" font-size="12" lengthAdjust="spacing" textLength="97.0605" x="255.6484" y="1116.3184">check readiness</text></g><g class="message" data-entity-1="part3" data-entity-2="part8" data-source-line="75" id="msg20"><polygon fill="#737266" points="1506.4614,1159.0859,1516.4614,1163.0859,1506.4614,1167.0859,1510.4614,1163.0859" style="stroke:#737266;stroke-width:1;stroke-linejoin:miter;stroke-miterlimit:10;"/><line style="stroke:#737266;stroke-width:1;" x1="656.3457" x2="1512.4614" y1="1163.0859" y2="1163.0859"/><text fill="#444444" font-family="Verdana" font-size="12" lengthAdjust="spacing" textLength="125.9414" x="663.3457" y="1144.2871">get status.conditions</text><text fill="#444444" font-family="Verdana" font-size="12" lengthAdjust="spacing" textLength="151.1426" x="663.3457" y="1158.2559">[controller SA, read-only]</text></g><path d="M11,1178.0859 L341.6533,1178.0859 L341.6533,1185.2188 L331.6533,1195.2188 L8,1195.2188 L8,1181.0859 A3,3 0 0 1 11,1178.0859" fill="#FFFFFF" style="stroke:#000000;stroke-width:1;"/><rect fill="none" height="108.2031" rx="3" ry="3" style="stroke:#000000;stroke-width:1;" width="1575.7661" x="8" y="1178.0859"/><text fill="#000000" font-family="Verdana" font-size="13" font-weight="700" lengthAdjust="spacing" textLength="288.6533" x="23" y="1191.1528">Retry &#8212; NotReady or conditions absent</text><g class="message" data-entity-1="part8" data-entity-2="part3" data-source-line="78" id="msg21"><polygon fill="#737266" points="667.3457,1211.1875,657.3457,1215.1875,667.3457,1219.1875,663.3457,1215.1875" style="stroke:#737266;stroke-width:1;stroke-linejoin:miter;stroke-miterlimit:10;"/><line style="stroke:#737266;stroke-width:1;stroke-dasharray:2,2;" x1="661.3457" x2="1517.4614" y1="1215.1875" y2="1215.1875"/><text fill="#444444" font-family="Verdana" font-size="12" lengthAdjust="spacing" textLength="86.7012" x="673.3457" y="1210.3574">Ready = False</text></g><path d="M536,1231.1875 L536,1250.1875 A3,3 0 0 0 539,1253.1875 L772,1253.1875 A3,3 0 0 0 775,1250.1875 L775,1238.1875 L765,1228.1875 L539,1228.1875 A3,3 0 0 0 536,1231.1875" fill="#FFFFFF" style="stroke:#000000;stroke-width:1;"/><path d="M765,1228.1875 L765,1236.6875 A1.5,1.5 0 0 0 766.5,1238.1875 L775,1238.1875 L765,1228.1875" fill="#FFFFFF" style="stroke:#000000;stroke-width:1;"/><text fill="#000000" font-family="Verdana" font-size="13" lengthAdjust="spacing" textLength="218.7085" x="542" y="1245.2544">requeue with exponential backoff</text><g class="message" data-entity-1="part1" data-entity-2="part1" data-source-line="80" id="msg22"><polygon fill="#737266" points="16,1274.2891,6,1278.2891,16,1282.2891,12,1278.2891" style="stroke:#737266;stroke-width:1;stroke-linejoin:miter;stroke-miterlimit:10;"/><line style="stroke:#737266;stroke-width:1;stroke-dasharray:2,2;" x1="10" x2="247.6484" y1="1278.2891" y2="1278.2891"/><text fill="#444444" font-family="Verdana" font-size="12" lengthAdjust="spacing" textLength="211.207" x="22" y="1273.459">ctrl.Result{RequeueAfter: backoff}</text></g><path d="M11,1300.2891 L467.064,1300.2891 L467.064,1307.4219 L457.064,1317.4219 L8,1317.4219 L8,1303.2891 A3,3 0 0 1 11,1300.2891" fill="#FFFFFF" style="stroke:#000000;stroke-width:1;"/><rect fill="none" height="221.2109" rx="3" ry="3" style="stroke:#000000;stroke-width:1;" width="1795.313" x="8" y="1300.2891"/><text fill="#000000" font-family="Verdana" font-size="13" font-weight="700" lengthAdjust="spacing" textLength="414.064" x="23" y="1313.356">Failure path &#8212; retries exhausted (CRD target NotReady)</text><g class="message" data-entity-1="part8" data-entity-2="part3" data-source-line="84" id="msg23"><polygon fill="#737266" points="667.3457,1333.3906,657.3457,1337.3906,667.3457,1341.3906,663.3457,1337.3906" style="stroke:#737266;stroke-width:1;stroke-linejoin:miter;stroke-miterlimit:10;"/><line style="stroke:#737266;stroke-width:1;stroke-dasharray:2,2;" x1="661.3457" x2="1517.4614" y1="1337.3906" y2="1337.3906"/><text fill="#444444" font-family="Verdana" font-size="12" lengthAdjust="spacing" textLength="221.4492" x="673.3457" y="1332.5605">Ready = False (max retries reached)</text></g><g class="message" data-entity-1="part3" data-entity-2="part6" data-source-line="85" id="msg24"><polygon fill="#737266" points="1066.0737,1375.3281,1076.0737,1379.3281,1066.0737,1383.3281,1070.0737,1379.3281" style="stroke:#737266;stroke-width:1;stroke-linejoin:miter;stroke-miterlimit:10;"/><line style="stroke:#737266;stroke-width:1;" x1="656.3457" x2="1072.0737" y1="1379.3281" y2="1379.3281"/><text fill="#444444" font-family="Verdana" font-size="12" lengthAdjust="spacing" textLength="124.834" x="663.3457" y="1360.5293">patch phase = failed</text><text fill="#444444" font-family="Verdana" font-size="12" lengthAdjust="spacing" textLength="231.3867" x="663.3457" y="1374.498">failureReason = &lt;CRD target reason&gt;</text></g><path d="M1174,1395.3281 L1174,1429.3281 A3,3 0 0 0 1177,1432.3281 L1327,1432.3281 A3,3 0 0 0 1330,1429.3281 L1330,1402.3281 L1320,1392.3281 L1177,1392.3281 A3,3 0 0 0 1174,1395.3281" fill="#FFFFFF" style="stroke:#000000;stroke-width:1;"/><path d="M1320,1392.3281 L1320,1400.8281 A1.5,1.5 0 0 0 1321.5,1402.3281 L1330,1402.3281 L1320,1392.3281" fill="#FFFFFF" style="stroke:#000000;stroke-width:1;"/><text fill="#000000" font-family="Verdana" font-size="13" lengthAdjust="spacing" textLength="135.7573" x="1180" y="1409.395">ProvisionedResource</text><text fill="#000000" font-family="Verdana" font-size="13" lengthAdjust="spacing" textLength="75.2261" x="1180" y="1424.5278">not created</text><g class="message" data-entity-1="part1" data-entity-2="part5" data-source-line="87" id="msg25"><polygon fill="#737266" points="938.9531,1453.5625,948.9531,1457.5625,938.9531,1461.5625,942.9531,1457.5625" style="stroke:#737266;stroke-width:1;stroke-linejoin:miter;stroke-miterlimit:10;"/><line style="stroke:#737266;stroke-width:1;" x1="248.6484" x2="944.9531" y1="1457.5625" y2="1457.5625"/><text fill="#444444" font-family="Verdana" font-size="12" lengthAdjust="spacing" textLength="76.9219" x="255.6484" y="1452.7324">notify(failed)</text></g><g class="message" data-entity-1="part5" data-entity-2="part9" data-source-line="88" id="msg26"><polygon fill="#737266" points="1730.3218,1481.5313,1740.3218,1485.5313,1730.3218,1489.5313,1734.3218,1485.5313" style="stroke:#737266;stroke-width:1;stroke-linejoin:miter;stroke-miterlimit:10;"/><line style="stroke:#737266;stroke-width:1;" x1="950.9531" x2="1736.3218" y1="1485.5313" y2="1485.5313"/><text fill="#444444" font-family="Verdana" font-size="12" lengthAdjust="spacing" textLength="108.416" x="957.9531" y="1480.7012">SMTP &#8594; requester</text></g><g class="message" data-entity-1="part1" data-entity-2="part1" data-source-line="89" id="msg27"><polygon fill="#737266" points="16,1509.5,6,1513.5,16,1517.5,12,1513.5" style="stroke:#737266;stroke-width:1;stroke-linejoin:miter;stroke-miterlimit:10;"/><line style="stroke:#737266;stroke-width:1;stroke-dasharray:2,2;" x1="10" x2="247.6484" y1="1513.5" y2="1513.5"/><text fill="#444444" font-family="Verdana" font-size="12" lengthAdjust="spacing" textLength="76.2715" x="22" y="1508.6699">ctrl.Result{}</text></g><path d="M11,1535.5 L283.8516,1535.5 L283.8516,1542.6328 L273.8516,1552.6328 L8,1552.6328 L8,1538.5 A3,3 0 0 1 11,1535.5" fill="#FFFFFF" style="stroke:#000000;stroke-width:1;"/><rect fill="none" height="226.8828" rx="3" ry="3" style="stroke:#000000;stroke-width:1;" width="1795.313" x="8" y="1535.5"/><text fill="#000000" font-family="Verdana" font-size="13" font-weight="700" lengthAdjust="spacing" textLength="230.8516" x="23" y="1548.5669">Happy path &#8212; Ready confirmed</text><g class="message" data-entity-1="part8" data-entity-2="part3" data-source-line="93" id="msg28"><polygon fill="#737266" points="667.3457,1568.6016,657.3457,1572.6016,667.3457,1576.6016,663.3457,1572.6016" style="stroke:#737266;stroke-width:1;stroke-linejoin:miter;stroke-miterlimit:10;"/><line style="stroke:#737266;stroke-width:1;stroke-dasharray:2,2;" x1="661.3457" x2="1517.4614" y1="1572.6016" y2="1572.6016"/><text fill="#444444" font-family="Verdana" font-size="12" lengthAdjust="spacing" textLength="82.7285" x="673.3457" y="1567.7715">Ready = True</text></g><g class="message" data-entity-1="part3" data-entity-2="part4" data-source-line="94" id="msg29"><polygon fill="#737266" points="800.0508,1596.5703,810.0508,1600.5703,800.0508,1604.5703,804.0508,1600.5703" style="stroke:#737266;stroke-width:1;stroke-linejoin:miter;stroke-miterlimit:10;"/><line style="stroke:#737266;stroke-width:1;" x1="656.3457" x2="806.0508" y1="1600.5703" y2="1600.5703"/><text fill="#444444" font-family="Verdana" font-size="12" lengthAdjust="spacing" textLength="111.4805" x="663.3457" y="1595.7402">confirmed success</text></g><g class="message" data-entity-1="part4" data-entity-2="part7" data-source-line="95" id="msg30"><polygon fill="#737266" points="1240.4922,1638.5078,1250.4922,1642.5078,1240.4922,1646.5078,1244.4922,1642.5078" style="stroke:#737266;stroke-width:1;stroke-linejoin:miter;stroke-miterlimit:10;"/><line style="stroke:#737266;stroke-width:1;" x1="812.0508" x2="1246.4922" y1="1642.5078" y2="1642.5078"/><text fill="#444444" font-family="Verdana" font-size="12" lengthAdjust="spacing" textLength="167.4844" x="819.0508" y="1623.709">create ProvisionedResource</text><text fill="#444444" font-family="Verdana" font-size="12" lengthAdjust="spacing" textLength="178.2715" x="819.0508" y="1637.6777">(appliedParameters, finalizer)</text></g><g class="message" data-entity-1="part4" data-entity-2="part6" data-source-line="96" id="msg31"><polygon fill="#737266" points="1066.0737,1666.4766,1076.0737,1670.4766,1066.0737,1674.4766,1070.0737,1670.4766" style="stroke:#737266;stroke-width:1;stroke-linejoin:miter;stroke-miterlimit:10;"/><line style="stroke:#737266;stroke-width:1;" x1="812.0508" x2="1072.0737" y1="1670.4766" y2="1670.4766"/><text fill="#444444" font-family="Verdana" font-size="12" lengthAdjust="spacing" textLength="161.4492" x="819.0508" y="1665.6465">patch phase = provisioned</text></g><g class="message" data-entity-1="part1" data-entity-2="part5" data-source-line="97" id="msg32"><polygon fill="#737266" points="938.9531,1694.4453,948.9531,1698.4453,938.9531,1702.4453,942.9531,1698.4453" style="stroke:#737266;stroke-width:1;stroke-linejoin:miter;stroke-miterlimit:10;"/><line style="stroke:#737266;stroke-width:1;" x1="248.6484" x2="944.9531" y1="1698.4453" y2="1698.4453"/><text fill="#444444" font-family="Verdana" font-size="12" lengthAdjust="spacing" textLength="113.5371" x="255.6484" y="1693.6152">notify(provisioned)</text></g><g class="message" data-entity-1="part5" data-entity-2="part9" data-source-line="98" id="msg33"><polygon fill="#737266" points="1730.3218,1722.4141,1740.3218,1726.4141,1730.3218,1730.4141,1734.3218,1726.4141" style="stroke:#737266;stroke-width:1;stroke-linejoin:miter;stroke-miterlimit:10;"/><line style="stroke:#737266;stroke-width:1;" x1="950.9531" x2="1736.3218" y1="1726.4141" y2="1726.4141"/><text fill="#444444" font-family="Verdana" font-size="12" lengthAdjust="spacing" textLength="108.416" x="957.9531" y="1721.584">SMTP &#8594; requester</text></g><g class="message" data-entity-1="part1" data-entity-2="part1" data-source-line="99" id="msg34"><polygon fill="#737266" points="16,1750.3828,6,1754.3828,16,1758.3828,12,1754.3828" style="stroke:#737266;stroke-width:1;stroke-linejoin:miter;stroke-miterlimit:10;"/><line style="stroke:#737266;stroke-width:1;stroke-dasharray:2,2;" x1="10" x2="247.6484" y1="1754.3828" y2="1754.3828"/><text fill="#444444" font-family="Verdana" font-size="12" lengthAdjust="spacing" textLength="76.2715" x="22" y="1749.5527">ctrl.Result{}</text></g><?plantuml-src hLVRRY9747sVhwWuBo21urrxVI7BHe11M38E6YpjW_53CrEOZeUUsUuUssIrKfxo0L6-SByarTt3N01Vj0f-i9a-LLrrwbJL-2Uzm2L24Z4kF7NFHS8aMyAC1VTtCav5s8kZMCBFWuxvAI4KVabH10XVFQ1FHyhuCSEU79wyFpuk7WzYeREZ8_kf7atudmZltjk7btoEbrnWDvOXoioeOp_sVCoavW5FcD0Lo8V3eqxtP0kocKM_tpyVz3TXfVWEUuT7fsSMq8sVAbTq3qxE3mxoeos21eEplalwAjQuVVw1VWR5UTdrMVVig7_WVIlHQqs3M0gKSEnvcki8mKSLfp90tt2lD7qFOX5mEld-rxyGI6GQfwAc7sD8c5AeMi2I95e15La07OT4hL8GB32uhtlUB7w2lH4Jx8uq83JqebHfb7kLR9A2ADZRY60gyX38YYdm-xrjex6C7xZYiU3YRYeccgA44GiM58mrcenUinao4Qwl60zVG6EuZd0gFakkrpR-vsqZAWEVymnnzVlr6xBj-USkJP_-8ZcT3eu6vsyCPsqxhjYY287AaDNYciaxpEi0K7lW37mcg62o0SIqbd54HC2aKtTLEkpjkDzSu5nDnOLGcXmufdlN5yMD5PCHun7fAM8h2nnrBYx9_xl-e7_gUUqsTAoEZAgW9dFPSV4G1qnJfbQ1oO8fR452Lr3Pwj1kUzvDyvDHXOcn1ONbJHLxwnaCGISZWyC75gKaarg8WILIDOoIYLQKgkuPK8vbKKH-lwHSOWWv7XA9YZJzc-UPDanWG0ccaYOTqmiRhCG_CD0OMleoZwwkBGCA5YuTQ5UHWfeNJ1nP8Llq19AAMfdMk4pM1bbY931BWJ2gMzNMFkjk8j0XOIphX9cChiVm_Uz_R5vef61HDn-RJUkk1O6MqJvfAutqrs-cfEiqEuwbqAOumpikAi6zacnU3tixottHb-UyZ8UkjFbvpGumrBPIRjGEBPB4Pv6JIISRI-P-xIJFCvbEnKr5vhVEnJCrT6wGDebZo7pCDKqNMCiTGStlTdga3S5P1Bz0aBLNAcWa1WisYx2UcvVgExIAfGga28-ShiIdX7fQQEF6RCXuFlzrIawqvAZeTC6CuuolYeJc57ccXn8Zk-Nci5CnTzdwo1JrLni-1kGUF-LEoiBATUMCYtJAodfMM2-AonnQWMsGQtil233PqHd3XaMse9X4q2lAQdMfycbWcuQs8JTQYsUcCHG98aGZHg8xMksRHRFUNZnRO0Pijbgpc48D4mJGiCJzbph6TqNjp8c05jr4lsZWP7r4mywlRigjiLUvipBvIarYnr_1YOl2fvoOTf4RxMsuIabR4J2WW9PSaChYL0Vn4Yd_gnXcKHpSc-Pyj7gXrgQzNfgfyrG4nir-CNLtZjnIaFdSjM9tsURl2LwfSLjWQaWzgbErJnv3RcvIc-tQiDRDM4Ihs_L8yga_LfObshY6sXLGJnO-WCtCfFQscjTXszJsaKBl1vhpxHh832gZTCV6s6pqMcc2hPEhlv88r9RiAVTb9z2wONziB9HYaFRXfsSMrSxN4jCmxirnUrtjd2flcYXlMLL3cjwhWbr74ibYpkKo2wOyRWeQhsMAPRxexSuSvwQWKffBf5-BeKEBSHouL7TJKJFhX6CupXTO0-Qc3UaV55alUzjTeQHm-ZoL9T3_nUT_?></g></svg>