<svg xmlns="http://www.w3.org/2000/svg" xmlns:xlink="http://www.w3.org/1999/xlink" contentStyleType="text/css" data-diagram-type="SEQUENCE" height="1736px" preserveAspectRatio="none" style="width:1856px;height:1736px;background:#FAFAFA;" version="1.1" viewBox="0 0 1856 1736" width="1856px" zoomAndPan="magnify"><?plantuml 1.2026.4?><defs/><g><rect fill="#FAFAFA" height="1736" style="stroke:none;stroke-width:1;" width="1856" x="0" y="0"/><g class="title" data-source-line="18"><text fill="#000000" font-family="Verdana" font-size="22" font-weight="700" lengthAdjust="spacing" textLength="459.1426" x="697.6033" y="35.4209">ResourceRequest Reconcile &#8212; create</text></g><rect fill="#FFF9E6" height="1676.6719" rx="3" ry="3" style="stroke:#B07D00;stroke-width:1;" width="1176.2622" x="109.2168" y="52.6094"/><text fill="#000000" font-family="Verdana" font-size="13" font-weight="700" lengthAdjust="spacing" textLength="152.6484" x="621.0237" y="64.6763">Management Cluster</text><rect fill="#FFF3CD" height="1676.6719" rx="3" ry="3" style="stroke:#B07D00;stroke-width:1;" width="323.7383" x="1297.479" y="52.6094"/><text fill="#000000" font-family="Verdana" font-size="13" font-weight="700" lengthAdjust="spacing" textLength="317.7383" x="1300.479" y="64.6763">Target Cluster  (via Rancher, controller SA)</text><g><title>CRD Target</title><rect fill="#FFFFFF" height="194.7813" style="stroke:#000000;stroke-width:1;" width="10" x="1360.8608" y="389.3828"/></g><g><title>CRD Target</title><rect fill="#FFFFFF" height="97.875" style="stroke:#000000;stroke-width:1;" width="10" x="1360.8608" y="1264.3359"/></g><g><title>CRD Target</title><rect fill="#FFFFFF" height="82.9063" style="stroke:#000000;stroke-width:1;" width="10" x="1547.8354" y="473.2891"/></g><g><title>CRD Target</title><rect fill="#FFFFFF" height="41.9375" style="stroke:#000000;stroke-width:1;" width="10" x="1547.8354" y="1292.3047"/></g><rect fill="#FFFFFF" height="463.6016" rx="3" ry="3" style="stroke:#000000;stroke-width:1;" width="1737.1323" x="103.2168" y="282.375"/><rect fill="#FFFFFF" height="397.3203" rx="3" ry="3" style="stroke:#000000;stroke-width:1;" width="1737.1323" x="103.2168" y="759.9766"/><rect fill="#FFFFFF" height="347.0547" rx="3" ry="3" style="stroke:#000000;stroke-width:1;" width="1737.1323" x="103.2168" y="1171.2969"/><rect fill="#FFFFFF" height="95.3672" rx="3" ry="3" style="stroke:#000000;stroke-width:1;" width="938.9214" x="323.9399" y="1532.3516"/><g class="participant-lifeline" data-entity-uid="part1" data-qualified-name="REC" data-source-line="21" id="part1-lifeline"><g><title>ResourceRequest</title><rect fill="#000000" fill-opacity="0.00000" height="1547.3516" width="8" x="185.5352" y="125.3359"/><line style="stroke:#AAAAAA;stroke-width:1;stroke-dasharray:5,5;" x1="189.2168" x2="189.2168" y1="125.3359" y2="1672.6875"/></g></g><g class="participant-lifeline" data-entity-uid="part2" data-qualified-name="SM" data-source-line="22" id="part2-lifeline"><g><title>Provisioning</title><rect fill="#000000" fill-opacity="0.00000" height="1547.3516" width="8" x="394.9961" y="125.3359"/><line style="stroke:#AAAAAA;stroke-width:1;stroke-dasharray:5,5;" x1="398.9399" x2="398.9399" y1="125.3359" y2="1672.6875"/></g></g><g class="participant-lifeline" data-entity-uid="part3" data-qualified-name="PH" data-source-line="23" id="part3-lifeline"><g><title>Provisioning</title><rect fill="#000000" fill-opacity="0.00000" height="1547.3516" width="8" x="593.2324" y="125.3359"/><line style="stroke:#AAAAAA;stroke-width:1;stroke-dasharray:5,5;" x1="596.6274" x2="596.6274" y1="125.3359" y2="1672.6875"/></g></g><g class="participant-lifeline" data-entity-uid="part4" data-qualified-name="PRW" data-source-line="24" id="part4-lifeline"><g><title>ProvisionedResource</title><rect fill="#000000" fill-opacity="0.00000" height="1547.3516" width="8" x="748.9375" y="125.3359"/><line style="stroke:#AAAAAA;stroke-width:1;stroke-dasharray:5,5;" x1="752.8374" x2="752.8374" y1="125.3359" y2="1672.6875"/></g></g><g class="participant-lifeline" data-entity-uid="part5" data-qualified-name="NOT" data-source-line="25" id="part5-lifeline"><g><title>Notifier</title><rect fill="#000000" fill-opacity="0.00000" height="1547.3516" width="8" x="887.8398" y="125.3359"/><line style="stroke:#AAAAAA;stroke-width:1;stroke-dasharray:5,5;" x1="891.0376" x2="891.0376" y1="125.3359" y2="1672.6875"/></g></g><g class="participant-lifeline" data-entity-uid="part6" data-qualified-name="RRCRD" data-source-line="26" id="part6-lifeline"><g><title>ResourceRequest</title><rect fill="#000000" fill-opacity="0.00000" height="1547.3516" width="8" x="1014.9604" y="125.3359"/><line style="stroke:#AAAAAA;stroke-width:1;stroke-dasharray:5,5;" x1="1018.6421" x2="1018.6421" y1="125.3359" y2="1672.6875"/></g></g><g class="participant-lifeline" data-entity-uid="part7" data-qualified-name="PRCRD" data-source-line="27" id="part7-lifeline"><g><title>ProvisionedResource</title><rect fill="#000000" fill-opacity="0.00000" height="1547.3516" width="8" x="1189.3789" y="125.3359"/><line style="stroke:#AAAAAA;stroke-width:1;stroke-dasharray:5,5;" x1="1193.2788" x2="1193.2788" y1="125.3359" y2="1672.6875"/></g></g><g class="participant-lifeline" data-entity-uid="part8" data-qualified-name="CTI" data-source-line="31" id="part8-lifeline"><g><title>CRD Target</title><rect fill="#000000" fill-opacity="0.00000" height="1547.3516" width="8" x="1361.8608" y="125.3359"/><line style="stroke:#AAAAAA;stroke-width:1;stroke-dasharray:5,5;" x1="1365.5562" x2="1365.5562" y1="125.3359" y2="1672.6875"/></g></g><g class="participant-lifeline" data-entity-uid="part9" data-qualified-name="CTC" data-source-line="32" id="part9-lifeline"><g><title>CRD Target</title><rect fill="#000000" fill-opacity="0.00000" height="1547.3516" width="8" x="1548.8354" y="125.3359"/><line style="stroke:#AAAAAA;stroke-width:1;stroke-dasharray:5,5;" x1="1552.5308" x2="1552.5308" y1="125.3359" y2="1672.6875"/></g></g><g class="participant-lifeline" data-entity-uid="part10" data-qualified-name="MAIL" data-source-line="35" id="part10-lifeline"><g><title>Mail Relay</title><rect fill="#000000" fill-opacity="0.00000" height="1547.3516" width="8" x="1775.3579" y="125.3359"/><line style="stroke:#AAAAAA;stroke-width:1;stroke-dasharray:5,5;" x1="1778.3667" x2="1778.3667" y1="125.3359" y2="1672.6875"/></g></g><g class="participant participant-head" data-entity-uid="part1" data-qualified-name="REC" data-source-line="21" id="part1-head"><rect fill="#EEEDFE" height="42.5938" rx="3" ry="3" style="stroke:#534AB7;stroke-width:1;" width="132.6367" x="123.2168" y="76.7422"/><text fill="#3C3489" font-family="Verdana" font-size="14" lengthAdjust="spacing" textLength="122.6367" x="128.2168" y="94.7373">ResourceRequest</text><text fill="#3C3489" font-family="Verdana" font-size="14" lengthAdjust="spacing" textLength="73.3223" x="152.874" y="111.0342">Reconciler</text></g><g class="participant participant-tail" data-entity-uid="part1" data-qualified-name="REC" data-source-line="21" id="part1-tail"><rect fill="#EEEDFE" height="42.5938" rx="3" ry="3" style="stroke:#534AB7;stroke-width:1;" width="132.6367" x="123.2168" y="1676.6875"/><text fill="#3C3489" font-family="Verdana" font-size="14" lengthAdjust="spacing" textLength="122.6367" x="128.2168" y="1694.6826">ResourceRequest</text><text fill="#3C3489" font-family="Verdana" font-size="14" lengthAdjust="spacing" textLength="73.3223" x="152.874" y="1710.9795">Reconciler</text></g><g class="participant participant-head" data-entity-uid="part2" data-qualified-name="SM" data-source-line="22" id="part2-head"><rect fill="#EEEDFE" height="42.5938" rx="3" ry="3" style="stroke:#534AB7;stroke-width:1;" width="110.1123" x="343.9399" y="76.7422"/><text fill="#3C3489" font-family="Verdana" font-size="14" lengthAdjust="spacing" textLength="85.21" x="356.3911" y="94.7373">Provisioning</text><text fill="#3C3489" font-family="Verdana" font-size="14" lengthAdjust="spacing" textLength="100.1123" x="348.9399" y="111.0342">State Machine</text></g><g class="participant participant-tail" data-entity-uid="part2" data-qualified-name="SM" data-source-line="22" id="part2-tail"><rect fill="#EEEDFE" height="42.5938" rx="3" ry="3" style="stroke:#534AB7;stroke-width:1;" width="110.1123" x="343.9399" y="1676.6875"/><text fill="#3C3489" font-family="Verdana" font-size="14" lengthAdjust="spacing" textLength="85.21" x="356.3911" y="1694.6826">Provisioning</text><text fill="#3C3489" font-family="Verdana" font-size="14" lengthAdjust="spacing" textLength="100.1123" x="348.9399" y="1710.9795">State Machine</text></g><g class="participant participant-head" data-entity-uid="part3" data-qualified-name="PH" data-source-line="23" id="part3-head"><rect fill="#EEEDFE" height="42.5938" rx="3" ry="3" style="stroke:#534AB7;stroke-width:1;" width="95.21" x="549.6274" y="76.7422"/><text fill="#3C3489" font-family="Verdana" font-size="14" lengthAdjust="spacing" textLength="85.21" x="554.6274" y="94.7373">Provisioning</text><text fill="#3C3489" font-family="Verdana" font-size="14" lengthAdjust="spacing" textLength="55.125" x="569.6699" y="111.0342">Handler</text></g><g class="participant participant-tail" data-entity-uid="part3" data-qualified-name="PH" data-source-line="23" id="part3-tail"><rect fill="#EEEDFE" height="42.5938" rx="3" ry="3" style="stroke:#534AB7;stroke-width:1;" width="95.21" x="549.6274" y="1676.6875"/><text fill="#3C3489" font-family="Verdana" font-size="14" lengthAdjust="spacing" textLength="85.21" x="554.6274" y="1694.6826">Provisioning</text><text fill="#3C3489" font-family="Verdana" font-size="14" lengthAdjust="spacing" textLength="55.125" x="569.6699" y="1710.9795">Handler</text></g><g class="participant participant-head" data-entity-uid="part4" data-qualified-name="PRW" data-source-line="24" id="part4-head"><rect fill="#EEEDFE" height="42.5938" rx="3" ry="3" style="stroke:#534AB7;stroke-width:1;" width="156.2002" x="674.8374" y="76.7422"/><text fill="#3C3489" font-family="Verdana" font-size="14" lengthAdjust="spacing" textLength="146.2002" x="679.8374" y="94.7373">ProvisionedResource</text><text fill="#3C3489" font-family="Verdana" font-size="14" lengthAdjust="spacing" textLength="43.3467" x="731.2642" y="111.0342">Writer</text></g><g class="participant participant-tail" data-entity-uid="part4" data-qualified-name="PRW" data-source-line="24" id="part4-tail"><rect fill="#EEEDFE" height="42.5938" rx="3" ry="3" style="stroke:#534AB7;stroke-width:1;" width="156.2002" x="674.8374" y="1676.6875"/><text fill="#3C3489" font-family="Verdana" font-size="14" lengthAdjust="spacing" textLength="146.2002" x="679.8374" y="1694.6826">ProvisionedResource</text><text fill="#3C3489" font-family="Verdana" font-size="14" lengthAdjust="spacing" textLength="43.3467" x="731.2642" y="1710.9795">Writer</text></g><g class="participant participant-head" data-entity-uid="part5" data-qualified-name="NOT" data-source-line="25" id="part5-head"><rect fill="#EEEDFE" height="26.2969" rx="3" ry="3" style="stroke:#534AB7;stroke-width:1;" width="61.6045" x="861.0376" y="93.0391"/><text fill="#3C3489" font-family="Verdana" font-size="14" lengthAdjust="spacing" textLength="51.6045" x="866.0376" y="111.0342">Notifier</text></g><g class="participant participant-tail" data-entity-uid="part5" data-qualified-name="NOT" data-source-line="25" id="part5-tail"><rect fill="#EEEDFE" height="26.2969" rx="3" ry="3" style="stroke:#534AB7;stroke-width:1;" width="61.6045" x="861.0376" y="1676.6875"/><text fill="#3C3489" font-family="Verdana" font-size="14" lengthAdjust="spacing" textLength="51.6045" x="866.0376" y="1694.6826">Notifier</text></g><g class="participant participant-head" data-entity-uid="part6" data-qualified-name="RRCRD" data-source-line="26" id="part6-head"><rect fill="#E8F4FD" height="42.5938" rx="3" ry="3" style="stroke:#534AB7;stroke-width:1;" width="132.6367" x="952.6421" y="76.7422"/><text fill="#3C3489" font-family="Verdana" font-size="14" lengthAdjust="spacing" textLength="122.6367" x="957.6421" y="94.7373">ResourceRequest</text><text fill="#3C3489" font-family="Verdana" font-size="14" lengthAdjust="spacing" textLength="30.2832" x="1003.8188" y="111.0342">CRD</text></g><g class="participant participant-tail" data-entity-uid="part6" data-qualified-name="RRCRD" data-source-line="26" id="part6-tail"><rect fill="#E8F4FD" height="42.5938" rx="3" ry="3" style="stroke:#534AB7;stroke-width:1;" width="132.6367" x="952.6421" y="1676.6875"/><text fill="#3C3489" font-family="Verdana" font-size="14" lengthAdjust="spacing" textLength="122.6367" x="957.6421" y="1694.6826">ResourceRequest</text><text fill="#3C3489" font-family="Verdana" font-size="14" lengthAdjust="spacing" textLength="30.2832" x="1003.8188" y="1710.9795">CRD</text></g><g class="participant participant-head" data-entity-uid="part7" data-qualified-name="PRCRD" data-source-line="27" id="part7-head"><rect fill="#E8F4FD" height="42.5938" rx="3" ry="3" style="stroke:#534AB7;stroke-width:1;" width="156.2002" x="1115.2788" y="76.7422"/><text fill="#3C3489" font-family="Verdana" font-size="14" lengthAdjust="spacing" textLength="146.2002" x="1120.2788" y="94.7373">ProvisionedResource</text><text fill="#3C3489" font-family="Verdana" font-size="14" lengthAdjust="spacing" textLength="30.2832" x="1178.2373" y="111.0342">CRD</text></g><g class="participant participant-tail" data-entity-uid="part7" data-qualified-name="PRCRD" data-source-line="27" id="part7-tail"><rect fill="#E8F4FD" height="42.5938" rx="3" ry="3" style="stroke:#534AB7;stroke-width:1;" width="156.2002" x="1115.2788" y="1676.6875"/><text fill="#3C3489" font-family="Verdana" font-size="14" lengthAdjust="spacing" textLength="146.2002" x="1120.2788" y="1694.6826">ProvisionedResource</text><text fill="#3C3489" font-family="Verdana" font-size="14" lengthAdjust="spacing" textLength="30.2832" x="1178.2373" y="1710.9795">CRD</text></g><g class="participant participant-head" data-entity-uid="part8" data-qualified-name="CTI" data-source-line="31" id="part8-head"><rect fill="#EEEDFE" height="42.5938" rx="3" ry="3" style="stroke:#534AB7;stroke-width:1;" width="90.6094" x="1320.5562" y="76.7422"/><text fill="#3C3489" font-family="Verdana" font-size="14" lengthAdjust="spacing" textLength="80.6094" x="1325.5562" y="94.7373">CRD Target</text><text fill="#3C3489" font-family="Verdana" font-size="14" lengthAdjust="spacing" textLength="59.5479" x="1336.0869" y="111.0342">Instance</text></g><g class="participant participant-tail" data-entity-uid="part8" data-qualified-name="CTI" data-source-line="31" id="part8-tail"><rect fill="#EEEDFE" height="42.5938" rx="3" ry="3" style="stroke:#534AB7;stroke-width:1;" width="90.6094" x="1320.5562" y="1676.6875"/><text fill="#3C3489" font-family="Verdana" font-size="14" lengthAdjust="spacing" textLength="80.6094" x="1325.5562" y="1694.6826">CRD Target</text><text fill="#3C3489" font-family="Verdana" font-size="14" lengthAdjust="spacing" textLength="59.5479" x="1336.0869" y="1710.9795">Instance</text></g><g class="participant participant-head" data-entity-uid="part9" data-qualified-name="CTC" data-source-line="32" id="part9-head"><rect fill="#EEEDFE" height="42.5938" rx="3" ry="3" style="stroke:#534AB7;stroke-width:1;" width="90.6094" x="1507.5308" y="76.7422"/><text fill="#3C3489" font-family="Verdana" font-size="14" lengthAdjust="spacing" textLength="80.6094" x="1512.5308" y="94.7373">CRD Target</text><text fill="#3C3489" font-family="Verdana" font-size="14" lengthAdjust="spacing" textLength="69.1729" x="1518.249" y="111.0342">Controller</text></g><g class="participant participant-tail" data-entity-uid="part9" data-qualified-name="CTC" data-source-line="32" id="part9-tail"><rect fill="#EEEDFE" height="42.5938" rx="3" ry="3" style="stroke:#534AB7;stroke-width:1;" width="90.6094" x="1507.5308" y="1676.6875"/><text fill="#3C3489" font-family="Verdana" font-size="14" lengthAdjust="spacing" textLength="80.6094" x="1512.5308" y="1694.6826">CRD Target</text><text fill="#3C3489" font-family="Verdana" font-size="14" lengthAdjust="spacing" textLength="69.1729" x="1518.249" y="1710.9795">Controller</text></g><g class="participant participant-head" data-entity-uid="part10" data-qualified-name="MAIL" data-source-line="35" id="part10-head"><rect fill="#F1EFE8" height="26.2969" rx="3" ry="3" style="stroke:#534AB7;stroke-width:1;" width="81.9824" x="1738.3667" y="93.0391"/><text fill="#3C3489" font-family="Verdana" font-size="14" lengthAdjust="spacing" textLength="71.9824" x="1743.3667" y="111.0342">Mail Relay</text></g><g class="participant participant-tail" data-entity-uid="part10" data-qualified-name="MAIL" data-source-line="35" id="part10-tail"><rect fill="#F1EFE8" height="26.2969" rx="3" ry="3" style="stroke:#534AB7;stroke-width:1;" width="81.9824" x="1738.3667" y="1676.6875"/><text fill="#3C3489" font-family="Verdana" font-size="14" lengthAdjust="spacing" textLength="71.9824" x="1743.3667" y="1694.6826">Mail Relay</text></g><g><title>CRD Target</title><rect fill="#FFFFFF" height="194.7813" style="stroke:#000000;stroke-width:1;" width="10" x="1360.8608" y="389.3828"/></g><g><title>CRD Target</title><rect fill="#FFFFFF" height="97.875" style="stroke:#000000;stroke-width:1;" width="10" x="1360.8608" y="1264.3359"/></g><g><title>CRD Target</title><rect fill="#FFFFFF" height="82.9063" style="stroke:#000000;stroke-width:1;" width="10" x="1547.8354" y="473.2891"/></g><g><title>CRD Target</title><rect fill="#FFFFFF" height="41.9375" style="stroke:#000000;stroke-width:1;" width="10" x="1547.8354" y="1292.3047"/></g><rect fill="#FFFFFF" height="3" rx="3" ry="3" style="stroke:#FFFFFF;stroke-width:1;" width="1845.3491" x="5" y="155.9023"/><line style="stroke:#000000;stroke-width:0.5;" x1="5" x2="1850.3491" y1="155.9023" y2="155.9023"/><line style="stroke:#000000;stroke-width:0.5;" x1="5" x2="1850.3491" y1="158.9023" y2="158.9023"/><rect fill="#FFFFFF" height="23.1328" rx="3" ry="3" style="stroke:#000000;stroke-width:1;" width="84.2432" x="885.553" y="145.3359"/><text fill="#000000" font-family="Verdana" font-size="13" font-weight="700" lengthAdjust="spacing" textLength="65.7173" x="891.553" y="161.4028">Approval</text><g class="message" data-entity-1="part1" data-entity-2="part1" data-source-line="39" id="msg1"><polygon fill="#737266" points="177.5352,194.4375,187.5352,198.4375,177.5352,202.4375,181.5352,198.4375" style="stroke:#737266;stroke-width:1;stroke-linejoin:miter;stroke-miterlimit:10;"/><line style="stroke:#737266;stroke-width:1;" x1="5" x2="183.5352" y1="198.4375" y2="198.4375"/><text fill="#444444" font-family="Verdana" font-size="12" lengthAdjust="spacing" textLength="160.5352" x="12" y="193.6074">reconcile [phase: pending]</text></g><g class="message" data-entity-1="part1" data-entity-2="part2" data-source-line="40" id="msg2"><polygon fill="#737266" points="386.9961,222.4063,396.9961,226.4063,386.9961,230.4063,390.9961,226.4063" style="stroke:#737266;stroke-width:1;stroke-linejoin:miter;stroke-miterlimit:10;"/><line style="stroke:#737266;stroke-width:1;" x1="189.5352" x2="392.9961" y1="226.4063" y2="226.4063"/><text fill="#444444" font-family="Verdana" font-size="12" lengthAdjust="spacing" textLength="185.4609" x="196.5352" y="221.5762">evaluate(decisions, approvers)</text></g><g class="message" data-entity-1="part2" data-entity-2="part2" data-source-line="41" id="msg3"><line style="stroke:#737266;stroke-width:1;" x1="398.9961" x2="440.9961" y1="254.375" y2="254.375"/><line style="stroke:#737266;stroke-width:1;" x1="440.9961" x2="440.9961" y1="254.375" y2="267.375"/><line style="stroke:#737266;stroke-width:1;" x1="399.9961" x2="440.9961" y1="267.375" y2="267.375"/><polygon fill="#737266" points="409.9961,263.375,399.9961,267.375,409.9961,271.375,405.9961,267.375" style="stroke:#737266;stroke-width:1;stroke-linejoin:miter;stroke-miterlimit:10;"/><text fill="#444444" font-family="Verdana" font-size="12" lengthAdjust="spacing" textLength="184.2363" x="405.9961" y="249.5449">all required decisions present?</text></g><path d="M106.2168,282.375 L324.4023,282.375 L324.4023,289.5078 L314.4023,299.5078 L103.2168,299.5078 L103.2168,285.375 A3,3 0 0 1 106.2168,282.375" fill="#FFFFFF" style="stroke:#000000;stroke-width:1;"/><rect fill="none" height="463.6016" rx="3" ry="3" style="stroke:#000000;stroke-width:1;" width="1737.1323" x="103.2168" y="282.375"/><text fill="#000000" font-family="Verdana" font-size="13" font-weight="700" lengthAdjust="spacing" textLength="176.1855" x="118.2168" y="295.4419">Happy path &#8212; approved</text><g class="message" data-entity-1="part2" data-entity-2="part6" data-source-line="44" id="msg4"><polygon fill="#737266" points="1006.9604,315.4766,1016.9604,319.4766,1006.9604,323.4766,1010.9604,319.4766" style="stroke:#737266;stroke-width:1;stroke-linejoin:miter;stroke-miterlimit:10;"/><line style="stroke:#737266;stroke-width:1;" x1="398.9961" x2="1012.9604" y1="319.4766" y2="319.4766"/><text fill="#444444" font-family="Verdana" font-size="12" lengthAdjust="spacing" textLength="239.6543" x="405.9961" y="314.6465">patch phase = approved &#8594; provisioning</text></g><g class="message" data-entity-1="part2" data-entity-2="part3" data-source-line="45" id="msg5"><polygon fill="#737266" points="585.2324,343.4453,595.2324,347.4453,585.2324,351.4453,589.2324,347.4453" style="stroke:#737266;stroke-width:1;stroke-linejoin:miter;stroke-miterlimit:10;"/><line style="stroke:#737266;stroke-width:1;" x1="398.9961" x2="591.2324" y1="347.4453" y2="347.4453"/><text fill="#444444" font-family="Verdana" font-size="12" lengthAdjust="spacing" textLength="133.8281" x="405.9961" y="342.6152">provision(parameters)</text></g><g class="message" data-entity-1="part3" data-entity-2="part8" data-source-line="47" id="msg6"><polygon fill="#737266" points="1348.8608,385.3828,1358.8608,389.3828,1348.8608,393.3828,1352.8608,389.3828" style="stroke:#737266;stroke-width:1;stroke-linejoin:miter;stroke-miterlimit:10;"/><line style="stroke:#737266;stroke-width:1;" x1="597.2324" x2="1354.8608" y1="389.3828" y2="389.3828"/><text fill="#444444" font-family="Verdana" font-size="12" lengthAdjust="spacing" textLength="185.2148" x="604.2324" y="370.584">SSA apply CRD target instance</text><text fill="#444444" font-family="Verdana" font-size="12" lengthAdjust="spacing" textLength="86.5137" x="604.2324" y="384.5527">[controller SA]</text></g><g class="message" data-entity-1="part8" data-entity-2="part3" data-source-line="49" id="msg7"><polygon fill="#737266" points="608.2324,413.3516,598.2324,417.3516,608.2324,421.3516,604.2324,417.3516" style="stroke:#737266;stroke-width:1;stroke-linejoin:miter;stroke-miterlimit:10;"/><line style="stroke:#737266;stroke-width:1;stroke-dasharray:2,2;" x1="602.2324" x2="1359.8608" y1="417.3516" y2="417.3516"/><text fill="#444444" font-family="Verdana" font-size="12" lengthAdjust="spacing" textLength="55.2539" x="614.2324" y="412.5215">accepted</text></g><g class="message" data-entity-1="part3" data-entity-2="part8" data-source-line="51" id="msg8"><polygon fill="#737266" points="1348.8608,441.3203,1358.8608,445.3203,1348.8608,449.3203,1352.8608,445.3203" style="stroke:#737266;stroke-width:1;stroke-linejoin:miter;stroke-miterlimit:10;"/><line style="stroke:#737266;stroke-width:1;" x1="597.2324" x2="1354.8608" y1="445.3203" y2="445.3203"/><text fill="#444444" font-family="Verdana" font-size="12" lengthAdjust="spacing" textLength="142.3125" x="604.2324" y="440.4902">watch status.conditions</text></g><g class="message" data-entity-1="part8" data-entity-2="part9" data-source-line="52" id="msg9"><polygon fill="#737266" points="1535.8354,469.2891,1545.8354,473.2891,1535.8354,477.2891,1539.8354,473.2891" style="stroke:#737266;stroke-width:1;stroke-linejoin:miter;stroke-miterlimit:10;"/><line style="stroke:#737266;stroke-width:1;" x1="1370.8608" x2="1541.8354" y1="473.2891" y2="473.2891"/><text fill="#444444" font-family="Verdana" font-size="12" lengthAdjust="spacing" textLength="113.8477" x="1377.8608" y="468.459">reconcile triggered</text></g><g class="message" data-entity-1="part9" data-entity-2="part9" data-source-line="54" id="msg10"><line style="stroke:#737266;stroke-width:1;" x1="1557.8354" x2="1599.8354" y1="515.2266" y2="515.2266"/><line style="stroke:#737266;stroke-width:1;" x1="1599.8354" x2="1599.8354" y1="515.2266" y2="528.2266"/><line style="stroke:#737266;stroke-width:1;" x1="1558.8354" x2="1599.8354" y1="528.2266" y2="528.2266"/><polygon fill="#737266" points="1568.8354,524.2266,1558.8354,528.2266,1568.8354,532.2266,1564.8354,528.2266" style="stroke:#737266;stroke-width:1;stroke-linejoin:miter;stroke-miterlimit:10;"/><text fill="#444444" font-family="Verdana" font-size="12" lengthAdjust="spacing" textLength="183.4453" x="1564.8354" y="496.4277">create derived objects via SSA</text><text fill="#444444" font-family="Verdana" font-size="12" lengthAdjust="spacing" textLength="156.9902" x="1564.8354" y="510.3965">(field ownership declared)</text></g><g class="message" data-entity-1="part9" data-entity-2="part8" data-source-line="55" id="msg11"><polygon fill="#737266" points="1381.8608,552.1953,1371.8608,556.1953,1381.8608,560.1953,1377.8608,556.1953" style="stroke:#737266;stroke-width:1;stroke-linejoin:miter;stroke-miterlimit:10;"/><line style="stroke:#737266;stroke-width:1;stroke-dasharray:2,2;" x1="1375.8608" x2="1551.8354" y1="556.1953" y2="556.1953"/><text fill="#444444" font-family="Verdana" font-size="12" lengthAdjust="spacing" textLength="91.6875" x="1387.8608" y="551.3652">phase = Ready</text></g><g class="message" data-entity-1="part8" data-entity-2="part3" data-source-line="57" id="msg12"><polygon fill="#737266" points="608.2324,580.1641,598.2324,584.1641,608.2324,588.1641,604.2324,584.1641" style="stroke:#737266;stroke-width:1;stroke-linejoin:miter;stroke-miterlimit:10;"/><line style="stroke:#737266;stroke-width:1;stroke-dasharray:2,2;" x1="602.2324" x2="1364.8608" y1="584.1641" y2="584.1641"/><text fill="#444444" font-family="Verdana" font-size="12" lengthAdjust="spacing" textLength="97.2363" x="614.2324" y="579.334">Ready observed</text></g><g class="message" data-entity-1="part3" data-entity-2="part4" data-source-line="60" id="msg13"><polygon fill="#737266" points="740.9375,608.1328,750.9375,612.1328,740.9375,616.1328,744.9375,612.1328" style="stroke:#737266;stroke-width:1;stroke-linejoin:miter;stroke-miterlimit:10;"/><line style="stroke:#737266;stroke-width:1;" x1="597.2324" x2="746.9375" y1="612.1328" y2="612.1328"/><text fill="#444444" font-family="Verdana" font-size="12" lengthAdjust="spacing" textLength="111.4805" x="604.2324" y="607.3027">confirmed success</text></g><g class="message" data-entity-1="part4" data-entity-2="part7" data-source-line="61" id="msg14"><polygon fill="#737266" points="1181.3789,650.0703,1191.3789,654.0703,1181.3789,658.0703,1185.3789,654.0703" style="stroke:#737266;stroke-width:1;stroke-linejoin:miter;stroke-miterlimit:10;"/><line style="stroke:#737266;stroke-width:1;" x1="752.9375" x2="1187.3789" y1="654.0703" y2="654.0703"/><text fill="#444444" font-family="Verdana" font-size="12" lengthAdjust="spacing" textLength="167.4844" x="759.9375" y="635.2715">create ProvisionedResource</text><text fill="#444444" font-family="Verdana" font-size="12" lengthAdjust="spacing" textLength="178.2715" x="759.9375" y="649.2402">(appliedParameters, finalizer)</text></g><g class="message" data-entity-1="part4" data-entity-2="part6" data-source-line="62" id="msg15"><polygon fill="#737266" points="1006.9604,678.0391,1016.9604,682.0391,1006.9604,686.0391,1010.9604,682.0391" style="stroke:#737266;stroke-width:1;stroke-linejoin:miter;stroke-miterlimit:10;"/><line style="stroke:#737266;stroke-width:1;" x1="752.9375" x2="1012.9604" y1="682.0391" y2="682.0391"/><text fill="#444444" font-family="Verdana" font-size="12" lengthAdjust="spacing" textLength="161.4492" x="759.9375" y="677.209">patch phase = provisioned</text></g><g class="message" data-entity-1="part1" data-entity-2="part5" data-source-line="64" id="msg16"><polygon fill="#737266" points="879.8398,706.0078,889.8398,710.0078,879.8398,714.0078,883.8398,710.0078" style="stroke:#737266;stroke-width:1;stroke-linejoin:miter;stroke-miterlimit:10;"/><line style="stroke:#737266;stroke-width:1;" x1="189.5352" x2="885.8398" y1="710.0078" y2="710.0078"/><text fill="#444444" font-family="Verdana" font-size="12" lengthAdjust="spacing" textLength="113.5371" x="196.5352" y="705.1777">notify(provisioned)</text></g><g class="message" data-entity-1="part5" data-entity-2="part10" data-source-line="65" id="msg17"><polygon fill="#737266" points="1767.3579,733.9766,1777.3579,737.9766,1767.3579,741.9766,1771.3579,737.9766" style="stroke:#737266;stroke-width:1;stroke-linejoin:miter;stroke-miterlimit:10;"/><line style="stroke:#737266;stroke-width:1;" x1="891.8398" x2="1773.3579" y1="737.9766" y2="737.9766"/><text fill="#444444" font-family="Verdana" font-size="12" lengthAdjust="spacing" textLength="108.416" x="898.8398" y="733.1465">SMTP &#8594; requester</text></g><path d="M106.2168,759.9766 L341.2109,759.9766 L341.2109,767.1094 L331.2109,777.1094 L103.2168,777.1094 L103.2168,762.9766 A3,3 0 0 1 106.2168,759.9766" fill="#FFFFFF" style="stroke:#000000;stroke-width:1;"/><rect fill="none" height="397.3203" rx="3" ry="3" style="stroke:#000000;stroke-width:1;" width="1737.1323" x="103.2168" y="759.9766"/><text fill="#000000" font-family="Verdana" font-size="13" font-weight="700" lengthAdjust="spacing" textLength="192.9941" x="118.2168" y="773.0435">Failure path &#8212; apply error</text><g class="message" data-entity-1="part2" data-entity-2="part6" data-source-line="69" id="msg18"><polygon fill="#737266" points="1006.9604,793.0781,1016.9604,797.0781,1006.9604,801.0781,1010.9604,797.0781" style="stroke:#737266;stroke-width:1;stroke-linejoin:miter;stroke-miterlimit:10;"/><line style="stroke:#737266;stroke-width:1;" x1="398.9961" x2="1012.9604" y1="797.0781" y2="797.0781"/><text fill="#444444" font-family="Verdana" font-size="12" lengthAdjust="spacing" textLength="165.0059" x="405.9961" y="792.248">patch phase = provisioning</text></g><g class="message" data-entity-1="part2" data-entity-2="part3" data-source-line="70" id="msg19"><polygon fill="#737266" points="585.2324,821.0469,595.2324,825.0469,585.2324,829.0469,589.2324,825.0469" style="stroke:#737266;stroke-width:1;stroke-linejoin:miter;stroke-miterlimit:10;"/><line style="stroke:#737266;stroke-width:1;" x1="398.9961" x2="591.2324" y1="825.0469" y2="825.0469"/><text fill="#444444" font-family="Verdana" font-size="12" lengthAdjust="spacing" textLength="133.8281" x="405.9961" y="820.2168">provision(parameters)</text></g><g class="message" data-entity-1="part3" data-entity-2="part8" data-source-line="72" id="msg20"><polygon fill="#737266" points="1353.8608,862.9844,1363.8608,866.9844,1353.8608,870.9844,1357.8608,866.9844" style="stroke:#737266;stroke-width:1;stroke-linejoin:miter;stroke-miterlimit:10;"/><line style="stroke:#737266;stroke-width:1;" x1="597.2324" x2="1359.8608" y1="866.9844" y2="866.9844"/><text fill="#444444" font-family="Verdana" font-size="12" lengthAdjust="spacing" textLength="109.4355" x="604.2324" y="848.1855">SSA apply &#8212; error</text><text fill="#444444" font-family="Verdana" font-size="12" lengthAdjust="spacing" textLength="214.0313" x="604.2324" y="862.1543">(RBAC denial / cluster unreachable)</text></g><g class="message" data-entity-1="part8" data-entity-2="part3" data-source-line="73" id="msg21"><polygon fill="#737266" points="608.2324,890.9531,598.2324,894.9531,608.2324,898.9531,604.2324,894.9531" style="stroke:#737266;stroke-width:1;stroke-linejoin:miter;stroke-miterlimit:10;"/><line style="stroke:#737266;stroke-width:1;stroke-dasharray:2,2;" x1="602.2324" x2="1364.8608" y1="894.9531" y2="894.9531"/><text fill="#444444" font-family="Verdana" font-size="12" lengthAdjust="spacing" textLength="29.5254" x="614.2324" y="890.123">error</text></g><path d="M522,910.9531 L522,944.9531 A3,3 0 0 0 525,947.9531 L668,947.9531 A3,3 0 0 0 671,944.9531 L671,917.9531 L661,907.9531 L525,907.9531 A3,3 0 0 0 522,910.9531" fill="#FFFFFF" style="stroke:#000000;stroke-width:1;"/><path d="M661,907.9531 L661,916.4531 A1.5,1.5 0 0 0 662.5,917.9531 L671,917.9531 L661,907.9531" fill="#FFFFFF" style="stroke:#000000;stroke-width:1;"/><text fill="#000000" font-family="Verdana" font-size="13" lengthAdjust="spacing" textLength="85.7822" x="528" y="925.02">requeue with</text><text fill="#000000" font-family="Verdana" font-size="13" lengthAdjust="spacing" textLength="128.7939" x="528" y="940.1528">exponential backoff</text><g class="message" data-entity-1="part3" data-entity-2="part8" data-source-line="77" id="msg22"><polygon fill="#737266" points="1353.8608,969.1875,1363.8608,973.1875,1353.8608,977.1875,1357.8608,973.1875" style="stroke:#737266;stroke-width:1;stroke-linejoin:miter;stroke-miterlimit:10;"/><line style="stroke:#737266;stroke-width:1;" x1="597.2324" x2="1359.8608" y1="973.1875" y2="973.1875"/><text fill="#444444" font-family="Verdana" font-size="12" lengthAdjust="spacing" textLength="185.6543" x="604.2324" y="968.3574">SSA apply &#8212; retries exhausted</text></g><g class="message" data-entity-1="part8" data-entity-2="part3" data-source-line="78" id="msg23"><polygon fill="#737266" points="608.2324,997.1563,598.2324,1001.1563,608.2324,1005.1563,604.2324,1001.1563" style="stroke:#737266;stroke-width:1;stroke-linejoin:miter;stroke-miterlimit:10;"/><line style="stroke:#737266;stroke-width:1;stroke-dasharray:2,2;" x1="602.2324" x2="1364.8608" y1="1001.1563" y2="1001.1563"/><text fill="#444444" font-family="Verdana" font-size="12" lengthAdjust="spacing" textLength="29.5254" x="614.2324" y="996.3262">error</text></g><g class="message" data-entity-1="part3" data-entity-2="part6" data-source-line="80" id="msg24"><polygon fill="#737266" points="1006.9604,1039.0938,1016.9604,1043.0938,1006.9604,1047.0938,1010.9604,1043.0938" style="stroke:#737266;stroke-width:1;stroke-linejoin:miter;stroke-miterlimit:10;"/><line style="stroke:#737266;stroke-width:1;" x1="597.2324" x2="1012.9604" y1="1043.0938" y2="1043.0938"/><text fill="#444444" font-family="Verdana" font-size="12" lengthAdjust="spacing" textLength="124.834" x="604.2324" y="1024.2949">patch phase = failed</text><text fill="#444444" font-family="Verdana" font-size="12" lengthAdjust="spacing" textLength="155.4258" x="604.2324" y="1038.2637">failureReason = &lt;cause&gt;</text></g><path d="M1115,1059.0938 L1115,1093.0938 A3,3 0 0 0 1118,1096.0938 L1268,1096.0938 A3,3 0 0 0 1271,1093.0938 L1271,1066.0938 L1261,1056.0938 L1118,1056.0938 A3,3 0 0 0 1115,1059.0938" fill="#FFFFFF" style="stroke:#000000;stroke-width:1;"/><path d="M1261,1056.0938 L1261,1064.5938 A1.5,1.5 0 0 0 1262.5,1066.0938 L1271,1066.0938 L1261,1056.0938" fill="#FFFFFF" style="stroke:#000000;stroke-width:1;"/><text fill="#000000" font-family="Verdana" font-size="13" lengthAdjust="spacing" textLength="135.7573" x="1121" y="1073.1606">ProvisionedResource</text><text fill="#000000" font-family="Verdana" font-size="13" lengthAdjust="spacing" textLength="75.2261" x="1121" y="1088.2935">not created</text><g class="message" data-entity-1="part1" data-entity-2="part5" data-source-line="84" id="msg25"><polygon fill="#737266" points="879.8398,1117.3281,889.8398,1121.3281,879.8398,1125.3281,883.8398,1121.3281" style="stroke:#737266;stroke-width:1;stroke-linejoin:miter;stroke-miterlimit:10;"/><line style="stroke:#737266;stroke-width:1;" x1="189.5352" x2="885.8398" y1="1121.3281" y2="1121.3281"/><text fill="#444444" font-family="Verdana" font-size="12" lengthAdjust="spacing" textLength="76.9219" x="196.5352" y="1116.498">notify(failed)</text></g><g class="message" data-entity-1="part5" data-entity-2="part10" data-source-line="85" id="msg26"><polygon fill="#737266" points="1767.3579,1145.2969,1777.3579,1149.2969,1767.3579,1153.2969,1771.3579,1149.2969" style="stroke:#737266;stroke-width:1;stroke-linejoin:miter;stroke-miterlimit:10;"/><line style="stroke:#737266;stroke-width:1;" x1="891.8398" x2="1773.3579" y1="1149.2969" y2="1149.2969"/><text fill="#444444" font-family="Verdana" font-size="12" lengthAdjust="spacing" textLength="108.416" x="898.8398" y="1144.4668">SMTP &#8594; requester</text></g><path d="M106.2168,1171.2969 L415.9229,1171.2969 L415.9229,1178.4297 L405.9229,1188.4297 L103.2168,1188.4297 L103.2168,1174.2969 A3,3 0 0 1 106.2168,1171.2969" fill="#FFFFFF" style="stroke:#000000;stroke-width:1;"/><rect fill="none" height="347.0547" rx="3" ry="3" style="stroke:#000000;stroke-width:1;" width="1737.1323" x="103.2168" y="1171.2969"/><text fill="#000000" font-family="Verdana" font-size="13" font-weight="700" lengthAdjust="spacing" textLength="267.7061" x="118.2168" y="1184.3638">Failure path &#8212; CRD target NotReady</text><g class="message" data-entity-1="part2" data-entity-2="part6" data-source-line="89" id="msg27"><polygon fill="#737266" points="1006.9604,1204.3984,1016.9604,1208.3984,1006.9604,1212.3984,1010.9604,1208.3984" style="stroke:#737266;stroke-width:1;stroke-linejoin:miter;stroke-miterlimit:10;"/><line style="stroke:#737266;stroke-width:1;" x1="398.9961" x2="1012.9604" y1="1208.3984" y2="1208.3984"/><text fill="#444444" font-family="Verdana" font-size="12" lengthAdjust="spacing" textLength="165.0059" x="405.9961" y="1203.5684">patch phase = provisioning</text></g><g class="message" data-entity-1="part2" data-entity-2="part3" data-source-line="90" id="msg28"><polygon fill="#737266" points="585.2324,1232.3672,595.2324,1236.3672,585.2324,1240.3672,589.2324,1236.3672" style="stroke:#737266;stroke-width:1;stroke-linejoin:miter;stroke-miterlimit:10;"/><line style="stroke:#737266;stroke-width:1;" x1="398.9961" x2="591.2324" y1="1236.3672" y2="1236.3672"/><text fill="#444444" font-family="Verdana" font-size="12" lengthAdjust="spacing" textLength="133.8281" x="405.9961" y="1231.5371">provision(parameters)</text></g><g class="message" data-entity-1="part3" data-entity-2="part8" data-source-line="92" id="msg29"><polygon fill="#737266" points="1348.8608,1260.3359,1358.8608,1264.3359,1348.8608,1268.3359,1352.8608,1264.3359" style="stroke:#737266;stroke-width:1;stroke-linejoin:miter;stroke-miterlimit:10;"/><line style="stroke:#737266;stroke-width:1;" x1="597.2324" x2="1354.8608" y1="1264.3359" y2="1264.3359"/><text fill="#444444" font-family="Verdana" font-size="12" lengthAdjust="spacing" textLength="135.1641" x="604.2324" y="1259.5059">SSA apply &#8212; accepted</text></g><g class="message" data-entity-1="part8" data-entity-2="part9" data-source-line="94" id="msg30"><polygon fill="#737266" points="1535.8354,1288.3047,1545.8354,1292.3047,1535.8354,1296.3047,1539.8354,1292.3047" style="stroke:#737266;stroke-width:1;stroke-linejoin:miter;stroke-miterlimit:10;"/><line style="stroke:#737266;stroke-width:1;" x1="1370.8608" x2="1541.8354" y1="1292.3047" y2="1292.3047"/><text fill="#444444" font-family="Verdana" font-size="12" lengthAdjust="spacing" textLength="157.9746" x="1377.8608" y="1287.4746">reconcile triggered &#8212; fails</text></g><g class="message" data-entity-1="part9" data-entity-2="part8" data-source-line="96" id="msg31"><polygon fill="#737266" points="1381.8608,1330.2422,1371.8608,1334.2422,1381.8608,1338.2422,1377.8608,1334.2422" style="stroke:#737266;stroke-width:1;stroke-linejoin:miter;stroke-miterlimit:10;"/><line style="stroke:#737266;stroke-width:1;stroke-dasharray:2,2;" x1="1375.8608" x2="1551.8354" y1="1334.2422" y2="1334.2422"/><text fill="#444444" font-family="Verdana" font-size="12" lengthAdjust="spacing" textLength="112.7109" x="1387.8608" y="1315.4434">phase = NotReady</text><text fill="#444444" font-family="Verdana" font-size="12" lengthAdjust="spacing" textLength="113.8535" x="1387.8608" y="1329.4121">reason = &lt;cause&gt;</text></g><g class="message" data-entity-1="part8" data-entity-2="part3" data-source-line="98" id="msg32"><polygon fill="#737266" points="608.2324,1358.2109,598.2324,1362.2109,608.2324,1366.2109,604.2324,1362.2109" style="stroke:#737266;stroke-width:1;stroke-linejoin:miter;stroke-miterlimit:10;"/><line style="stroke:#737266;stroke-width:1;stroke-dasharray:2,2;" x1="602.2324" x2="1364.8608" y1="1362.2109" y2="1362.2109"/><text fill="#444444" font-family="Verdana" font-size="12" lengthAdjust="spacing" textLength="133.9688" x="614.2324" y="1357.3809">NotReady after retries</text></g><g class="message" data-entity-1="part3" data-entity-2="part6" data-source-line="101" id="msg33"><polygon fill="#737266" points="1006.9604,1400.1484,1016.9604,1404.1484,1006.9604,1408.1484,1010.9604,1404.1484" style="stroke:#737266;stroke-width:1;stroke-linejoin:miter;stroke-miterlimit:10;"/><line style="stroke:#737266;stroke-width:1;" x1="597.2324" x2="1012.9604" y1="1404.1484" y2="1404.1484"/><text fill="#444444" font-family="Verdana" font-size="12" lengthAdjust="spacing" textLength="124.834" x="604.2324" y="1385.3496">patch phase = failed</text><text fill="#444444" font-family="Verdana" font-size="12" lengthAdjust="spacing" textLength="231.3867" x="604.2324" y="1399.3184">failureReason = &lt;CRD target reason&gt;</text></g><path d="M1115,1420.1484 L1115,1454.1484 A3,3 0 0 0 1118,1457.1484 L1268,1457.1484 A3,3 0 0 0 1271,1454.1484 L1271,1427.1484 L1261,1417.1484 L1118,1417.1484 A3,3 0 0 0 1115,1420.1484" fill="#FFFFFF" style="stroke:#000000;stroke-width:1;"/><path d="M1261,1417.1484 L1261,1425.6484 A1.5,1.5 0 0 0 1262.5,1427.1484 L1271,1427.1484 L1261,1417.1484" fill="#FFFFFF" style="stroke:#000000;stroke-width:1;"/><text fill="#000000" font-family="Verdana" font-size="13" lengthAdjust="spacing" textLength="135.7573" x="1121" y="1434.2153">ProvisionedResource</text><text fill="#000000" font-family="Verdana" font-size="13" lengthAdjust="spacing" textLength="75.2261" x="1121" y="1449.3481">not created</text><g class="message" data-entity-1="part1" data-entity-2="part5" data-source-line="105" id="msg34"><polygon fill="#737266" points="879.8398,1478.3828,889.8398,1482.3828,879.8398,1486.3828,883.8398,1482.3828" style="stroke:#737266;stroke-width:1;stroke-linejoin:miter;stroke-miterlimit:10;"/><line style="stroke:#737266;stroke-width:1;" x1="189.5352" x2="885.8398" y1="1482.3828" y2="1482.3828"/><text fill="#444444" font-family="Verdana" font-size="12" lengthAdjust="spacing" textLength="76.9219" x="196.5352" y="1477.5527">notify(failed)</text></g><g class="message" data-entity-1="part5" data-entity-2="part10" data-source-line="106" id="msg35"><polygon fill="#737266" points="1767.3579,1506.3516,1777.3579,1510.3516,1767.3579,1514.3516,1771.3579,1510.3516" style="stroke:#737266;stroke-width:1;stroke-linejoin:miter;stroke-miterlimit:10;"/><line style="stroke:#737266;stroke-width:1;" x1="891.8398" x2="1773.3579" y1="1510.3516" y2="1510.3516"/><text fill="#444444" font-family="Verdana" font-size="12" lengthAdjust="spacing" textLength="108.416" x="898.8398" y="1505.5215">SMTP &#8594; requester</text></g><path d="M326.9399,1532.3516 L540.6567,1532.3516 L540.6567,1539.4844 L530.6567,1549.4844 L323.9399,1549.4844 L323.9399,1535.3516 A3,3 0 0 1 326.9399,1532.3516" fill="#FFFFFF" style="stroke:#000000;stroke-width:1;"/><rect fill="none" height="95.3672" rx="3" ry="3" style="stroke:#000000;stroke-width:1;" width="938.9214" x="323.9399" y="1532.3516"/><text fill="#000000" font-family="Verdana" font-size="13" font-weight="700" lengthAdjust="spacing" textLength="171.7168" x="338.9399" y="1545.4185">Failure path &#8212; rejected</text><g class="message" data-entity-1="part2" data-entity-2="part6" data-source-line="110" id="msg36"><polygon fill="#737266" points="1006.9604,1565.4531,1016.9604,1569.4531,1006.9604,1573.4531,1010.9604,1569.4531" style="stroke:#737266;stroke-width:1;stroke-linejoin:miter;stroke-miterlimit:10;"/><line style="stroke:#737266;stroke-width:1;" x1="398.9961" x2="1012.9604" y1="1569.4531" y2="1569.4531"/><text fill="#444444" font-family="Verdana" font-size="12" lengthAdjust="spacing" textLength="140.9238" x="405.9961" y="1564.623">patch phase = rejected</text></g><path d="M1132,1585.4531 L1132,1619.4531 A3,3 0 0 0 1135,1622.4531 L1249,1622.4531 A3,3 0 0 0 1252,1619.4531 L1252,1592.4531 L1242,1582.4531 L1135,1582.4531 A3,3 0 0 0 1132,1585.4531" fill="#FFFFFF" style="stroke:#000000;stroke-width:1;"/><path d="M1242,1582.4531 L1242,1590.9531 A1.5,1.5 0 0 0 1243.5,1592.4531 L1252,1592.4531 L1242,1582.4531" fill="#FFFFFF" style="stroke:#000000;stroke-width:1;"/><text fill="#000000" font-family="Verdana" font-size="13" lengthAdjust="spacing" textLength="99.8613" x="1138" y="1599.52">no provisioning</text><text fill="#000000" font-family="Verdana" font-size="13" lengthAdjust="spacing" textLength="68.4214" x="1138" y="1614.6528">attempted</text><g class="message" data-entity-1="part1" data-entity-2="part1" data-source-line="114" id="msg37"><polygon fill="#737266" points="16,1650.6875,6,1654.6875,16,1658.6875,12,1654.6875" style="stroke:#737266;stroke-width:1;stroke-linejoin:miter;stroke-miterlimit:10;"/><line style="stroke:#737266;stroke-width:1;stroke-dasharray:2,2;" x1="10" x2="188.5352" y1="1654.6875" y2="1654.6875"/><text fill="#444444" font-family="Verdana" font-size="12" lengthAdjust="spacing" textLength="76.2715" x="22" y="1649.8574">ctrl.Result{}</text></g><?plantuml-src pLRDRjj64BxpARRkHGBir8aK_mXH2eaM8GDM8aW6SZ1pM9CZSHjwbzbTsbQ303tr0OeyOPwaixiaHLggh08jMkbYSxxv--QReNxG2Tm1oLBAkAS-CPvHIU_8BOq-BQN8UUoBL4ZoOp0mtnf2mUSSU0JaYqVmCv1IF1JOqyxfgvEJzUD0S5sOklRJDCtPhq1Ulh8FhzW2hXY7eP0noC9fO3_MFgLIiuXbbEi6v7MdEnYURa2UTZ4QZIw2qLDOhRwEt-cUdLl0K3msKWoFJo-EZolJ1a51S3voJRyJ6ZRjh_4RhEtrqEV3y-xesFjQezUwHa9oaEJ4ypJJAP0PA97B26Q6UwNn_qZmYA7b-s_VI2I1Ql2yM_583YQKqoLEbclYfxdI80yQDMRhzid1axWXhmAZ5rLaDl8tdQPIt3F516Ty6VAvnjnaGgC4fsUTvfFdVCQKnsMAwNW76kAomf1_a4oNFhCFcqv8Bbkm0l7k_VKUtVgp2zVc3Fz2aPm5tU1Ypt9Atsd35tXCS0p5BAwfN48r1q9QzuoI6ULH0lAG8DDQYXI98FD1sqsfus_9RnAuK26_v4fZ0CUqVtsv6-rNAGgylwwmuJIXB4LLfNHbWPF1vHNMyt8KZCuyhzydWon34cXA-dtFkpbwQvHXClU8hAHuaoLKGOzac0B7_D4p68JE9mO7w9sZL5enH9PCTKYeZGfIjJq3gh0qJJ7kvvn9Y4c59va4XRh-sVFCWcLaZFuhR5udTWsAQB6bf8Zd9jipe2WXja3Ihv3a--z_aAmcpRhhTEmQhEmjkw2WRRtkb8mj4iTWaVFvm8HELyGarMxuh1XOo6yQ0_ze8z18itkpGEKeJQoZCZio4KMGQUnfMxu7snI6rxbwWS5ZfWrFwpW6wZ-PafPikGHPq5JBxnT-VjtFdHQSWMI6Bt7x2qHQ4QDZx3RaBTou59y_uBbI2SlCj5AAqTlhQ6N5lOh_6T1uPG4nRAcWmO35Oc85ifnjm-coGGrU1bUtu0icxx1abIE5of5Yh1RaH54qjtMzMsQG3E9fDVD3ic2SflZEakrwjEqIozP1NO75Ck1XiWLoSwrMhHhC1JLsXDa5D9AQN4-jIgMxMI3D0fSB4E3MvX8QAu3g0tp1okUtuDyGlYd2faS6PyE1ZxFY3C_6JoGgZc3EaVKeeRSfjBVDsnLlBSWH47CVZAtdACY1F32TX1mUCsIDQnFT_6WHYyKUjKb0_OCYy9XGKq_yJ0b5iEq4Bf1-Y4E-S6D0fIh1yVcR26F3suqcYY1RzOQmGeyxzU9I_XDIgPqeV7EkD_8_aKnrvlxw9kwyPJQ8uKRjk6gRTwXiF3IQRCvkl-DK1Y1qORHTgEkv8_KtrLIRb2lpVwui2UObiSzxk87SR8UBXk12JhM6EwiJc__cpT6HxGPFkPRf2-mvJ_MNhzwV?></g></svg>