<svg xmlns="http://www.w3.org/2000/svg" xmlns:xlink="http://www.w3.org/1999/xlink" contentStyleType="text/css" data-diagram-type="SEQUENCE" height="1430px" preserveAspectRatio="none" style="width:892px;height:1430px;background:#FAFAFA;" version="1.1" viewBox="0 0 892 1430" width="892px" zoomAndPan="magnify"><?plantuml 1.2026.4?><defs/><g><rect fill="#FAFAFA" height="1430" style="stroke:none;stroke-width:1;" width="892" x="0" y="0"/><g class="title" data-source-line="18"><text fill="#000000" font-family="Verdana" font-size="22" font-weight="700" lengthAdjust="spacing" textLength="483.4307" x="203.7419" y="35.4209">Approval Controller &#8212; Health Observer</text><text fill="#000000" font-family="Verdana" font-size="22" font-weight="700" lengthAdjust="spacing" textLength="790.5713" x="50.1716" y="61.0303">(runs on every reconcile pass, across all ProvisionedResources)</text></g><rect fill="#FFF9E6" height="1345.2734" rx="3" ry="3" style="stroke:#B07D00;stroke-width:1;" width="534.1763" x="11" y="78.2188"/><text fill="#000000" font-family="Verdana" font-size="13" font-weight="700" lengthAdjust="spacing" textLength="152.6484" x="201.7639" y="90.2856">Management Cluster</text><rect fill="#FFF3CD" height="1345.2734" rx="3" ry="3" style="stroke:#B07D00;stroke-width:1;" width="323.7383" x="557.1763" y="78.2188"/><text fill="#000000" font-family="Verdana" font-size="13" font-weight="700" lengthAdjust="spacing" textLength="317.7383" x="560.1763" y="90.2856">Target Cluster  (via Rancher, controller SA)</text><rect fill="#FFFFFF" height="902.1797" rx="3" ry="3" style="stroke:#000000;stroke-width:1;" width="731.3501" x="63" y="419.75"/><rect fill="#FFFFFF" height="110.5" rx="3" ry="3" style="stroke:#000000;stroke-width:1;" width="677.3501" x="107" y="485.8203"/><rect fill="#FFFFFF" height="152.4375" rx="3" ry="3" style="stroke:#000000;stroke-width:1;" width="602.1826" x="182.1675" y="610.3203"/><rect fill="#FFFFFF" height="413.6719" rx="3" ry="3" style="stroke:#000000;stroke-width:1;" width="709.3501" x="75" y="776.7578"/><rect fill="#FFFFFF" height="110.5" rx="3" ry="3" style="stroke:#000000;stroke-width:1;" width="711.3501" x="73" y="1204.4297"/><g class="participant-lifeline" data-entity-uid="part1" data-qualified-name="REC" data-source-line="21" id="part1-lifeline"><g><title>ResourceRequest</title><rect fill="#000000" fill-opacity="0.00000" height="1215.9531" width="8" x="87.3184" y="150.9453"/><line style="stroke:#AAAAAA;stroke-width:1;stroke-dasharray:5,5;" x1="91" x2="91" y1="150.9453" y2="1366.8984"/></g></g><g class="participant-lifeline" data-entity-uid="part2" data-qualified-name="HO" data-source-line="22" id="part2-lifeline"><g><title>Health</title><rect fill="#000000" fill-opacity="0.00000" height="1215.9531" width="8" x="235.2793" y="150.9453"/><line style="stroke:#AAAAAA;stroke-width:1;stroke-dasharray:5,5;" x1="239.1675" x2="239.1675" y1="150.9453" y2="1366.8984"/></g></g><g class="participant-lifeline" data-entity-uid="part3" data-qualified-name="PRCRD" data-source-line="23" id="part3-lifeline"><g><title>ProvisionedResource</title><rect fill="#000000" fill-opacity="0.00000" height="1215.9531" width="8" x="449.0762" y="150.9453"/><line style="stroke:#AAAAAA;stroke-width:1;stroke-dasharray:5,5;" x1="452.9761" x2="452.9761" y1="150.9453" y2="1366.8984"/></g></g><g class="participant-lifeline" data-entity-uid="part4" data-qualified-name="CTI" data-source-line="27" id="part4-lifeline"><g><title>CRD Target</title><rect fill="#000000" fill-opacity="0.00000" height="1215.9531" width="8" x="715.0454" y="150.9453"/><line style="stroke:#AAAAAA;stroke-width:1;stroke-dasharray:5,5;" x1="718.7407" x2="718.7407" y1="150.9453" y2="1366.8984"/></g></g><g class="participant participant-head" data-entity-uid="part1" data-qualified-name="REC" data-source-line="21" id="part1-head"><rect fill="#EEEDFE" height="42.5938" rx="3" ry="3" style="stroke:#534AB7;stroke-width:1;" width="132.6367" x="25" y="102.3516"/><text fill="#3C3489" font-family="Verdana" font-size="14" lengthAdjust="spacing" textLength="122.6367" x="30" y="120.3467">ResourceRequest</text><text fill="#3C3489" font-family="Verdana" font-size="14" lengthAdjust="spacing" textLength="73.3223" x="54.6572" y="136.6436">Reconciler</text></g><g class="participant participant-tail" data-entity-uid="part1" data-qualified-name="REC" data-source-line="21" id="part1-tail"><rect fill="#EEEDFE" height="42.5938" rx="3" ry="3" style="stroke:#534AB7;stroke-width:1;" width="132.6367" x="25" y="1370.8984"/><text fill="#3C3489" font-family="Verdana" font-size="14" lengthAdjust="spacing" textLength="122.6367" x="30" y="1388.8936">ResourceRequest</text><text fill="#3C3489" font-family="Verdana" font-size="14" lengthAdjust="spacing" textLength="73.3223" x="54.6572" y="1405.1904">Reconciler</text></g><g class="participant participant-head" data-entity-uid="part2" data-qualified-name="HO" data-source-line="22" id="part2-head"><rect fill="#EEEDFE" height="42.5938" rx="3" ry="3" style="stroke:#534AB7;stroke-width:1;" width="74.2236" x="202.1675" y="102.3516"/><text fill="#3C3489" font-family="Verdana" font-size="14" lengthAdjust="spacing" textLength="45.9717" x="216.2935" y="120.3467">Health</text><text fill="#3C3489" font-family="Verdana" font-size="14" lengthAdjust="spacing" textLength="64.2236" x="207.1675" y="136.6436">Observer</text></g><g class="participant participant-tail" data-entity-uid="part2" data-qualified-name="HO" data-source-line="22" id="part2-tail"><rect fill="#EEEDFE" height="42.5938" rx="3" ry="3" style="stroke:#534AB7;stroke-width:1;" width="74.2236" x="202.1675" y="1370.8984"/><text fill="#3C3489" font-family="Verdana" font-size="14" lengthAdjust="spacing" textLength="45.9717" x="216.2935" y="1388.8936">Health</text><text fill="#3C3489" font-family="Verdana" font-size="14" lengthAdjust="spacing" textLength="64.2236" x="207.1675" y="1405.1904">Observer</text></g><g class="participant participant-head" data-entity-uid="part3" data-qualified-name="PRCRD" data-source-line="23" id="part3-head"><rect fill="#E8F4FD" height="42.5938" rx="3" ry="3" style="stroke:#534AB7;stroke-width:1;" width="156.2002" x="374.9761" y="102.3516"/><text fill="#3C3489" font-family="Verdana" font-size="14" lengthAdjust="spacing" textLength="146.2002" x="379.9761" y="120.3467">ProvisionedResource</text><text fill="#3C3489" font-family="Verdana" font-size="14" lengthAdjust="spacing" textLength="30.2832" x="437.9346" y="136.6436">CRD</text></g><g class="participant participant-tail" data-entity-uid="part3" data-qualified-name="PRCRD" data-source-line="23" id="part3-tail"><rect fill="#E8F4FD" height="42.5938" rx="3" ry="3" style="stroke:#534AB7;stroke-width:1;" width="156.2002" x="374.9761" y="1370.8984"/><text fill="#3C3489" font-family="Verdana" font-size="14" lengthAdjust="spacing" textLength="146.2002" x="379.9761" y="1388.8936">ProvisionedResource</text><text fill="#3C3489" font-family="Verdana" font-size="14" lengthAdjust="spacing" textLength="30.2832" x="437.9346" y="1405.1904">CRD</text></g><g class="participant participant-head" data-entity-uid="part4" data-qualified-name="CTI" data-source-line="27" id="part4-head"><rect fill="#EEEDFE" height="42.5938" rx="3" ry="3" style="stroke:#534AB7;stroke-width:1;" width="90.6094" x="673.7407" y="102.3516"/><text fill="#3C3489" font-family="Verdana" font-size="14" lengthAdjust="spacing" textLength="80.6094" x="678.7407" y="120.3467">CRD Target</text><text fill="#3C3489" font-family="Verdana" font-size="14" lengthAdjust="spacing" textLength="59.5479" x="689.2715" y="136.6436">Instance</text></g><g class="participant participant-tail" data-entity-uid="part4" data-qualified-name="CTI" data-source-line="27" id="part4-tail"><rect fill="#EEEDFE" height="42.5938" rx="3" ry="3" style="stroke:#534AB7;stroke-width:1;" width="90.6094" x="673.7407" y="1370.8984"/><text fill="#3C3489" font-family="Verdana" font-size="14" lengthAdjust="spacing" textLength="80.6094" x="678.7407" y="1388.8936">CRD Target</text><text fill="#3C3489" font-family="Verdana" font-size="14" lengthAdjust="spacing" textLength="59.5479" x="689.2715" y="1405.1904">Instance</text></g><path d="M11,168.9453 L11,262.9453 A3,3 0 0 0 14,265.9453 L529,265.9453 A3,3 0 0 0 532,262.9453 L532,175.9453 L522,165.9453 L14,165.9453 A3,3 0 0 0 11,168.9453" fill="#FFFFFF" style="stroke:#000000;stroke-width:1;"/><path d="M522,165.9453 L522,174.4453 A1.5,1.5 0 0 0 523.5,175.9453 L532,175.9453 L522,165.9453" fill="#FFFFFF" style="stroke:#000000;stroke-width:1;"/><text fill="#000000" font-family="Verdana" font-size="13" lengthAdjust="spacing" textLength="380.0913" x="52.1121" y="183.0122">The Health Observer is invoked on every reconcile pass &#8212;</text><text fill="#000000" font-family="Verdana" font-size="13" lengthAdjust="spacing" textLength="413.1436" x="52.1121" y="198.145">including periodic resyncs &#8212; not only when a ResourceRequest</text><text fill="#000000" font-family="Verdana" font-size="13" lengthAdjust="spacing" textLength="376.4858" x="52.1121" y="213.2778">event triggers reconciliation. It operates independently of</text><text fill="#000000" font-family="Verdana" font-size="13" lengthAdjust="spacing" textLength="429.9521" x="52.1121" y="228.4106">the Provisioning State Machine and reads all ProvisionedResource</text><text fill="#000000" font-family="Verdana" font-size="13" lengthAdjust="spacing" textLength="354.1929" x="52.1121" y="243.5435">objects in ''provisioned'' or ''updating'' phase from the</text><text fill="#000000" font-family="Verdana" font-size="13" lengthAdjust="spacing" textLength="150.3696" x="52.1121" y="258.6763">controller's own cache.</text><rect fill="#FFFFFF" height="3" rx="3" ry="3" style="stroke:#FFFFFF;stroke-width:1;" width="881.9146" x="5" y="292.3086"/><line style="stroke:#000000;stroke-width:0.5;" x1="5" x2="886.9146" y1="292.3086" y2="292.3086"/><line style="stroke:#000000;stroke-width:0.5;" x1="5" x2="886.9146" y1="295.3086" y2="295.3086"/><rect fill="#FFFFFF" height="23.1328" rx="3" ry="3" style="stroke:#000000;stroke-width:1;" width="300.6157" x="295.6494" y="281.7422"/><text fill="#000000" font-family="Verdana" font-size="13" font-weight="700" lengthAdjust="spacing" textLength="282.0898" x="301.6494" y="297.8091">Per-ProvisionedResource health check</text><g class="message" data-entity-1="part1" data-entity-2="part2" data-source-line="41" id="msg1"><polygon fill="#737266" points="227.2793,330.8438,237.2793,334.8438,227.2793,338.8438,231.2793,334.8438" style="stroke:#737266;stroke-width:1;stroke-linejoin:miter;stroke-miterlimit:10;"/><line style="stroke:#737266;stroke-width:1;" x1="91.3184" x2="233.2793" y1="334.8438" y2="334.8438"/><text fill="#444444" font-family="Verdana" font-size="12" lengthAdjust="spacing" textLength="123.9609" x="98.3184" y="330.0137">runHealthObserver()</text></g><g class="message" data-entity-1="part2" data-entity-2="part3" data-source-line="42" id="msg2"><polygon fill="#737266" points="441.0762,372.7813,451.0762,376.7813,441.0762,380.7813,445.0762,376.7813" style="stroke:#737266;stroke-width:1;stroke-linejoin:miter;stroke-miterlimit:10;"/><line style="stroke:#737266;stroke-width:1;" x1="239.2793" x2="447.0762" y1="376.7813" y2="376.7813"/><text fill="#444444" font-family="Verdana" font-size="12" lengthAdjust="spacing" textLength="153.0059" x="246.2793" y="357.9824">list ProvisionedResources</text><text fill="#444444" font-family="Verdana" font-size="12" lengthAdjust="spacing" textLength="188.4199" x="246.2793" y="371.9512">[phase: provisioned | updating]</text></g><g class="message" data-entity-1="part3" data-entity-2="part2" data-source-line="43" id="msg3"><polygon fill="#737266" points="250.2793,400.75,240.2793,404.75,250.2793,408.75,246.2793,404.75" style="stroke:#737266;stroke-width:1;stroke-linejoin:miter;stroke-miterlimit:10;"/><line style="stroke:#737266;stroke-width:1;stroke-dasharray:2,2;" x1="244.2793" x2="452.0762" y1="404.75" y2="404.75"/><text fill="#444444" font-family="Verdana" font-size="12" lengthAdjust="spacing" textLength="80.0508" x="256.2793" y="399.9199">list of objects</text></g><path d="M66,419.75 L139.624,419.75 L139.624,426.8828 L129.624,436.8828 L63,436.8828 L63,422.75 A3,3 0 0 1 66,419.75" fill="#FFFFFF" style="stroke:#000000;stroke-width:1;"/><rect fill="none" height="902.1797" rx="3" ry="3" style="stroke:#000000;stroke-width:1;" width="731.3501" x="63" y="419.75"/><text fill="#000000" font-family="Verdana" font-size="13" font-weight="700" lengthAdjust="spacing" textLength="31.624" x="78" y="432.8169">loop</text><text fill="#000000" font-family="Verdana" font-size="11" font-weight="700" lengthAdjust="spacing" textLength="195.0137" x="154.624" y="431.9604">[for each ProvisionedResource]</text><g class="message" data-entity-1="part2" data-entity-2="part4" data-source-line="47" id="msg4"><polygon fill="#737266" points="707.0454,466.8203,717.0454,470.8203,707.0454,474.8203,711.0454,470.8203" style="stroke:#737266;stroke-width:1;stroke-linejoin:miter;stroke-miterlimit:10;"/><line style="stroke:#737266;stroke-width:1;" x1="239.2793" x2="713.0454" y1="470.8203" y2="470.8203"/><text fill="#444444" font-family="Verdana" font-size="12" lengthAdjust="spacing" textLength="125.9414" x="246.2793" y="452.0215">get status.conditions</text><text fill="#444444" font-family="Verdana" font-size="12" lengthAdjust="spacing" textLength="151.1426" x="246.2793" y="465.9902">[controller SA, read-only]</text></g><path d="M110,485.8203 L420.7217,485.8203 L420.7217,492.9531 L410.7217,502.9531 L107,502.9531 L107,488.8203 A3,3 0 0 1 110,485.8203" fill="#FFFFFF" style="stroke:#000000;stroke-width:1;"/><rect fill="none" height="110.5" rx="3" ry="3" style="stroke:#000000;stroke-width:1;" width="677.3501" x="107" y="485.8203"/><text fill="#000000" font-family="Verdana" font-size="13" font-weight="700" lengthAdjust="spacing" textLength="268.7217" x="122" y="498.8872">Case 1 &#8212; Ready: no change required</text><g class="message" data-entity-1="part4" data-entity-2="part2" data-source-line="50" id="msg5"><polygon fill="#737266" points="250.2793,518.9219,240.2793,522.9219,250.2793,526.9219,246.2793,522.9219" style="stroke:#737266;stroke-width:1;stroke-linejoin:miter;stroke-miterlimit:10;"/><line style="stroke:#737266;stroke-width:1;stroke-dasharray:2,2;" x1="244.2793" x2="718.0454" y1="522.9219" y2="522.9219"/><text fill="#444444" font-family="Verdana" font-size="12" lengthAdjust="spacing" textLength="82.7285" x="256.2793" y="518.0918">Ready = True</text></g><path d="M117,538.9219 L117,587.9219 A3,3 0 0 0 120,590.9219 L358,590.9219 A3,3 0 0 0 361,587.9219 L361,545.9219 L351,535.9219 L120,535.9219 A3,3 0 0 0 117,538.9219" fill="#FFFFFF" style="stroke:#000000;stroke-width:1;"/><path d="M351,535.9219 L351,544.4219 A1.5,1.5 0 0 0 352.5,545.9219 L361,545.9219 L351,535.9219" fill="#FFFFFF" style="stroke:#000000;stroke-width:1;"/><text fill="#000000" font-family="Verdana" font-size="13" lengthAdjust="spacing" textLength="223.1963" x="123" y="552.9888">ProvisionedResource.status.phase</text><text fill="#000000" font-family="Verdana" font-size="13" lengthAdjust="spacing" textLength="195.9331" x="123" y="568.1216">already reflects healthy state;</text><text fill="#000000" font-family="Verdana" font-size="13" lengthAdjust="spacing" textLength="105.8789" x="123" y="583.2544">no write needed</text><path d="M185.1675,610.3203 L558.166,610.3203 L558.166,617.4531 L548.166,627.4531 L182.1675,627.4531 L182.1675,613.3203 A3,3 0 0 1 185.1675,610.3203" fill="#FFFFFF" style="stroke:#000000;stroke-width:1;"/><rect fill="none" height="152.4375" rx="3" ry="3" style="stroke:#000000;stroke-width:1;" width="602.1826" x="182.1675" y="610.3203"/><text fill="#000000" font-family="Verdana" font-size="13" font-weight="700" lengthAdjust="spacing" textLength="330.9985" x="197.1675" y="623.3872">Case 2 &#8212; NotReady: surface degraded status</text><g class="message" data-entity-1="part4" data-entity-2="part2" data-source-line="55" id="msg6"><polygon fill="#737266" points="250.2793,643.4219,240.2793,647.4219,250.2793,651.4219,246.2793,647.4219" style="stroke:#737266;stroke-width:1;stroke-linejoin:miter;stroke-miterlimit:10;"/><line style="stroke:#737266;stroke-width:1;stroke-dasharray:2,2;" x1="244.2793" x2="718.0454" y1="647.4219" y2="647.4219"/><text fill="#444444" font-family="Verdana" font-size="12" lengthAdjust="spacing" textLength="86.7012" x="256.2793" y="642.5918">Ready = False</text></g><g class="message" data-entity-1="part2" data-entity-2="part3" data-source-line="56" id="msg7"><polygon fill="#737266" points="441.0762,685.3594,451.0762,689.3594,441.0762,693.3594,445.0762,689.3594" style="stroke:#737266;stroke-width:1;stroke-linejoin:miter;stroke-miterlimit:10;"/><line style="stroke:#737266;stroke-width:1;" x1="239.2793" x2="447.0762" y1="689.3594" y2="689.3594"/><text fill="#444444" font-family="Verdana" font-size="12" lengthAdjust="spacing" textLength="189.7969" x="246.2793" y="670.5605">patch status.phase = degraded</text><text fill="#444444" font-family="Verdana" font-size="12" lengthAdjust="spacing" textLength="187.1367" x="246.2793" y="684.5293">[status subresource write only]</text></g><path d="M316,705.3594 L316,754.3594 A3,3 0 0 0 319,757.3594 L586,757.3594 A3,3 0 0 0 589,754.3594 L589,712.3594 L579,702.3594 L319,702.3594 A3,3 0 0 0 316,705.3594" fill="#FFFFFF" style="stroke:#000000;stroke-width:1;"/><path d="M579,702.3594 L579,710.8594 A1.5,1.5 0 0 0 580.5,712.3594 L589,712.3594 L579,702.3594" fill="#FFFFFF" style="stroke:#000000;stroke-width:1;"/><text fill="#000000" font-family="Verdana" font-size="13" lengthAdjust="spacing" textLength="252.3892" x="322" y="719.4263">Degraded status surfaced in the portal</text><text fill="#000000" font-family="Verdana" font-size="13" lengthAdjust="spacing" textLength="188.665" x="322" y="734.5591">via Web App informer cache.</text><text fill="#000000" font-family="Verdana" font-size="13" lengthAdjust="spacing" textLength="193.7559" x="322" y="749.6919">No ResourceRequest created.</text><path d="M78,776.7578 L619.1226,776.7578 L619.1226,783.8906 L609.1226,793.8906 L75,793.8906 L75,779.7578 A3,3 0 0 1 78,776.7578" fill="#FFFFFF" style="stroke:#000000;stroke-width:1;"/><rect fill="none" height="413.6719" rx="3" ry="3" style="stroke:#000000;stroke-width:1;" width="709.3501" x="75" y="776.7578"/><text fill="#000000" font-family="Verdana" font-size="13" font-weight="700" lengthAdjust="spacing" textLength="499.1226" x="90" y="789.8247">Case 3 &#8212; NotFound + ProvisionedResource NOT in ''deleting'' phase</text><g class="message" data-entity-1="part4" data-entity-2="part2" data-source-line="61" id="msg8"><polygon fill="#737266" points="250.2793,809.8594,240.2793,813.8594,250.2793,817.8594,246.2793,813.8594" style="stroke:#737266;stroke-width:1;stroke-linejoin:miter;stroke-miterlimit:10;"/><line style="stroke:#737266;stroke-width:1;stroke-dasharray:2,2;" x1="244.2793" x2="718.0454" y1="813.8594" y2="813.8594"/><text fill="#444444" font-family="Verdana" font-size="12" lengthAdjust="spacing" textLength="58.0957" x="256.2793" y="809.0293">NotFound</text></g><path d="M96,829.8594 L96,878.8594 A3,3 0 0 0 99,881.8594 L378,881.8594 A3,3 0 0 0 381,878.8594 L381,836.8594 L371,826.8594 L99,826.8594 A3,3 0 0 0 96,829.8594" fill="#FFFFFF" style="stroke:#000000;stroke-width:1;"/><path d="M371,826.8594 L371,835.3594 A1.5,1.5 0 0 0 372.5,836.8594 L381,836.8594 L371,826.8594" fill="#FFFFFF" style="stroke:#000000;stroke-width:1;"/><text fill="#000000" font-family="Verdana" font-size="13" lengthAdjust="spacing" textLength="264.5957" x="102" y="843.9263">CRD target instance deleted out-of-band</text><text fill="#000000" font-family="Verdana" font-size="13" lengthAdjust="spacing" textLength="244.4419" x="102" y="859.0591">(not through a portal delete request).</text><text fill="#000000" font-family="Verdana" font-size="13" lengthAdjust="spacing" textLength="238.9829" x="102" y="874.1919">Re-applying to restore desired state.</text><g class="message" data-entity-1="part2" data-entity-2="part3" data-source-line="64" id="msg9"><polygon fill="#737266" points="441.0762,903.2266,451.0762,907.2266,441.0762,911.2266,445.0762,907.2266" style="stroke:#737266;stroke-width:1;stroke-linejoin:miter;stroke-miterlimit:10;"/><line style="stroke:#737266;stroke-width:1;" x1="239.2793" x2="447.0762" y1="907.2266" y2="907.2266"/><text fill="#444444" font-family="Verdana" font-size="12" lengthAdjust="spacing" textLength="186.8027" x="246.2793" y="902.3965">patch status.phase = unknown</text></g><g class="message" data-entity-1="part2" data-entity-2="part4" data-source-line="65" id="msg10"><polygon fill="#737266" points="707.0454,959.1328,717.0454,963.1328,707.0454,967.1328,711.0454,963.1328" style="stroke:#737266;stroke-width:1;stroke-linejoin:miter;stroke-miterlimit:10;"/><line style="stroke:#737266;stroke-width:1;" x1="239.2793" x2="713.0454" y1="963.1328" y2="963.1328"/><text fill="#444444" font-family="Verdana" font-size="12" lengthAdjust="spacing" textLength="185.2148" x="246.2793" y="930.3652">SSA apply CRD target instance</text><text fill="#444444" font-family="Verdana" font-size="12" lengthAdjust="spacing" textLength="182.6484" x="246.2793" y="944.334">[controller SA &#8212; restores from</text><text fill="#444444" font-family="Verdana" font-size="12" lengthAdjust="spacing" textLength="278.9531" x="246.2793" y="958.3027">ProvisionedResource.spec.appliedParameters]</text></g><path d="M190,979.1328 L190,1073.1328 A3,3 0 0 0 193,1076.1328 L764,1076.1328 A3,3 0 0 0 767,1073.1328 L767,986.1328 L757,976.1328 L193,976.1328 A3,3 0 0 0 190,979.1328" fill="#FFFFFF" style="stroke:#000000;stroke-width:1;"/><path d="M757,976.1328 L757,984.6328 A1.5,1.5 0 0 0 758.5,986.1328 L767,986.1328 L757,976.1328" fill="#FFFFFF" style="stroke:#000000;stroke-width:1;"/><text fill="#000000" font-family="Verdana" font-size="13" lengthAdjust="spacing" textLength="301.3931" x="275.0479" y="993.1997">AUDIT TRADE-OFF: This re-apply bypasses the</text><text fill="#000000" font-family="Verdana" font-size="13" lengthAdjust="spacing" textLength="350.4224" x="275.0479" y="1008.3325">approval workflow and produces no ResourceRequest</text><text fill="#000000" font-family="Verdana" font-size="13" lengthAdjust="spacing" textLength="314.1772" x="275.0479" y="1023.4653">audit trail entry. Operators who require an audit</text><text fill="#000000" font-family="Verdana" font-size="13" lengthAdjust="spacing" textLength="301.1392" x="275.0479" y="1038.5981">trail for all target-cluster writes should disable</text><text fill="#000000" font-family="Verdana" font-size="13" lengthAdjust="spacing" textLength="398.0869" x="275.0479" y="1053.731">this behaviour and instead alert on status.phase = unknown,</text><text fill="#000000" font-family="Verdana" font-size="13" lengthAdjust="spacing" textLength="332.7949" x="275.0479" y="1068.8638">treating out-of-band deletion as a manual incident.</text><g class="message" data-entity-1="part4" data-entity-2="part2" data-source-line="76" id="msg11"><polygon fill="#737266" points="250.2793,1097.8984,240.2793,1101.8984,250.2793,1105.8984,246.2793,1101.8984" style="stroke:#737266;stroke-width:1;stroke-linejoin:miter;stroke-miterlimit:10;"/><line style="stroke:#737266;stroke-width:1;stroke-dasharray:2,2;" x1="244.2793" x2="718.0454" y1="1101.8984" y2="1101.8984"/><text fill="#444444" font-family="Verdana" font-size="12" lengthAdjust="spacing" textLength="55.2539" x="256.2793" y="1097.0684">accepted</text></g><path d="M85,1117.8984 L85,1181.8984 A3,3 0 0 0 88,1184.8984 L389,1184.8984 A3,3 0 0 0 392,1181.8984 L392,1124.8984 L382,1114.8984 L88,1114.8984 A3,3 0 0 0 85,1117.8984" fill="#FFFFFF" style="stroke:#000000;stroke-width:1;"/><path d="M382,1114.8984 L382,1123.3984 A1.5,1.5 0 0 0 383.5,1124.8984 L392,1124.8984 L382,1114.8984" fill="#FFFFFF" style="stroke:#000000;stroke-width:1;"/><text fill="#000000" font-family="Verdana" font-size="13" lengthAdjust="spacing" textLength="238.0879" x="91" y="1131.9653">Readiness of the re-applied instance</text><text fill="#000000" font-family="Verdana" font-size="13" lengthAdjust="spacing" textLength="286.4126" x="91" y="1147.0981">will be observed on the next reconcile pass.</text><text fill="#000000" font-family="Verdana" font-size="13" lengthAdjust="spacing" textLength="279.9253" x="91" y="1162.231">ProvisionedResource status.phase remains</text><text fill="#000000" font-family="Verdana" font-size="13" lengthAdjust="spacing" textLength="239.9414" x="91" y="1177.3638">''unknown'' until Ready is confirmed.</text><path d="M76,1204.4297 L581.7979,1204.4297 L581.7979,1211.5625 L571.7979,1221.5625 L73,1221.5625 L73,1207.4297 A3,3 0 0 1 76,1204.4297" fill="#FFFFFF" style="stroke:#000000;stroke-width:1;"/><rect fill="none" height="110.5" rx="3" ry="3" style="stroke:#000000;stroke-width:1;" width="711.3501" x="73" y="1204.4297"/><text fill="#000000" font-family="Verdana" font-size="13" font-weight="700" lengthAdjust="spacing" textLength="463.7979" x="88" y="1217.4966">Case 4 &#8212; NotFound + ProvisionedResource in ''deleting'' phase</text><g class="message" data-entity-1="part4" data-entity-2="part2" data-source-line="81" id="msg12"><polygon fill="#737266" points="250.2793,1237.5313,240.2793,1241.5313,250.2793,1245.5313,246.2793,1241.5313" style="stroke:#737266;stroke-width:1;stroke-linejoin:miter;stroke-miterlimit:10;"/><line style="stroke:#737266;stroke-width:1;stroke-dasharray:2,2;" x1="244.2793" x2="718.0454" y1="1241.5313" y2="1241.5313"/><text fill="#444444" font-family="Verdana" font-size="12" lengthAdjust="spacing" textLength="58.0957" x="256.2793" y="1236.7012">NotFound</text></g><path d="M83,1257.5313 L83,1306.5313 A3,3 0 0 0 86,1309.5313 L391,1309.5313 A3,3 0 0 0 394,1306.5313 L394,1264.5313 L384,1254.5313 L86,1254.5313 A3,3 0 0 0 83,1257.5313" fill="#FFFFFF" style="stroke:#000000;stroke-width:1;"/><path d="M384,1254.5313 L384,1263.0313 A1.5,1.5 0 0 0 385.5,1264.5313 L394,1264.5313 L384,1254.5313" fill="#FFFFFF" style="stroke:#000000;stroke-width:1;"/><text fill="#000000" font-family="Verdana" font-size="13" lengthAdjust="spacing" textLength="209.187" x="89" y="1271.5981">Deletion in progress via a portal</text><text fill="#000000" font-family="Verdana" font-size="13" lengthAdjust="spacing" textLength="214.1572" x="89" y="1286.731">delete request &#8212; handled by the</text><text fill="#000000" font-family="Verdana" font-size="13" lengthAdjust="spacing" textLength="290.3672" x="89" y="1301.8638">Provisioning Handler. Health Observer skips.</text><g class="message" data-entity-1="part2" data-entity-2="part1" data-source-line="87" id="msg13"><polygon fill="#737266" points="102.3184,1344.8984,92.3184,1348.8984,102.3184,1352.8984,98.3184,1348.8984" style="stroke:#737266;stroke-width:1;stroke-linejoin:miter;stroke-miterlimit:10;"/><line style="stroke:#737266;stroke-width:1;stroke-dasharray:2,2;" x1="96.3184" x2="238.2793" y1="1348.8984" y2="1348.8984"/><text fill="#444444" font-family="Verdana" font-size="12" lengthAdjust="spacing" textLength="29.9473" x="108.3184" y="1344.0684">done</text></g><?plantuml-src hLRRRXj737tVhs3J1yUe9JYn4yTkNK3M1J6Gn8QieWzL7aQxb3JrUcOpEsj5QGlq8_g5_P8UpcXrTz02NG66fI7Fa8VauNxZf_p0LEHAcwIyrwPGJZtGIANt4sShaxLjRXrzssl9PysYv4yLcvJfjuJmj9opiuNjsSdPozUlLp_thF6BezFmR1xTwIzCBrw67z_fCR_JXg-iozWjd5hX2UUtodcTwa8Pls7owkIqTNMsOxATHRVRxVIwssPhyPsqJqxVd0U3A_jvuughuxFEyV7oQ8UWNk-y6vF-O3tldh_2fxSwNuS-lpe_xHudVwpH6rnJwmmxUfqaNlkSgLKKpZwgdDg8sDayn-7VV_v5RrdbVaetevBT8xkXUUugKv8rnFWw9yUfDQa6Gg7AyeXKwcnPaifpkWMWBhKrdFMvj9LBkJnCaf7zJC_UAwCcw0xZgPrNfMVtR2FFOaKXFQkz-z8NfH-QVdqfl5H9_Mvxroa6FZHrvC7oxSskuPumXwRTxmI7spx-Gt7Vz4vxdOHDHWX_aSD0kGaluoTw_gWLzPL9f-oEA5tnUDSwZDcTj3kxzyi54Mfehatf0S3XxlRWUdMZGM798W_9zYZ61Qp1bBTBHBeaRHxjFMTFbKag2sTjqhpAj9bGmKxRJAUmA-Sc3GQ4Am6GpsasPKD8RRCC000sCl1EJoRiokKbMddGsQHh-0DPUPQ8CYwG3Ho0QCVmXZoiUaIYkFCmfVSgdM9CII5rnofxifa0OKU_Ske5dGuEYfN9mG6X-GyEgY93B6Q2xyLKbKnZPn_aOlYk2dI0VfuPId4nDmFbmdQIN5xIBRl6dgjf6Zc7GtfFbvT9WgfGuqSqcDJtWZ0aiInrLPuV9d86azXI5vJhqk-TaQ7v9GHxGMiPqUzK9_CnYH2DUDy2oOvhDf8ajxQWCHXWfBINkj26S0O4sWmOqideFL-LJH2JQQcWHBBHnaUX80rfYeyHGdIeeBPG-o8qJHy6ymiG26wKcJ0yFbNQSHRCvP7xbg47SxgaWQjuQR7gzM2p9_xc8jJ0qz2et0KSn-Cyz4CippnanDyF3SAPEGrKmvmjOa6TTt9u6NA0Y2xIA2itLYXtnXEduBYWwEkvz5HUhfBPgdgXF4go7ZuyQdZm7KzmySZLlHOZZwJlKbG3TpP3h4FFP3PaqWhhlCg7HaJgPnw9uEC8JV80aDZwG_F1RayvfQ3MSzPyahEJchEUx1NwRb-zwCFD80vfnZclJ-H-Ackqfrf2KlPHVlL2CYaWY-PLlc77ZH7q0zjAHCnF4Ura2WcB92nCGsiYnSEcR9I6AefyBZBahSYWjqumI-dTs4VDv3yLjJBt1hAoxIDvYaBStRKeNBalcUt12nGlWYg3Y0tDth4eE6qAgkRiLfOzqdJbnsGlZqTXmz3oQVtKkHxGeD_gT1itlTu5beiMKO_Cq6WkgmFNH_ci7rM_ECoikn_dTXQ46xzb5RHCX61tRonziNraVoYTexMycpVf9YmCYsqoczfQF00PRTTyevU8dAo7o5yZNUpYC3AOWQcjyemoNQfHlXwqbyn6F5MF6g65Y8Lw333GsCdUUwASHniXS13azPQBlOMgo0PNzA1C1MwmQRMilkRIUxLbzWw0IbCkF3yv0A8rM99OvT1z6Uz5cJHdQqqqqw1c1B-uXCBxW1WR_kotNWcQUnjgamJ73tYLnrR0OeriO8ehur67g7qW5PXZ3KtvYc2S_Xl1-1_5ebDN19ZeouaJsaG6rL8KDmKXn8VjbUMWR3GNojROaOA_3OUkkVFkXRViebnBFVoHTuCV6eqOJOOqaty0?></g></svg>