<svg xmlns="http://www.w3.org/2000/svg" xmlns:xlink="http://www.w3.org/1999/xlink" contentStyleType="text/css" data-diagram-type="STATE" height="1403px" preserveAspectRatio="none" style="width:1289px;height:1403px;background:#FAFAFA;" version="1.1" viewBox="0 0 1289 1403" width="1289px" zoomAndPan="magnify"><?plantuml 1.2026.4?><defs/><g><rect fill="#FAFAFA" height="1403" style="stroke:none;stroke-width:1;" width="1289" x="0" y="0"/><g class="title" data-source-line="17"><text fill="#000000" font-family="Verdana" font-size="22" font-weight="700" lengthAdjust="spacing" textLength="513.8418" x="386.9412" y="35.4209">ResourceRequest &#8212; Phase State Machine</text></g><g class="entity" data-qualified-name="provisioning" data-source-line="26" id="ent0001"><path d="M510.86,420.0094 L785.1493,420.0094 A4,4 0 0 1 789.1493,424.0094 L789.1493,446.3063 L506.86,446.3063 L506.86,424.0094 A4,4 0 0 1 510.86,420.0094" fill="#EEEDFE"/><path d="M506.86,446.3063 L789.1493,446.3063 L789.1493,713.09 A4,4 0 0 1 785.1493,717.09 L510.86,717.09 A4,4 0 0 1 506.86,713.09 L506.86,446.3063" fill="#EEEDFE"/><rect fill="none" height="297.0806" rx="4" ry="4" style="stroke:#534AB7;stroke-width:1;" width="282.2893" x="506.86" y="420.0094"/><line style="stroke:#534AB7;stroke-width:1;" x1="506.86" x2="789.1493" y1="446.3063" y2="446.3063"/><text fill="#3C3489" font-family="Verdana" font-size="14" lengthAdjust="spacing" textLength="85.6543" x="605.1775" y="438.0045">provisioning</text><g class="entity" data-qualified-name="provisioning.applying" data-source-line="27" id="ent0002"><rect fill="#EEEDFE" height="52.5938" rx="4" ry="4" style="stroke:#534AB7;stroke-width:1;" width="126.5723" x="576.3" y="458.3063"/><line style="stroke:#534AB7;stroke-width:1;" x1="576.3" x2="702.8723" y1="500.9" y2="500.9"/><text fill="#3C3489" font-family="Verdana" font-size="14" lengthAdjust="spacing" textLength="94.9102" x="586.3" y="476.3014">applying CRD</text><text fill="#3C3489" font-family="Verdana" font-size="14" lengthAdjust="spacing" textLength="106.5723" x="586.3" y="492.5982">target instance</text></g><g class="entity" data-qualified-name="provisioning.watching" data-source-line="28" id="ent0003"><rect fill="#EEEDFE" height="52.5938" rx="4" ry="4" style="stroke:#534AB7;stroke-width:1;" width="125.4443" x="518.86" y="547.8963"/><line style="stroke:#534AB7;stroke-width:1;" x1="518.86" x2="644.3043" y1="590.49" y2="590.49"/><text fill="#3C3489" font-family="Verdana" font-size="14" lengthAdjust="spacing" textLength="87.4385" x="528.86" y="565.8914">watching for</text><text fill="#3C3489" font-family="Verdana" font-size="14" lengthAdjust="spacing" textLength="105.4443" x="528.86" y="582.1882">Ready / absent</text></g><g class="entity" data-qualified-name="provisioning.retrying" data-source-line="29" id="ent0004"><rect fill="#EEEDFE" height="52.5938" rx="4" ry="4" style="stroke:#534AB7;stroke-width:1;" width="82.6172" x="589.27" y="651.4962"/><line style="stroke:#534AB7;stroke-width:1;" x1="589.27" x2="671.8872" y1="694.09" y2="694.09"/><text fill="#3C3489" font-family="Verdana" font-size="14" lengthAdjust="spacing" textLength="55.5488" x="599.27" y="669.4914">retrying</text><text fill="#3C3489" font-family="Verdana" font-size="14" lengthAdjust="spacing" textLength="62.6172" x="599.27" y="685.7882">(backoff)</text></g><!--link applying to watching--><g class="link" data-entity-1="ent0002" data-entity-2="ent0003" data-link-type="dependency" data-source-line="30" id="lnk17"><path d="M622.81,510.9363 C615.18,522.4563 608.931,531.8977 601.281,543.4477" fill="none" id="applying-to-watching" style="stroke:#737266;stroke-width:1;"/><polygon fill="#737266" points="598.52,547.6162,606.8246,542.3216,601.281,543.4477,600.1549,537.904,598.52,547.6162" style="stroke:#737266;stroke-width:1;stroke-linejoin:miter;stroke-miterlimit:10;"/></g><!--link watching to retrying--><g class="link" data-entity-1="ent0003" data-entity-2="ent0004" data-link-type="dependency" data-source-line="31" id="lnk18"><path d="M571.8,600.9163 C569.35,611.4663 568.63,623.5162 573.58,633.4962 C577.23,640.8363 579.032,643.9668 585.272,649.4768" fill="none" id="watching-to-retrying" style="stroke:#737266;stroke-width:1;"/><polygon fill="#737266" points="589.02,652.7862,584.9213,643.8308,585.272,649.4768,579.6261,649.8275,589.02,652.7862" style="stroke:#737266;stroke-width:1;stroke-linejoin:miter;stroke-miterlimit:10;"/><text fill="#444444" font-family="Verdana" font-size="12" lengthAdjust="spacing" textLength="100.0137" x="574.58" y="630.6349">NotReady / error</text></g><!--link retrying to applying--><g class="link" data-entity-1="ent0004" data-entity-2="ent0002" data-link-type="dependency" data-source-line="32" id="lnk19"><path d="M663.97,651.0362 C668.69,645.7762 672.87,639.8763 675.58,633.4962 C693.02,592.5262 674.297,545.8042 657.827,515.6542" fill="none" id="retrying-to-applying" style="stroke:#737266;stroke-width:1;"/><polygon fill="#737266" points="655.43,511.2662,656.2342,521.0822,657.827,515.6542,663.255,517.247,655.43,511.2662" style="stroke:#737266;stroke-width:1;stroke-linejoin:miter;stroke-miterlimit:10;"/><text fill="#444444" font-family="Verdana" font-size="12" lengthAdjust="spacing" textLength="81.0293" x="683.12" y="578.8349">retry attempt</text></g></g><g class="entity" data-qualified-name="rolling_back" data-source-line="39" id="ent0005"><path d="M533.68,810.0894 L794.3293,810.0894 A4,4 0 0 1 798.3293,814.0894 L798.3293,836.3863 L529.68,836.3863 L529.68,814.0894 A4,4 0 0 1 533.68,810.0894" fill="#EEEDFE"/><path d="M529.68,836.3863 L798.3293,836.3863 L798.3293,1103.17 A4,4 0 0 1 794.3293,1107.17 L533.68,1107.17 A4,4 0 0 1 529.68,1103.17 L529.68,836.3863" fill="#EEEDFE"/><rect fill="none" height="297.0806" rx="4" ry="4" style="stroke:#534AB7;stroke-width:1;" width="268.6493" x="529.68" y="810.0894"/><line style="stroke:#534AB7;stroke-width:1;" x1="529.68" x2="798.3293" y1="836.3863" y2="836.3863"/><text fill="#3C3489" font-family="Verdana" font-size="14" lengthAdjust="spacing" textLength="84.0205" x="621.9944" y="828.0845">rolling_back</text><g class="entity" data-qualified-name="rolling_back.reapply" data-source-line="40" id="ent0006"><rect fill="#EEEDFE" height="52.5938" rx="4" ry="4" style="stroke:#534AB7;stroke-width:1;" width="160.9229" x="572.94" y="848.3863"/><line style="stroke:#534AB7;stroke-width:1;" x1="572.94" x2="733.8629" y1="890.98" y2="890.98"/><text fill="#3C3489" font-family="Verdana" font-size="14" lengthAdjust="spacing" textLength="79.5977" x="582.94" y="866.3814">re-applying</text><text fill="#3C3489" font-family="Verdana" font-size="14" lengthAdjust="spacing" textLength="140.9229" x="582.94" y="882.6782">previousParameters</text></g><g class="entity" data-qualified-name="rolling_back.rbwatch" data-source-line="41" id="ent0007"><rect fill="#EEEDFE" height="52.5938" rx="4" ry="4" style="stroke:#534AB7;stroke-width:1;" width="107.4385" x="541.68" y="937.9763"/><line style="stroke:#534AB7;stroke-width:1;" x1="541.68" x2="649.1185" y1="980.57" y2="980.57"/><text fill="#3C3489" font-family="Verdana" font-size="14" lengthAdjust="spacing" textLength="87.4385" x="551.68" y="955.9714">watching for</text><text fill="#3C3489" font-family="Verdana" font-size="14" lengthAdjust="spacing" textLength="44.0918" x="551.68" y="972.2682">Ready</text></g><g class="entity" data-qualified-name="rolling_back.rbretry" data-source-line="42" id="ent0008"><rect fill="#EEEDFE" height="52.5938" rx="4" ry="4" style="stroke:#534AB7;stroke-width:1;" width="82.6172" x="598.09" y="1041.5763"/><line style="stroke:#534AB7;stroke-width:1;" x1="598.09" x2="680.7072" y1="1084.17" y2="1084.17"/><text fill="#3C3489" font-family="Verdana" font-size="14" lengthAdjust="spacing" textLength="55.5488" x="608.09" y="1059.5714">retrying</text><text fill="#3C3489" font-family="Verdana" font-size="14" lengthAdjust="spacing" textLength="62.6172" x="608.09" y="1075.8682">(backoff)</text></g><!--link reapply to rbwatch--><g class="link" data-entity-1="ent0006" data-entity-2="ent0007" data-link-type="dependency" data-source-line="43" id="lnk23"><path d="M636.62,901.0163 C629,912.5363 622.751,921.9777 615.101,933.5277" fill="none" id="reapply-to-rbwatch" style="stroke:#737266;stroke-width:1;"/><polygon fill="#737266" points="612.34,937.6963,620.6446,932.4016,615.101,933.5277,613.9749,927.984,612.34,937.6963" style="stroke:#737266;stroke-width:1;stroke-linejoin:miter;stroke-miterlimit:10;"/></g><!--link rbwatch to rbretry--><g class="link" data-entity-1="ent0007" data-entity-2="ent0008" data-link-type="dependency" data-source-line="44" id="lnk24"><path d="M582.49,990.8463 C578.99,1001.3763 577.38,1013.4463 582.4,1023.5763 C586.04,1030.9163 587.852,1034.0468 594.092,1039.5568" fill="none" id="rbwatch-to-rbretry" style="stroke:#737266;stroke-width:1;"/><polygon fill="#737266" points="597.84,1042.8663,593.7413,1033.9108,594.092,1039.5568,588.4461,1039.9075,597.84,1042.8663" style="stroke:#737266;stroke-width:1;stroke-linejoin:miter;stroke-miterlimit:10;"/><text fill="#444444" font-family="Verdana" font-size="12" lengthAdjust="spacing" textLength="100.0137" x="583.4" y="1020.7149">NotReady / error</text></g><!--link rbretry to reapply--><g class="link" data-entity-1="ent0008" data-entity-2="ent0006" data-link-type="dependency" data-source-line="45" id="lnk25"><path d="M672.78,1041.1163 C677.51,1035.8563 681.68,1029.9563 684.4,1023.5763 C701.71,982.8963 685.0153,936.1787 670.0653,905.9287" fill="none" id="rbretry-to-reapply" style="stroke:#737266;stroke-width:1;"/><polygon fill="#737266" points="667.85,901.4463,668.2516,911.2869,670.0653,905.9287,675.4235,907.7424,667.85,901.4463" style="stroke:#737266;stroke-width:1;stroke-linejoin:miter;stroke-miterlimit:10;"/><text fill="#444444" font-family="Verdana" font-size="12" lengthAdjust="spacing" textLength="81.0293" x="692.3" y="968.9149">retry attempt</text></g></g><g class="start_entity" data-qualified-name=".start." data-source-line="19" id="ent0009"><ellipse cx="336" cy="67.6094" fill="#FFFFFF" rx="10" ry="10" style="stroke:#000000;stroke-width:1;"/></g><g class="entity" data-qualified-name="pending" data-source-line="19" id="ent0010"><rect fill="#EEEDFE" height="50" rx="4" ry="4" style="stroke:#534AB7;stroke-width:1;" width="76.9092" x="297.55" y="156.6094"/><line style="stroke:#534AB7;stroke-width:1;" x1="297.55" x2="374.4592" y1="182.9063" y2="182.9063"/><text fill="#3C3489" font-family="Verdana" font-size="14" lengthAdjust="spacing" textLength="56.9092" x="307.55" y="174.6045">pending</text></g><g class="entity" data-qualified-name="approved" data-source-line="21" id="ent0012"><rect fill="#EEEDFE" height="50" rx="4" ry="4" style="stroke:#534AB7;stroke-width:1;" width="86.459" x="578.77" y="288.3094"/><line style="stroke:#534AB7;stroke-width:1;" x1="578.77" x2="665.229" y1="314.6063" y2="314.6063"/><text fill="#3C3489" font-family="Verdana" font-size="14" lengthAdjust="spacing" textLength="66.459" x="588.77" y="306.3045">approved</text></g><g class="entity" data-qualified-name="rejected" data-source-line="22" id="ent0014"><rect fill="#EEEDFE" height="50" rx="4" ry="4" style="stroke:#534AB7;stroke-width:1;" width="77.5586" x="55.22" y="288.3094"/><line style="stroke:#534AB7;stroke-width:1;" x1="55.22" x2="132.7786" y1="314.6063" y2="314.6063"/><text fill="#3C3489" font-family="Verdana" font-size="14" lengthAdjust="spacing" textLength="57.5586" x="65.22" y="306.3045">rejected</text></g><g class="entity" data-qualified-name="provisioned" data-source-line="35" id="ent0020"><rect fill="#EEEDFE" height="50" rx="4" ry="4" style="stroke:#534AB7;stroke-width:1;" width="101.5049" x="94.25" y="933.6294"/><line style="stroke:#534AB7;stroke-width:1;" x1="94.25" x2="195.7549" y1="959.9263" y2="959.9263"/><text fill="#3C3489" font-family="Verdana" font-size="14" lengthAdjust="spacing" textLength="81.5049" x="104.25" y="951.6245">provisioned</text></g><g class="entity" data-qualified-name="failed" data-source-line="55" id="ent0026"><rect fill="#EEEDFE" height="50" rx="4" ry="4" style="stroke:#534AB7;stroke-width:1;" width="58.7871" x="721.61" y="1233.1394"/><line style="stroke:#534AB7;stroke-width:1;" x1="721.61" x2="780.3971" y1="1259.4363" y2="1259.4363"/><text fill="#3C3489" font-family="Verdana" font-size="14" lengthAdjust="spacing" textLength="38.7871" x="731.61" y="1251.1345">failed</text></g><g class="entity" data-qualified-name="rollback_failed" data-source-line="57" id="ent0028"><rect fill="#EEEDFE" height="50" rx="4" ry="4" style="stroke:#534AB7;stroke-width:1;" width="121.1582" x="228.42" y="1233.1394"/><line style="stroke:#534AB7;stroke-width:1;" x1="228.42" x2="349.5782" y1="1259.4363" y2="1259.4363"/><text fill="#3C3489" font-family="Verdana" font-size="14" lengthAdjust="spacing" textLength="101.1582" x="238.42" y="1251.1345">rollback_failed</text></g><g class="end_entity" data-qualified-name=".end." data-source-line="93" id="ent0031"><ellipse cx="196" cy="1378.0994" fill="none" rx="11" ry="11" style="stroke:#000000;stroke-width:1;"/><ellipse cx="196" cy="1378.0994" fill="#FFFFFF" rx="6" ry="6" style="stroke:#000000;stroke-width:1;"/></g><g class="entity" data-qualified-name="GMN36" data-source-line="49" id="ent0037"><path d="M853.26,927.3594 L853.26,954.6294 L798.63,958.6294 L853.26,962.6294 L853.26,989.8906 A4,4 0 0 0 857.26,993.8906 L1080.7356,993.8906 A4,4 0 0 0 1084.7356,989.8906 L1084.7356,933.3594 L1074.7356,923.3594 L857.26,923.3594 A4,4 0 0 0 853.26,927.3594" fill="#FFFFFF" style="stroke:#000000;stroke-width:1;"/><path d="M1074.7356,923.3594 L1074.7356,931.3594 A2,2 0 0 0 1076.7356,933.3594 L1084.7356,933.3594 L1074.7356,923.3594" fill="#FFFFFF" style="stroke:#000000;stroke-width:1;"/><text fill="#000000" font-family="Verdana" font-size="13" lengthAdjust="spacing" textLength="210.4756" x="859.26" y="940.4263">Visible to End User in the portal.</text><text fill="#000000" font-family="Verdana" font-size="13" lengthAdjust="spacing" textLength="184.6152" x="859.26" y="955.5591">status.phase = rolling_back.</text><text fill="#000000" font-family="Verdana" font-size="13" lengthAdjust="spacing" textLength="184.9199" x="859.26" y="970.6919">ProvisionedResource retains</text><text fill="#000000" font-family="Verdana" font-size="13" lengthAdjust="spacing" textLength="203.855" x="859.26" y="985.8247">appliedParameters throughout.</text></g><g class="entity" data-qualified-name="GMN39" data-source-line="62" id="ent0040"><path d="M188.23,289.6094 L188.23,309.3094 L133.07,313.3094 L188.23,317.3094 L188.23,337.0078 A4,4 0 0 0 192.23,341.0078 L477.773,341.0078 A4,4 0 0 0 481.773,337.0078 L481.773,295.6094 L471.773,285.6094 L192.23,285.6094 A4,4 0 0 0 188.23,289.6094" fill="#FFFFFF" style="stroke:#000000;stroke-width:1;"/><path d="M471.773,285.6094 L471.773,293.6094 A2,2 0 0 0 473.773,295.6094 L481.773,295.6094 L471.773,285.6094" fill="#FFFFFF" style="stroke:#000000;stroke-width:1;"/><text fill="#000000" font-family="Verdana" font-size="13" lengthAdjust="spacing" textLength="61.5088" x="194.23" y="302.6763">Terminal.</text><text fill="#000000" font-family="Verdana" font-size="13" lengthAdjust="spacing" textLength="272.543" x="194.23" y="317.8091">ProvisionedResource unchanged (update)</text><text fill="#000000" font-family="Verdana" font-size="13" lengthAdjust="spacing" textLength="152.6167" x="194.23" y="332.9419">or not created (create).</text></g><g class="entity" data-qualified-name="GMN42" data-source-line="68" id="ent0043"><path d="M250.83,927.3594 L250.83,954.6294 L196.09,958.6294 L250.83,962.6294 L250.83,989.8906 A4,4 0 0 0 254.83,993.8906 L471.1708,993.8906 A4,4 0 0 0 475.1708,989.8906 L475.1708,933.3594 L465.1708,923.3594 L254.83,923.3594 A4,4 0 0 0 250.83,927.3594" fill="#FFFFFF" style="stroke:#000000;stroke-width:1;"/><path d="M465.1708,923.3594 L465.1708,931.3594 A2,2 0 0 0 467.1708,933.3594 L475.1708,933.3594 L465.1708,923.3594" fill="#FFFFFF" style="stroke:#000000;stroke-width:1;"/><text fill="#000000" font-family="Verdana" font-size="13" lengthAdjust="spacing" textLength="61.5088" x="256.83" y="940.4263">Terminal.</text><text fill="#000000" font-family="Verdana" font-size="13" lengthAdjust="spacing" textLength="203.3408" x="256.83" y="955.5591">ProvisionedResource written or</text><text fill="#000000" font-family="Verdana" font-size="13" lengthAdjust="spacing" textLength="173.1831" x="256.83" y="970.6919">finalizer removed (delete).</text><text fill="#000000" font-family="Verdana" font-size="13" lengthAdjust="spacing" textLength="149.6777" x="256.83" y="985.8247">Email notification sent.</text></g><g class="entity" data-qualified-name="GMN45" data-source-line="75" id="ent0046"><path d="M835.79,1211.7394 L835.79,1254.1394 L780.83,1258.1394 L835.79,1262.1394 L835.79,1304.5362 A4,4 0 0 0 839.79,1308.5362 L1132.2011,1308.5362 A4,4 0 0 0 1136.2011,1304.5362 L1136.2011,1217.7394 L1126.2011,1207.7394 L839.79,1207.7394 A4,4 0 0 0 835.79,1211.7394" fill="#FFFFFF" style="stroke:#000000;stroke-width:1;"/><path d="M1126.2011,1207.7394 L1126.2011,1215.7394 A2,2 0 0 0 1128.2011,1217.7394 L1136.2011,1217.7394 L1126.2011,1207.7394" fill="#FFFFFF" style="stroke:#000000;stroke-width:1;"/><text fill="#000000" font-family="Verdana" font-size="13" lengthAdjust="spacing" textLength="222.2378" x="841.79" y="1224.8063">Terminal &#8212; failureReason written.</text><text fill="#000000" font-family="Verdana" font-size="13" lengthAdjust="spacing" textLength="269.312" x="841.79" y="1239.9391">create: ProvisionedResource not created.</text><text fill="#000000" font-family="Verdana" font-size="13" lengthAdjust="spacing" textLength="266.7793" x="841.79" y="1255.0719">update: ProvisionedResource unchanged</text><text fill="#000000" font-family="Verdana" font-size="13" lengthAdjust="spacing" textLength="250.0977" x="841.79" y="1270.2047">(previousParameters still operational).</text><text fill="#000000" font-family="Verdana" font-size="13" lengthAdjust="spacing" textLength="279.4111" x="841.79" y="1285.3375">delete: CRD target instance may still exist.</text><text fill="#000000" font-family="Verdana" font-size="13" lengthAdjust="spacing" textLength="149.6777" x="841.79" y="1300.4703">Email notification sent.</text></g><g class="entity" data-qualified-name="GMN48" data-source-line="84" id="ent0049"><path d="M404.96,1204.1694 L404.96,1254.1394 L349.79,1258.1394 L404.96,1262.1394 L404.96,1312.0991 A4,4 0 0 0 408.96,1316.0991 L663.044,1316.0991 A4,4 0 0 0 667.044,1312.0991 L667.044,1210.1694 L657.044,1200.1694 L408.96,1200.1694 A4,4 0 0 0 404.96,1204.1694" fill="#FFFFFF" style="stroke:#000000;stroke-width:1;"/><path d="M657.044,1200.1694 L657.044,1208.1694 A2,2 0 0 0 659.044,1210.1694 L667.044,1210.1694 L657.044,1200.1694" fill="#FFFFFF" style="stroke:#000000;stroke-width:1;"/><text fill="#000000" font-family="Verdana" font-size="13" lengthAdjust="spacing" textLength="222.2378" x="410.96" y="1217.2363">Terminal &#8212; failureReason written.</text><text fill="#000000" font-family="Verdana" font-size="13" lengthAdjust="spacing" textLength="226.9287" x="410.96" y="1232.3691">Cluster state unknown: CRD target</text><text fill="#000000" font-family="Verdana" font-size="13" lengthAdjust="spacing" textLength="193.2798" x="410.96" y="1247.5019">instance may be in a partially</text><text fill="#000000" font-family="Verdana" font-size="13" lengthAdjust="spacing" textLength="229.8804" x="410.96" y="1262.6347">updated state. Manual intervention</text><text fill="#000000" font-family="Verdana" font-size="13" lengthAdjust="spacing" textLength="241.084" x="410.96" y="1277.7675">required. Health Observer will detect</text><text fill="#000000" font-family="Verdana" font-size="13" lengthAdjust="spacing" textLength="191.293" x="410.96" y="1292.9003">and surface degraded status.</text><text fill="#000000" font-family="Verdana" font-size="13" lengthAdjust="spacing" textLength="149.6777" x="410.96" y="1308.0331">Email notification sent.</text></g><!--link *start* to pending--><g class="link" data-entity-1="ent0009" data-entity-2="ent0010" data-link-type="dependency" data-source-line="19" id="lnk11"><path d="M336,77.7794 C336,94.8094 336,126.8394 336,151.4994" fill="none" id="*start*-to-pending" style="stroke:#737266;stroke-width:1;"/><polygon fill="#737266" points="336,156.4994,340,147.4994,336,151.4994,332,147.4994,336,156.4994" style="stroke:#737266;stroke-width:1;stroke-linejoin:miter;stroke-miterlimit:10;"/><text fill="#444444" font-family="Verdana" font-size="12" lengthAdjust="spacing" textLength="211.4766" x="337" y="114.748">Web App creates ResourceRequest</text><text fill="#444444" font-family="Verdana" font-size="12" lengthAdjust="spacing" textLength="195.9434" x="344.7666" y="128.7168">(action: create | update | delete)</text></g><!--link pending to approved--><g class="link" data-entity-1="ent0010" data-entity-2="ent0012" data-link-type="dependency" data-source-line="21" id="lnk13"><path d="M374.87,200.2394 C428.02,224.3394 518.5365,265.3841 573.9865,290.5341" fill="none" id="pending-to-approved" style="stroke:#737266;stroke-width:1;"/><polygon fill="#737266" points="578.54,292.5994,571.9959,285.239,573.9865,290.5341,568.6914,292.5246,578.54,292.5994" style="stroke:#737266;stroke-width:1;stroke-linejoin:miter;stroke-miterlimit:10;"/><text fill="#444444" font-family="Verdana" font-size="12" lengthAdjust="spacing" textLength="147.5625" x="513.5917" y="243.748">Controller &#8212; all required</text><text fill="#444444" font-family="Verdana" font-size="12" lengthAdjust="spacing" textLength="163.5059" x="505.62" y="257.7168">approver decisions present</text></g><!--link pending to rejected--><g class="link" data-entity-1="ent0010" data-entity-2="ent0014" data-link-type="dependency" data-source-line="22" id="lnk15"><path d="M297.12,203.4494 C252.09,227.5794 182.7469,264.7473 137.5969,288.9473" fill="none" id="pending-to-rejected" style="stroke:#737266;stroke-width:1;"/><polygon fill="#737266" points="133.19,291.3094,143.012,290.5832,137.5969,288.9473,139.2328,283.5322,133.19,291.3094" style="stroke:#737266;stroke-width:1;stroke-linejoin:miter;stroke-miterlimit:10;"/><text fill="#444444" font-family="Verdana" font-size="12" lengthAdjust="spacing" textLength="131.5371" x="244.79" y="243.748">Controller &#8212; rejection</text><text fill="#444444" font-family="Verdana" font-size="12" lengthAdjust="spacing" textLength="107.0859" x="257.0156" y="257.7168">decision recorded</text></g><!--link approved to provisioning--><g class="link" data-entity-1="ent0012" data-entity-2="ent0001" data-link-type="dependency" data-source-line="24" id="lnk16"><path d="M624.49,338.5894 C626.53,358.3994 629.0683,383.2156 632.3183,414.8056" fill="none" id="approved-to-provisioning" style="stroke:#737266;stroke-width:1;"/><polygon fill="#737266" points="632.83,419.7794,635.8879,410.4173,632.3183,414.8056,627.9299,411.236,632.83,419.7794" style="stroke:#737266;stroke-width:1;stroke-linejoin:miter;stroke-miterlimit:10;"/><text fill="#444444" font-family="Verdana" font-size="12" lengthAdjust="spacing" textLength="118.7285" x="639.7767" y="378.148">Controller &#8212; begins</text><text fill="#444444" font-family="Verdana" font-size="12" lengthAdjust="spacing" textLength="136.9219" x="630.68" y="392.1168">apply on target cluster</text></g><!--link provisioning to provisioned--><g class="link" data-entity-1="ent0001" data-entity-2="ent0020" data-link-type="dependency" data-source-line="35" id="lnk21"><path d="M506.37,624.9494 C416.59,665.5994 302.76,727.9994 223,810.0894 C187.77,846.3494 166.0106,897.0239 154.6606,928.6139" fill="none" id="provisioning-to-provisioned" style="stroke:#737266;stroke-width:1;"/><polygon fill="#737266" points="152.97,933.3194,159.7776,926.202,154.6606,928.6139,152.2488,923.497,152.97,933.3194" style="stroke:#737266;stroke-width:1;stroke-linejoin:miter;stroke-miterlimit:10;"/><text fill="#444444" font-family="Verdana" font-size="12" lengthAdjust="spacing" textLength="75.1055" x="356.183" y="754.228">Controller &#8212;</text><text fill="#444444" font-family="Verdana" font-size="12" lengthAdjust="spacing" textLength="200.1914" x="293.64" y="768.1968">Ready confirmed (create/update)</text><text fill="#444444" font-family="Verdana" font-size="12" lengthAdjust="spacing" textLength="172.5293" x="307.4711" y="782.1655">or absent confirmed (delete)</text></g><!--link provisioning to rolling_back--><g class="link" data-entity-1="ent0001" data-entity-2="ent0005" data-link-type="dependency" data-source-line="37" id="lnk22"><path d="M654.09,717.3694 C655.34,747.6794 656.454,774.5936 657.704,804.9036" fill="none" id="provisioning-to-rolling_back" style="stroke:#737266;stroke-width:1;"/><polygon fill="#737266" points="657.91,809.8994,661.5358,800.7422,657.704,804.9036,653.5425,801.0718,657.91,809.8994" style="stroke:#737266;stroke-width:1;stroke-linejoin:miter;stroke-miterlimit:10;"/><text fill="#444444" font-family="Verdana" font-size="12" lengthAdjust="spacing" textLength="75.1055" x="715.1275" y="761.228">Controller &#8212;</text><text fill="#444444" font-family="Verdana" font-size="12" lengthAdjust="spacing" textLength="190.4004" x="657.48" y="775.1968">retries exhausted (update only)</text></g><!--link rolling_back to failed--><g class="link" data-entity-1="ent0005" data-entity-2="ent0026" data-link-type="dependency" data-source-line="55" id="lnk27"><path d="M707.25,1107.5094 C721.45,1156.0694 734.2762,1199.9605 742.4962,1228.0605" fill="none" id="rolling_back-to-failed" style="stroke:#737266;stroke-width:1;"/><polygon fill="#737266" points="743.9,1232.8594,745.2123,1223.0983,742.4962,1228.0605,737.534,1225.3444,743.9,1232.8594" style="stroke:#737266;stroke-width:1;stroke-linejoin:miter;stroke-miterlimit:10;"/><text fill="#444444" font-family="Verdana" font-size="12" lengthAdjust="spacing" textLength="75.1055" x="768.3193" y="1144.308">Controller &#8212;</text><text fill="#444444" font-family="Verdana" font-size="12" lengthAdjust="spacing" textLength="159.1641" x="726.29" y="1158.2768">pre-update state restored;</text><text fill="#444444" font-family="Verdana" font-size="12" lengthAdjust="spacing" textLength="111.2871" x="750.2285" y="1172.2455">phase set to failed</text></g><!--link rolling_back to rollback_failed--><g class="link" data-entity-1="ent0005" data-entity-2="ent0028" data-link-type="dependency" data-source-line="57" id="lnk29"><path d="M529.4,1085.2994 C520.57,1092.8194 511.72,1100.1694 503,1107.1694 C443.75,1154.7494 374.6036,1201.5312 330.9836,1230.0812" fill="none" id="rolling_back-to-rollback_failed" style="stroke:#737266;stroke-width:1;"/><polygon fill="#737266" points="326.8,1232.8194,336.521,1231.2374,330.9836,1230.0812,332.1398,1224.5437,326.8,1232.8194" style="stroke:#737266;stroke-width:1;stroke-linejoin:miter;stroke-miterlimit:10;"/><text fill="#444444" font-family="Verdana" font-size="12" lengthAdjust="spacing" textLength="75.1055" x="513.2285" y="1144.308">Controller &#8212;</text><text fill="#444444" font-family="Verdana" font-size="12" lengthAdjust="spacing" textLength="161.0625" x="470.25" y="1158.2768">rollback retries exhausted;</text><text fill="#444444" font-family="Verdana" font-size="12" lengthAdjust="spacing" textLength="133.3652" x="484.0986" y="1172.2455">cluster state unknown</text></g><!--link provisioning to failed--><g class="link" data-entity-1="ent0001" data-entity-2="ent0026" data-link-type="dependency" data-source-line="59" id="lnk30"><path d="M789.37,600.7594 C898.54,633.0894 1042.35,695.5394 1112,810.0894 C1180.59,922.9094 1189.88,1000.5494 1112,1107.1694 C1053.38,1187.4194 994.27,1146.8894 899,1175.1694 C858.79,1187.1094 844.26,1179.0894 808,1200.1694 C793.61,1208.5394 783.6049,1217.705 773.4549,1229.105" fill="none" id="provisioning-to-failed" style="stroke:#737266;stroke-width:1;"/><polygon fill="#737266" points="770.13,1232.8394,779.1022,1228.7775,773.4549,1229.105,773.1273,1223.4577,770.13,1232.8394" style="stroke:#737266;stroke-width:1;stroke-linejoin:miter;stroke-miterlimit:10;"/><text fill="#444444" font-family="Verdana" font-size="12" lengthAdjust="spacing" textLength="75.1055" x="1183.2993" y="949.268">Controller &#8212;</text><text fill="#444444" font-family="Verdana" font-size="12" lengthAdjust="spacing" textLength="105.7441" x="1167.98" y="963.2368">retries exhausted</text><text fill="#444444" font-family="Verdana" font-size="12" lengthAdjust="spacing" textLength="97.1953" x="1172.2544" y="977.2055">(create / delete)</text></g><!--link provisioned to *end*--><g class="link" data-entity-1="ent0020" data-entity-2="ent0031" data-link-type="dependency" data-source-line="93" id="lnk32"><path d="M147.96,983.8794 C157.66,1063.2294 187.5838,1308.1863 194.1438,1361.8963" fill="none" id="provisioned-to-*end*" style="stroke:#737266;stroke-width:1;"/><polygon fill="#737266" points="194.75,1366.8594,197.6294,1357.4408,194.1438,1361.8963,189.6884,1358.4107,194.75,1366.8594" style="stroke:#737266;stroke-width:1;stroke-linejoin:miter;stroke-miterlimit:10;"/></g><!--link rejected to *end*--><g class="link" data-entity-1="ent0014" data-entity-2="ent0031" data-link-type="dependency" data-source-line="94" id="lnk33"><path d="M80.29,338.5994 C56.72,382.7294 11,479.6394 11,567.5494 C11,567.5494 11,567.5494 11,1259.1394 C11,1342.1794 140.2101,1368.5567 180.0401,1374.7867" fill="none" id="rejected-to-*end*" style="stroke:#737266;stroke-width:1;"/><polygon fill="#737266" points="184.98,1375.5594,176.7063,1370.2166,180.0401,1374.7867,175.47,1378.1205,184.98,1375.5594" style="stroke:#737266;stroke-width:1;stroke-linejoin:miter;stroke-miterlimit:10;"/></g><!--link failed to *end*--><g class="link" data-entity-1="ent0026" data-entity-2="ent0031" data-link-type="dependency" data-source-line="95" id="lnk34"><path d="M733.51,1283.4694 C723.61,1295.3294 710.18,1308.6194 695,1316.0994 C604.77,1360.5594 277.4768,1374.2318 212.1768,1376.5518" fill="none" id="failed-to-*end*" style="stroke:#737266;stroke-width:1;"/><polygon fill="#737266" points="207.18,1376.7294,216.3163,1380.4073,212.1768,1376.5518,216.0323,1372.4123,207.18,1376.7294" style="stroke:#737266;stroke-width:1;stroke-linejoin:miter;stroke-miterlimit:10;"/></g><!--link rollback_failed to *end*--><g class="link" data-entity-1="ent0028" data-entity-2="ent0031" data-link-type="dependency" data-source-line="96" id="lnk35"><path d="M269.73,1283.5794 C248.77,1310.1694 219.5074,1347.2943 205.6974,1364.7943" fill="none" id="rollback_failed-to-*end*" style="stroke:#737266;stroke-width:1;"/><polygon fill="#737266" points="202.6,1368.7194,211.3154,1364.1322,205.6974,1364.7943,205.0353,1359.1764,202.6,1368.7194" style="stroke:#737266;stroke-width:1;stroke-linejoin:miter;stroke-miterlimit:10;"/></g><?plantuml-src dLRDSjis4BxZARRfnUgCPIUsOrUTTiPHvCcbhST9sqFLoK3aIaHD0Im0Mb6IplGXyeHvakm284NISkifTQ5s5z_kVli3VkKBN2DKfLHQk5kbAsdb6XOokrrPK-jyQafZuUkhI_vrB9oN7k6307fU3ArdizdBgrdK6PkZJVApazFB5-T1VcMqJzAJwSdfnRT1UccjsIJn-Sdvi-VFT-BEYTFmz5MlrNk4fy-2yBMNjh4zlZWxFdqQnBCsm2JykvDGY3ypLgE5YuvScnmTLd1srZMM-ZO8ZuNmofS8D-XCRJEymRzgT1u-__C9hWlfa8CXfdwKMQ4q2l7xDt_0uU4FKA7EbLx117x31LnM5MGMoT8DeURwG6PU6Jr95l0HwYgFBpcMw74aH0F7qBAghBd370XyIjHOKvQK5OSaon8iuIgB-LmdGqimcNBama5bALljUtWM_yJCxyMBAZevrmq6oJ8kUYv46qX8c5w3GSnw0BJ0bT8kX5HkWL2eX2lqa9MrysY5Y0tN0udT5nLFma6MJczUpdKwJP1UwWoVW7JGM7HFRQJdkgnWQUnStw3Cjt04Si4SX4EDGVUGHMyPY2h3WsAMor6mRUJ1jes7S--Xj3uZj_4CCVAJyKq0I5rjWt6hJuKjat6GW_GUrvMdHXOzPdfy4_z3kfjKCwENogx9uY3srb7ihD5SqvX46hf6ktORUcDiUd_BXEnnn-4gwcryLqWkA66b7ZQwt8wQylPGFlGvFsoodsjgqZjbQdVDmqW1MPVu3oR_KTzekWYQHrLr4JIf6h4_GyOTYFIUvB4s3nKqgMFn8zoUSch3TAXLuS4iUxmGogz4_OAMZZUyq-0NHpGh6fc21iHOByknY6dLRbo59VHz3uBLrxlsQ1OEHq7tW1EnUnNcEu89d3RagZ2r7mlQ3S012j4h6AUqbAhaJH6V-ur0fJjCbKybfnLdQ1jzHxeGggEvfSGYq1uFBE0_RvEhFSsMBE1Urv6Jj52IzrhVQhFHUnhwOVGXA3LCMin7ktqyg5_QeCJi6xHhfME9zjMWrbaXzMet8ICof64amBJ_ss4TTIlHTzWP_aVut5X5dQSXjEYIBUaojHJrEcplPkpv-6nDlB1BjLIPvCqFl2GUZYJLSHT4MFSihIrTST8HGlBF-36poTumEnImQQHdykyiajt1_NL1rLTq4veARSX1bY6vcEU4hn0Ot22mbjjq2jyfv_yN5uFMVJGfqtqzsmsJR7g1Bf3tWGJwMl6AxlnjIrSUGSRqGQ9hygiq0TzHr1IzWFRRO0olK9Q-W9_f3h3yYR3Xr7EY9sDlaZ9qjLrASfZZoiey8TF6UHmptUifF3nqz74aTbyRq5VqLqltn60Zj8el?></g></svg>