<svg xmlns="http://www.w3.org/2000/svg" xmlns:xlink="http://www.w3.org/1999/xlink" contentStyleType="text/css" data-diagram-type="STATE" height="1418px" preserveAspectRatio="none" style="width:1289px;height:1418px;background:#FAFAFA;" version="1.1" viewBox="0 0 1289 1418" width="1289px" zoomAndPan="magnify"><?plantuml 1.2026.4?><defs/><g><rect fill="#FAFAFA" height="1418" style="stroke:none;stroke-width:1;" width="1289" x="0" y="0"/><g class="title" data-source-line="17"><text fill="#000000" font-family="Verdana" font-size="22" font-weight="700" lengthAdjust="spacing" textLength="513.8418" x="386.9412" y="35.4209">ResourceRequest &#8212; Phase State Machine</text></g><g class="entity" data-qualified-name="provisioning" data-source-line="26" id="ent0001"><path d="M510.86,435.1394 L785.1493,435.1394 A4,4 0 0 1 789.1493,439.1394 L789.1493,461.4362 L506.86,461.4362 L506.86,439.1394 A4,4 0 0 1 510.86,435.1394" fill="#EEEDFE"/><path d="M506.86,461.4362 L789.1493,461.4362 L789.1493,728.22 A4,4 0 0 1 785.1493,732.22 L510.86,732.22 A4,4 0 0 1 506.86,728.22 L506.86,461.4362" fill="#EEEDFE"/><rect fill="none" height="297.0806" rx="4" ry="4" style="stroke:#534AB7;stroke-width:1;" width="282.2893" x="506.86" y="435.1394"/><line style="stroke:#534AB7;stroke-width:1;" x1="506.86" x2="789.1493" y1="461.4362" y2="461.4362"/><text fill="#3C3489" font-family="Verdana" font-size="14" lengthAdjust="spacing" textLength="85.6543" x="605.1775" y="453.1345">provisioning</text><g class="entity" data-qualified-name="provisioning.applying" data-source-line="27" id="ent0002"><rect fill="#EEEDFE" height="52.5938" rx="4" ry="4" style="stroke:#534AB7;stroke-width:1;" width="126.5723" x="576.3" y="473.4362"/><line style="stroke:#534AB7;stroke-width:1;" x1="576.3" x2="702.8723" y1="516.03" y2="516.03"/><text fill="#3C3489" font-family="Verdana" font-size="14" lengthAdjust="spacing" textLength="94.9102" x="586.3" y="491.4314">applying CRD</text><text fill="#3C3489" font-family="Verdana" font-size="14" lengthAdjust="spacing" textLength="106.5723" x="586.3" y="507.7282">target instance</text></g><g class="entity" data-qualified-name="provisioning.watching" data-source-line="28" id="ent0003"><rect fill="#EEEDFE" height="52.5938" rx="4" ry="4" style="stroke:#534AB7;stroke-width:1;" width="125.4443" x="518.86" y="563.0262"/><line style="stroke:#534AB7;stroke-width:1;" x1="518.86" x2="644.3043" y1="605.62" y2="605.62"/><text fill="#3C3489" font-family="Verdana" font-size="14" lengthAdjust="spacing" textLength="87.4385" x="528.86" y="581.0214">watching for</text><text fill="#3C3489" font-family="Verdana" font-size="14" lengthAdjust="spacing" textLength="105.4443" x="528.86" y="597.3182">Ready / absent</text></g><g class="entity" data-qualified-name="provisioning.retrying" data-source-line="29" id="ent0004"><rect fill="#EEEDFE" height="52.5938" rx="4" ry="4" style="stroke:#534AB7;stroke-width:1;" width="82.6172" x="589.27" y="666.6262"/><line style="stroke:#534AB7;stroke-width:1;" x1="589.27" x2="671.8872" y1="709.22" y2="709.22"/><text fill="#3C3489" font-family="Verdana" font-size="14" lengthAdjust="spacing" textLength="55.5488" x="599.27" y="684.6214">retrying</text><text fill="#3C3489" font-family="Verdana" font-size="14" lengthAdjust="spacing" textLength="62.6172" x="599.27" y="700.9182">(backoff)</text></g><!--link applying to watching--><g class="link" data-entity-1="ent0002" data-entity-2="ent0003" data-link-type="dependency" data-source-line="30" id="lnk17"><path d="M622.81,526.0662 C615.18,537.5862 608.931,547.0277 601.281,558.5777" fill="none" id="applying-to-watching" style="stroke:#737266;stroke-width:1;"/><polygon fill="#737266" points="598.52,562.7462,606.8246,557.4516,601.281,558.5777,600.1549,553.034,598.52,562.7462" style="stroke:#737266;stroke-width:1;stroke-linejoin:miter;stroke-miterlimit:10;"/></g><!--link watching to retrying--><g class="link" data-entity-1="ent0003" data-entity-2="ent0004" data-link-type="dependency" data-source-line="31" id="lnk18"><path d="M571.8,616.0462 C569.35,626.5962 568.63,638.6462 573.58,648.6262 C577.23,655.9662 579.032,659.0968 585.272,664.6068" fill="none" id="watching-to-retrying" style="stroke:#737266;stroke-width:1;"/><polygon fill="#737266" points="589.02,667.9162,584.9213,658.9608,585.272,664.6068,579.6261,664.9575,589.02,667.9162" style="stroke:#737266;stroke-width:1;stroke-linejoin:miter;stroke-miterlimit:10;"/><text fill="#444444" font-family="Verdana" font-size="12" lengthAdjust="spacing" textLength="100.0137" x="574.58" y="645.7649">NotReady / error</text></g><!--link retrying to applying--><g class="link" data-entity-1="ent0004" data-entity-2="ent0002" data-link-type="dependency" data-source-line="32" id="lnk19"><path d="M663.97,666.1662 C668.69,660.9062 672.87,655.0062 675.58,648.6262 C693.02,607.6562 674.297,560.9342 657.827,530.7842" fill="none" id="retrying-to-applying" style="stroke:#737266;stroke-width:1;"/><polygon fill="#737266" points="655.43,526.3962,656.2342,536.2122,657.827,530.7842,663.255,532.377,655.43,526.3962" style="stroke:#737266;stroke-width:1;stroke-linejoin:miter;stroke-miterlimit:10;"/><text fill="#444444" font-family="Verdana" font-size="12" lengthAdjust="spacing" textLength="81.0293" x="683.12" y="593.9649">retry attempt</text></g></g><g class="entity" data-qualified-name="rolling_back" data-source-line="39" id="ent0005"><path d="M533.68,825.2194 L794.3293,825.2194 A4,4 0 0 1 798.3293,829.2194 L798.3293,851.5162 L529.68,851.5162 L529.68,829.2194 A4,4 0 0 1 533.68,825.2194" fill="#EEEDFE"/><path d="M529.68,851.5162 L798.3293,851.5162 L798.3293,1118.3 A4,4 0 0 1 794.3293,1122.3 L533.68,1122.3 A4,4 0 0 1 529.68,1118.3 L529.68,851.5162" fill="#EEEDFE"/><rect fill="none" height="297.0806" rx="4" ry="4" style="stroke:#534AB7;stroke-width:1;" width="268.6493" x="529.68" y="825.2194"/><line style="stroke:#534AB7;stroke-width:1;" x1="529.68" x2="798.3293" y1="851.5162" y2="851.5162"/><text fill="#3C3489" font-family="Verdana" font-size="14" lengthAdjust="spacing" textLength="84.0205" x="621.9944" y="843.2145">rolling_back</text><g class="entity" data-qualified-name="rolling_back.reapply" data-source-line="40" id="ent0006"><rect fill="#EEEDFE" height="52.5938" rx="4" ry="4" style="stroke:#534AB7;stroke-width:1;" width="160.9229" x="572.94" y="863.5162"/><line style="stroke:#534AB7;stroke-width:1;" x1="572.94" x2="733.8629" y1="906.11" y2="906.11"/><text fill="#3C3489" font-family="Verdana" font-size="14" lengthAdjust="spacing" textLength="79.5977" x="582.94" y="881.5114">re-applying</text><text fill="#3C3489" font-family="Verdana" font-size="14" lengthAdjust="spacing" textLength="140.9229" x="582.94" y="897.8082">previousParameters</text></g><g class="entity" data-qualified-name="rolling_back.rbwatch" data-source-line="41" id="ent0007"><rect fill="#EEEDFE" height="52.5938" rx="4" ry="4" style="stroke:#534AB7;stroke-width:1;" width="107.4385" x="541.68" y="953.1062"/><line style="stroke:#534AB7;stroke-width:1;" x1="541.68" x2="649.1185" y1="995.7" y2="995.7"/><text fill="#3C3489" font-family="Verdana" font-size="14" lengthAdjust="spacing" textLength="87.4385" x="551.68" y="971.1014">watching for</text><text fill="#3C3489" font-family="Verdana" font-size="14" lengthAdjust="spacing" textLength="44.0918" x="551.68" y="987.3982">Ready</text></g><g class="entity" data-qualified-name="rolling_back.rbretry" data-source-line="42" id="ent0008"><rect fill="#EEEDFE" height="52.5938" rx="4" ry="4" style="stroke:#534AB7;stroke-width:1;" width="82.6172" x="598.09" y="1056.7063"/><line style="stroke:#534AB7;stroke-width:1;" x1="598.09" x2="680.7072" y1="1099.3" y2="1099.3"/><text fill="#3C3489" font-family="Verdana" font-size="14" lengthAdjust="spacing" textLength="55.5488" x="608.09" y="1074.7014">retrying</text><text fill="#3C3489" font-family="Verdana" font-size="14" lengthAdjust="spacing" textLength="62.6172" x="608.09" y="1090.9982">(backoff)</text></g><!--link reapply to rbwatch--><g class="link" data-entity-1="ent0006" data-entity-2="ent0007" data-link-type="dependency" data-source-line="43" id="lnk23"><path d="M636.62,916.1462 C629,927.6662 622.751,937.1077 615.101,948.6577" fill="none" id="reapply-to-rbwatch" style="stroke:#737266;stroke-width:1;"/><polygon fill="#737266" points="612.34,952.8262,620.6446,947.5316,615.101,948.6577,613.9749,943.114,612.34,952.8262" style="stroke:#737266;stroke-width:1;stroke-linejoin:miter;stroke-miterlimit:10;"/></g><!--link rbwatch to rbretry--><g class="link" data-entity-1="ent0007" data-entity-2="ent0008" data-link-type="dependency" data-source-line="44" id="lnk24"><path d="M582.49,1005.9762 C578.99,1016.5062 577.38,1028.5762 582.4,1038.7063 C586.04,1046.0462 587.852,1049.1768 594.092,1054.6868" fill="none" id="rbwatch-to-rbretry" style="stroke:#737266;stroke-width:1;"/><polygon fill="#737266" points="597.84,1057.9963,593.7413,1049.0408,594.092,1054.6868,588.4461,1055.0375,597.84,1057.9963" style="stroke:#737266;stroke-width:1;stroke-linejoin:miter;stroke-miterlimit:10;"/><text fill="#444444" font-family="Verdana" font-size="12" lengthAdjust="spacing" textLength="100.0137" x="583.4" y="1035.8449">NotReady / error</text></g><!--link rbretry to reapply--><g class="link" data-entity-1="ent0008" data-entity-2="ent0006" data-link-type="dependency" data-source-line="45" id="lnk25"><path d="M672.78,1056.2463 C677.51,1050.9863 681.68,1045.0862 684.4,1038.7063 C701.71,998.0262 685.0153,951.3087 670.0653,921.0587" fill="none" id="rbretry-to-reapply" style="stroke:#737266;stroke-width:1;"/><polygon fill="#737266" points="667.85,916.5762,668.2516,926.4169,670.0653,921.0587,675.4235,922.8724,667.85,916.5762" style="stroke:#737266;stroke-width:1;stroke-linejoin:miter;stroke-miterlimit:10;"/><text fill="#444444" font-family="Verdana" font-size="12" lengthAdjust="spacing" textLength="81.0293" x="692.3" y="984.0449">retry attempt</text></g></g><g class="start_entity" data-qualified-name=".start." data-source-line="19" id="ent0009"><ellipse cx="336" cy="67.6094" fill="#FFFFFF" rx="10" ry="10" style="stroke:#000000;stroke-width:1;"/></g><g class="entity" data-qualified-name="pending" data-source-line="19" id="ent0010"><rect fill="#EEEDFE" height="50" rx="4" ry="4" style="stroke:#534AB7;stroke-width:1;" width="76.9092" x="297.55" y="156.6094"/><line style="stroke:#534AB7;stroke-width:1;" x1="297.55" x2="374.4592" y1="182.9063" y2="182.9063"/><text fill="#3C3489" font-family="Verdana" font-size="14" lengthAdjust="spacing" textLength="56.9092" x="307.55" y="174.6045">pending</text></g><g class="entity" data-qualified-name="approved" data-source-line="21" id="ent0012"><rect fill="#EEEDFE" height="50" rx="4" ry="4" style="stroke:#534AB7;stroke-width:1;" width="86.459" x="578.77" y="295.8694"/><line style="stroke:#534AB7;stroke-width:1;" x1="578.77" x2="665.229" y1="322.1663" y2="322.1663"/><text fill="#3C3489" font-family="Verdana" font-size="14" lengthAdjust="spacing" textLength="66.459" x="588.77" y="313.8645">approved</text></g><g class="entity" data-qualified-name="rejected" data-source-line="22" id="ent0014"><rect fill="#EEEDFE" height="50" rx="4" ry="4" style="stroke:#534AB7;stroke-width:1;" width="77.5586" x="55.22" y="295.8694"/><line style="stroke:#534AB7;stroke-width:1;" x1="55.22" x2="132.7786" y1="322.1663" y2="322.1663"/><text fill="#3C3489" font-family="Verdana" font-size="14" lengthAdjust="spacing" textLength="57.5586" x="65.22" y="313.8645">rejected</text></g><g class="entity" data-qualified-name="provisioned" data-source-line="35" id="ent0020"><rect fill="#EEEDFE" height="50" rx="4" ry="4" style="stroke:#534AB7;stroke-width:1;" width="101.5049" x="94.25" y="948.7594"/><line style="stroke:#534AB7;stroke-width:1;" x1="94.25" x2="195.7549" y1="975.0562" y2="975.0562"/><text fill="#3C3489" font-family="Verdana" font-size="14" lengthAdjust="spacing" textLength="81.5049" x="104.25" y="966.7545">provisioned</text></g><g class="entity" data-qualified-name="failed" data-source-line="55" id="ent0026"><rect fill="#EEEDFE" height="50" rx="4" ry="4" style="stroke:#534AB7;stroke-width:1;" width="58.7871" x="721.61" y="1248.2694"/><line style="stroke:#534AB7;stroke-width:1;" x1="721.61" x2="780.3971" y1="1274.5662" y2="1274.5662"/><text fill="#3C3489" font-family="Verdana" font-size="14" lengthAdjust="spacing" textLength="38.7871" x="731.61" y="1266.2645">failed</text></g><g class="entity" data-qualified-name="rollback_failed" data-source-line="57" id="ent0028"><rect fill="#EEEDFE" height="50" rx="4" ry="4" style="stroke:#534AB7;stroke-width:1;" width="121.1582" x="228.42" y="1248.2694"/><line style="stroke:#534AB7;stroke-width:1;" x1="228.42" x2="349.5782" y1="1274.5662" y2="1274.5662"/><text fill="#3C3489" font-family="Verdana" font-size="14" lengthAdjust="spacing" textLength="101.1582" x="238.42" y="1266.2645">rollback_failed</text></g><g class="end_entity" data-qualified-name=".end." data-source-line="94" id="ent0031"><ellipse cx="196" cy="1393.2294" fill="none" rx="11" ry="11" style="stroke:#000000;stroke-width:1;"/><ellipse cx="196" cy="1393.2294" fill="#FFFFFF" rx="6" ry="6" style="stroke:#000000;stroke-width:1;"/></g><g class="entity" data-qualified-name="GMN36" data-source-line="49" id="ent0037"><path d="M853.26,942.4894 L853.26,969.7594 L798.63,973.7594 L853.26,977.7594 L853.26,1005.0206 A4,4 0 0 0 857.26,1009.0206 L1080.7356,1009.0206 A4,4 0 0 0 1084.7356,1005.0206 L1084.7356,948.4894 L1074.7356,938.4894 L857.26,938.4894 A4,4 0 0 0 853.26,942.4894" fill="#FFFFFF" style="stroke:#000000;stroke-width:1;"/><path d="M1074.7356,938.4894 L1074.7356,946.4894 A2,2 0 0 0 1076.7356,948.4894 L1084.7356,948.4894 L1074.7356,938.4894" fill="#FFFFFF" style="stroke:#000000;stroke-width:1;"/><text fill="#000000" font-family="Verdana" font-size="13" lengthAdjust="spacing" textLength="210.4756" x="859.26" y="955.5563">Visible to End User in the portal.</text><text fill="#000000" font-family="Verdana" font-size="13" lengthAdjust="spacing" textLength="184.6152" x="859.26" y="970.6891">status.phase = rolling_back.</text><text fill="#000000" font-family="Verdana" font-size="13" lengthAdjust="spacing" textLength="184.9199" x="859.26" y="985.8219">ProvisionedResource retains</text><text fill="#000000" font-family="Verdana" font-size="13" lengthAdjust="spacing" textLength="203.855" x="859.26" y="1000.9547">appliedParameters throughout.</text></g><g class="entity" data-qualified-name="GMN39" data-source-line="62" id="ent0040"><path d="M188.23,289.6094 L188.23,316.8694 L133.07,320.8694 L188.23,324.8694 L188.23,352.1406 A4,4 0 0 0 192.23,356.1406 L477.773,356.1406 A4,4 0 0 0 481.773,352.1406 L481.773,295.6094 L471.773,285.6094 L192.23,285.6094 A4,4 0 0 0 188.23,289.6094" fill="#FFFFFF" style="stroke:#000000;stroke-width:1;"/><path d="M471.773,285.6094 L471.773,293.6094 A2,2 0 0 0 473.773,295.6094 L481.773,295.6094 L471.773,285.6094" fill="#FFFFFF" style="stroke:#000000;stroke-width:1;"/><text fill="#000000" font-family="Verdana" font-size="13" lengthAdjust="spacing" textLength="61.5088" x="194.23" y="302.6763">Terminal.</text><text fill="#000000" font-family="Verdana" font-size="13" lengthAdjust="spacing" textLength="272.543" x="194.23" y="317.8091">ProvisionedResource unchanged (update)</text><text fill="#000000" font-family="Verdana" font-size="13" lengthAdjust="spacing" textLength="152.6167" x="194.23" y="332.9419">or not created (create).</text><text fill="#000000" font-family="Verdana" font-size="13" lengthAdjust="spacing" textLength="149.6777" x="194.23" y="348.0747">Email notification sent.</text></g><g class="entity" data-qualified-name="GMN42" data-source-line="69" id="ent0043"><path d="M250.83,942.4894 L250.83,969.7594 L196.09,973.7594 L250.83,977.7594 L250.83,1005.0206 A4,4 0 0 0 254.83,1009.0206 L471.1708,1009.0206 A4,4 0 0 0 475.1708,1005.0206 L475.1708,948.4894 L465.1708,938.4894 L254.83,938.4894 A4,4 0 0 0 250.83,942.4894" fill="#FFFFFF" style="stroke:#000000;stroke-width:1;"/><path d="M465.1708,938.4894 L465.1708,946.4894 A2,2 0 0 0 467.1708,948.4894 L475.1708,948.4894 L465.1708,938.4894" fill="#FFFFFF" style="stroke:#000000;stroke-width:1;"/><text fill="#000000" font-family="Verdana" font-size="13" lengthAdjust="spacing" textLength="61.5088" x="256.83" y="955.5563">Terminal.</text><text fill="#000000" font-family="Verdana" font-size="13" lengthAdjust="spacing" textLength="203.3408" x="256.83" y="970.6891">ProvisionedResource written or</text><text fill="#000000" font-family="Verdana" font-size="13" lengthAdjust="spacing" textLength="173.1831" x="256.83" y="985.8219">finalizer removed (delete).</text><text fill="#000000" font-family="Verdana" font-size="13" lengthAdjust="spacing" textLength="149.6777" x="256.83" y="1000.9547">Email notification sent.</text></g><g class="entity" data-qualified-name="GMN45" data-source-line="76" id="ent0046"><path d="M835.79,1226.8694 L835.79,1269.2694 L780.83,1273.2694 L835.79,1277.2694 L835.79,1319.6662 A4,4 0 0 0 839.79,1323.6662 L1132.2011,1323.6662 A4,4 0 0 0 1136.2011,1319.6662 L1136.2011,1232.8694 L1126.2011,1222.8694 L839.79,1222.8694 A4,4 0 0 0 835.79,1226.8694" fill="#FFFFFF" style="stroke:#000000;stroke-width:1;"/><path d="M1126.2011,1222.8694 L1126.2011,1230.8694 A2,2 0 0 0 1128.2011,1232.8694 L1136.2011,1232.8694 L1126.2011,1222.8694" fill="#FFFFFF" style="stroke:#000000;stroke-width:1;"/><text fill="#000000" font-family="Verdana" font-size="13" lengthAdjust="spacing" textLength="222.2378" x="841.79" y="1239.9363">Terminal &#8212; failureReason written.</text><text fill="#000000" font-family="Verdana" font-size="13" lengthAdjust="spacing" textLength="269.312" x="841.79" y="1255.0691">create: ProvisionedResource not created.</text><text fill="#000000" font-family="Verdana" font-size="13" lengthAdjust="spacing" textLength="266.7793" x="841.79" y="1270.2019">update: ProvisionedResource unchanged</text><text fill="#000000" font-family="Verdana" font-size="13" lengthAdjust="spacing" textLength="250.0977" x="841.79" y="1285.3347">(previousParameters still operational).</text><text fill="#000000" font-family="Verdana" font-size="13" lengthAdjust="spacing" textLength="279.4111" x="841.79" y="1300.4675">delete: CRD target instance may still exist.</text><text fill="#000000" font-family="Verdana" font-size="13" lengthAdjust="spacing" textLength="149.6777" x="841.79" y="1315.6003">Email notification sent.</text></g><g class="entity" data-qualified-name="GMN48" data-source-line="85" id="ent0049"><path d="M404.96,1219.2994 L404.96,1269.2694 L349.79,1273.2694 L404.96,1277.2694 L404.96,1327.2291 A4,4 0 0 0 408.96,1331.2291 L663.044,1331.2291 A4,4 0 0 0 667.044,1327.2291 L667.044,1225.2994 L657.044,1215.2994 L408.96,1215.2994 A4,4 0 0 0 404.96,1219.2994" fill="#FFFFFF" style="stroke:#000000;stroke-width:1;"/><path d="M657.044,1215.2994 L657.044,1223.2994 A2,2 0 0 0 659.044,1225.2994 L667.044,1225.2994 L657.044,1215.2994" fill="#FFFFFF" style="stroke:#000000;stroke-width:1;"/><text fill="#000000" font-family="Verdana" font-size="13" lengthAdjust="spacing" textLength="222.2378" x="410.96" y="1232.3663">Terminal &#8212; failureReason written.</text><text fill="#000000" font-family="Verdana" font-size="13" lengthAdjust="spacing" textLength="226.9287" x="410.96" y="1247.4991">Cluster state unknown: CRD target</text><text fill="#000000" font-family="Verdana" font-size="13" lengthAdjust="spacing" textLength="193.2798" x="410.96" y="1262.6319">instance may be in a partially</text><text fill="#000000" font-family="Verdana" font-size="13" lengthAdjust="spacing" textLength="229.8804" x="410.96" y="1277.7647">updated state. Manual intervention</text><text fill="#000000" font-family="Verdana" font-size="13" lengthAdjust="spacing" textLength="241.084" x="410.96" y="1292.8975">required. Health Observer will detect</text><text fill="#000000" font-family="Verdana" font-size="13" lengthAdjust="spacing" textLength="191.293" x="410.96" y="1308.0303">and surface degraded status.</text><text fill="#000000" font-family="Verdana" font-size="13" lengthAdjust="spacing" textLength="149.6777" x="410.96" y="1323.1631">Email notification sent.</text></g><!--link *start* to pending--><g class="link" data-entity-1="ent0009" data-entity-2="ent0010" data-link-type="dependency" data-source-line="19" id="lnk11"><path d="M336,77.7694 C336,94.7994 336,126.8394 336,151.4994" fill="none" id="*start*-to-pending" style="stroke:#737266;stroke-width:1;"/><polygon fill="#737266" points="336,156.4994,340,147.4994,336,151.4994,332,147.4994,336,156.4994" style="stroke:#737266;stroke-width:1;stroke-linejoin:miter;stroke-miterlimit:10;"/><text fill="#444444" font-family="Verdana" font-size="12" lengthAdjust="spacing" textLength="211.4766" x="337" y="114.748">Web App creates ResourceRequest</text><text fill="#444444" font-family="Verdana" font-size="12" lengthAdjust="spacing" textLength="195.9434" x="344.7666" y="128.7168">(action: create | update | delete)</text></g><!--link pending to approved--><g class="link" data-entity-1="ent0010" data-entity-2="ent0012" data-link-type="dependency" data-source-line="21" id="lnk13"><path d="M374.87,201.2594 C428.02,226.7694 518.5822,270.2361 574.0322,296.8461" fill="none" id="pending-to-approved" style="stroke:#737266;stroke-width:1;"/><polygon fill="#737266" points="578.54,299.0094,572.1566,291.5093,574.0322,296.8461,568.6953,298.7218,578.54,299.0094" style="stroke:#737266;stroke-width:1;stroke-linejoin:miter;stroke-miterlimit:10;"/><text fill="#444444" font-family="Verdana" font-size="12" lengthAdjust="spacing" textLength="147.5625" x="505.0917" y="243.748">Controller &#8212; all required</text><text fill="#444444" font-family="Verdana" font-size="12" lengthAdjust="spacing" textLength="163.5059" x="497.12" y="257.7168">approver decisions present</text></g><!--link pending to rejected--><g class="link" data-entity-1="ent0010" data-entity-2="ent0014" data-link-type="dependency" data-source-line="22" id="lnk15"><path d="M297.12,204.6594 C252.09,230.1994 182.6887,269.5618 137.5387,295.1818" fill="none" id="pending-to-rejected" style="stroke:#737266;stroke-width:1;"/><polygon fill="#737266" points="133.19,297.6494,142.9917,296.6866,137.5387,295.1818,139.0435,289.7287,133.19,297.6494" style="stroke:#737266;stroke-width:1;stroke-linejoin:miter;stroke-miterlimit:10;"/><text fill="#444444" font-family="Verdana" font-size="12" lengthAdjust="spacing" textLength="131.5371" x="244.79" y="243.748">Controller &#8212; rejection</text><text fill="#444444" font-family="Verdana" font-size="12" lengthAdjust="spacing" textLength="107.0859" x="257.0156" y="257.7168">decision recorded</text></g><!--link approved to provisioning--><g class="link" data-entity-1="ent0012" data-entity-2="ent0001" data-link-type="dependency" data-source-line="24" id="lnk16"><path d="M624.4,345.9394 C626.52,367.1894 629.3038,395.1141 632.7538,429.7041" fill="none" id="approved-to-provisioning" style="stroke:#737266;stroke-width:1;"/><polygon fill="#737266" points="633.25,434.6794,636.337,425.3268,632.7538,429.7041,628.3765,426.1208,633.25,434.6794" style="stroke:#737266;stroke-width:1;stroke-linejoin:miter;stroke-miterlimit:10;"/><text fill="#444444" font-family="Verdana" font-size="12" lengthAdjust="spacing" textLength="118.7285" x="640.5067" y="393.278">Controller &#8212; begins</text><text fill="#444444" font-family="Verdana" font-size="12" lengthAdjust="spacing" textLength="136.9219" x="631.41" y="407.2468">apply on target cluster</text></g><!--link provisioning to provisioned--><g class="link" data-entity-1="ent0001" data-entity-2="ent0020" data-link-type="dependency" data-source-line="35" id="lnk21"><path d="M506.37,640.0794 C416.59,680.7294 302.76,743.1294 223,825.2194 C187.77,861.4794 166.0106,912.1539 154.6606,943.7439" fill="none" id="provisioning-to-provisioned" style="stroke:#737266;stroke-width:1;"/><polygon fill="#737266" points="152.97,948.4494,159.7776,941.332,154.6606,943.7439,152.2488,938.627,152.97,948.4494" style="stroke:#737266;stroke-width:1;stroke-linejoin:miter;stroke-miterlimit:10;"/><text fill="#444444" font-family="Verdana" font-size="12" lengthAdjust="spacing" textLength="75.1055" x="356.183" y="769.358">Controller &#8212;</text><text fill="#444444" font-family="Verdana" font-size="12" lengthAdjust="spacing" textLength="200.1914" x="293.64" y="783.3268">Ready confirmed (create/update)</text><text fill="#444444" font-family="Verdana" font-size="12" lengthAdjust="spacing" textLength="172.5293" x="307.4711" y="797.2955">or absent confirmed (delete)</text></g><!--link provisioning to rolling_back--><g class="link" data-entity-1="ent0001" data-entity-2="ent0005" data-link-type="dependency" data-source-line="37" id="lnk22"><path d="M654.09,732.4994 C655.34,762.8094 656.454,789.7236 657.704,820.0336" fill="none" id="provisioning-to-rolling_back" style="stroke:#737266;stroke-width:1;"/><polygon fill="#737266" points="657.91,825.0294,661.5358,815.8722,657.704,820.0336,653.5425,816.2018,657.91,825.0294" style="stroke:#737266;stroke-width:1;stroke-linejoin:miter;stroke-miterlimit:10;"/><text fill="#444444" font-family="Verdana" font-size="12" lengthAdjust="spacing" textLength="75.1055" x="715.1275" y="776.358">Controller &#8212;</text><text fill="#444444" font-family="Verdana" font-size="12" lengthAdjust="spacing" textLength="190.4004" x="657.48" y="790.3268">retries exhausted (update only)</text></g><!--link rolling_back to failed--><g class="link" data-entity-1="ent0005" data-entity-2="ent0026" data-link-type="dependency" data-source-line="55" id="lnk27"><path d="M707.25,1122.6394 C721.45,1171.1994 734.2762,1215.0905 742.4962,1243.1905" fill="none" id="rolling_back-to-failed" style="stroke:#737266;stroke-width:1;"/><polygon fill="#737266" points="743.9,1247.9894,745.2123,1238.2283,742.4962,1243.1905,737.534,1240.4744,743.9,1247.9894" style="stroke:#737266;stroke-width:1;stroke-linejoin:miter;stroke-miterlimit:10;"/><text fill="#444444" font-family="Verdana" font-size="12" lengthAdjust="spacing" textLength="75.1055" x="768.3193" y="1159.438">Controller &#8212;</text><text fill="#444444" font-family="Verdana" font-size="12" lengthAdjust="spacing" textLength="159.1641" x="726.29" y="1173.4068">pre-update state restored;</text><text fill="#444444" font-family="Verdana" font-size="12" lengthAdjust="spacing" textLength="111.2871" x="750.2285" y="1187.3755">phase set to failed</text></g><!--link rolling_back to rollback_failed--><g class="link" data-entity-1="ent0005" data-entity-2="ent0028" data-link-type="dependency" data-source-line="57" id="lnk29"><path d="M529.4,1100.4294 C520.57,1107.9494 511.72,1115.2994 503,1122.2994 C443.75,1169.8794 374.6036,1216.6612 330.9836,1245.2112" fill="none" id="rolling_back-to-rollback_failed" style="stroke:#737266;stroke-width:1;"/><polygon fill="#737266" points="326.8,1247.9494,336.521,1246.3674,330.9836,1245.2112,332.1398,1239.6737,326.8,1247.9494" style="stroke:#737266;stroke-width:1;stroke-linejoin:miter;stroke-miterlimit:10;"/><text fill="#444444" font-family="Verdana" font-size="12" lengthAdjust="spacing" textLength="75.1055" x="513.2285" y="1159.438">Controller &#8212;</text><text fill="#444444" font-family="Verdana" font-size="12" lengthAdjust="spacing" textLength="161.0625" x="470.25" y="1173.4068">rollback retries exhausted;</text><text fill="#444444" font-family="Verdana" font-size="12" lengthAdjust="spacing" textLength="133.3652" x="484.0986" y="1187.3755">cluster state unknown</text></g><!--link provisioning to failed--><g class="link" data-entity-1="ent0001" data-entity-2="ent0026" data-link-type="dependency" data-source-line="59" id="lnk30"><path d="M789.37,615.8894 C898.54,648.2194 1042.35,710.6694 1112,825.2194 C1180.59,938.0394 1189.88,1015.6794 1112,1122.2994 C1053.38,1202.5494 994.27,1162.0194 899,1190.2994 C858.79,1202.2394 844.26,1194.2194 808,1215.2994 C793.61,1223.6694 783.6049,1232.835 773.4549,1244.235" fill="none" id="provisioning-to-failed" style="stroke:#737266;stroke-width:1;"/><polygon fill="#737266" points="770.13,1247.9694,779.1022,1243.9075,773.4549,1244.235,773.1273,1238.5877,770.13,1247.9694" style="stroke:#737266;stroke-width:1;stroke-linejoin:miter;stroke-miterlimit:10;"/><text fill="#444444" font-family="Verdana" font-size="12" lengthAdjust="spacing" textLength="75.1055" x="1183.2993" y="964.398">Controller &#8212;</text><text fill="#444444" font-family="Verdana" font-size="12" lengthAdjust="spacing" textLength="105.7441" x="1167.98" y="978.3668">retries exhausted</text><text fill="#444444" font-family="Verdana" font-size="12" lengthAdjust="spacing" textLength="97.1953" x="1172.2544" y="992.3355">(create / delete)</text></g><!--link provisioned to *end*--><g class="link" data-entity-1="ent0020" data-entity-2="ent0031" data-link-type="dependency" data-source-line="94" id="lnk32"><path d="M147.96,999.0094 C157.66,1078.3594 187.5838,1323.3163 194.1438,1377.0263" fill="none" id="provisioned-to-*end*" style="stroke:#737266;stroke-width:1;"/><polygon fill="#737266" points="194.75,1381.9894,197.6294,1372.5708,194.1438,1377.0263,189.6884,1373.5407,194.75,1381.9894" style="stroke:#737266;stroke-width:1;stroke-linejoin:miter;stroke-miterlimit:10;"/></g><!--link rejected to *end*--><g class="link" data-entity-1="ent0014" data-entity-2="ent0031" data-link-type="dependency" data-source-line="95" id="lnk33"><path d="M80.66,346.2194 C57.2,391.4094 11,491.9194 11,582.6794 C11,582.6794 11,582.6794 11,1274.2694 C11,1357.3094 140.2101,1383.6867 180.0401,1389.9167" fill="none" id="rejected-to-*end*" style="stroke:#737266;stroke-width:1;"/><polygon fill="#737266" points="184.98,1390.6894,176.7063,1385.3466,180.0401,1389.9167,175.47,1393.2505,184.98,1390.6894" style="stroke:#737266;stroke-width:1;stroke-linejoin:miter;stroke-miterlimit:10;"/></g><!--link failed to *end*--><g class="link" data-entity-1="ent0026" data-entity-2="ent0031" data-link-type="dependency" data-source-line="96" id="lnk34"><path d="M733.51,1298.5994 C723.61,1310.4594 710.18,1323.7494 695,1331.2294 C604.77,1375.6894 277.4768,1389.3618 212.1768,1391.6818" fill="none" id="failed-to-*end*" style="stroke:#737266;stroke-width:1;"/><polygon fill="#737266" points="207.18,1391.8594,216.3163,1395.5373,212.1768,1391.6818,216.0323,1387.5423,207.18,1391.8594" style="stroke:#737266;stroke-width:1;stroke-linejoin:miter;stroke-miterlimit:10;"/></g><!--link rollback_failed to *end*--><g class="link" data-entity-1="ent0028" data-entity-2="ent0031" data-link-type="dependency" data-source-line="97" id="lnk35"><path d="M269.73,1298.7094 C248.77,1325.2994 219.5074,1362.4243 205.6974,1379.9243" fill="none" id="rollback_failed-to-*end*" style="stroke:#737266;stroke-width:1;"/><polygon fill="#737266" points="202.6,1383.8494,211.3154,1379.2622,205.6974,1379.9243,205.0353,1374.3064,202.6,1383.8494" style="stroke:#737266;stroke-width:1;stroke-linejoin:miter;stroke-miterlimit:10;"/></g><?plantuml-src dLRDSjis4BxZARRfnUgCPIUsOrUTTiPHvEcbhSVfpw7gP21oAQ6c01O0hQXfP_eGVS8-INS1a29fflM4liYx7pxiVhjOu1E_mIr2LKgbXRjNkf9MRc4bi_krDRNEvwOq5ZwzkUQ_3i9vwH7U2w3lrH2zM2nUtooYpzWSRR9Vd9rVlxeCzXkZVRAUpS_EhpuFrcjhpIwPByykNxnyUJ1tLfo7h-zwetv7UFuY6DzuQHliwTN5wVdpO5wq0IRZdvs4GloPiHejN7NiskJei8ABYovOwljWF1N2AryYtA4pjStm3d-hqNduvw-_uNOZ7N8mfDGtCjieZKBy_DalS7py5LIeSwNNC8EVS0NNLGMPHKAw8TLI7ydCAwDd2G5_G5tbyKUE9NgS2D7GCRMiAciUC0SYdvCqrfGbPSKXoR84IxpAOhxK2MY99bEEjd1GMSfM-nwVnLynywDyqKKhbxhX85l6HS-5Q0C92TFF08XP3uXMk5RQXP3AFH0BbN2D7hAoTXwj4B7XUYIn-wBZMLZ8rldTwwLEgudIIvtXCv0E6aHtrKvwhiiQ2cEN-WvbleSJa2lM82ng0Dr55hrb8geC7nHJ59E0RUm1syR3kVTOsZsZjd4DAVAjyKq0I5rj0xZrfyAM2Hpi8Bt7RUMfaKLFcPxUfFzGxYRLpEX2sIqXZc9ldSJEcYmr7PCeGnTqQBVXRinDlz-o82FRSRYAUXlVRIGNbBXI3njTxYTDUNiix_kQ7pVPBpKrwOCojRlbmqW1MPVq3v3_gM-4heBdILLT1K-gHkpFa7678lrEzbYR3nKqkMFn8zr8ERLXETHwuy4KFLs8vKUIVaL3nnkUQV238vaL7PaD7H1ZlIod8gPLksaLXj2NFGfstnxQenau70NT0qx4xbMO7mGcSfgGwusf_LJGR00EK8XUmJYbGggI9qNy7ZS2bUuuLJwLd4QSeMdq1Vb2g8xEBIKMYKPsO0F_ypPjDT9i2G6FkeusIGCbxLxhUsrsUgIXFym-9AM6IOFvv32F1_LB4vIK_HxjLkbOeh4Qr3hRIBq-d9090Uam4c6Q_-rXdJ37Oak1ibSLAfCyYe5FRRT8_LWwS-49uUoiegRK4BgtO2JTivOIseR1tao4ZueabVWGHBW9s5fRklsa8uQqF_F7f6UZONRKOMXKRlRV0XFkwF4aeSPGT4cQ2ct8GPOXkPZdZ6yN65mki9Nxj0hVAUS_Iej1LpzPbFbOEtV394mlq1Nog9103nclw3cmR-NA8ycKtYgwfdsL9k87YfgY5z0-6wRmDShIR-0xkXuilnvsd7fEycIycwGCNMqBIHlckBOoJymqZ9wcJFVc2X-VHtetYSD31FgE_jJfhXWCYzRnBm00?></g></svg>