<svg xmlns="http://www.w3.org/2000/svg" xmlns:xlink="http://www.w3.org/1999/xlink" contentStyleType="text/css" data-diagram-type="STATE" height="1262px" preserveAspectRatio="none" style="width:1421px;height:1262px;background:#FAFAFA;" version="1.1" viewBox="0 0 1421 1262" width="1421px" zoomAndPan="magnify"><?plantuml 1.2026.4?><defs/><g><rect fill="#FAFAFA" height="1262" style="stroke:none;stroke-width:1;" width="1421" x="0" y="0"/><g class="title" data-source-line="17"><text fill="#000000" font-family="Verdana" font-size="22" font-weight="700" lengthAdjust="spacing" textLength="513.8418" x="452.7021" y="35.4209">ResourceRequest &#8212; Phase State Machine</text></g><g class="entity" data-qualified-name="provisioning" data-source-line="26" id="ent0001"><path d="M626.86,414.6094 L901.1493,414.6094 A4,4 0 0 1 905.1493,418.6094 L905.1493,440.9063 L622.86,440.9063 L622.86,418.6094 A4,4 0 0 1 626.86,414.6094" fill="#EEEDFE"/><path d="M622.86,440.9063 L905.1493,440.9063 L905.1493,707.69 A4,4 0 0 1 901.1493,711.69 L626.86,711.69 A4,4 0 0 1 622.86,707.69 L622.86,440.9063" fill="#EEEDFE"/><rect fill="none" height="297.0806" rx="4" ry="4" style="stroke:#534AB7;stroke-width:1;" width="282.2893" x="622.86" y="414.6094"/><line style="stroke:#534AB7;stroke-width:1;" x1="622.86" x2="905.1493" y1="440.9063" y2="440.9063"/><text fill="#3C3489" font-family="Verdana" font-size="14" lengthAdjust="spacing" textLength="85.6543" x="721.1775" y="432.6045">provisioning</text><g class="entity" data-qualified-name="provisioning.applying" data-source-line="27" id="ent0002"><rect fill="#EEEDFE" height="52.5938" rx="4" ry="4" style="stroke:#534AB7;stroke-width:1;" width="126.5723" x="692.3" y="452.9063"/><line style="stroke:#534AB7;stroke-width:1;" x1="692.3" x2="818.8723" y1="495.5" y2="495.5"/><text fill="#3C3489" font-family="Verdana" font-size="14" lengthAdjust="spacing" textLength="94.9102" x="702.3" y="470.9014">applying CRD</text><text fill="#3C3489" font-family="Verdana" font-size="14" lengthAdjust="spacing" textLength="106.5723" x="702.3" y="487.1982">target instance</text></g><g class="entity" data-qualified-name="provisioning.watching" data-source-line="28" id="ent0003"><rect fill="#EEEDFE" height="52.5938" rx="4" ry="4" style="stroke:#534AB7;stroke-width:1;" width="125.4443" x="634.86" y="542.4963"/><line style="stroke:#534AB7;stroke-width:1;" x1="634.86" x2="760.3043" y1="585.09" y2="585.09"/><text fill="#3C3489" font-family="Verdana" font-size="14" lengthAdjust="spacing" textLength="87.4385" x="644.86" y="560.4914">watching for</text><text fill="#3C3489" font-family="Verdana" font-size="14" lengthAdjust="spacing" textLength="105.4443" x="644.86" y="576.7882">Ready / absent</text></g><g class="entity" data-qualified-name="provisioning.retrying" data-source-line="29" id="ent0004"><rect fill="#EEEDFE" height="52.5938" rx="4" ry="4" style="stroke:#534AB7;stroke-width:1;" width="82.6172" x="705.27" y="646.0963"/><line style="stroke:#534AB7;stroke-width:1;" x1="705.27" x2="787.8872" y1="688.69" y2="688.69"/><text fill="#3C3489" font-family="Verdana" font-size="14" lengthAdjust="spacing" textLength="55.5488" x="715.27" y="664.0914">retrying</text><text fill="#3C3489" font-family="Verdana" font-size="14" lengthAdjust="spacing" textLength="62.6172" x="715.27" y="680.3882">(backoff)</text></g><!--link applying to watching--><g class="link" data-entity-1="ent0002" data-entity-2="ent0003" data-link-type="dependency" data-source-line="30" id="lnk16"><path d="M738.81,505.5363 C731.18,517.0563 724.931,526.4977 717.281,538.0477" fill="none" id="applying-to-watching" style="stroke:#737266;stroke-width:1;"/><polygon fill="#737266" points="714.52,542.2163,722.8246,536.9216,717.281,538.0477,716.1549,532.504,714.52,542.2163" style="stroke:#737266;stroke-width:1;stroke-linejoin:miter;stroke-miterlimit:10;"/></g><!--link watching to retrying--><g class="link" data-entity-1="ent0003" data-entity-2="ent0004" data-link-type="dependency" data-source-line="31" id="lnk17"><path d="M687.8,595.5162 C685.35,606.0663 684.63,618.1163 689.58,628.0962 C693.23,635.4363 695.032,638.5668 701.272,644.0768" fill="none" id="watching-to-retrying" style="stroke:#737266;stroke-width:1;"/><polygon fill="#737266" points="705.02,647.3863,700.9213,638.4308,701.272,644.0768,695.6261,644.4275,705.02,647.3863" style="stroke:#737266;stroke-width:1;stroke-linejoin:miter;stroke-miterlimit:10;"/><text fill="#444444" font-family="Verdana" font-size="12" lengthAdjust="spacing" textLength="100.0137" x="690.58" y="625.2349">NotReady / error</text></g><!--link retrying to applying--><g class="link" data-entity-1="ent0004" data-entity-2="ent0002" data-link-type="dependency" data-source-line="32" id="lnk18"><path d="M779.97,645.6363 C784.69,640.3763 788.87,634.4762 791.58,628.0962 C809.02,587.1263 790.297,540.4042 773.827,510.2542" fill="none" id="retrying-to-applying" style="stroke:#737266;stroke-width:1;"/><polygon fill="#737266" points="771.43,505.8663,772.2342,515.6822,773.827,510.2542,779.255,511.847,771.43,505.8663" style="stroke:#737266;stroke-width:1;stroke-linejoin:miter;stroke-miterlimit:10;"/><text fill="#444444" font-family="Verdana" font-size="12" lengthAdjust="spacing" textLength="81.0293" x="799.12" y="573.4349">retry attempt</text></g></g><g class="entity" data-qualified-name="rolling_back" data-source-line="39" id="ent0005"><path d="M936.54,804.6994 L1125.4629,804.6994 A4,4 0 0 1 1129.4629,808.6994 L1129.4629,830.9963 L932.54,830.9963 L932.54,808.6994 A4,4 0 0 1 936.54,804.6994" fill="#EEEDFE"/><path d="M932.54,830.9963 L1129.4629,830.9963 L1129.4629,993.19 A4,4 0 0 1 1125.4629,997.19 L936.54,997.19 A4,4 0 0 1 932.54,993.19 L932.54,830.9963" fill="#EEEDFE"/><rect fill="none" height="192.4906" rx="4" ry="4" style="stroke:#534AB7;stroke-width:1;" width="196.9229" x="932.54" y="804.6994"/><line style="stroke:#534AB7;stroke-width:1;" x1="932.54" x2="1129.4629" y1="830.9963" y2="830.9963"/><text fill="#3C3489" font-family="Verdana" font-size="14" lengthAdjust="spacing" textLength="84.0205" x="988.9912" y="822.6945">rolling_back</text><g class="entity" data-qualified-name="rolling_back.reapply" data-source-line="40" id="ent0006"><rect fill="#EEEDFE" height="52.5938" rx="4" ry="4" style="stroke:#534AB7;stroke-width:1;" width="160.9229" x="944.54" y="842.9963"/><line style="stroke:#534AB7;stroke-width:1;" x1="944.54" x2="1105.4629" y1="885.59" y2="885.59"/><text fill="#3C3489" font-family="Verdana" font-size="14" lengthAdjust="spacing" textLength="79.5977" x="954.54" y="860.9914">re-applying</text><text fill="#3C3489" font-family="Verdana" font-size="14" lengthAdjust="spacing" textLength="140.9229" x="954.54" y="877.2882">previousParameters</text></g><g class="entity" data-qualified-name="rolling_back.rbwatch" data-source-line="41" id="ent0007"><rect fill="#EEEDFE" height="52.5938" rx="4" ry="4" style="stroke:#534AB7;stroke-width:1;" width="107.4385" x="971.28" y="931.5963"/><line style="stroke:#534AB7;stroke-width:1;" x1="971.28" x2="1078.7185" y1="974.19" y2="974.19"/><text fill="#3C3489" font-family="Verdana" font-size="14" lengthAdjust="spacing" textLength="87.4385" x="981.28" y="949.5914">watching for</text><text fill="#3C3489" font-family="Verdana" font-size="14" lengthAdjust="spacing" textLength="44.0918" x="981.28" y="965.8882">Ready</text></g><!--link reapply to rbwatch--><g class="link" data-entity-1="ent0006" data-entity-2="ent0007" data-link-type="dependency" data-source-line="42" id="lnk22"><path d="M1025,895.8063 C1025,906.9862 1025,915.0763 1025,926.2562" fill="none" id="reapply-to-rbwatch" style="stroke:#737266;stroke-width:1;"/><polygon fill="#737266" points="1025,931.2562,1029,922.2562,1025,926.2562,1021,922.2562,1025,931.2562" style="stroke:#737266;stroke-width:1;stroke-linejoin:miter;stroke-miterlimit:10;"/></g></g><g class="start_entity" data-qualified-name=".start." data-source-line="19" id="ent0008"><ellipse cx="390" cy="67.6094" fill="#FFFFFF" rx="10" ry="10" style="stroke:#000000;stroke-width:1;"/></g><g class="entity" data-qualified-name="pending" data-source-line="19" id="ent0009"><rect fill="#EEEDFE" height="50" rx="4" ry="4" style="stroke:#534AB7;stroke-width:1;" width="76.9092" x="351.55" y="156.6094"/><line style="stroke:#534AB7;stroke-width:1;" x1="351.55" x2="428.4592" y1="182.9063" y2="182.9063"/><text fill="#3C3489" font-family="Verdana" font-size="14" lengthAdjust="spacing" textLength="56.9092" x="361.55" y="174.6045">pending</text></g><g class="entity" data-qualified-name="approved" data-source-line="21" id="ent0011"><rect fill="#EEEDFE" height="50" rx="4" ry="4" style="stroke:#534AB7;stroke-width:1;" width="86.459" x="686.77" y="285.6094"/><line style="stroke:#534AB7;stroke-width:1;" x1="686.77" x2="773.229" y1="311.9063" y2="311.9063"/><text fill="#3C3489" font-family="Verdana" font-size="14" lengthAdjust="spacing" textLength="66.459" x="696.77" y="303.6045">approved</text></g><g class="entity" data-qualified-name="rejected" data-source-line="22" id="ent0013"><rect fill="#EEEDFE" height="50" rx="4" ry="4" style="stroke:#534AB7;stroke-width:1;" width="77.5586" x="26.22" y="285.6094"/><line style="stroke:#534AB7;stroke-width:1;" x1="26.22" x2="103.7786" y1="311.9063" y2="311.9063"/><text fill="#3C3489" font-family="Verdana" font-size="14" lengthAdjust="spacing" textLength="57.5586" x="36.22" y="303.6045">rejected</text></g><g class="entity" data-qualified-name="provisioned" data-source-line="35" id="ent0019"><rect fill="#EEEDFE" height="50" rx="4" ry="4" style="stroke:#534AB7;stroke-width:1;" width="101.5049" x="94.25" y="875.9394"/><line style="stroke:#534AB7;stroke-width:1;" x1="94.25" x2="195.7549" y1="902.2362" y2="902.2362"/><text fill="#3C3489" font-family="Verdana" font-size="14" lengthAdjust="spacing" textLength="81.5049" x="104.25" y="893.9345">provisioned</text></g><g class="entity" data-qualified-name="failed" data-source-line="45" id="ent0023"><rect fill="#EEEDFE" height="50" rx="4" ry="4" style="stroke:#534AB7;stroke-width:1;" width="58.7871" x="741.61" y="1108.0194"/><line style="stroke:#534AB7;stroke-width:1;" x1="741.61" x2="800.3971" y1="1134.3163" y2="1134.3163"/><text fill="#3C3489" font-family="Verdana" font-size="14" lengthAdjust="spacing" textLength="38.7871" x="751.61" y="1126.0145">failed</text></g><g class="end_entity" data-qualified-name=".end." data-source-line="68" id="ent0026"><ellipse cx="145" cy="1237.8494" fill="none" rx="11" ry="11" style="stroke:#000000;stroke-width:1;"/><ellipse cx="145" cy="1237.8494" fill="#FFFFFF" rx="6" ry="6" style="stroke:#000000;stroke-width:1;"/></g><g class="entity" data-qualified-name="GMN30" data-source-line="50" id="ent0031"><path d="M158.61,294.4794 L158.61,306.6094 L104.11,310.6094 L158.61,314.6094 L158.61,326.745 A4,4 0 0 0 162.61,330.745 L613.3888,330.745 A4,4 0 0 0 617.3888,326.745 L617.3888,300.4794 L607.3888,290.4794 L162.61,290.4794 A4,4 0 0 0 158.61,294.4794" fill="#FFFFFF" style="stroke:#000000;stroke-width:1;"/><path d="M607.3888,290.4794 L607.3888,298.4794 A2,2 0 0 0 609.3888,300.4794 L617.3888,300.4794 L607.3888,290.4794" fill="#FFFFFF" style="stroke:#000000;stroke-width:1;"/><text fill="#000000" font-family="Verdana" font-size="13" lengthAdjust="spacing" textLength="61.5088" x="164.61" y="307.5463">Terminal.</text><text fill="#000000" font-family="Verdana" font-size="13" lengthAdjust="spacing" textLength="437.7788" x="164.61" y="322.6791">ProvisionedResource unchanged (update)\nor not created (create).</text></g><g class="entity" data-qualified-name="GMN33" data-source-line="55" id="ent0034"><path d="M250.93,877.2394 L250.93,896.9394 L196.02,900.9394 L250.93,904.9394 L250.93,924.6378 A4,4 0 0 0 254.93,928.6378 L657.0731,928.6378 A4,4 0 0 0 661.0731,924.6378 L661.0731,883.2394 L651.0731,873.2394 L254.93,873.2394 A4,4 0 0 0 250.93,877.2394" fill="#FFFFFF" style="stroke:#000000;stroke-width:1;"/><path d="M651.0731,873.2394 L651.0731,881.2394 A2,2 0 0 0 653.0731,883.2394 L661.0731,883.2394 L651.0731,873.2394" fill="#FFFFFF" style="stroke:#000000;stroke-width:1;"/><text fill="#000000" font-family="Verdana" font-size="13" lengthAdjust="spacing" textLength="61.5088" x="256.93" y="890.3063">Terminal.</text><text fill="#000000" font-family="Verdana" font-size="13" lengthAdjust="spacing" textLength="389.1431" x="256.93" y="905.4391">ProvisionedResource written or\nfinalizer removed (delete).</text><text fill="#000000" font-family="Verdana" font-size="13" lengthAdjust="spacing" textLength="149.6777" x="256.93" y="920.5719">Email notification sent.</text></g><g class="entity" data-qualified-name="GMN36" data-source-line="61" id="ent0037"><path d="M855.75,1094.1894 L855.75,1129.0194 L800.88,1133.0194 L855.75,1137.0194 L855.75,1171.8534 A4,4 0 0 0 859.75,1175.8534 L1402.2461,1175.8534 A4,4 0 0 0 1406.2461,1171.8534 L1406.2461,1100.1894 L1396.2461,1090.1894 L859.75,1090.1894 A4,4 0 0 0 855.75,1094.1894" fill="#FFFFFF" style="stroke:#000000;stroke-width:1;"/><path d="M1396.2461,1090.1894 L1396.2461,1098.1894 A2,2 0 0 0 1398.2461,1100.1894 L1406.2461,1100.1894 L1396.2461,1090.1894" fill="#FFFFFF" style="stroke:#000000;stroke-width:1;"/><text fill="#000000" font-family="Verdana" font-size="13" lengthAdjust="spacing" textLength="222.2378" x="861.75" y="1107.2563">Terminal &#8212; failureReason written.</text><text fill="#000000" font-family="Verdana" font-size="13" lengthAdjust="spacing" textLength="269.312" x="861.75" y="1122.3891">create: ProvisionedResource not created.</text><text fill="#000000" font-family="Verdana" font-size="13" lengthAdjust="spacing" textLength="529.4961" x="861.75" y="1137.5219">update: ProvisionedResource unchanged\n(previousParameters still operational).</text><text fill="#000000" font-family="Verdana" font-size="13" lengthAdjust="spacing" textLength="279.4111" x="861.75" y="1152.6547">delete: CRD target instance may still exist.</text><text fill="#000000" font-family="Verdana" font-size="13" lengthAdjust="spacing" textLength="149.6777" x="861.75" y="1167.7875">Email notification sent.</text></g><!--link *start* to pending--><g class="link" data-entity-1="ent0008" data-entity-2="ent0009" data-link-type="dependency" data-source-line="19" id="lnk10"><path d="M390,77.7794 C390,94.8094 390,126.8394 390,151.4994" fill="none" id="*start*-to-pending" style="stroke:#737266;stroke-width:1;"/><polygon fill="#737266" points="390,156.4994,394,147.4994,390,151.4994,386,147.4994,390,156.4994" style="stroke:#737266;stroke-width:1;stroke-linejoin:miter;stroke-miterlimit:10;"/><text fill="#444444" font-family="Verdana" font-size="12" lengthAdjust="spacing" textLength="211.4766" x="391" y="114.748">Web App creates ResourceRequest</text><text fill="#444444" font-family="Verdana" font-size="12" lengthAdjust="spacing" textLength="195.9434" x="398.7666" y="128.7168">(action: create | update | delete)</text></g><!--link pending to approved--><g class="link" data-entity-1="ent0009" data-entity-2="ent0011" data-link-type="dependency" data-source-line="21" id="lnk12"><path d="M428.67,197.0594 C492.46,220.8894 614.6459,266.5303 681.5959,291.5303" fill="none" id="pending-to-approved" style="stroke:#737266;stroke-width:1;"/><polygon fill="#737266" points="686.28,293.2794,679.2479,286.3837,681.5959,291.5303,676.4494,293.8783,686.28,293.2794" style="stroke:#737266;stroke-width:1;stroke-linejoin:miter;stroke-miterlimit:10;"/><text fill="#444444" font-family="Verdana" font-size="12" lengthAdjust="spacing" textLength="147.5625" x="599.4217" y="243.748">Controller &#8212; all required</text><text fill="#444444" font-family="Verdana" font-size="12" lengthAdjust="spacing" textLength="163.5059" x="591.45" y="257.7168">approver decisions present</text></g><!--link pending to rejected--><g class="link" data-entity-1="ent0009" data-entity-2="ent0013" data-link-type="dependency" data-source-line="22" id="lnk14"><path d="M351.12,197.8094 C288.7,222.1994 171.447,268.0193 108.837,292.4893" fill="none" id="pending-to-rejected" style="stroke:#737266;stroke-width:1;"/><polygon fill="#737266" points="104.18,294.3094,114.0186,294.7588,108.837,292.4893,111.1065,287.3076,104.18,294.3094" style="stroke:#737266;stroke-width:1;stroke-linejoin:miter;stroke-miterlimit:10;"/><text fill="#444444" font-family="Verdana" font-size="12" lengthAdjust="spacing" textLength="131.5371" x="257.61" y="243.748">Controller &#8212; rejection</text><text fill="#444444" font-family="Verdana" font-size="12" lengthAdjust="spacing" textLength="107.0859" x="269.8356" y="257.7168">decision recorded</text></g><!--link approved to provisioning--><g class="link" data-entity-1="ent0011" data-entity-2="ent0001" data-link-type="dependency" data-source-line="24" id="lnk15"><path d="M733.32,336.0894 C735.93,355.2994 739.117,378.8349 743.237,409.1649" fill="none" id="approved-to-provisioning" style="stroke:#737266;stroke-width:1;"/><polygon fill="#737266" points="743.91,414.1194,746.6622,404.6629,743.237,409.1649,738.735,405.7397,743.91,414.1194" style="stroke:#737266;stroke-width:1;stroke-linejoin:miter;stroke-miterlimit:10;"/><text fill="#444444" font-family="Verdana" font-size="12" lengthAdjust="spacing" textLength="118.7285" x="750.1467" y="372.748">Controller &#8212; begins</text><text fill="#444444" font-family="Verdana" font-size="12" lengthAdjust="spacing" textLength="136.9219" x="741.05" y="386.7168">apply on target cluster</text></g><!--link provisioning to provisioned--><g class="link" data-entity-1="ent0001" data-entity-2="ent0019" data-link-type="dependency" data-source-line="35" id="lnk20"><path d="M622.43,606.7194 C507.25,645.9094 344.48,712.0594 223,804.6994 C197,824.5194 176.9953,850.517 162.8753,871.567" fill="none" id="provisioning-to-provisioned" style="stroke:#737266;stroke-width:1;"/><polygon fill="#737266" points="160.09,875.7194,168.4255,870.4734,162.8753,871.567,161.7817,866.0169,160.09,875.7194" style="stroke:#737266;stroke-width:1;stroke-linejoin:miter;stroke-miterlimit:10;"/><text fill="#444444" font-family="Verdana" font-size="12" lengthAdjust="spacing" textLength="75.1055" x="380.383" y="748.838">Controller &#8212;</text><text fill="#444444" font-family="Verdana" font-size="12" lengthAdjust="spacing" textLength="200.1914" x="317.84" y="762.8068">Ready confirmed (create/update)</text><text fill="#444444" font-family="Verdana" font-size="12" lengthAdjust="spacing" textLength="172.5293" x="331.6711" y="776.7755">or absent confirmed (delete)</text></g><!--link provisioning to rolling_back--><g class="link" data-entity-1="ent0001" data-entity-2="ent0005" data-link-type="dependency" data-source-line="37" id="lnk21"><path d="M881.5,711.9194 C906.4,743.2394 928.9478,771.596 951.8278,800.366" fill="none" id="provisioning-to-rolling_back" style="stroke:#737266;stroke-width:1;"/><polygon fill="#737266" points="954.94,804.2794,952.4688,794.7456,951.8278,800.366,946.2074,799.7251,954.94,804.2794" style="stroke:#737266;stroke-width:1;stroke-linejoin:miter;stroke-miterlimit:10;"/><text fill="#444444" font-family="Verdana" font-size="12" lengthAdjust="spacing" textLength="75.1055" x="987.9175" y="755.838">Controller &#8212;</text><text fill="#444444" font-family="Verdana" font-size="12" lengthAdjust="spacing" textLength="190.4004" x="930.27" y="769.8068">retries exhausted (update only)</text></g><!--link rolling_back to failed--><g class="link" data-entity-1="ent0005" data-entity-2="ent0023" data-link-type="dependency" data-source-line="45" id="lnk24"><path d="M932.33,989.2494 C884.35,1031.7094 834.0652,1076.2167 802.2852,1104.3267" fill="none" id="rolling_back-to-failed" style="stroke:#737266;stroke-width:1;"/><polygon fill="#737266" points="798.54,1107.6394,807.9314,1104.6727,802.2852,1104.3267,802.6312,1098.6804,798.54,1107.6394" style="stroke:#737266;stroke-width:1;stroke-linejoin:miter;stroke-miterlimit:10;"/><text fill="#444444" font-family="Verdana" font-size="12" lengthAdjust="spacing" textLength="75.1055" x="936.2293" y="1034.328">Controller &#8212;</text><text fill="#444444" font-family="Verdana" font-size="12" lengthAdjust="spacing" textLength="159.1641" x="894.2" y="1048.2968">pre-update state restored;</text><text fill="#444444" font-family="Verdana" font-size="12" lengthAdjust="spacing" textLength="111.2871" x="918.1385" y="1062.2655">phase set to failed</text></g><!--link provisioning to failed--><g class="link" data-entity-1="ent0001" data-entity-2="ent0023" data-link-type="dependency" data-source-line="47" id="lnk25"><path d="M765.82,711.8694 C767.51,848.5794 769.8082,1035.4998 770.6382,1102.6598" fill="none" id="provisioning-to-failed" style="stroke:#737266;stroke-width:1;"/><polygon fill="#737266" points="770.7,1107.6594,774.5885,1098.6106,770.6382,1102.6598,766.5891,1098.7095,770.7,1107.6594" style="stroke:#737266;stroke-width:1;stroke-linejoin:miter;stroke-miterlimit:10;"/><text fill="#444444" font-family="Verdana" font-size="12" lengthAdjust="spacing" textLength="75.1055" x="785.6093" y="891.578">Controller &#8212;</text><text fill="#444444" font-family="Verdana" font-size="12" lengthAdjust="spacing" textLength="105.7441" x="770.29" y="905.5468">retries exhausted</text><text fill="#444444" font-family="Verdana" font-size="12" lengthAdjust="spacing" textLength="97.1953" x="774.5644" y="919.5155">(create / delete)</text></g><!--link provisioned to *end*--><g class="link" data-entity-1="ent0019" data-entity-2="ent0026" data-link-type="dependency" data-source-line="68" id="lnk27"><path d="M145,926.2994 C145,993.5794 145,1175.0894 145,1221.3594" fill="none" id="provisioned-to-*end*" style="stroke:#737266;stroke-width:1;"/><polygon fill="#737266" points="145,1226.3594,149,1217.3594,145,1221.3594,141,1217.3594,145,1226.3594" style="stroke:#737266;stroke-width:1;stroke-linejoin:miter;stroke-miterlimit:10;"/></g><!--link rejected to *end*--><g class="link" data-entity-1="ent0013" data-entity-2="ent0026" data-link-type="dependency" data-source-line="69" id="lnk28"><path d="M56.2,335.7794 C40.9,380.0394 11,477.3894 11,562.1494 C11,562.1494 11,562.1494 11,1134.0194 C11,1196.1894 98.0672,1224.6273 129.6572,1233.0073" fill="none" id="rejected-to-*end*" style="stroke:#737266;stroke-width:1;"/><polygon fill="#737266" points="134.49,1234.2894,126.8165,1228.1154,129.6572,1233.0073,124.7653,1235.848,134.49,1234.2894" style="stroke:#737266;stroke-width:1;stroke-linejoin:miter;stroke-miterlimit:10;"/></g><!--link failed to *end*--><g class="link" data-entity-1="ent0023" data-entity-2="ent0026" data-link-type="dependency" data-source-line="70" id="lnk29"><path d="M741.23,1138.9094 C628,1157.5094 231.9138,1222.5687 160.7638,1234.2587" fill="none" id="failed-to-*end*" style="stroke:#737266;stroke-width:1;"/><polygon fill="#737266" points="155.83,1235.0694,165.3594,1237.5573,160.7638,1234.2587,164.0624,1229.6632,155.83,1235.0694" style="stroke:#737266;stroke-width:1;stroke-linejoin:miter;stroke-miterlimit:10;"/></g><?plantuml-src ZLNRRjD047ttLmpbfK5ARqdQ4YIaD4tVG5MAn0D1Q6EFawNshjbTDmq5YO_W2_aIPY-ExJI5fY_Mx9cpCsVEJb-O9UO8HSQuYFGj5mLJB8SvYsyNIfOY6SjCAdXvDR9_3OGsp20yH42_YstqP3Avl9huCwaIL24-wFL75sSkVYM52T7UkDS_V-sY8wNaAeJFUcSdfwTrk97HTx_sqGt_Zd1yue8tXgaAUtG-EEeVk_1aKs08_cmqvEgFfHAeuBmH5p91ZGKC1aqm4xSkU1H5XfiCOOfQbYh6ANuhKHluy-itN2-PHbiCAVMEnKikC8e-lVeCtUvRA50aN2nW21zn3gEYW5WX8VKsrKpiizXmAOO10J-WB1B_aM261ZjHLD5PQbOKIjvX0aG-9ccKp3BgofR4iWmKyNA5oKm4e2AQc6kwGaEXg5jXMdmAls9iTlBv8ygSYOg3Oh4TUX95cq9Sm_Jf0BxhBQ8vBhZGhgHi3SH28roWWJWhjK4LHTvmBHBlFd-mvn9jT3ozd8cGJPI6YHZtW6ce4Csi5JDsBWj8fPg9AR9a3OV0vbO3brG1caaAZR94D1dxK6IQTXosYZlifXxRUujbSwVNrkUG8k-bgGf0ShLouCrv66mMm2uEp1ZC2qD6ZbhAjFGc_RVbhbgDfKYvoWcnxxrrw9tLcGbw9bw69gYss_Pjbfk-lrX1Tbndo-NaRRnVCZjGuWeUbY9RTwhnjbWUsfftg-vdWanwnsMfh-rZf8AK3lexo7_cww5pTn8azgPpROGu2TggnPwbZ6SxjQHokg6Rq0OzMqalx0sTkHsWoOj61eOTwZr9_KWtybpO0eVrunVINieNImCotJnNQku3gfmBbXtGztNjXsh3G2dY9HEBUXn-yCGNTit669s3Y3Q2FS7j-nf6UyQLAyN9j0BiF58BfBsjgERSBOhAOJPxafCgzaQUyfZP9GFMZqyN4kIjQt2RnKPBHTkKQM88rrj-tzXmPvKD1IpKYpFyjuOqciV694TmshcoGELQO9dhpRSvjCiAjdOLv6mTil2UQ_DCAPhFtNcA_j54zUQ6EXZC1gtWNm00?></g></svg>