<svg xmlns="http://www.w3.org/2000/svg" xmlns:xlink="http://www.w3.org/1999/xlink" contentStyleType="text/css" data-diagram-type="STATE" height="1331px" preserveAspectRatio="none" style="width:3660px;height:1331px;background:#FAFAFA;" version="1.1" viewBox="0 0 3660 1331" width="3660px" zoomAndPan="magnify"><?plantuml 1.2026.4?><defs/><g><rect fill="#FAFAFA" height="1331" style="stroke:none;stroke-width:1;" width="3660" x="0" y="0"/><g class="title" data-source-line="17"><text fill="#000000" font-family="Verdana" font-size="22" font-weight="700" lengthAdjust="spacing" textLength="513.8418" x="1572.4798" y="35.4209">ResourceRequest &#8212; Phase State Machine</text></g><g class="entity" data-qualified-name="provisioning" data-source-line="26" id="ent0001"><path d="M916.86,414.6094 L1191.1493,414.6094 A4,4 0 0 1 1195.1493,418.6094 L1195.1493,440.9063 L912.86,440.9063 L912.86,418.6094 A4,4 0 0 1 916.86,414.6094" fill="#EEEDFE"/><path d="M912.86,440.9063 L1195.1493,440.9063 L1195.1493,707.69 A4,4 0 0 1 1191.1493,711.69 L916.86,711.69 A4,4 0 0 1 912.86,707.69 L912.86,440.9063" fill="#EEEDFE"/><rect fill="none" height="297.0806" rx="4" ry="4" style="stroke:#534AB7;stroke-width:1;" width="282.2893" x="912.86" y="414.6094"/><line style="stroke:#534AB7;stroke-width:1;" x1="912.86" x2="1195.1493" y1="440.9063" y2="440.9063"/><text fill="#3C3489" font-family="Verdana" font-size="14" lengthAdjust="spacing" textLength="85.6543" x="1011.1775" y="432.6045">provisioning</text><g class="entity" data-qualified-name="provisioning.applying" data-source-line="27" id="ent0002"><rect fill="#EEEDFE" height="52.5938" rx="4" ry="4" style="stroke:#534AB7;stroke-width:1;" width="126.5723" x="982.3" y="452.9063"/><line style="stroke:#534AB7;stroke-width:1;" x1="982.3" x2="1108.8723" y1="495.5" y2="495.5"/><text fill="#3C3489" font-family="Verdana" font-size="14" lengthAdjust="spacing" textLength="94.9102" x="992.3" y="470.9014">applying CRD</text><text fill="#3C3489" font-family="Verdana" font-size="14" lengthAdjust="spacing" textLength="106.5723" x="992.3" y="487.1982">target instance</text></g><g class="entity" data-qualified-name="provisioning.watching" data-source-line="28" id="ent0003"><rect fill="#EEEDFE" height="52.5938" rx="4" ry="4" style="stroke:#534AB7;stroke-width:1;" width="125.4443" x="924.86" y="542.4963"/><line style="stroke:#534AB7;stroke-width:1;" x1="924.86" x2="1050.3043" y1="585.09" y2="585.09"/><text fill="#3C3489" font-family="Verdana" font-size="14" lengthAdjust="spacing" textLength="87.4385" x="934.86" y="560.4914">watching for</text><text fill="#3C3489" font-family="Verdana" font-size="14" lengthAdjust="spacing" textLength="105.4443" x="934.86" y="576.7882">Ready / absent</text></g><g class="entity" data-qualified-name="provisioning.retrying" data-source-line="29" id="ent0004"><rect fill="#EEEDFE" height="52.5938" rx="4" ry="4" style="stroke:#534AB7;stroke-width:1;" width="82.6172" x="995.27" y="646.0963"/><line style="stroke:#534AB7;stroke-width:1;" x1="995.27" x2="1077.8872" y1="688.69" y2="688.69"/><text fill="#3C3489" font-family="Verdana" font-size="14" lengthAdjust="spacing" textLength="55.5488" x="1005.27" y="664.0914">retrying</text><text fill="#3C3489" font-family="Verdana" font-size="14" lengthAdjust="spacing" textLength="62.6172" x="1005.27" y="680.3882">(backoff)</text></g><!--link applying to watching--><g class="link" data-entity-1="ent0002" data-entity-2="ent0003" data-link-type="dependency" data-source-line="30" id="lnk17"><path d="M1028.81,505.5363 C1021.18,517.0563 1014.931,526.4977 1007.281,538.0477" fill="none" id="applying-to-watching" style="stroke:#737266;stroke-width:1;"/><polygon fill="#737266" points="1004.52,542.2163,1012.8246,536.9216,1007.281,538.0477,1006.1549,532.504,1004.52,542.2163" style="stroke:#737266;stroke-width:1;stroke-linejoin:miter;stroke-miterlimit:10;"/></g><!--link watching to retrying--><g class="link" data-entity-1="ent0003" data-entity-2="ent0004" data-link-type="dependency" data-source-line="31" id="lnk18"><path d="M977.8,595.5163 C975.35,606.0663 974.63,618.1163 979.58,628.0963 C983.23,635.4363 985.032,638.5668 991.272,644.0768" fill="none" id="watching-to-retrying" style="stroke:#737266;stroke-width:1;"/><polygon fill="#737266" points="995.02,647.3863,990.9213,638.4308,991.272,644.0768,985.6261,644.4275,995.02,647.3863" style="stroke:#737266;stroke-width:1;stroke-linejoin:miter;stroke-miterlimit:10;"/><text fill="#444444" font-family="Verdana" font-size="12" lengthAdjust="spacing" textLength="100.0137" x="980.58" y="625.2349">NotReady / error</text></g><!--link retrying to applying--><g class="link" data-entity-1="ent0004" data-entity-2="ent0002" data-link-type="dependency" data-source-line="32" id="lnk19"><path d="M1069.97,645.6363 C1074.69,640.3763 1078.87,634.4763 1081.58,628.0963 C1099.02,587.1263 1080.297,540.4042 1063.827,510.2542" fill="none" id="retrying-to-applying" style="stroke:#737266;stroke-width:1;"/><polygon fill="#737266" points="1061.43,505.8663,1062.2342,515.6822,1063.827,510.2542,1069.255,511.847,1061.43,505.8663" style="stroke:#737266;stroke-width:1;stroke-linejoin:miter;stroke-miterlimit:10;"/><text fill="#444444" font-family="Verdana" font-size="12" lengthAdjust="spacing" textLength="81.0293" x="1089.12" y="573.4349">retry attempt</text></g></g><g class="entity" data-qualified-name="rolling_back" data-source-line="39" id="ent0005"><path d="M956.68,804.6894 L1217.3293,804.6894 A4,4 0 0 1 1221.3293,808.6894 L1221.3293,830.9863 L952.68,830.9863 L952.68,808.6894 A4,4 0 0 1 956.68,804.6894" fill="#EEEDFE"/><path d="M952.68,830.9863 L1221.3293,830.9863 L1221.3293,1097.77 A4,4 0 0 1 1217.3293,1101.77 L956.68,1101.77 A4,4 0 0 1 952.68,1097.77 L952.68,830.9863" fill="#EEEDFE"/><rect fill="none" height="297.0806" rx="4" ry="4" style="stroke:#534AB7;stroke-width:1;" width="268.6493" x="952.68" y="804.6894"/><line style="stroke:#534AB7;stroke-width:1;" x1="952.68" x2="1221.3293" y1="830.9863" y2="830.9863"/><text fill="#3C3489" font-family="Verdana" font-size="14" lengthAdjust="spacing" textLength="84.0205" x="1044.9944" y="822.6845">rolling_back</text><g class="entity" data-qualified-name="rolling_back.reapply" data-source-line="40" id="ent0006"><rect fill="#EEEDFE" height="52.5938" rx="4" ry="4" style="stroke:#534AB7;stroke-width:1;" width="160.9229" x="995.94" y="842.9863"/><line style="stroke:#534AB7;stroke-width:1;" x1="995.94" x2="1156.8629" y1="885.58" y2="885.58"/><text fill="#3C3489" font-family="Verdana" font-size="14" lengthAdjust="spacing" textLength="79.5977" x="1005.94" y="860.9814">re-applying</text><text fill="#3C3489" font-family="Verdana" font-size="14" lengthAdjust="spacing" textLength="140.9229" x="1005.94" y="877.2782">previousParameters</text></g><g class="entity" data-qualified-name="rolling_back.rbwatch" data-source-line="41" id="ent0007"><rect fill="#EEEDFE" height="52.5938" rx="4" ry="4" style="stroke:#534AB7;stroke-width:1;" width="107.4385" x="964.68" y="932.5763"/><line style="stroke:#534AB7;stroke-width:1;" x1="964.68" x2="1072.1185" y1="975.17" y2="975.17"/><text fill="#3C3489" font-family="Verdana" font-size="14" lengthAdjust="spacing" textLength="87.4385" x="974.68" y="950.5714">watching for</text><text fill="#3C3489" font-family="Verdana" font-size="14" lengthAdjust="spacing" textLength="44.0918" x="974.68" y="966.8682">Ready</text></g><g class="entity" data-qualified-name="rolling_back.rbretry" data-source-line="42" id="ent0008"><rect fill="#EEEDFE" height="52.5938" rx="4" ry="4" style="stroke:#534AB7;stroke-width:1;" width="82.6172" x="1021.09" y="1036.1763"/><line style="stroke:#534AB7;stroke-width:1;" x1="1021.09" x2="1103.7072" y1="1078.77" y2="1078.77"/><text fill="#3C3489" font-family="Verdana" font-size="14" lengthAdjust="spacing" textLength="55.5488" x="1031.09" y="1054.1714">retrying</text><text fill="#3C3489" font-family="Verdana" font-size="14" lengthAdjust="spacing" textLength="62.6172" x="1031.09" y="1070.4682">(backoff)</text></g><!--link reapply to rbwatch--><g class="link" data-entity-1="ent0006" data-entity-2="ent0007" data-link-type="dependency" data-source-line="43" id="lnk23"><path d="M1059.62,895.6163 C1052,907.1363 1045.751,916.5777 1038.101,928.1277" fill="none" id="reapply-to-rbwatch" style="stroke:#737266;stroke-width:1;"/><polygon fill="#737266" points="1035.34,932.2963,1043.6446,927.0016,1038.101,928.1277,1036.9749,922.584,1035.34,932.2963" style="stroke:#737266;stroke-width:1;stroke-linejoin:miter;stroke-miterlimit:10;"/></g><!--link rbwatch to rbretry--><g class="link" data-entity-1="ent0007" data-entity-2="ent0008" data-link-type="dependency" data-source-line="44" id="lnk24"><path d="M1005.49,985.4463 C1001.99,995.9762 1000.38,1008.0463 1005.4,1018.1763 C1009.04,1025.5163 1010.852,1028.6468 1017.092,1034.1568" fill="none" id="rbwatch-to-rbretry" style="stroke:#737266;stroke-width:1;"/><polygon fill="#737266" points="1020.84,1037.4663,1016.7413,1028.5108,1017.092,1034.1568,1011.4461,1034.5075,1020.84,1037.4663" style="stroke:#737266;stroke-width:1;stroke-linejoin:miter;stroke-miterlimit:10;"/><text fill="#444444" font-family="Verdana" font-size="12" lengthAdjust="spacing" textLength="100.0137" x="1006.4" y="1015.3149">NotReady / error</text></g><!--link rbretry to reapply--><g class="link" data-entity-1="ent0008" data-entity-2="ent0006" data-link-type="dependency" data-source-line="45" id="lnk25"><path d="M1095.78,1035.7163 C1100.51,1030.4563 1104.68,1024.5563 1107.4,1018.1763 C1124.71,977.4963 1108.0153,930.7787 1093.0653,900.5287" fill="none" id="rbretry-to-reapply" style="stroke:#737266;stroke-width:1;"/><polygon fill="#737266" points="1090.85,896.0463,1091.2516,905.8869,1093.0653,900.5287,1098.4235,902.3424,1090.85,896.0463" style="stroke:#737266;stroke-width:1;stroke-linejoin:miter;stroke-miterlimit:10;"/><text fill="#444444" font-family="Verdana" font-size="12" lengthAdjust="spacing" textLength="81.0293" x="1115.3" y="963.5149">retry attempt</text></g></g><g class="start_entity" data-qualified-name=".start." data-source-line="19" id="ent0009"><ellipse cx="548" cy="67.6094" fill="#FFFFFF" rx="10" ry="10" style="stroke:#000000;stroke-width:1;"/></g><g class="entity" data-qualified-name="pending" data-source-line="19" id="ent0010"><rect fill="#EEEDFE" height="50" rx="4" ry="4" style="stroke:#534AB7;stroke-width:1;" width="76.9092" x="509.55" y="156.6094"/><line style="stroke:#534AB7;stroke-width:1;" x1="509.55" x2="586.4592" y1="182.9063" y2="182.9063"/><text fill="#3C3489" font-family="Verdana" font-size="14" lengthAdjust="spacing" textLength="56.9092" x="519.55" y="174.6045">pending</text></g><g class="entity" data-qualified-name="approved" data-source-line="21" id="ent0012"><rect fill="#EEEDFE" height="50" rx="4" ry="4" style="stroke:#534AB7;stroke-width:1;" width="86.459" x="955.77" y="285.6094"/><line style="stroke:#534AB7;stroke-width:1;" x1="955.77" x2="1042.229" y1="311.9063" y2="311.9063"/><text fill="#3C3489" font-family="Verdana" font-size="14" lengthAdjust="spacing" textLength="66.459" x="965.77" y="303.6045">approved</text></g><g class="entity" data-qualified-name="rejected" data-source-line="22" id="ent0014"><rect fill="#EEEDFE" height="50" rx="4" ry="4" style="stroke:#534AB7;stroke-width:1;" width="77.5586" x="147.22" y="285.6094"/><line style="stroke:#534AB7;stroke-width:1;" x1="147.22" x2="224.7786" y1="311.9063" y2="311.9063"/><text fill="#3C3489" font-family="Verdana" font-size="14" lengthAdjust="spacing" textLength="57.5586" x="157.22" y="303.6045">rejected</text></g><g class="entity" data-qualified-name="provisioned" data-source-line="35" id="ent0020"><rect fill="#EEEDFE" height="50" rx="4" ry="4" style="stroke:#534AB7;stroke-width:1;" width="101.5049" x="94.25" y="928.2294"/><line style="stroke:#534AB7;stroke-width:1;" x1="94.25" x2="195.7549" y1="954.5263" y2="954.5263"/><text fill="#3C3489" font-family="Verdana" font-size="14" lengthAdjust="spacing" textLength="81.5049" x="104.25" y="946.2245">provisioned</text></g><g class="entity" data-qualified-name="failed" data-source-line="52" id="ent0026"><rect fill="#EEEDFE" height="50" rx="4" ry="4" style="stroke:#534AB7;stroke-width:1;" width="58.7871" x="2010.61" y="1194.7694"/><line style="stroke:#534AB7;stroke-width:1;" x1="2010.61" x2="2069.3971" y1="1221.0663" y2="1221.0663"/><text fill="#3C3489" font-family="Verdana" font-size="14" lengthAdjust="spacing" textLength="38.7871" x="2020.61" y="1212.7645">failed</text></g><g class="entity" data-qualified-name="rollback_failed" data-source-line="54" id="ent0028"><rect fill="#EEEDFE" height="50" rx="4" ry="4" style="stroke:#534AB7;stroke-width:1;" width="121.1582" x="228.42" y="1194.7694"/><line style="stroke:#534AB7;stroke-width:1;" x1="228.42" x2="349.5782" y1="1221.0663" y2="1221.0663"/><text fill="#3C3489" font-family="Verdana" font-size="14" lengthAdjust="spacing" textLength="101.1582" x="238.42" y="1212.7645">rollback_failed</text></g><g class="end_entity" data-qualified-name=".end." data-source-line="74" id="ent0031"><ellipse cx="196" cy="1306.7694" fill="none" rx="11" ry="11" style="stroke:#000000;stroke-width:1;"/><ellipse cx="196" cy="1306.7694" fill="#FFFFFF" rx="6" ry="6" style="stroke:#000000;stroke-width:1;"/></g><g class="entity" data-qualified-name="GMN36" data-source-line="49" id="ent0037"><path d="M1276.64,944.6594 L1276.64,949.2294 L1221.55,953.2294 L1276.64,957.2294 L1276.64,961.7922 A4,4 0 0 0 1280.64,965.7922 L2115.3631,965.7922 A4,4 0 0 0 2119.3631,961.7922 L2119.3631,950.6594 L2109.3631,940.6594 L1280.64,940.6594 A4,4 0 0 0 1276.64,944.6594" fill="#FFFFFF" style="stroke:#000000;stroke-width:1;"/><path d="M2109.3631,940.6594 L2109.3631,948.6594 A2,2 0 0 0 2111.3631,950.6594 L2119.3631,950.6594 L2109.3631,940.6594" fill="#FFFFFF" style="stroke:#000000;stroke-width:1;"/><text fill="#000000" font-family="Verdana" font-size="13" lengthAdjust="spacing" textLength="821.7231" x="1282.64" y="957.7263">Visible to End User in the portal.\nstatus.phase = rolling_back.\nProvisionedResource retains\nappliedParameters throughout.</text></g><g class="entity" data-qualified-name="GMN39" data-source-line="59" id="ent0040"><path d="M279.55,302.0394 L279.55,306.6094 L225.02,310.6094 L279.55,314.6094 L279.55,319.1722 A4,4 0 0 0 283.55,323.1722 L808.4567,323.1722 A4,4 0 0 0 812.4567,319.1722 L812.4567,308.0394 L802.4567,298.0394 L283.55,298.0394 A4,4 0 0 0 279.55,302.0394" fill="#FFFFFF" style="stroke:#000000;stroke-width:1;"/><path d="M802.4567,298.0394 L802.4567,306.0394 A2,2 0 0 0 804.4567,308.0394 L812.4567,308.0394 L802.4567,298.0394" fill="#FFFFFF" style="stroke:#000000;stroke-width:1;"/><text fill="#000000" font-family="Verdana" font-size="13" lengthAdjust="spacing" textLength="511.9067" x="285.55" y="315.1063">Terminal.\nProvisionedResource unchanged (update)\nor not created (create).</text></g><g class="entity" data-qualified-name="GMN42" data-source-line="63" id="ent0043"><path d="M250.72,944.6594 L250.72,949.2294 L196.11,953.2294 L250.72,957.2294 L250.72,961.7922 A4,4 0 0 0 254.72,965.7922 L893.2879,965.7922 A4,4 0 0 0 897.2879,961.7922 L897.2879,950.6594 L887.2879,940.6594 L254.72,940.6594 A4,4 0 0 0 250.72,944.6594" fill="#FFFFFF" style="stroke:#000000;stroke-width:1;"/><path d="M887.2879,940.6594 L887.2879,948.6594 A2,2 0 0 0 889.2879,950.6594 L897.2879,950.6594 L887.2879,940.6594" fill="#FFFFFF" style="stroke:#000000;stroke-width:1;"/><text fill="#000000" font-family="Verdana" font-size="13" lengthAdjust="spacing" textLength="625.5679" x="256.72" y="957.7263">Terminal.\nProvisionedResource written or\nfinalizer removed (delete).\nEmail notification sent.</text></g><g class="entity" data-qualified-name="GMN45" data-source-line="67" id="ent0046"><path d="M2124.19,1211.1994 L2124.19,1215.7694 L2069.71,1219.7694 L2124.19,1223.7694 L2124.19,1228.3322 A4,4 0 0 0 2128.19,1232.3322 L3641.8013,1232.3322 A4,4 0 0 0 3645.8013,1228.3322 L3645.8013,1217.1994 L3635.8013,1207.1994 L2128.19,1207.1994 A4,4 0 0 0 2124.19,1211.1994" fill="#FFFFFF" style="stroke:#000000;stroke-width:1;"/><path d="M3635.8013,1207.1994 L3635.8013,1215.1994 A2,2 0 0 0 3637.8013,1217.1994 L3645.8013,1217.1994 L3635.8013,1207.1994" fill="#FFFFFF" style="stroke:#000000;stroke-width:1;"/><text fill="#000000" font-family="Verdana" font-size="13" lengthAdjust="spacing" textLength="1500.6113" x="2130.19" y="1224.2663">Terminal &#8212; failureReason written.\ncreate: ProvisionedResource not created.\nupdate: ProvisionedResource unchanged\n(previousParameters still operational).\ndelete: CRD target instance may still exist.\nEmail notification sent.</text></g><g class="entity" data-qualified-name="GMN48" data-source-line="71" id="ent0049"><path d="M404.45,1211.1994 L404.45,1215.7694 L349.91,1219.7694 L404.45,1223.7694 L404.45,1228.3322 A4,4 0 0 0 408.45,1232.3322 L1951.5462,1232.3322 A4,4 0 0 0 1955.5462,1228.3322 L1955.5462,1217.1994 L1945.5462,1207.1994 L408.45,1207.1994 A4,4 0 0 0 404.45,1211.1994" fill="#FFFFFF" style="stroke:#000000;stroke-width:1;"/><path d="M1945.5462,1207.1994 L1945.5462,1215.1994 A2,2 0 0 0 1947.5462,1217.1994 L1955.5462,1217.1994 L1945.5462,1207.1994" fill="#FFFFFF" style="stroke:#000000;stroke-width:1;"/><text fill="#000000" font-family="Verdana" font-size="13" lengthAdjust="spacing" textLength="1530.0962" x="410.45" y="1224.2663">Terminal &#8212; failureReason written.\nCluster state unknown: CRD target\ninstance may be in a partially\nupdated state. Manual intervention\nrequired. Health Observer will detect\nand surface degraded status.\nEmail notification sent.</text></g><!--link *start* to pending--><g class="link" data-entity-1="ent0009" data-entity-2="ent0010" data-link-type="dependency" data-source-line="19" id="lnk11"><path d="M548,77.7694 C548,94.8094 548,126.8394 548,151.4994" fill="none" id="*start*-to-pending" style="stroke:#737266;stroke-width:1;"/><polygon fill="#737266" points="548,156.4994,552,147.4994,548,151.4994,544,147.4994,548,156.4994" style="stroke:#737266;stroke-width:1;stroke-linejoin:miter;stroke-miterlimit:10;"/><text fill="#444444" font-family="Verdana" font-size="12" lengthAdjust="spacing" textLength="211.4766" x="549" y="114.748">Web App creates ResourceRequest</text><text fill="#444444" font-family="Verdana" font-size="12" lengthAdjust="spacing" textLength="195.9434" x="556.7666" y="128.7168">(action: create | update | delete)</text></g><!--link pending to approved--><g class="link" data-entity-1="ent0010" data-entity-2="ent0012" data-link-type="dependency" data-source-line="21" id="lnk13"><path d="M586.84,193.5494 C670.6,217.1294 862.8872,271.2842 950.6772,296.0042" fill="none" id="pending-to-approved" style="stroke:#737266;stroke-width:1;"/><polygon fill="#737266" points="955.49,297.3594,947.9111,291.0697,950.6772,296.0042,945.7427,298.7703,955.49,297.3594" style="stroke:#737266;stroke-width:1;stroke-linejoin:miter;stroke-miterlimit:10;"/><text fill="#444444" font-family="Verdana" font-size="12" lengthAdjust="spacing" textLength="147.5625" x="822.8717" y="243.748">Controller &#8212; all required</text><text fill="#444444" font-family="Verdana" font-size="12" lengthAdjust="spacing" textLength="163.5059" x="814.9" y="257.7168">approver decisions present</text></g><!--link pending to rejected--><g class="link" data-entity-1="ent0010" data-entity-2="ent0014" data-link-type="dependency" data-source-line="22" id="lnk15"><path d="M509.15,195.9294 C452.52,215.3994 344.02,252.8694 252,285.6094 C243.27,288.7094 238.6093,290.3815 229.7493,293.6015" fill="none" id="pending-to-rejected" style="stroke:#737266;stroke-width:1;"/><polygon fill="#737266" points="225.05,295.3094,234.875,295.9946,229.7493,293.6015,232.1424,288.4758,225.05,295.3094" style="stroke:#737266;stroke-width:1;stroke-linejoin:miter;stroke-miterlimit:10;"/><text fill="#444444" font-family="Verdana" font-size="12" lengthAdjust="spacing" textLength="131.5371" x="406.25" y="243.748">Controller &#8212; rejection</text><text fill="#444444" font-family="Verdana" font-size="12" lengthAdjust="spacing" textLength="107.0859" x="418.4756" y="257.7168">decision recorded</text></g><!--link approved to provisioning--><g class="link" data-entity-1="ent0012" data-entity-2="ent0001" data-link-type="dependency" data-source-line="24" id="lnk16"><path d="M1004.37,336.0894 C1008.59,355.2994 1013.7676,378.9057 1020.4276,409.2357" fill="none" id="approved-to-provisioning" style="stroke:#737266;stroke-width:1;"/><polygon fill="#737266" points="1021.5,414.1194,1023.4766,404.4709,1020.4276,409.2357,1015.6628,406.1867,1021.5,414.1194" style="stroke:#737266;stroke-width:1;stroke-linejoin:miter;stroke-miterlimit:10;"/><text fill="#444444" font-family="Verdana" font-size="12" lengthAdjust="spacing" textLength="118.7285" x="1025.3467" y="372.748">Controller &#8212; begins</text><text fill="#444444" font-family="Verdana" font-size="12" lengthAdjust="spacing" textLength="136.9219" x="1016.25" y="386.7168">apply on target cluster</text></g><!--link provisioning to provisioned--><g class="link" data-entity-1="ent0001" data-entity-2="ent0020" data-link-type="dependency" data-source-line="35" id="lnk21"><path d="M912.53,571.8494 C733.63,588.4094 424.68,640.5594 223,804.6894 C183.22,837.0594 162.5941,890.4094 152.7741,923.2094" fill="none" id="provisioning-to-provisioned" style="stroke:#737266;stroke-width:1;"/><polygon fill="#737266" points="151.34,927.9994,157.7533,920.5247,152.7741,923.2094,150.0894,918.2302,151.34,927.9994" style="stroke:#737266;stroke-width:1;stroke-linejoin:miter;stroke-miterlimit:10;"/><text fill="#444444" font-family="Verdana" font-size="12" lengthAdjust="spacing" textLength="75.1055" x="382.273" y="748.828">Controller &#8212;</text><text fill="#444444" font-family="Verdana" font-size="12" lengthAdjust="spacing" textLength="200.1914" x="319.73" y="762.7968">Ready confirmed (create/update)</text><text fill="#444444" font-family="Verdana" font-size="12" lengthAdjust="spacing" textLength="172.5293" x="333.5611" y="776.7655">or absent confirmed (delete)</text></g><!--link provisioning to rolling_back--><g class="link" data-entity-1="ent0001" data-entity-2="ent0005" data-link-type="dependency" data-source-line="37" id="lnk22"><path d="M1066.57,711.9694 C1069.15,742.2794 1071.4359,769.2074 1074.0159,799.5174" fill="none" id="provisioning-to-rolling_back" style="stroke:#737266;stroke-width:1;"/><polygon fill="#737266" points="1074.44,804.4994,1077.6623,795.1925,1074.0159,799.5174,1069.6911,795.8711,1074.44,804.4994" style="stroke:#737266;stroke-width:1;stroke-linejoin:miter;stroke-miterlimit:10;"/><text fill="#444444" font-family="Verdana" font-size="12" lengthAdjust="spacing" textLength="75.1055" x="1130.1375" y="755.828">Controller &#8212;</text><text fill="#444444" font-family="Verdana" font-size="12" lengthAdjust="spacing" textLength="190.4004" x="1072.49" y="769.7968">retries exhausted (update only)</text></g><!--link rolling_back to failed--><g class="link" data-entity-1="ent0005" data-entity-2="ent0026" data-link-type="dependency" data-source-line="52" id="lnk27"><path d="M1221.59,1086.8594 C1230.51,1092.4294 1239.67,1097.4694 1249,1101.7694 C1547.57,1239.5594 1665.41,1109.5094 1983,1194.7694 C1992.13,1197.2194 1997.1063,1198.8684 2005.7663,1202.5384" fill="none" id="rolling_back-to-failed" style="stroke:#737266;stroke-width:1;"/><polygon fill="#737266" points="2010.37,1204.4894,2003.6442,1197.2947,2005.7663,1202.5384,2000.5226,1204.6606,2010.37,1204.4894" style="stroke:#737266;stroke-width:1;stroke-linejoin:miter;stroke-miterlimit:10;"/><text fill="#444444" font-family="Verdana" font-size="12" lengthAdjust="spacing" textLength="75.1055" x="1887.3693" y="1138.908">Controller &#8212;</text><text fill="#444444" font-family="Verdana" font-size="12" lengthAdjust="spacing" textLength="159.1641" x="1845.34" y="1152.8768">pre-update state restored;</text><text fill="#444444" font-family="Verdana" font-size="12" lengthAdjust="spacing" textLength="111.2871" x="1869.2785" y="1166.8455">phase set to failed</text></g><!--link rolling_back to rollback_failed--><g class="link" data-entity-1="ent0005" data-entity-2="ent0028" data-link-type="dependency" data-source-line="54" id="lnk29"><path d="M952.19,1086.3894 C943.32,1092.0794 934.23,1097.2694 925,1101.7694 C702.92,1209.9794 618.23,1141.5394 377,1194.7694 C368.19,1196.7094 363.7682,1197.7177 354.7182,1200.0777" fill="none" id="rolling_back-to-rollback_failed" style="stroke:#737266;stroke-width:1;"/><polygon fill="#737266" points="349.88,1201.3394,359.5981,1202.9389,354.7182,1200.0777,357.5794,1195.1978,349.88,1201.3394" style="stroke:#737266;stroke-width:1;stroke-linejoin:miter;stroke-miterlimit:10;"/><text fill="#444444" font-family="Verdana" font-size="12" lengthAdjust="spacing" textLength="75.1055" x="906.1785" y="1138.908">Controller &#8212;</text><text fill="#444444" font-family="Verdana" font-size="12" lengthAdjust="spacing" textLength="161.0625" x="863.2" y="1152.8768">rollback retries exhausted;</text><text fill="#444444" font-family="Verdana" font-size="12" lengthAdjust="spacing" textLength="133.3652" x="877.0486" y="1166.8455">cluster state unknown</text></g><!--link provisioning to failed--><g class="link" data-entity-1="ent0001" data-entity-2="ent0026" data-link-type="dependency" data-source-line="56" id="lnk30"><path d="M1195.53,573.8794 C1463.58,595.5594 2029.07,657.9894 2147,804.6894 C2229.72,907.5994 2194.79,978.6894 2147,1101.7694 C2131.61,1141.4094 2099.7037,1172.6702 2073.7437,1193.7202" fill="none" id="provisioning-to-failed" style="stroke:#737266;stroke-width:1;"/><polygon fill="#737266" points="2069.86,1196.8694,2079.3699,1194.3079,2073.7437,1193.7202,2074.3313,1188.094,2069.86,1196.8694" style="stroke:#737266;stroke-width:1;stroke-linejoin:miter;stroke-miterlimit:10;"/><text fill="#444444" font-family="Verdana" font-size="12" lengthAdjust="spacing" textLength="75.1055" x="2213.1093" y="943.868">Controller &#8212;</text><text fill="#444444" font-family="Verdana" font-size="12" lengthAdjust="spacing" textLength="105.7441" x="2197.79" y="957.8368">retries exhausted</text><text fill="#444444" font-family="Verdana" font-size="12" lengthAdjust="spacing" textLength="97.1953" x="2202.0644" y="971.8055">(create / delete)</text></g><!--link provisioned to *end*--><g class="link" data-entity-1="ent0020" data-entity-2="ent0031" data-link-type="dependency" data-source-line="74" id="lnk32"><path d="M148.55,978.6694 C158.71,1048.7394 186.9413,1243.3713 193.8113,1290.6713" fill="none" id="provisioned-to-*end*" style="stroke:#737266;stroke-width:1;"/><polygon fill="#737266" points="194.53,1295.6194,197.1949,1286.1379,193.8113,1290.6713,189.2779,1287.2878,194.53,1295.6194" style="stroke:#737266;stroke-width:1;stroke-linejoin:miter;stroke-miterlimit:10;"/></g><!--link rejected to *end*--><g class="link" data-entity-1="ent0014" data-entity-2="ent0031" data-link-type="dependency" data-source-line="75" id="lnk33"><path d="M153.08,336.0794 C102.39,376.8594 11,463.9894 11,562.1494 C11,562.1494 11,562.1494 11,1220.7694 C11,1297.6494 139.5405,1305.1809 179.7105,1305.7309" fill="none" id="rejected-to-*end*" style="stroke:#737266;stroke-width:1;"/><polygon fill="#737266" points="184.71,1305.7994,175.7656,1301.6765,179.7105,1305.7309,175.6561,1309.6758,184.71,1305.7994" style="stroke:#737266;stroke-width:1;stroke-linejoin:miter;stroke-miterlimit:10;"/></g><!--link failed to *end*--><g class="link" data-entity-1="ent0026" data-entity-2="ent0031" data-link-type="dependency" data-source-line="76" id="lnk34"><path d="M2010.2,1235.7194 C2001.63,1239.3494 1992.12,1242.7594 1983,1244.7694 C1798.43,1285.3294 353.2296,1303.8585 212.0496,1305.5785" fill="none" id="failed-to-*end*" style="stroke:#737266;stroke-width:1;"/><polygon fill="#737266" points="207.05,1305.6394,216.0981,1309.5294,212.0496,1305.5785,216.0006,1301.53,207.05,1305.6394" style="stroke:#737266;stroke-width:1;stroke-linejoin:miter;stroke-miterlimit:10;"/></g><!--link rollback_failed to *end*--><g class="link" data-entity-1="ent0028" data-entity-2="ent0031" data-link-type="dependency" data-source-line="77" id="lnk35"><path d="M262.6,1244.8994 C242.62,1263.1594 220.2121,1283.6477 207.4221,1295.3277" fill="none" id="rollback_failed-to-*end*" style="stroke:#737266;stroke-width:1;"/><polygon fill="#737266" points="203.73,1298.6994,213.0732,1295.584,207.4221,1295.3277,207.6785,1289.6766,203.73,1298.6994" style="stroke:#737266;stroke-width:1;stroke-linejoin:miter;stroke-miterlimit:10;"/></g><?plantuml-src dLRDRjms4BxhAQRf9Ll0QoUsOzT52pYRDN9fQpXDUgYAW2lDIgorf4fItcpJ0ds8F66Uf3CafPLa6J6glMXdXj_yV3D3VULAt23KbP0giRTIrSA83Qn4TbiOtQXyeIjjuEkhI_xrBAmJ3k5Z0lIy75ilbyjNLykWqoP74-MdnoUNBy-y_4eh5wN7Y-EJys-zzD8OlOtYi-EpvozUxCMz4oV-6QhUoByGdZttmZTEcDRswFpqwEIP5o-x0AFmdrv2FlvC6uK6pdjofNEqMCFfQTzOg5ilF4eI9rs5S8DMDoR36_opGUlWyx-VuBeK5ZaOgjIF8YkbmYJvxPlVuU3W1wXHvL8LS06_uWekwneoWsHfnr2fUYeo9xMwY1RmDpHr7bvohD3XB4bQE8OMTMtq7UP0u0igZT5LHLbnIAAgm12kD9YdAXeQWica9HSMQaFPAZV0C_W7PcuIBwZePAfQ399bJ7gU95qWFc5wzGOXwn7G2Wkfh0-fsW6X48K5EiYgnZeqIH8QRW0IkYyedlY3B5tSl4fLF4sGJgWCdu2mq5hqJss5OruAM6kJgXiK-GuEGQou1lvGQz0_PD0P1Y9cU53qUZtpjgtSstRnSEu3bCvdg6quGnNvIRis0AIkDjwuqqTYgsZivI2Smqtjg96JGMK6zQRwZylTffffjPPcGnPFGsyTXiwQfOh699IXRxHljx4tngRtzroG2NSShgJUnW-bO489A_QmLjLkrj8xGFauhFb1ctsgg4dlf6xiDGyZ1MHihByt-GA_mNJbDOzYTUKraOtGdpxZ7aHyZ_B0pKE4HdKWFy1DqAaqbqCMfGEz7jI5KDvHwLUqT9pcdGPlBPLPqiYKD23QE57DKsvyrzXvxNVGzmC4qbxlcwDTDno3w6PGOhwlBY7JUYnAtRXvGei1EBea6R35-Qo5h7XDXET-5n1l1v7so3VjDqshw3lI-K0j3Irb5O0cFB20_xoFhYOwBLh0lPOZ9t6RHE-DkbLwgoQw-M7qCIXrIzpAX_jbF28lhayYxXSq6wayFrCCD2ehXIhsqn7caE3Ywk_cTDRdOUYkD_TVzhWradfE0K_7ckte5ZKKySQlxNRUwV1oGoLXVt8jCy4R7tWvF1n6f70VWL_pB6qCNMt24aBqJl0XgmkOYh6NFbc6manRTlKZLkxl269TqlMdQpG-0L5nOY752xusO7Hhm4RiuY7y8AtxFsKODUnZwx6OQjH-aAaQHBb2NW02wFF4IRhaTssXyW0nfmyGrP1JgGZsZaBsTtRxAJ27roWgLyBFjF8DVn5iEUkSAfEHAq79sSQi1NdBiJ0YZxYqO1vLa_vTv1yUCleIIlQV5Z1K35T9_yHe0tIA_m00?></g></svg>