<svg xmlns="http://www.w3.org/2000/svg" xmlns:xlink="http://www.w3.org/1999/xlink" contentStyleType="text/css" data-diagram-type="STATE" height="1331px" preserveAspectRatio="none" style="width:2627px;height:1331px;background:#FAFAFA;" version="1.1" viewBox="0 0 2627 1331" width="2627px" zoomAndPan="magnify"><?plantuml 1.2026.4?><defs/><g><rect fill="#FAFAFA" height="1331" style="stroke:none;stroke-width:1;" width="2627" x="0" y="0"/><g class="title" data-source-line="17"><text fill="#000000" font-family="Verdana" font-size="22" font-weight="700" lengthAdjust="spacing" textLength="513.8418" x="1055.9798" y="35.4209">ResourceRequest &#8212; Phase State Machine</text></g><g class="entity" data-qualified-name="provisioning" data-source-line="26" id="ent0001"><path d="M852.86,414.6094 L1127.1493,414.6094 A4,4 0 0 1 1131.1493,418.6094 L1131.1493,440.9063 L848.86,440.9063 L848.86,418.6094 A4,4 0 0 1 852.86,414.6094" fill="#EEEDFE"/><path d="M848.86,440.9063 L1131.1493,440.9063 L1131.1493,707.69 A4,4 0 0 1 1127.1493,711.69 L852.86,711.69 A4,4 0 0 1 848.86,707.69 L848.86,440.9063" fill="#EEEDFE"/><rect fill="none" height="297.0806" rx="4" ry="4" style="stroke:#534AB7;stroke-width:1;" width="282.2893" x="848.86" y="414.6094"/><line style="stroke:#534AB7;stroke-width:1;" x1="848.86" x2="1131.1493" y1="440.9063" y2="440.9063"/><text fill="#3C3489" font-family="Verdana" font-size="14" lengthAdjust="spacing" textLength="85.6543" x="947.1775" y="432.6045">provisioning</text><g class="entity" data-qualified-name="provisioning.applying" data-source-line="27" id="ent0002"><rect fill="#EEEDFE" height="52.5938" rx="4" ry="4" style="stroke:#534AB7;stroke-width:1;" width="126.5723" x="918.3" y="452.9063"/><line style="stroke:#534AB7;stroke-width:1;" x1="918.3" x2="1044.8723" y1="495.5" y2="495.5"/><text fill="#3C3489" font-family="Verdana" font-size="14" lengthAdjust="spacing" textLength="94.9102" x="928.3" y="470.9014">applying CRD</text><text fill="#3C3489" font-family="Verdana" font-size="14" lengthAdjust="spacing" textLength="106.5723" x="928.3" y="487.1982">target instance</text></g><g class="entity" data-qualified-name="provisioning.watching" data-source-line="28" id="ent0003"><rect fill="#EEEDFE" height="52.5938" rx="4" ry="4" style="stroke:#534AB7;stroke-width:1;" width="125.4443" x="860.86" y="542.4963"/><line style="stroke:#534AB7;stroke-width:1;" x1="860.86" x2="986.3043" y1="585.09" y2="585.09"/><text fill="#3C3489" font-family="Verdana" font-size="14" lengthAdjust="spacing" textLength="87.4385" x="870.86" y="560.4914">watching for</text><text fill="#3C3489" font-family="Verdana" font-size="14" lengthAdjust="spacing" textLength="105.4443" x="870.86" y="576.7882">Ready / absent</text></g><g class="entity" data-qualified-name="provisioning.retrying" data-source-line="29" id="ent0004"><rect fill="#EEEDFE" height="52.5938" rx="4" ry="4" style="stroke:#534AB7;stroke-width:1;" width="82.6172" x="931.27" y="646.0963"/><line style="stroke:#534AB7;stroke-width:1;" x1="931.27" x2="1013.8872" y1="688.69" y2="688.69"/><text fill="#3C3489" font-family="Verdana" font-size="14" lengthAdjust="spacing" textLength="55.5488" x="941.27" y="664.0914">retrying</text><text fill="#3C3489" font-family="Verdana" font-size="14" lengthAdjust="spacing" textLength="62.6172" x="941.27" y="680.3882">(backoff)</text></g><!--link applying to watching--><g class="link" data-entity-1="ent0002" data-entity-2="ent0003" data-link-type="dependency" data-source-line="30" id="lnk17"><path d="M964.81,505.5363 C957.18,517.0563 950.931,526.4977 943.281,538.0477" fill="none" id="applying-to-watching" style="stroke:#737266;stroke-width:1;"/><polygon fill="#737266" points="940.52,542.2163,948.8246,536.9216,943.281,538.0477,942.1549,532.504,940.52,542.2163" style="stroke:#737266;stroke-width:1;stroke-linejoin:miter;stroke-miterlimit:10;"/></g><!--link watching to retrying--><g class="link" data-entity-1="ent0003" data-entity-2="ent0004" data-link-type="dependency" data-source-line="31" id="lnk18"><path d="M913.8,595.5163 C911.35,606.0663 910.63,618.1163 915.58,628.0963 C919.23,635.4363 921.032,638.5668 927.272,644.0768" fill="none" id="watching-to-retrying" style="stroke:#737266;stroke-width:1;"/><polygon fill="#737266" points="931.02,647.3863,926.9213,638.4308,927.272,644.0768,921.6261,644.4275,931.02,647.3863" style="stroke:#737266;stroke-width:1;stroke-linejoin:miter;stroke-miterlimit:10;"/><text fill="#444444" font-family="Verdana" font-size="12" lengthAdjust="spacing" textLength="100.0137" x="916.58" y="625.2349">NotReady / error</text></g><!--link retrying to applying--><g class="link" data-entity-1="ent0004" data-entity-2="ent0002" data-link-type="dependency" data-source-line="32" id="lnk19"><path d="M1005.97,645.6363 C1010.69,640.3763 1014.87,634.4763 1017.58,628.0963 C1035.02,587.1263 1016.297,540.4042 999.827,510.2542" fill="none" id="retrying-to-applying" style="stroke:#737266;stroke-width:1;"/><polygon fill="#737266" points="997.43,505.8663,998.2342,515.6822,999.827,510.2542,1005.255,511.847,997.43,505.8663" style="stroke:#737266;stroke-width:1;stroke-linejoin:miter;stroke-miterlimit:10;"/><text fill="#444444" font-family="Verdana" font-size="12" lengthAdjust="spacing" textLength="81.0293" x="1025.12" y="573.4349">retry attempt</text></g></g><g class="entity" data-qualified-name="rolling_back" data-source-line="39" id="ent0005"><path d="M1172.68,804.6894 L1433.3293,804.6894 A4,4 0 0 1 1437.3293,808.6894 L1437.3293,830.9863 L1168.68,830.9863 L1168.68,808.6894 A4,4 0 0 1 1172.68,804.6894" fill="#EEEDFE"/><path d="M1168.68,830.9863 L1437.3293,830.9863 L1437.3293,1097.77 A4,4 0 0 1 1433.3293,1101.77 L1172.68,1101.77 A4,4 0 0 1 1168.68,1097.77 L1168.68,830.9863" fill="#EEEDFE"/><rect fill="none" height="297.0806" rx="4" ry="4" style="stroke:#534AB7;stroke-width:1;" width="268.6493" x="1168.68" y="804.6894"/><line style="stroke:#534AB7;stroke-width:1;" x1="1168.68" x2="1437.3293" y1="830.9863" y2="830.9863"/><text fill="#3C3489" font-family="Verdana" font-size="14" lengthAdjust="spacing" textLength="84.0205" x="1260.9944" y="822.6845">rolling_back</text><g class="entity" data-qualified-name="rolling_back.reapply" data-source-line="40" id="ent0006"><rect fill="#EEEDFE" height="52.5938" rx="4" ry="4" style="stroke:#534AB7;stroke-width:1;" width="160.9229" x="1211.94" y="842.9863"/><line style="stroke:#534AB7;stroke-width:1;" x1="1211.94" x2="1372.8629" y1="885.58" y2="885.58"/><text fill="#3C3489" font-family="Verdana" font-size="14" lengthAdjust="spacing" textLength="79.5977" x="1221.94" y="860.9814">re-applying</text><text fill="#3C3489" font-family="Verdana" font-size="14" lengthAdjust="spacing" textLength="140.9229" x="1221.94" y="877.2782">previousParameters</text></g><g class="entity" data-qualified-name="rolling_back.rbwatch" data-source-line="41" id="ent0007"><rect fill="#EEEDFE" height="52.5938" rx="4" ry="4" style="stroke:#534AB7;stroke-width:1;" width="107.4385" x="1180.68" y="932.5763"/><line style="stroke:#534AB7;stroke-width:1;" x1="1180.68" x2="1288.1185" y1="975.17" y2="975.17"/><text fill="#3C3489" font-family="Verdana" font-size="14" lengthAdjust="spacing" textLength="87.4385" x="1190.68" y="950.5714">watching for</text><text fill="#3C3489" font-family="Verdana" font-size="14" lengthAdjust="spacing" textLength="44.0918" x="1190.68" y="966.8682">Ready</text></g><g class="entity" data-qualified-name="rolling_back.rbretry" data-source-line="42" id="ent0008"><rect fill="#EEEDFE" height="52.5938" rx="4" ry="4" style="stroke:#534AB7;stroke-width:1;" width="82.6172" x="1237.09" y="1036.1763"/><line style="stroke:#534AB7;stroke-width:1;" x1="1237.09" x2="1319.7072" y1="1078.77" y2="1078.77"/><text fill="#3C3489" font-family="Verdana" font-size="14" lengthAdjust="spacing" textLength="55.5488" x="1247.09" y="1054.1714">retrying</text><text fill="#3C3489" font-family="Verdana" font-size="14" lengthAdjust="spacing" textLength="62.6172" x="1247.09" y="1070.4682">(backoff)</text></g><!--link reapply to rbwatch--><g class="link" data-entity-1="ent0006" data-entity-2="ent0007" data-link-type="dependency" data-source-line="43" id="lnk23"><path d="M1275.62,895.6163 C1268,907.1363 1261.751,916.5777 1254.101,928.1277" fill="none" id="reapply-to-rbwatch" style="stroke:#737266;stroke-width:1;"/><polygon fill="#737266" points="1251.34,932.2963,1259.6446,927.0016,1254.101,928.1277,1252.9749,922.584,1251.34,932.2963" style="stroke:#737266;stroke-width:1;stroke-linejoin:miter;stroke-miterlimit:10;"/></g><!--link rbwatch to rbretry--><g class="link" data-entity-1="ent0007" data-entity-2="ent0008" data-link-type="dependency" data-source-line="44" id="lnk24"><path d="M1221.49,985.4463 C1217.99,995.9762 1216.38,1008.0463 1221.4,1018.1763 C1225.04,1025.5163 1226.852,1028.6468 1233.092,1034.1568" fill="none" id="rbwatch-to-rbretry" style="stroke:#737266;stroke-width:1;"/><polygon fill="#737266" points="1236.84,1037.4663,1232.7413,1028.5108,1233.092,1034.1568,1227.4461,1034.5075,1236.84,1037.4663" style="stroke:#737266;stroke-width:1;stroke-linejoin:miter;stroke-miterlimit:10;"/><text fill="#444444" font-family="Verdana" font-size="12" lengthAdjust="spacing" textLength="100.0137" x="1222.4" y="1015.3149">NotReady / error</text></g><!--link rbretry to reapply--><g class="link" data-entity-1="ent0008" data-entity-2="ent0006" data-link-type="dependency" data-source-line="45" id="lnk25"><path d="M1311.78,1035.7163 C1316.51,1030.4563 1320.68,1024.5563 1323.4,1018.1763 C1340.71,977.4963 1324.0153,930.7787 1309.0653,900.5287" fill="none" id="rbretry-to-reapply" style="stroke:#737266;stroke-width:1;"/><polygon fill="#737266" points="1306.85,896.0463,1307.2516,905.8869,1309.0653,900.5287,1314.4235,902.3424,1306.85,896.0463" style="stroke:#737266;stroke-width:1;stroke-linejoin:miter;stroke-miterlimit:10;"/><text fill="#444444" font-family="Verdana" font-size="12" lengthAdjust="spacing" textLength="81.0293" x="1331.3" y="963.5149">retry attempt</text></g></g><g class="start_entity" data-qualified-name=".start." data-source-line="19" id="ent0009"><ellipse cx="508" cy="67.6094" fill="#FFFFFF" rx="10" ry="10" style="stroke:#000000;stroke-width:1;"/></g><g class="entity" data-qualified-name="pending" data-source-line="19" id="ent0010"><rect fill="#EEEDFE" height="50" rx="4" ry="4" style="stroke:#534AB7;stroke-width:1;" width="76.9092" x="469.55" y="156.6094"/><line style="stroke:#534AB7;stroke-width:1;" x1="469.55" x2="546.4592" y1="182.9063" y2="182.9063"/><text fill="#3C3489" font-family="Verdana" font-size="14" lengthAdjust="spacing" textLength="56.9092" x="479.55" y="174.6045">pending</text></g><g class="entity" data-qualified-name="approved" data-source-line="21" id="ent0012"><rect fill="#EEEDFE" height="50" rx="4" ry="4" style="stroke:#534AB7;stroke-width:1;" width="86.459" x="861.77" y="285.6094"/><line style="stroke:#534AB7;stroke-width:1;" x1="861.77" x2="948.229" y1="311.9063" y2="311.9063"/><text fill="#3C3489" font-family="Verdana" font-size="14" lengthAdjust="spacing" textLength="66.459" x="871.77" y="303.6045">approved</text></g><g class="entity" data-qualified-name="rejected" data-source-line="22" id="ent0014"><rect fill="#EEEDFE" height="50" rx="4" ry="4" style="stroke:#534AB7;stroke-width:1;" width="77.5586" x="107.22" y="285.6094"/><line style="stroke:#534AB7;stroke-width:1;" x1="107.22" x2="184.7786" y1="311.9063" y2="311.9063"/><text fill="#3C3489" font-family="Verdana" font-size="14" lengthAdjust="spacing" textLength="57.5586" x="117.22" y="303.6045">rejected</text></g><g class="entity" data-qualified-name="provisioned" data-source-line="35" id="ent0020"><rect fill="#EEEDFE" height="50" rx="4" ry="4" style="stroke:#534AB7;stroke-width:1;" width="101.5049" x="94.25" y="928.2294"/><line style="stroke:#534AB7;stroke-width:1;" x1="94.25" x2="195.7549" y1="954.5263" y2="954.5263"/><text fill="#3C3489" font-family="Verdana" font-size="14" lengthAdjust="spacing" textLength="81.5049" x="104.25" y="946.2245">provisioned</text></g><g class="entity" data-qualified-name="failed" data-source-line="52" id="ent0026"><rect fill="#EEEDFE" height="50" rx="4" ry="4" style="stroke:#534AB7;stroke-width:1;" width="58.7871" x="977.61" y="1194.7694"/><line style="stroke:#534AB7;stroke-width:1;" x1="977.61" x2="1036.3971" y1="1221.0663" y2="1221.0663"/><text fill="#3C3489" font-family="Verdana" font-size="14" lengthAdjust="spacing" textLength="38.7871" x="987.61" y="1212.7645">failed</text></g><g class="end_entity" data-qualified-name=".end." data-source-line="68" id="ent0029"><ellipse cx="145" cy="1306.7694" fill="none" rx="11" ry="11" style="stroke:#000000;stroke-width:1;"/><ellipse cx="145" cy="1306.7694" fill="#FFFFFF" rx="6" ry="6" style="stroke:#000000;stroke-width:1;"/></g><g class="entity" data-qualified-name="GMN33" data-source-line="49" id="ent0034"><path d="M1492.64,944.6594 L1492.64,949.2294 L1437.55,953.2294 L1492.64,957.2294 L1492.64,961.7922 A4,4 0 0 0 1496.64,965.7922 L2331.3631,965.7922 A4,4 0 0 0 2335.3631,961.7922 L2335.3631,950.6594 L2325.3631,940.6594 L1496.64,940.6594 A4,4 0 0 0 1492.64,944.6594" fill="#FFFFFF" style="stroke:#000000;stroke-width:1;"/><path d="M2325.3631,940.6594 L2325.3631,948.6594 A2,2 0 0 0 2327.3631,950.6594 L2335.3631,950.6594 L2325.3631,940.6594" fill="#FFFFFF" style="stroke:#000000;stroke-width:1;"/><text fill="#000000" font-family="Verdana" font-size="13" lengthAdjust="spacing" textLength="821.7231" x="1498.64" y="957.7263">Visible to End User in the portal.\nstatus.phase = rolling_back.\nProvisionedResource retains\nappliedParameters throughout.</text></g><g class="entity" data-qualified-name="GMN36" data-source-line="57" id="ent0037"><path d="M239.55,302.0394 L239.55,306.6094 L185.02,310.6094 L239.55,314.6094 L239.55,319.1722 A4,4 0 0 0 243.55,323.1722 L768.4567,323.1722 A4,4 0 0 0 772.4567,319.1722 L772.4567,308.0394 L762.4567,298.0394 L243.55,298.0394 A4,4 0 0 0 239.55,302.0394" fill="#FFFFFF" style="stroke:#000000;stroke-width:1;"/><path d="M762.4567,298.0394 L762.4567,306.0394 A2,2 0 0 0 764.4567,308.0394 L772.4567,308.0394 L762.4567,298.0394" fill="#FFFFFF" style="stroke:#000000;stroke-width:1;"/><text fill="#000000" font-family="Verdana" font-size="13" lengthAdjust="spacing" textLength="511.9067" x="245.55" y="315.1063">Terminal.\nProvisionedResource unchanged (update)\nor not created (create).</text></g><g class="entity" data-qualified-name="GMN39" data-source-line="61" id="ent0040"><path d="M250.72,944.6594 L250.72,949.2294 L196.11,953.2294 L250.72,957.2294 L250.72,961.7922 A4,4 0 0 0 254.72,965.7922 L893.2879,965.7922 A4,4 0 0 0 897.2879,961.7922 L897.2879,950.6594 L887.2879,940.6594 L254.72,940.6594 A4,4 0 0 0 250.72,944.6594" fill="#FFFFFF" style="stroke:#000000;stroke-width:1;"/><path d="M887.2879,940.6594 L887.2879,948.6594 A2,2 0 0 0 889.2879,950.6594 L897.2879,950.6594 L887.2879,940.6594" fill="#FFFFFF" style="stroke:#000000;stroke-width:1;"/><text fill="#000000" font-family="Verdana" font-size="13" lengthAdjust="spacing" textLength="625.5679" x="256.72" y="957.7263">Terminal.\nProvisionedResource written or\nfinalizer removed (delete).\nEmail notification sent.</text></g><g class="entity" data-qualified-name="GMN42" data-source-line="65" id="ent0043"><path d="M1091.19,1211.1994 L1091.19,1215.7694 L1036.71,1219.7694 L1091.19,1223.7694 L1091.19,1228.3322 A4,4 0 0 0 1095.19,1232.3322 L2608.8013,1232.3322 A4,4 0 0 0 2612.8013,1228.3322 L2612.8013,1217.1994 L2602.8013,1207.1994 L1095.19,1207.1994 A4,4 0 0 0 1091.19,1211.1994" fill="#FFFFFF" style="stroke:#000000;stroke-width:1;"/><path d="M2602.8013,1207.1994 L2602.8013,1215.1994 A2,2 0 0 0 2604.8013,1217.1994 L2612.8013,1217.1994 L2602.8013,1207.1994" fill="#FFFFFF" style="stroke:#000000;stroke-width:1;"/><text fill="#000000" font-family="Verdana" font-size="13" lengthAdjust="spacing" textLength="1500.6113" x="1097.19" y="1224.2663">Terminal &#8212; failureReason written.\ncreate: ProvisionedResource not created.\nupdate: ProvisionedResource unchanged\n(previousParameters still operational).\ndelete: CRD target instance may still exist.\nEmail notification sent.</text></g><!--link *start* to pending--><g class="link" data-entity-1="ent0009" data-entity-2="ent0010" data-link-type="dependency" data-source-line="19" id="lnk11"><path d="M508,77.7694 C508,94.8094 508,126.8394 508,151.4994" fill="none" id="*start*-to-pending" style="stroke:#737266;stroke-width:1;"/><polygon fill="#737266" points="508,156.4994,512,147.4994,508,151.4994,504,147.4994,508,156.4994" style="stroke:#737266;stroke-width:1;stroke-linejoin:miter;stroke-miterlimit:10;"/><text fill="#444444" font-family="Verdana" font-size="12" lengthAdjust="spacing" textLength="211.4766" x="509" y="114.748">Web App creates ResourceRequest</text><text fill="#444444" font-family="Verdana" font-size="12" lengthAdjust="spacing" textLength="195.9434" x="516.7666" y="128.7168">(action: create | update | delete)</text></g><!--link pending to approved--><g class="link" data-entity-1="ent0010" data-entity-2="ent0012" data-link-type="dependency" data-source-line="21" id="lnk13"><path d="M546.79,195.0194 C621.22,218.8294 778.8476,269.2563 856.7976,294.1863" fill="none" id="pending-to-approved" style="stroke:#737266;stroke-width:1;"/><polygon fill="#737266" points="861.56,295.7094,854.2062,289.1579,856.7976,294.1863,851.7693,296.7777,861.56,295.7094" style="stroke:#737266;stroke-width:1;stroke-linejoin:miter;stroke-miterlimit:10;"/><text fill="#444444" font-family="Verdana" font-size="12" lengthAdjust="spacing" textLength="147.5625" x="751.0317" y="243.748">Controller &#8212; all required</text><text fill="#444444" font-family="Verdana" font-size="12" lengthAdjust="spacing" textLength="163.5059" x="743.06" y="257.7168">approver decisions present</text></g><!--link pending to rejected--><g class="link" data-entity-1="ent0010" data-entity-2="ent0014" data-link-type="dependency" data-source-line="22" id="lnk15"><path d="M469.15,195.9294 C412.52,215.3994 304.02,252.8694 212,285.6094 C203.27,288.7094 198.6093,290.3815 189.7493,293.6015" fill="none" id="pending-to-rejected" style="stroke:#737266;stroke-width:1;"/><polygon fill="#737266" points="185.05,295.3094,194.875,295.9946,189.7493,293.6015,192.1424,288.4758,185.05,295.3094" style="stroke:#737266;stroke-width:1;stroke-linejoin:miter;stroke-miterlimit:10;"/><text fill="#444444" font-family="Verdana" font-size="12" lengthAdjust="spacing" textLength="131.5371" x="366.25" y="243.748">Controller &#8212; rejection</text><text fill="#444444" font-family="Verdana" font-size="12" lengthAdjust="spacing" textLength="107.0859" x="378.4756" y="257.7168">decision recorded</text></g><!--link approved to provisioning--><g class="link" data-entity-1="ent0012" data-entity-2="ent0001" data-link-type="dependency" data-source-line="24" id="lnk16"><path d="M913.3,336.0894 C919.82,355.2994 927.8836,379.0545 938.1736,409.3845" fill="none" id="approved-to-provisioning" style="stroke:#737266;stroke-width:1;"/><polygon fill="#737266" points="939.78,414.1194,940.6764,404.3114,938.1736,409.3845,933.1005,406.8816,939.78,414.1194" style="stroke:#737266;stroke-width:1;stroke-linejoin:miter;stroke-miterlimit:10;"/><text fill="#444444" font-family="Verdana" font-size="12" lengthAdjust="spacing" textLength="118.7285" x="940.2167" y="372.748">Controller &#8212; begins</text><text fill="#444444" font-family="Verdana" font-size="12" lengthAdjust="spacing" textLength="136.9219" x="931.12" y="386.7168">apply on target cluster</text></g><!--link provisioning to provisioned--><g class="link" data-entity-1="ent0001" data-entity-2="ent0020" data-link-type="dependency" data-source-line="35" id="lnk21"><path d="M848.37,576.1894 C681.69,597.0494 404.67,653.4694 223,804.6894 C183.7,837.4094 162.9705,890.3574 152.9805,923.0674" fill="none" id="provisioning-to-provisioned" style="stroke:#737266;stroke-width:1;"/><polygon fill="#737266" points="151.52,927.8494,157.9744,920.4102,152.9805,923.0674,150.3233,918.0735,151.52,927.8494" style="stroke:#737266;stroke-width:1;stroke-linejoin:miter;stroke-miterlimit:10;"/><text fill="#444444" font-family="Verdana" font-size="12" lengthAdjust="spacing" textLength="75.1055" x="374.743" y="748.828">Controller &#8212;</text><text fill="#444444" font-family="Verdana" font-size="12" lengthAdjust="spacing" textLength="200.1914" x="312.2" y="762.7968">Ready confirmed (create/update)</text><text fill="#444444" font-family="Verdana" font-size="12" lengthAdjust="spacing" textLength="172.5293" x="326.0311" y="776.7655">or absent confirmed (delete)</text></g><!--link provisioning to rolling_back--><g class="link" data-entity-1="ent0001" data-entity-2="ent0005" data-link-type="dependency" data-source-line="37" id="lnk22"><path d="M1109.22,711.9694 C1133.67,742.2794 1156.2607,770.2977 1180.7107,800.6077" fill="none" id="provisioning-to-rolling_back" style="stroke:#737266;stroke-width:1;"/><polygon fill="#737266" points="1183.85,804.4994,1181.3127,794.983,1180.7107,800.6077,1175.086,800.0058,1183.85,804.4994" style="stroke:#737266;stroke-width:1;stroke-linejoin:miter;stroke-miterlimit:10;"/><text fill="#444444" font-family="Verdana" font-size="12" lengthAdjust="spacing" textLength="75.1055" x="1214.5275" y="755.828">Controller &#8212;</text><text fill="#444444" font-family="Verdana" font-size="12" lengthAdjust="spacing" textLength="190.4004" x="1156.88" y="769.7968">retries exhausted (update only)</text></g><!--link rolling_back to failed--><g class="link" data-entity-1="ent0005" data-entity-2="ent0026" data-link-type="dependency" data-source-line="52" id="lnk27"><path d="M1168.42,1074.4994 C1117.87,1119.6794 1068.9478,1163.4072 1038.0378,1191.0372" fill="none" id="rolling_back-to-failed" style="stroke:#737266;stroke-width:1;"/><polygon fill="#737266" points="1034.31,1194.3694,1043.6858,1191.3536,1038.0378,1191.0372,1038.3542,1185.3892,1034.31,1194.3694" style="stroke:#737266;stroke-width:1;stroke-linejoin:miter;stroke-miterlimit:10;"/><text fill="#444444" font-family="Verdana" font-size="12" lengthAdjust="spacing" textLength="75.1055" x="1145.7693" y="1138.908">Controller &#8212;</text><text fill="#444444" font-family="Verdana" font-size="12" lengthAdjust="spacing" textLength="159.1641" x="1103.74" y="1152.8768">pre-update state restored;</text><text fill="#444444" font-family="Verdana" font-size="12" lengthAdjust="spacing" textLength="111.2871" x="1127.6785" y="1166.8455">phase set to failed</text></g><!--link provisioning to failed--><g class="link" data-entity-1="ent0001" data-entity-2="ent0026" data-link-type="dependency" data-source-line="54" id="lnk28"><path d="M993.84,711.8694 C998.01,872.7094 1004.2405,1112.3311 1006.2405,1189.5411" fill="none" id="provisioning-to-failed" style="stroke:#737266;stroke-width:1;"/><polygon fill="#737266" points="1006.37,1194.5394,1010.1356,1185.4388,1006.2405,1189.5411,1002.1383,1185.646,1006.37,1194.5394" style="stroke:#737266;stroke-width:1;stroke-linejoin:miter;stroke-miterlimit:10;"/><text fill="#444444" font-family="Verdana" font-size="12" lengthAdjust="spacing" textLength="75.1055" x="1020.1093" y="943.868">Controller &#8212;</text><text fill="#444444" font-family="Verdana" font-size="12" lengthAdjust="spacing" textLength="105.7441" x="1004.79" y="957.8368">retries exhausted</text><text fill="#444444" font-family="Verdana" font-size="12" lengthAdjust="spacing" textLength="97.1953" x="1009.0644" y="971.8055">(create / delete)</text></g><!--link provisioned to *end*--><g class="link" data-entity-1="ent0020" data-entity-2="ent0029" data-link-type="dependency" data-source-line="68" id="lnk30"><path d="M145,978.6694 C145,1048.5794 145,1242.4294 145,1290.3094" fill="none" id="provisioned-to-*end*" style="stroke:#737266;stroke-width:1;"/><polygon fill="#737266" points="145,1295.3094,149,1286.3094,145,1290.3094,141,1286.3094,145,1295.3094" style="stroke:#737266;stroke-width:1;stroke-linejoin:miter;stroke-miterlimit:10;"/></g><!--link rejected to *end*--><g class="link" data-entity-1="ent0014" data-entity-2="ent0029" data-link-type="dependency" data-source-line="69" id="lnk31"><path d="M122.18,335.9194 C83.42,378.1694 11,469.5094 11,562.1494 C11,562.1494 11,562.1494 11,1220.7694 C11,1278.8994 97.096,1298.1399 129.096,1303.3899" fill="none" id="rejected-to-*end*" style="stroke:#737266;stroke-width:1;"/><polygon fill="#737266" points="134.03,1304.1994,125.7963,1298.7951,129.096,1303.3899,124.5011,1306.6895,134.03,1304.1994" style="stroke:#737266;stroke-width:1;stroke-linejoin:miter;stroke-miterlimit:10;"/></g><!--link failed to *end*--><g class="link" data-entity-1="ent0026" data-entity-2="ent0029" data-link-type="dependency" data-source-line="70" id="lnk32"><path d="M977.33,1223.6994 C837.15,1237.5194 249.3659,1295.4789 161.0059,1304.1889" fill="none" id="failed-to-*end*" style="stroke:#737266;stroke-width:1;"/><polygon fill="#737266" points="156.03,1304.6794,165.379,1307.7772,161.0059,1304.1889,164.5942,1299.8158,156.03,1304.6794" style="stroke:#737266;stroke-width:1;stroke-linejoin:miter;stroke-miterlimit:10;"/></g><?plantuml-src ZLNRRXCn47ttLmpbfK5ABoHfIn18QPg-WQgKomD1oDcT9AORUx6zRKD1uYFuGhw4yMMpkscgDdbPpOoFPywS6J-p2rmYv1aNafah8NEk-HAcFBcQQrN8TAWofU7v-S3zQn76Sejmnu1-fvlHez7ex7mKV4gdgAEzr-aEJe-z_Ln96wsTOQTxyifR1rghcsW-xXo_F3ggpBKJNVzhkYx5JuJ3bzvuQRakOmzEUWVTGsyUhHECnj-rWdp-YT8IDPpKx5AbQ327NgyUpEMLDnumPeND4CPeLA4J7EEF0es5Vt_-miM26tJ945FlUB8G4Xdxyk8hjDjl8KUP2Zc7Fdp6AGpo71AD56aseIPoboTMADcF4V0BYZmD7obcQB75M0dde7cUQtMDAH3uaAZHAikeAfSIppBGX2iqfXCP0pN19CBG5GPoJTLAsy3J-1qJknKlkEZaH9OOP4jSqrF6reduWkdJ1uIgDu2cE1VI-9Io5H0AjN2E5fAiC1OrOq5m3P2Wlk3OyGUTTJW-cyXucY0jbmdk03TGHjHFtN3h-ZA7cT8JEKQUhc0V-DHnu0-L0VL36grsGDGPDoXgDclvsDBkOzVvkDeRAEix0xVX337oNjao0IHLQn-yziV6PZ7Osu5RYylSaf1PWva6tyJ_9jrbgOcICw6N5B4RjBKVbDMQI1gJG4Czg9BRvcqEcxw_EKAsNEVI5QHjl5rmrr32YXfMCbkrolOsKEwQdBVBwYUIH7ejL64kt31IGjf4_dt88_qDeLFlUL9NfzuJkn7qwIkkGSJlQ0-zUQYXqHsQ7-2sj5CgHuUOBooeMOCNGlb4r4zfwLZbTXfyD4Ipe95Pq80eRNcsDt72juNPo_qEUjD08Ez59OvotRWS-7e61QOLkuHCwt6-K8NTOxGOm6N7MADRhfuP5zbMjL73sh7ViT6qs1JjeDVaynaQcbOg9o1iqTU3qFUKHVsBUtA_MeyRTCQ5HbH-GBqKqZEsZPD29WikvvLUmsGGN5p6wybfrPbfNbURnCTllD62L231wNNcukXTqvJnqY_ISWBfy6X9bBZxn4matErWSEFwS1gHsoe3ltYTjT3qs7132F5sWWzLzM5RZhNoAJ8GipropHzrvVxKaXW4FKWgH-qBu9ahB9JOTuiSDlOuBFag7i9ROUpJQAXlGYycUeDPzQX1POmgWuRnFm00?></g></svg>